<svg id="Layer_1" data-name="Layer 1" xmlns="http://www.w3.org/2000/svg" style="fill:#000000" viewBox="0 0 518.61 138.15"><title>dummies-wiley-brand</title><path d="M255.06,2159.09q-6.62,0-9.93,4.52t-3.31,14.7q0,10.05,3.31,14.57t9.93,4.52q13.62,0,13.62-19.09t-13.62-19.22m14.26,44.68a18.66,18.66,0,0,1-8.59,7.19,29.23,29.23,0,0,1-12.15,2.61q-13.37,0-20.62-8.91t-7.26-26.34q0-17.57,7.26-26.48t20.62-8.91a29,29,0,0,1,11.77,2.48,17,17,0,0,1,8.21,6.81v-26.48q0-3.43,3.43-3.44h13.75q3.56,0,3.57,3.44v82.86q0,3.57-3.57,3.56H273.52q-3.06,0-3.56-2.8Z" transform="translate(-220.7 -2122.31)"/><path d="M297.57,2147.89q0-3.44,3.56-3.44h13.74q3.44,0,3.44,3.44v37.16q0,5.73,2.1,8.66t7.44,2.93q5.73,0,8.91-3.56t3.18-9.55v-35.64q0-3.44,3.56-3.44h13.75q3.43,0,3.43,3.44v60.71q0,3.57-3.43,3.56H344.92c-2.13,0-3.35-.94-3.7-2.8l-0.89-5.85q-6.24,10.05-19.86,10.05-11.71,0-17.31-5.92t-5.6-18.52v-41.24Z" transform="translate(-220.7 -2122.31)"/><path d="M430.69,2208.6q0,3.57-3.44,3.56H413.76q-3.44,0-3.44-3.56v-37q0-5.73-2-8.59t-6.75-2.86q-5.47,0-8.46,3.56t-3,9.42v35.51q0,3.57-3.56,3.56H373q-3.56,0-3.56-3.56v-60.71q0-3.44,3.56-3.44h12.35q3.18,0,3.56,2.8l1,5.73q6.62-10.05,20-10.06,14.13,0,18.83,10.69,7-10.69,21.77-10.69,21,0,21,24.95v40.73q0,3.57-3.44,3.56H454.49q-3.56,0-3.56-3.56v-36.91q0-11.58-8.91-11.58-5.47,0-8.4,3.5a13.69,13.69,0,0,0-2.93,9.1v35.89Z" transform="translate(-220.7 -2122.31)"/><path d="M541,2208.6q0,3.57-3.44,3.56H524.1q-3.44,0-3.44-3.56v-37q0-5.73-2-8.59t-6.75-2.86q-5.47,0-8.46,3.56t-3,9.42v35.51q0,3.57-3.57,3.56H483.37q-3.57,0-3.56-3.56v-60.71q0-3.44,3.56-3.44h12.35c2.12,0,3.31.94,3.56,2.8l1,5.73q6.62-10.05,20-10.06,14.13,0,18.83,10.69,7-10.69,21.77-10.69,21,0,21,24.95v40.73q0,3.57-3.43,3.56H564.83c-2.38,0-3.56-1.19-3.56-3.56v-36.91q0-11.58-8.91-11.58-5.47,0-8.4,3.5a13.69,13.69,0,0,0-2.93,9.1v35.89Z" transform="translate(-220.7 -2122.31)"/><path d="M611.4,2208.6q0,3.57-3.43,3.56H594.09q-3.44,0-3.43-3.56v-59.7a4.44,4.44,0,0,1,4.44-4.44H607a4.44,4.44,0,0,1,4.44,4.44v59.71Zm-20.87-82.48q0-3.56,3.44-3.56h14.12q3.44,0,3.44,3.56v1.08a10.37,10.37,0,0,1-10.37,10.37H600.9a10.38,10.38,0,0,1-10.37-10.38v-1.08Z" transform="translate(-220.7 -2122.31)"/><path d="M637.74,2173.48h27.11v-0.89q0-7.13-3.31-11.07t-9.67-3.94q-12.85,0-14.13,15.91m35.76,21.76q3.31-1.53,4.59,2.16l2.29,6.75q0.89,2.8-2.16,4.33a51.06,51.06,0,0,1-23.17,5.22q-17.69,0-27.43-9.23t-9.74-26.16q0-16.93,9-26.16t24.56-9.23q15,0,23.42,8.91t8.4,23.8v6.24q0,3.43-3.56,3.44H638.38a15.56,15.56,0,0,0,5.92,10.12q4.77,3.63,12.54,3.63a38.31,38.31,0,0,0,16.67-3.82" transform="translate(-220.7 -2122.31)"/><path d="M710.54,2213.57a62.62,62.62,0,0,1-22.4-3.69q-3.19-1.27-2.29-4.2l2.16-7.38q0.77-3.31,4.33-2.16a47.66,47.66,0,0,0,14.64,2.42q12,0,12-5.73a5,5,0,0,0-2.74-4.46,46.4,46.4,0,0,0-9.1-3.69q-10.43-3.57-14.12-6.36-7-5.22-7-15.53,0-9.93,7.07-14.89t19.92-5q12.85,0,21,3.44,3.19,1.27,2.29,4.33l-2.16,7.13q-1,3.31-4.33,2.29a46,46,0,0,0-13.62-2.16q-9.8,0-9.8,5.47a5,5,0,0,0,2.74,4.45,59.23,59.23,0,0,0,9.36,4.07q5.22,1.91,8.21,3.31a36.32,36.32,0,0,1,6.3,3.88,14.83,14.83,0,0,1,4.84,6,20.78,20.78,0,0,1,1.53,8.34q0,20.11-28.76,20.11" transform="translate(-220.7 -2122.31)"/><path d="M560.4,2253.76l-1.3-4.26h-6.86l-1.33,4.26h-3.76l6.38-19.48h4.4l6.32,19.48H560.4ZM555.69,2238l-2.63,8.55h5.25Z" transform="translate(-220.7 -2122.31)"/><path d="M574.15,2234.28l3.11,15.25,3.61-14.71h3.84l3.61,14.71,3.11-15.25H595l-4.55,19.48h-4.18l-3.59-14.57-3.64,14.57h-4.18l-4.4-19.48h3.64Z" transform="translate(-220.7 -2122.31)"/><path d="M599.25,2232.62a2.15,2.15,0,1,1-2.12,2.15A2.09,2.09,0,0,1,599.25,2232.62Zm1.75,6.92v14.23h-3.5v-14.23H601Z" transform="translate(-220.7 -2122.31)"/><path d="M608.57,2232.17v21.6h-3.5v-21.6h3.5Z" transform="translate(-220.7 -2122.31)"/><path d="M624.21,2251.73a7.56,7.56,0,0,1-5.84,2.34,6.14,6.14,0,0,1-4.52-1.52c-1.21-1.13-1.81-2.82-1.81-5.53,0-2.31.45-4.55,1.75-6a6,6,0,0,1,4.74-1.86c4.35,0,5.87,2.82,5.87,6.41a14.46,14.46,0,0,1-.14,1.84l-8.72.06c0,2.37.42,3.78,2.91,3.78a5.69,5.69,0,0,0,4-1.61Zm-3.28-6.78c0-1.95-.4-3.11-2.48-3.11s-2.77,1.24-2.82,3.11h5.31Z" transform="translate(-220.7 -2122.31)"/><path d="M635.62,2252.86c-1.38,4.71-3.39,7.59-6.78,7.59a4.84,4.84,0,0,1-2.46-.59l1.13-2.88a2.71,2.71,0,0,0,1.33.31c1.52,0,2.4-1.1,3.22-3.81h-1.81l-4.43-13.95h3.73l3.33,11.91,3-11.91h3.64Z" transform="translate(-220.7 -2122.31)"/><path d="M655.44,2234.28a6.65,6.65,0,0,1,4.15,1.16,4.11,4.11,0,0,1,1.47,3.47,4.33,4.33,0,0,1-3.3,4.6c2.6,0.4,3.67,2.06,3.67,4.57a5.17,5.17,0,0,1-1.86,4.32,7.22,7.22,0,0,1-4.69,1.36h-6.94v-19.48h7.51Zm-4,8.19h2.43c1.95,0,3.36-.62,3.36-3a2.33,2.33,0,0,0-.59-1.83,2.81,2.81,0,0,0-1.78-.42h-3.42v5.22Zm0,8.33h3.16a3.4,3.4,0,0,0,2.29-.62,3.07,3.07,0,0,0,.73-2.29c0-2.12-1-2.63-2.91-2.63h-3.27v5.53Z" transform="translate(-220.7 -2122.31)"/><path d="M668.15,2239.53l0,2.46a3.77,3.77,0,0,1,3.44-2.77,3.89,3.89,0,0,1,.85.08l-0.28,3.42c-0.25,0-.54-0.06-0.73-0.06-2.46,0-3.08,3.13-3.08,6.24v4.86h-3.5v-14.23h3.33Z" transform="translate(-220.7 -2122.31)"/><path d="M674,2241.26a6.89,6.89,0,0,1,5.45-2c3.76,0,5.65,1.47,5.65,5.31v9.23H682v-2.06a4.88,4.88,0,0,1-4.38,2.4,4.3,4.3,0,0,1-3.08-1.13,4.09,4.09,0,0,1-1.19-3.16,3.84,3.84,0,0,1,1.69-3.53,8.45,8.45,0,0,1,5-1.19h1.78v-0.54c0-2-.65-2.6-2.51-2.6a4.49,4.49,0,0,0-3.5,1.36Zm5.76,6.24c-1.89,0-3,.28-3,2.15,0,1.1.37,1.78,1.44,1.78a3.89,3.89,0,0,0,3.61-3.92h-2.06Z" transform="translate(-220.7 -2122.31)"/><path d="M692.37,2239.53V2242a4.57,4.57,0,0,1,4.4-2.85c2.71,0,4.18,1.83,4.18,4.91v9.68h-3.5v-9c0-1.61-.34-2.43-1.52-2.43-1.81,0-3.36,1.86-3.36,6v5.36h-3.5v-14.23h3.3Z" transform="translate(-220.7 -2122.31)"/><path d="M717,2232.17v21.6h-3.3l0-2.15a5.18,5.18,0,0,1-4.46,2.48,4.26,4.26,0,0,1-3.25-1.38c-1.1-1.24-1.64-3-1.64-5.87,0-2.63.45-4.71,1.78-6.07a5.22,5.22,0,0,1,4-1.55,4,4,0,0,1,3.36,1.3v-8.36H717ZM712.19,2250a6.06,6.06,0,0,0,1.41-4.15,3.84,3.84,0,0,0-.93-2.88,2.91,2.91,0,0,0-2.09-.73c-2.17,0-2.6,1.52-2.6,4.52s0.45,4.38,2,4.38A2.82,2.82,0,0,0,712.19,2250Z" transform="translate(-220.7 -2122.31)"/></svg>
