<?xml version="1.0" encoding="utf-8"?>
<!-- Generator: Adobe Illustrator 17.1.0, SVG Export Plug-In . SVG Version: 6.00 Build 0)  -->
<!DOCTYPE svg PUBLIC "-//W3C//DTD SVG 1.1//EN" "http://www.w3.org/Graphics/SVG/1.1/DTD/svg11.dtd">
<svg version="1.1" id="Layer_1" xmlns="http://www.w3.org/2000/svg" xmlns:xlink="http://www.w3.org/1999/xlink" x="0px" y="0px"
	 viewBox="0 0 292 112" enable-background="new 0 0 292 112" xml:space="preserve">
<g>
	<path fill="#FFFFFF" d="M51.5,65.4V50.5h1.7v1.4c0.4-0.6,0.8-1,1.3-1.3c0.5-0.3,1.1-0.4,1.8-0.4c0.9,0,1.7,0.2,2.4,0.7
		c0.7,0.5,1.3,1.1,1.6,2c0.3,0.8,0.6,1.8,0.6,2.9c0,1.1-0.2,2.1-0.6,3c-0.4,0.9-1,1.5-1.7,2c-0.8,0.5-1.5,0.7-2.4,0.7
		c-0.6,0-1.2-0.1-1.7-0.4c-0.5-0.3-0.9-0.6-1.2-1v5.3H51.5z M53.1,56c0,1.4,0.3,2.4,0.8,3.1c0.6,0.7,1.3,1,2,1c0.8,0,1.5-0.3,2.1-1
		c0.6-0.7,0.8-1.7,0.8-3.2c0-1.4-0.3-2.4-0.8-3.1c-0.6-0.6-1.3-1-2-1S54.6,52,54,52.8C53.4,53.5,53.1,54.6,53.1,56z"/>
	<path fill="#FFFFFF" d="M63,61.3V50.5h1.7v1.6c0.4-0.8,0.8-1.3,1.2-1.5c0.3-0.3,0.8-0.3,1.2-0.3c0.6,0,1.3,0.2,1.9,0.6l-0.6,1.7
		c-0.4-0.3-0.9-0.4-1.3-0.4c-0.4,0-0.8,0.1-1,0.3c-0.3,0.2-0.6,0.6-0.7,1c-0.2,0.6-0.3,1.4-0.3,2.2v5.7H63z"/>
	<path fill="#FFFFFF" d="M77.3,57.8l1.9,0.2c-0.3,1.1-0.8,1.9-1.7,2.6c-0.8,0.6-1.8,0.9-3.1,0.9c-1.6,0-2.9-0.5-3.8-1.5
		c-0.9-1-1.4-2.4-1.4-4.1c0-1.8,0.5-3.2,1.4-4.2c0.9-1,2.2-1.5,3.6-1.5c1.5,0,2.6,0.5,3.5,1.5c0.9,1,1.4,2.4,1.4,4.2
		c0,0.1,0,0.3,0,0.5h-8.1c0.1,1.2,0.4,2.1,1,2.7c0.6,0.6,1.3,1,2.2,1c0.7,0,1.3-0.2,1.7-0.6C76.6,59.2,77,58.6,77.3,57.8z
		 M71.3,54.9h6c-0.1-0.9-0.3-1.6-0.7-2c-0.6-0.7-1.3-1-2.3-1c-0.8,0-1.5,0.3-2.1,0.8C71.7,53.2,71.3,53.9,71.3,54.9z"/>
	<path fill="#FFFFFF" d="M80.7,58.1l1.8-0.3c0.1,0.7,0.4,1.3,0.8,1.7c0.4,0.4,1.1,0.6,1.9,0.6c0.8,0,1.5-0.1,1.9-0.5
		c0.4-0.3,0.6-0.8,0.6-1.2s-0.2-0.8-0.6-1c-0.3-0.1-0.9-0.3-1.9-0.6c-1.3-0.3-2.3-0.6-2.8-0.9c-0.5-0.3-0.9-0.6-1.2-1
		c-0.3-0.4-0.4-0.9-0.4-1.5c0-0.5,0.1-0.9,0.3-1.3c0.2-0.4,0.5-0.8,0.9-1c0.3-0.2,0.7-0.4,1.2-0.6c0.5-0.1,1-0.2,1.6-0.2
		c0.8,0,1.6,0.1,2.2,0.3c0.6,0.3,1.1,0.6,1.4,1c0.3,0.4,0.5,1,0.6,1.7l-1.8,0.3c-0.1-0.6-0.3-1-0.7-1.3c-0.4-0.3-0.9-0.5-1.7-0.5
		c-0.8,0-1.5,0.1-1.8,0.4c-0.3,0.3-0.6,0.6-0.6,1c0,0.2,0.1,0.4,0.2,0.6c0.1,0.2,0.3,0.3,0.7,0.5c0.2,0.1,0.7,0.2,1.6,0.5
		c1.3,0.3,2.2,0.6,2.7,0.8c0.5,0.2,0.9,0.6,1.2,1c0.3,0.4,0.4,1,0.4,1.5c0,0.6-0.2,1.2-0.6,1.7c-0.3,0.6-0.8,1-1.5,1.3
		c-0.7,0.3-1.5,0.4-2.3,0.4c-1.4,0-2.4-0.3-3.2-0.9C81.2,59.9,80.9,59.2,80.7,58.1z"/>
	<path fill="#FFFFFF" d="M99.2,57.8l1.9,0.2c-0.3,1.1-0.8,1.9-1.7,2.6s-1.8,0.9-3.1,0.9c-1.6,0-2.9-0.5-3.8-1.5
		c-0.9-1-1.4-2.4-1.4-4.1c0-1.8,0.5-3.2,1.4-4.2c0.9-1,2.2-1.5,3.6-1.5c1.5,0,2.6,0.5,3.5,1.5c0.9,1,1.4,2.4,1.4,4.2
		c0,0.1,0,0.3,0,0.5h-8.1c0.1,1.2,0.4,2.1,1,2.7s1.3,1,2.2,1c0.7,0,1.3-0.2,1.7-0.6C98.6,59.2,99,58.6,99.2,57.8z M93.3,54.9h6
		c-0.1-0.9-0.3-1.6-0.7-2c-0.6-0.7-1.3-1-2.3-1c-0.8,0-1.5,0.3-2.1,0.8C93.6,53.2,93.3,53.9,93.3,54.9z"/>
	<path fill="#FFFFFF" d="M103.4,61.3V50.5h1.7v1.5c0.8-1.2,1.9-1.8,3.4-1.8c0.6,0,1.3,0.1,1.8,0.3c0.6,0.2,1,0.6,1.3,0.9
		c0.3,0.3,0.5,0.8,0.6,1.3c0.1,0.3,0.1,0.9,0.1,1.8v6.6h-1.8v-6.5c0-0.8-0.1-1.3-0.2-1.7c-0.1-0.3-0.4-0.7-0.8-0.9
		c-0.3-0.2-0.8-0.3-1.3-0.3c-0.8,0-1.5,0.3-2,0.8c-0.6,0.5-0.8,1.5-0.8,2.8v5.9H103.4z"/>
	<path fill="#FFFFFF" d="M118.9,59.7l0.3,1.6c-0.5,0.1-1,0.1-1.4,0.1c-0.7,0-1.2-0.1-1.5-0.3c-0.3-0.2-0.6-0.5-0.8-0.8
		c-0.1-0.3-0.2-1-0.2-2.2v-6.2H114v-1.4h1.3v-2.6l1.8-1.1v3.8h1.8v1.4h-1.8v6.3c0,0.5,0,0.8,0.1,1c0.1,0.1,0.1,0.3,0.3,0.3
		c0.1,0.1,0.3,0.1,0.6,0.1C118.4,59.7,118.6,59.7,118.9,59.7z"/>
	<path fill="#FFFFFF" d="M128.1,57.8l1.9,0.2c-0.3,1.1-0.8,1.9-1.7,2.6c-0.8,0.6-1.8,0.9-3.1,0.9c-1.6,0-2.9-0.5-3.8-1.5
		c-0.9-1-1.4-2.4-1.4-4.1c0-1.8,0.5-3.2,1.4-4.2c0.9-1,2.2-1.5,3.6-1.5c1.5,0,2.6,0.5,3.5,1.5c0.9,1,1.4,2.4,1.4,4.2
		c0,0.1,0,0.3,0,0.5H122c0.1,1.2,0.4,2.1,1,2.7c0.6,0.6,1.3,1,2.2,1c0.7,0,1.3-0.2,1.7-0.6C127.5,59.2,127.8,58.6,128.1,57.8z
		 M122.1,54.9h6c-0.1-0.9-0.3-1.6-0.7-2c-0.6-0.7-1.3-1-2.3-1c-0.8,0-1.5,0.3-2.1,0.8C122.5,53.2,122.2,53.9,122.1,54.9z"/>
	<path fill="#FFFFFF" d="M139.3,61.3v-1.4c-0.7,1-1.7,1.6-3,1.6c-0.8,0-1.7-0.2-2.4-0.7c-0.7-0.5-1.3-1.1-1.7-2
		c-0.4-0.8-0.6-1.8-0.6-2.9c0-1,0.2-2,0.6-2.9c0.3-0.9,0.9-1.5,1.6-2c0.7-0.5,1.5-0.7,2.4-0.7c0.6,0,1.3,0.1,1.7,0.4
		c0.5,0.3,0.9,0.6,1.3,1v-5.4h1.8v15H139.3z M133.5,55.9c0,1.4,0.3,2.4,0.9,3.1s1.3,1,2.1,1c0.8,0,1.5-0.3,2-1
		c0.6-0.6,0.8-1.7,0.8-3c0-1.5-0.3-2.6-0.8-3.3c-0.6-0.7-1.3-1-2.1-1c-0.8,0-1.5,0.3-2,1C133.9,53.3,133.5,54.5,133.5,55.9z"/>
	<path fill="#FFFFFF" d="M151.3,61.3h-1.7V46.4h1.8v5.3c0.8-1,1.7-1.5,2.9-1.5c0.7,0,1.3,0.1,1.9,0.4c0.6,0.3,1.1,0.6,1.5,1.1
		c0.3,0.5,0.7,1,0.9,1.7c0.2,0.7,0.3,1.4,0.3,2.2c0,1.9-0.5,3.3-1.4,4.3c-0.9,1-2,1.5-3.3,1.5s-2.3-0.6-3-1.6L151.3,61.3L151.3,61.3
		z M151.3,55.8c0,1.3,0.2,2.2,0.6,2.8c0.6,1,1.3,1.4,2.4,1.4c0.8,0,1.5-0.3,2.1-1c0.6-0.7,0.9-1.7,0.9-3.1s-0.3-2.4-0.8-3.1
		c-0.6-0.7-1.3-1-2-1c-0.8,0-1.5,0.3-2.1,1C151.5,53.5,151.3,54.5,151.3,55.8z"/>
	<path fill="#FFFFFF" d="M161.1,65.4l-0.2-1.7c0.4,0.1,0.8,0.1,1,0.1c0.4,0,0.8-0.1,1-0.2c0.3-0.1,0.4-0.3,0.6-0.6
		c0.1-0.2,0.3-0.6,0.6-1.4c0-0.1,0.1-0.3,0.1-0.4l-4.1-10.8h1.9l2.2,6.3c0.3,0.8,0.6,1.6,0.8,2.5c0.2-0.8,0.5-1.7,0.8-2.4l2.3-6.3
		h1.8l-4.1,11c-0.4,1.2-0.8,2-1,2.4c-0.3,0.6-0.7,1-1.1,1.3c-0.4,0.3-0.9,0.4-1.5,0.4C161.9,65.6,161.5,65.6,161.1,65.4z"/>
</g>
<g>
	<path id="Globe" fill="#FFFFFF" d="M196,75.7c4.2,3.3,9.6,5.3,15.3,5.3c6.3,0,12.1-2.3,16.5-6.2c0.1,0,0-0.1,0,0
		c-2,1.3-7.6,4.2-16.4,4.2C203.7,78.9,198.8,77.2,196,75.7C196,75.7,196,75.7,196,75.7 M213.1,77c6.2,0,12.9-1.7,17-5
		c1.1-0.9,2.2-2.1,3.1-3.7c0.5-0.9,1.1-2,1.5-3.1c0-0.1,0-0.1-0.1,0c-3.8,5.5-14.6,9-25.9,9c-7.9,0-16.5-2.5-19.8-7.4c0,0-0.1,0,0,0
		C191.9,73.4,201.4,77,213.1,77 M206.4,66c-12.8,0-18.8-6-19.9-10c0-0.1-0.1,0-0.1,0c0,1.4,0.1,3.1,0.4,4.3c0.1,0.6,0.6,1.5,1.3,2.2
		c3.1,3.2,10.8,7.8,24.2,7.8c18.2,0,22.4-6.1,23.2-8.1c0.6-1.4,0.9-4,0.9-6.2c0-0.5,0-0.9,0-1.4c0-0.1,0-0.1-0.1,0
		C235.4,59.5,219.8,66,206.4,66 M188.8,45.3c-0.7,1.5-1.5,3.9-1.8,5.2c-0.1,0.5-0.1,0.8,0.1,1.2c1.5,3.3,9.3,8.5,27.4,8.5
		c11,0,19.6-2.7,21-7.7c0.3-0.9,0.3-1.9-0.1-3.2c-0.4-1.4-1.1-3.1-1.6-4.3c0,0-0.1,0,0,0c0.2,6.5-17.9,10.7-27,10.7
		c-9.9,0-18.1-3.9-18.1-8.9C188.6,46.3,188.7,45.8,188.8,45.3C188.8,45.2,188.8,45.2,188.8,45.3 M227.9,37.3
		c0.1,0.2,0.2,0.3,0.2,0.6c0,2.8-8.5,7.7-22,7.7c-9.9,0-11.8-3.7-11.8-6c0-0.8,0.3-1.7,1-2.6c0-0.1,0-0.1,0,0
		c-1.3,1.1-2.5,2.3-3.5,3.7c-0.5,0.6-0.8,1.2-0.8,1.5c0,4.9,12.2,8.4,23.6,8.4c12.1,0,17.6-4,17.6-7.4c0-1.2-0.5-2-1.7-3.4
		C229.5,38.8,228.7,38,227.9,37.3C227.9,37.2,227.9,37.3,227.9,37.3 M224.2,34.5c-3.7-2.2-8.1-3.5-12.8-3.5c-4.7,0-9.2,1.3-13,3.6
		c-1.1,0.7-1.8,1.3-1.8,2c0,2.1,4.9,4.4,13.7,4.4c8.6,0,15.4-2.5,15.4-4.9C225.7,35.5,225.2,35.1,224.2,34.5"/>
</g>
</svg>
