<?xml version="1.0" encoding="utf-8"?>
<!-- Generator: Adobe Illustrator 18.0.0, SVG Export Plug-In . SVG Version: 6.00 Build 0)  -->
<!DOCTYPE svg PUBLIC "-//W3C//DTD SVG 1.1//EN" "http://www.w3.org/Graphics/SVG/1.1/DTD/svg11.dtd">
<svg version="1.1" id="NYY" xmlns="http://www.w3.org/2000/svg" xmlns:xlink="http://www.w3.org/1999/xlink" x="0px" y="0px"
	 viewBox="0 0 482.8 168" enable-background="new 0 0 482.8 168" xml:space="preserve">
<g>
	<path fill="#FFFFFF" d="M17.8,39C8,39,0,47,0,56.8v54.3C0,121,8,129,17.8,129h429.6c9.8,0,17.8-8,17.8-17.8V56.8
		c0-9.8-8-17.8-17.8-17.8H17.8z"/>
	<path fill="#132448" d="M17.8,43.4c-7.4,0-13.5,6-13.5,13.5v54.3c0,7.4,6,13.5,13.5,13.5h429.6c7.4,0,13.4-6,13.4-13.5V56.8
		c0-7.4-6-13.5-13.4-13.5H17.8z"/>
	<g>
		<path fill="#C4CED4" d="M303.8,96.3c0,3.7-3,6.8-6.8,6.8c-3.8,0-6.8-3.1-6.8-6.8c0-3.8,3-6.8,6.8-6.8
			C300.8,89.5,303.8,92.5,303.8,96.3z"/>
		<g>
			<path fill="#FFFFFF" d="M57.2,70.9l-15.3,37.1c-2.2,5.3-4.7,6.6-9.8,6.6c-2.1,0-4.3-0.1-6.5-0.2v-7.4c1.3,0.1,2.7,0.2,4,0.2
				c2.2,0,3.3-1.1,4.3-3.3l0.9-2.3L21.7,70.9h10l8,21.1l7.7-21.1H57.2z"/>
			<path fill="#FFFFFF" d="M59.6,80.7c1.1-9.8,9-10.9,16.5-10.9c13.2,0,16,4.9,16,10.8v15.8c0,2.8,0.4,4.8,1.1,6.4h-9.2
				c-0.3-1.1-0.6-2.3-0.6-3.4c-3.1,3.6-9,4.6-13.1,4.6c-7.3,0-12.4-2.9-12.4-10.4c0-7.7,6-9.4,11.6-9.8l9.8-0.8
				c2.8-0.2,3.7-0.8,3.7-3.3c0-2.6-1.9-3.8-7.2-3.8c-3.9,0-5.9,0.4-7.2,4.8H59.6z M83.2,87.3c-1.7,1-3.6,1.2-5.4,1.4l-5.3,0.5
				c-3.2,0.3-4.9,1.3-4.9,4.2c0,2.8,2.3,4.5,5.8,4.5c4.6,0,9.8-2.6,9.8-7.9V87.3z"/>
			<path fill="#FFFFFF" d="M121.3,84.7c0-4.4-2-6.5-6.2-6.5c-4.3,0-7.9,2.4-7.9,9.2v15.4h-9.2V70.9h8.9v4.6h0.1
				c1.7-2.7,6.1-5.5,11.4-5.5c4.7,0,12,2.1,12,11.5v21.2h-9.2V84.7z"/>
			<path fill="#FFFFFF" d="M136.8,59.6h9.2v23.2l12.2-11.9h12.8l-13.3,12.1l14.1,19.8h-12.1l-9.1-13.3l-4.5,4.1v9.2h-9.2V59.6z"/>
			<path fill="#FFFFFF" d="M208.8,93.3c-2.7,7.6-9,10.7-17.4,10.7c-11.1,0-18.5-5.1-18.5-17.1c0-12,7.4-17.1,18.5-17.1
				c12.1,0,17.9,7,17.9,19v1h-26.9v0.1c0,3,2.7,7.7,9,7.7c3.7,0,6.3-1.4,7.6-4.2H208.8z M199.8,83.5v-0.1c0-1.7-1.9-7.1-8.7-7.1
				c-7.3,0-8.8,6.3-8.8,7.1v0.1H199.8z"/>
			<path fill="#FFFFFF" d="M248.3,93.3c-2.7,7.6-9,10.7-17.4,10.7c-11.1,0-18.5-5.1-18.5-17.1c0-12,7.4-17.1,18.5-17.1
				c12.1,0,17.9,7,17.9,19v1h-26.9v0.1c0,3,2.7,7.7,9,7.7c3.7,0,6.3-1.4,7.6-4.2H248.3z M239.3,83.5v-0.1c0-1.7-1.9-7.1-8.7-7.1
				c-7.3,0-8.8,6.3-8.8,7.1v0.1H239.3z"/>
			<path fill="#FFFFFF" d="M262,93c0.4,2.7,2.1,4.5,6.8,4.5c4.2,0,6.6-1.1,6.6-3.5c0-1.8-0.8-2.5-5.2-3.2l-8.4-1.3
				c-5.8-0.9-9.2-3-9.2-9c0-8.6,7.7-10.7,15.3-10.7c12.9,0,15.9,4.8,16.5,10.8h-10.1c-0.5-3.3-3.5-4.2-6.2-4.2c-2.4,0-6,0.2-6,3.4
				c0,1.5,0.7,2.5,4.6,3l6.4,0.8c9.3,1.1,12.4,4.3,12.4,9.8c0,9.5-9.3,10.8-17.3,10.8c-10.6,0-16-3.5-16.4-11.1H262z"/>
			<path fill="#C4CED4" d="M334.4,82.7c-1.1-4.2-3.9-5.6-7.6-5.6c-5.7,0-9,3.5-9,9.7c0,6.2,3.3,9.8,9,9.8c4.1,0,7.1-2.5,7.6-6.5h9.5
				c-1.7,11.3-8.8,13.9-17.9,13.9c-10.5,0-17.7-5.1-17.7-17.1c0-12,7.4-17.1,18.5-17.1c7.1,0,15.4,2.4,17.1,13H334.4z"/>
			<path fill="#C4CED4" d="M366.4,69.8c11.1,0,18.5,5.1,18.5,17.1c0,12-7.4,17.1-18.5,17.1c-11.1,0-18.5-5.1-18.5-17.1
				C348,74.9,355.4,69.8,366.4,69.8z M366.4,96.6c5.7,0,9-3.5,9-9.8c0-6.2-3.3-9.7-9-9.7c-5.7,0-9,3.5-9,9.7
				C357.5,93.1,360.8,96.6,366.4,96.6z"/>
			<path fill="#C4CED4" d="M432.3,83.7c0-4.3-3-5.5-5.6-5.5c-3.8,0-6.9,2.4-6.9,7.4v17.3h-9.2V83.7c0-4.3-3-5.5-5.5-5.5
				c-3.9,0-7,2.4-7,7.4v17.3h-9.2V70.9h8.9v4.6h0.1c1.7-2.7,6.1-5.5,11.4-5.5c5.3,0,8.3,2.4,9.7,6c2.6-3.8,6.4-6,11.5-6
				c5.6,0,11.1,2.7,11.1,11.1v21.6h-9.2V83.7z"/>
		</g>
	</g>
	<g>
		<polygon fill="#FFFFFF" points="474.2,121.4 472.1,121.4 472.1,126.9 470.3,126.9 470.3,121.4 468.2,121.4 468.2,119.9 
			474.2,119.9 		"/>
		<polygon fill="#FFFFFF" points="475,119.9 477.7,119.9 478.9,124.5 478.9,124.5 480.1,119.9 482.8,119.9 482.8,126.9 481.1,126.9 
			481.1,121.6 481.1,121.6 479.6,126.9 478.2,126.9 476.7,121.6 476.7,121.6 476.7,126.9 475,126.9 		"/>
	</g>
</g>
</svg>
