<?xml version="1.0" encoding="utf-8"?>
<!-- Generator: Adobe Illustrator 18.0.0, SVG Export Plug-In . SVG Version: 6.00 Build 0)  -->
<!DOCTYPE svg PUBLIC "-//W3C//DTD SVG 1.1//EN" "http://www.w3.org/Graphics/SVG/1.1/DTD/svg11.dtd">
<svg version="1.1" id="NYY" xmlns="http://www.w3.org/2000/svg" xmlns:xlink="http://www.w3.org/1999/xlink" x="0px" y="0px"
	 viewBox="0 0 591 168" enable-background="new 0 0 591 168" xml:space="preserve">
<g>
	<g>
		<g>
			<g>
				<path fill="#FFFFFF" d="M137.2,60.7c-0.9,0.2-0.6,1.1,0.3,1.8c0.9,0.7,2.8,2.5,3,5.6c1,14.2-20.3,30-24.5,26.3
					c-2-1.8,5.6-12.9,10.5-21.9c1.2-2.3,1.5-3.6-2.4-3.4c-3.9,0.2-3.5,0.9-4.7,3.2c-3.1,5.9-5,9.6-8.3,15.1
					c-4.1,6.7-9.8,9.2-11.5,7.9c-3.6-2.8,4.1-13.6,9.6-21.8c2.4-3.6,0.1-4.1-1.6-4c-1.2,0.1-3.3-0.8-3.8,0.1c-3,5.7-7.1,11-8.9,15.9
					c-5.9,8.9-16.3,13.3-21,8c-1.5-1.6-1.8-3.9-1.5-6.4c10.1,0,23-7.4,19.1-15.7C87.4,63,66.3,74,66.2,86.8
					c-1.4,0.8-4.1,2.4-6.2,4.5c-1.7,1.7-5.6,3.6-7.1,2.3c-9.2-7.8,31.9-40,18.9-55.2c-7.2-8.5-20.4,3.8-27.4,11.2
					c0,0,3.8-10.6,5.7-14.1c0.6-1.1-0.5-2-1.3-1.1c-2.1,2-5.7,3.4-12,3.7h-0.6c-6.5,0-26.4-11.4-35.9,4.6c-0.6,1-0.1,2.2,0.9,1.1
					c2.2-2.3,6.1-3.9,10.7-3.8c10.1,0.2,23.1,5.4,35.2-2C32.6,65.1,17.7,90.8,16,93.5c-1.8,2.7,0.2,3.6,2.2,3.6c2,0,3.9,0.2,5-2
					c1.1-2.3,15-31.1,19.5-38.6c4.4-7.5,20.3-24,26.4-17.6c8.6,9-34.7,45.4-19.8,56.4c3.9,2.9,8.2,0.5,11.5-2.3
					c2.3-1.9,3.8-3.1,5.7-4c0.3,1.5,0.8,3,1.7,4.5c4,6.3,16.1,7.2,25.5-3.4l0.2-0.6c-0.2,2.1,0.2,4.2,1.6,6.2
					c2.3,3.4,9,2.8,15.7-4.2c0.3,2.1,2.1,4.1,2.6,4.5c6.7,6.3,31.2-13,30.5-28.4C143.9,61,138.1,60.5,137.2,60.7z M87.6,71.2
					c2.9,2.6-4.7,13.9-14.8,14.1C75,77.1,83.8,67.8,87.6,71.2z"/>
				<path fill="#FFFFFF" d="M558.8,68.4c-2.1,1.4-4.5,3.9-4.7,7.5c-0.2,6.1,8.6,7.1,9.2,12.6c1,8.7-16.4,9.2-16.2,0.1
					c0.2-0.8,0.3-1,0.9-1.2c2.3-0.8,4.4-3.3,2.8-5.2c-0.9-1.2-3.9-0.8-5.3,2.1c0,0,0,0,0,0c-4,7.6-13.7,14.4-18.2,10.2
					c-1.9-1.8-2.2-4.9-1.5-8.4c6.5-0.8,13.9-3.8,17.2-7.9c4.4-5.5,0.5-14-7.8-11.4c-6.5,2.1-14.4,10.9-15.5,19.1
					c-4.8,7.6-13.8,12.1-17.8,8.6c-2-1.7-2.3-4.9-1.5-8.4c6.5-0.8,13.6-4,17-8.2c4.4-5.5,0.8-13.8-7.5-11.2
					c-6.2,2-13.7,10.1-15.3,18c-5.2,7.7-16.2,12.5-17.6,10.4c-1.8-2.8,6.7-8.7,2.3-15.8c-0.4-0.7-0.9-1.2-1.4-1.6
					c3.2-3.7,6.1-8.2,9.5-8c1.8,0.1,1.9,1.5,1.9,1.5c-0.9,0.2-1.4,0.8-1.7,1.2c-1.3,1.6,0.1,4.8,2.9,3.5c1-0.5,2-1.7,2.1-2.9
					c0.3-2.6-2.9-4.8-5-4.7c-5.1,0.1-8.4,4.8-11.6,8.4c-1.8-0.7-3.8-0.6-5.4-0.3c9-19.5,21.1-43.5,29.5-37.7
					c4.6,3.1-1.4,12.4-4.8,14.1c-1.1,0.6-0.9,0.7-0.4,0.8c1.6,0.4,5.6-1,7.7-4.1c2.2-3.3,2-9.1-0.8-11.8c-6.4-6.1-19.2,4.5-25,14.1
					c-5.4,8.7-11.2,19.7-15.8,29.9c-2.4,2.2-5.8,5.7-7.1,7.1c-3.3,3.3-7.7,6.7-9.8,5.8c-5.7-2.5,17.1-19.4,4.8-24.7
					c-5.5-2.4-11.8,2.8-14.6,5.8c0.5-1,0.3-4.4-2.3-5.8c-6.7-3.6-12.5,4-17.7,13.3C410,90.5,405,97.3,401.5,96
					c-4-1.4,9.3-20.9,11.2-23.6c1.9-2.8,1.9-3.1-0.5-3.2c-1.8,0-3.2,0.1-4.2,0.2c-0.8,0.1-1.4,0.1-2.4,2c-0.2,0.4-0.5,0.9-0.8,1.4
					c-0.3-0.9-1.4-1.9-2.1-2.5c-8.3-6.6-23.4,5.6-25.5,16.9c-2.7,2.4-7,4.9-11.9,7.4c0,0-0.1,0-0.1,0.1c0.5-1.3,1.1-2.6,1.6-4
					c8.5-21.7,13.9-43,26.5-50.5c0.8-0.5,0.8-1.7-0.9-1.1c-8.8,4.4-17.2,13.9-23.4,27c-1,2-3.8,8.4-6.9,16.3
					c-7.7,7.5-19.6,16.5-24.3,11c-7.9-9.1,30.4-52,30.8-52.7s0.2-1.6-0.7-1.1c-0.9,0.5-2.4,0.9-7.8,0.9c-5.3,0-16.2-4.4-24.6-3.4
					c-8.1,1-13.5,7.6-14.1,9c-0.5,1.2-0.4,2.4,0.2,1.8c1.2-1.2,5.8-5.3,12-5.8c7.1-0.6,14.3,1.7,19.4,1.9c3.4,0.1,5.6,0.1,8.8-0.7
					c0.2-0.1,1.1-0.4,0.4,0.5c-5.4,7.1-12.8,12.6-16.4,16.4c-12.6,13.2-19,26.1-11.6,35c2.7,3.3,9.9,4.7,20.3-3.8
					c3.8-3.2,5.5-4.6,6.1-5c0,0,0,0.1-0.1,0.1c-1.6,4.2-3.1,8.5-4.7,12.6c-7,4.3-16.6,6.7-26.1,15.1c-11,9.8-7,27.2,12.9,14.4
					c9.3-6.1,15.8-17.9,21.3-30.9c4.9-2.4,10.1-5.1,13.1-7.4c0.1,2.4,0.9,4.7,2.7,6.7c3.1,3.4,10.5,1.6,15.8-4.8
					c0.1,2.5,1.1,4.9,3.2,5.7c6.9,2.9,12.5-5.7,17.2-14c3.7-6.5,6.8-10.6,9.9-12.2c3.2-1.7,4.6,0.7,3.5,2.9c-3,6-7.7,14.1-11.6,21.4
					c-0.7,1.4,0.3,1.5,1,1.5c0.7,0,2.6,0,3.8,0.1c1.2,0.1,2.1-0.6,3.2-3.4c1-2.3,7.9-14.7,7.9-14.7c4.9-6.7,10.8-10,13.4-7.9
					c2.5,2-6.6,11.3-8.9,17.9c-0.9,2.6,0.1,9.3,7.2,7.3c1.9-0.5,5-2,8.4-5.5c2.6-2.7,4.4-4.3,5.3-5c-1.2,2.9-2.4,5.8-3.4,8.5
					c0,0.2-1.4,2.5,2.4,2c3-0.3,3.6-1.2,4.9-3.7c1.5-3,3.3-7,5.3-11.3c2.8,1.1,5.2,0.1,7.3-1.7c0.8,2.8-6,8.9-3.5,14.8
					c1,2.5,4,4.4,10,1.8c4.9-2.1,10.2-6.3,12.3-8.8c0.1,2.6,0.9,5.1,2.7,7.2c4,4.4,13.9,3.8,22.6-6.2c0.2,2.3,1.1,4.4,2.8,6.2
					c5.1,5.5,15.2,2.3,22.5-6.9c0,0.3,0,0.5,0,0.7c1.1,10.5,19.4,10.6,23.5,0.7c3.7-9-9.6-10.7-8.8-16.6c0.9-6.7,12.1-6.5,12.3-0.9
					c0,0.2-0.2,0.6-0.5,0.6c-0.6,0.1-1.3,0.1-1.9,0.4c-3.5,1.8-2,6.2,2.1,4.8c1.6-0.5,3.2-2.4,3.2-4
					C575.1,66.4,564.8,64.4,558.8,68.4z M339.1,127.4c-9.5,7.2-13.6,3.2-10.9-3.5c2.4-5.9,10.5-12.6,26.3-21.4
					C350.5,112.8,346.1,122.1,339.1,127.4z M396.6,87.1c-0.4,0.6-0.6,1.4-0.8,2.2c-3.4,5.2-10.5,9.3-13.2,6.1
					c-3.7-4.3,10.1-29.1,19-23.3c1.1,0.7,1.5,2.3,1.5,3.9C401,79.3,398.6,83.1,396.6,87.1z M470,80.9c-0.7,0-1-0.3-1.1-0.7
					c0.2-0.5,0.4-0.9,0.6-1.4c0.2-0.1,0.4-0.3,0.7-0.3c1.3-0.2,2.5,0.1,3.6,0.6C472.6,80.1,471.4,80.9,470,80.9z M515.5,68.9
					c4.5,2.8-3.3,13.9-14.6,15.1C503.5,75.6,511.1,66.2,515.5,68.9z M540.8,68.9c3.9,2.4-3.3,13.8-14.6,15.1
					C528.8,75.6,536.4,66.2,540.8,68.9z"/>
			</g>
		</g>
		<g>
			<path fill="#FFFFFF" d="M581.3,65.3h-2.1v5.8h-1.4v-5.8h-2.1V64h5.7V65.3z M591,71.1h-1.4v-5.6h0l-2,5.6h-1.4l-2-5.6h0v5.6h-1.4
				V64h2.5l1.6,4.6h0l1.7-4.6h2.5V71.1z"/>
		</g>
	</g>
	<path fill="#FFFFFF" d="M310.4,38c-6.5-6.1-19.2,4.5-25,14.1c-5.5,9-11.5,20.2-16.2,30.8c-3.4,3.9-8,8-12.2,9.9c-4.4,2-5.2,0-4-2.5
		c1.8-3.8,9.2-9.4,8.7-16.8c-0.3-4.6-5.9-5.8-9.7-5.8c0.7-2.5,0.4-4.6-0.8-5.9c-1.8-2-4.2-1.4-5.5-0.2c-1.2,1.2-2,4.3,0.6,6.8
		c0.8,0.8,1.9,1.1,3,1.3c-2,4-4,7-7.1,8.5c-1.9,1-3.5,1.4-4.8,1.7c0.5-1.4,0.9-2.8,1.1-4.2c0.8-5-3.7-7.1-6.3-5.6
		c0-0.1-0.2-0.3-1-0.9c-6.2-4.8-17.8,5-20.7,14.8c-0.2,0.2-0.3,0.3-0.5,0.5c-2.5,2.5-6.7,5.1-11.5,8c0.3-0.7,0.6-1.5,0.9-2.2
		c8.5-21.7,13.9-43,26.5-50.5c0.8-0.5,0.8-1.7-0.9-1.1c-8.8,4.4-17.2,14-23.4,27c-1,2-3.8,8.4-6.9,16.3c-7.7,7.5-19.6,16.4-24.3,11
		c-7.9-9.1,30.4-52,30.8-52.7c0.4-0.7,0.2-1.6-0.7-1.1c-0.9,0.5-2.4,0.9-7.8,0.9c-5.4,0-16.2-4.4-24.6-3.4c-8.1,1-13.5,7.6-14.1,9
		c-0.5,1.2-0.3,2.4,0.2,1.8c1.2-1.2,5.8-5.3,12-5.8c7.1-0.6,14.3,1.7,19.4,1.9c3.4,0.1,5.6,0.1,8.8-0.7c0.2-0.1,1.1-0.4,0.4,0.5
		c-5.4,7.1-12.8,12.6-16.4,16.4c-12.6,13.2-19,26.1-11.6,35c2.7,3.3,9.9,4.7,20.3-3.8c3.8-3.2,5.6-4.6,6-5c0,0.1,0,0.1-0.1,0.1
		c-1.6,4.2-3.1,8.5-4.7,12.6c-7,4.3-16.6,6.7-26,15.1c-11.1,9.8-7,27.2,12.8,14.4c9.5-6.2,16.1-18.5,21.7-31.8
		c4.9-3,10-6.3,12.7-8.6c0.1,0,0.1-0.1,0.2-0.1c-0.2,2.8,0.5,5.4,2.4,7.5c6.8,7.4,18.9-2.1,24-12.6c1.9-0.1,4.2-0.9,6.9-2.5
		c2.2-1.3,5.9-4.7,8.1-10.2c2.5,0,4.8-0.1,5.3,1.6c1.6,5.8-15.7,17.1-8.1,23.9c3.5,3.1,10.6,0.5,18.4-7.1c-1,2.4-2,4.8-2.8,7
		c0,0.2-1.3,2.9,2.5,2c3.8-0.9,4.2-2.4,4.9-3.7c1.4-2.9,3.2-6.7,5.1-10.9c3,1.4,5.5,0.4,7.7-1.5c0.8,2.8-6,8.9-3.5,14.8
		c1,2.5,4,4.3,10,1.8c5.8-2.4,11-8.8,11.6-10.3c0.3-0.8-0.4-0.9-0.7-0.6c-7.2,8.3-14.6,11.3-15.8,9.1c-1.7-2.9,6.7-8.7,2.3-15.8
		c-0.4-0.7-0.9-1.2-1.4-1.6c3.2-3.7,6.1-8.2,9.5-8c1.8,0.1,1.9,1.5,1.9,1.5c-0.9,0.2-1.4,0.8-1.7,1.2c-1.3,1.6,0.1,4.8,3,3.5
		c1-0.5,2-1.7,2.1-3c0.3-2.6-2.9-4.8-5-4.7c-5.1,0.1-8.4,4.8-11.6,8.4c-2-0.7-4.3-0.5-5.9-0.1c9.1-19.6,21.3-44.2,29.8-38.4
		c4.6,3.1-1.4,12.4-4.8,14.1c-1.1,0.6-0.9,0.7-0.4,0.8c1.6,0.4,5.6-1,7.7-4.1C313.4,46.6,313.2,40.7,310.4,38z M171.7,126.9
		c-9.5,7.3-13.6,3.2-10.9-3.5c2.4-6,10.5-12.6,26.3-21.4C183.1,112.3,178.6,121.6,171.7,126.9z M230,88.1c-4.1,5-9.4,8.4-12.8,6.2
		c-6.3-4,7.3-27.5,12.7-24.2c0.9,0.6,0.7,0.3,0.9,1L231,71c-1.1,1.2-1.7,2.2-2,4c-0.4,2.4,1,6.4,4.7,7.4
		C232.8,84.3,231.6,86.2,230,88.1z M235.9,76.5c-0.3,1.1-0.7,2.2-1.1,3.4c-2.8-0.6-3.6-3-3.3-4.6c0.4-2.8,2.3-2.9,3.3-2.4
		C235.8,73.4,236.3,74.7,235.9,76.5z M249.9,67.6c-1.8-0.3-2.6-1-2.8-1.7c-0.9-2.3,2.5-3.5,3-0.7C250.1,65.8,250.1,66.6,249.9,67.6z
		 M279.1,79.2c1.3-0.2,2.6,0.1,3.6,0.6c-1.2,1.1-2.5,1.9-3.8,1.9C277,81.7,277.3,79.5,279.1,79.2z"/>
</g>
</svg>
