<svg xmlns="http://www.w3.org/2000/svg" viewBox="0 0 40.17 40.17"><defs><style>.cls-1{fill:none;stroke:#fff;stroke-linecap:round;stroke-linejoin:round;stroke-width:1.5px;}</style></defs><title>ECPurpleIcon_ClipboardCheck</title><g id="Layer_2" data-name="Layer 2"><g id="Layer_1-2" data-name="Layer 1"><polyline class="cls-1" points="15.4 21.92 18.08 24.7 25.52 17.34"/><path class="cls-1" d="M25.22,10l1.67,0a1.52,1.52,0,0,1,1.5,1.53L28.26,29.8l-16.87-.17.13-18.25A1.52,1.52,0,0,1,13,9.87l1.83,0"/><path class="cls-1" d="M16.21,11.39h7.72c-.11-.4-.34-1.55-.72-1.74a2.24,2.24,0,0,0-.9-.24.56.56,0,0,1-.56-.56,1.68,1.68,0,0,0-3.36,0,.56.56,0,0,1-.56.56,2.25,2.25,0,0,0-.9.24C16.55,9.84,16.31,11,16.21,11.39Z"/><circle class="cls-1" cx="20.08" cy="20.08" r="19.33"/></g></g></svg>