<?xml version="1.0" encoding="utf-8"?>
<!-- Generator: Adobe Illustrator 15.1.0, SVG Export Plug-In . SVG Version: 6.00 Build 0)  -->
<!DOCTYPE svg PUBLIC "-//W3C//DTD SVG 1.1//EN" "http://www.w3.org/Graphics/SVG/1.1/DTD/svg11.dtd">
<svg version="1.1" id="Layer_1" xmlns="http://www.w3.org/2000/svg" xmlns:xlink="http://www.w3.org/1999/xlink" x="0px" y="0px"
	 width="72px" height="72px" viewBox="0 0 72 72" enable-background="new 0 0 72 72" xml:space="preserve">
<g id="Plus" display="none">
	<rect y="0.144" display="inline" fill="#5D196A" width="72" height="72"/>
	<rect x="-11.52" y="-12.816" display="inline" fill="none" width="95.329" height="92.16"/>
	<text transform="matrix(1 0 0 1 18.8408 63.9824)" display="inline" fill="#FFFFFF" font-family="'ArialMT'" font-size="115.2">-</text>
</g>
<g id="Phone">
	<g>
		<path fill="none" stroke="#FFFFFF" stroke-width="4" stroke-miterlimit="10" d="M23.04,30.672c2.16-2.16,2.16-5.904,0-8.064
			l-6.048-6.048c-2.16-2.16-5.904-2.16-8.064,0l-3.312,3.312c-2.88,2.88-3.312,7.344-1.008,10.8
			c9.504,14.544,22.464,27.36,37.008,37.008c3.456,2.305,7.92,1.729,10.8-1.152l3.313-3.312c2.16-2.159,2.16-5.903,0-8.063
			l-6.049-6.049c-2.16-2.16-5.904-2.16-8.063,0L39.6,51.12c-6.624-5.472-13.104-11.952-18.576-18.576L23.04,30.672z"/>
		<path fill="none" stroke="#FFFFFF" stroke-width="4" stroke-miterlimit="10" d="M35.856,3.456
			c18.144,0,32.832,14.688,32.832,32.832"/>
		<path fill="none" stroke="#FFFFFF" stroke-width="4" stroke-miterlimit="10" d="M35.856,14.832
			c11.808,0,21.457,9.648,21.457,21.456"/>
		<path fill="none" stroke="#FFFFFF" stroke-width="4" stroke-miterlimit="10" d="M35.856,26.352c5.472,0,9.936,4.464,9.936,9.936"
			/>
	</g>
</g>
<g id="Document" display="none">
	<g display="inline">
		<polyline fill="none" stroke="#FFFFFF" stroke-width="4" stroke-miterlimit="10" points="38.448,57.168 3.456,57.168 3.456,3.744 
			56.88,3.744 56.88,38.592 		"/>
		<line fill="none" stroke="#FFFFFF" stroke-width="4" stroke-miterlimit="10" x1="11.088" y1="14.976" x2="49.968" y2="14.976"/>
		<line fill="none" stroke="#FFFFFF" stroke-width="4" stroke-miterlimit="10" x1="11.088" y1="23.184" x2="49.968" y2="23.184"/>
		<line fill="none" stroke="#FFFFFF" stroke-width="4" stroke-miterlimit="10" x1="10.8" y1="31.248" x2="49.536" y2="31.248"/>
		<line fill="none" stroke="#FFFFFF" stroke-width="4" stroke-miterlimit="10" x1="10.8" y1="38.592" x2="49.536" y2="38.592"/>
		<line fill="none" stroke="#FFFFFF" stroke-width="4" stroke-miterlimit="10" x1="10.8" y1="46.08" x2="41.04" y2="46.08"/>
	</g>
	<g display="inline">
		<path fill="none" stroke="#FFFFFF" stroke-width="4" stroke-linecap="round" stroke-linejoin="round" stroke-miterlimit="10" d="
			M37.296,55.584c-0.575-3.889,0.433-7.775,2.448-10.8c2.447-3.744,6.336-6.336,11.088-7.056
			c8.641-1.296,16.704,4.752,17.855,13.535c1.297,8.641-4.752,16.704-13.535,17.856C46.368,70.271,38.592,64.368,37.296,55.584z"/>
	</g>
	<g id="Layer_6" display="inline">
		<polyline fill="none" stroke="#FFFFFF" stroke-width="4" stroke-miterlimit="10" points="44.352,53.279 49.824,58.896 
			60.624,48.24 		"/>
	</g>
</g>
<g id="Talk_x5F_Bubble" display="none">
	
		<ellipse display="inline" fill="none" stroke="#FFFFFF" stroke-width="4" stroke-miterlimit="10" cx="38.845" cy="32.917" rx="4.464" ry="4.464"/>
	
		<ellipse display="inline" fill="none" stroke="#FFFFFF" stroke-width="4" stroke-miterlimit="10" cx="24.156" cy="32.845" rx="4.464" ry="4.464"/>
	
		<ellipse display="inline" fill="none" stroke="#FFFFFF" stroke-width="4" stroke-miterlimit="10" cx="53.622" cy="33.08" rx="4.464" ry="4.464"/>
	<path display="inline" fill="none" stroke="#FFFFFF" stroke-width="4" stroke-miterlimit="10" d="M38.88,12.816
		c-16.56,0-29.952,9.216-29.952,20.592c0,4.752,2.304,9.072,6.336,12.527C13.824,49.104,9.648,54,6.624,56.88
		c0,0,9.216,1.152,16.704-6.048c4.608,1.872,9.936,3.023,15.552,3.023c16.56,0,29.952-9.215,29.952-20.591
		C68.832,21.888,55.439,12.816,38.88,12.816z"/>
</g>
<g id="person" display="none">
	
		<circle display="inline" fill="none" stroke="#FFFFFF" stroke-width="4" stroke-linecap="round" stroke-linejoin="round" stroke-miterlimit="10" cx="35.856" cy="19.584" r="15.84"/>
	
		<path display="inline" fill="none" stroke="#FFFFFF" stroke-width="4" stroke-linecap="round" stroke-linejoin="round" stroke-miterlimit="10" d="
		M61.2,68.977H9.504c-3.888,0-7.056-3.024-7.056-6.625c0-0.144,0-5.328,4.32-10.224c2.448-2.88,5.76-5.185,9.936-6.769
		c5.04-2.016,11.232-2.879,18.576-2.879c7.201,0,13.537,1.008,18.576,2.879c4.177,1.584,7.488,3.889,9.937,6.769
		c4.319,5.04,4.319,10.08,4.319,10.224C68.256,66.096,65.088,68.977,61.2,68.977z"/>
</g>
<g id="menu" display="none">
	<rect y="6.912" display="inline" fill="#FFFFFF" width="71.424" height="10.944"/>
	<rect y="29.088" display="inline" fill="#FFFFFF" width="71.424" height="10.944"/>
	<rect y="51.408" display="inline" fill="#FFFFFF" width="71.424" height="10.943"/>
</g>
<g id="Search" display="none">
	<g display="inline">
		<path fill="none" stroke="#FFFFFF" stroke-width="4" stroke-miterlimit="10" d="M5.04,22.32
			C7.92,11.232,17.856,3.168,29.808,3.168c14.112,0,25.488,11.376,25.488,25.488c0,14.111-11.376,25.488-25.488,25.488
			C18,54.145,8.064,46.08,5.184,35.136"/>
		<line fill="none" stroke="#FFFFFF" stroke-width="4" stroke-miterlimit="10" x1="46.08" y1="48.24" x2="67.968" y2="70.128"/>
		<path fill="none" stroke="#FFFFFF" stroke-width="4" stroke-miterlimit="10" d="M5.04,22.32c-0.72,2.448-0.72,4.608-0.72,6.48
			c0,3.888,0.72,6.48,0.864,6.48"/>
	</g>
</g>
<g id="Back" display="none">
	
		<rect x="8.064" y="0" transform="matrix(-1 0.0059 -0.0059 -1 78.8353 71.77)" display="inline" fill="none" width="62.497" height="72.001"/>
	<text transform="matrix(1 0 0 1 8.1973 68.9971)" display="inline" fill="#FFFFFF" font-family="'ArialMT'" font-size="103.68">&lt;</text>
</g>
<g id="Home" display="none">
	<polygon display="inline" fill="#FFFFFF" points="0.288,40.752 10.368,40.752 10.368,68.688 26.352,68.688 26.352,40.176 
		45.504,40.176 45.504,68.688 61.775,68.688 61.775,40.752 71.855,40.752 36,2.304 	"/>
</g>
<g id="GEAR_FOR_REFERENCE" display="none">
	<g id="SvSbru.tif" display="inline">
		
			<image overflow="visible" enable-background="new    " width="530" height="519" id="Layer_0_1_" xlink:href="DF938883.png"  transform="matrix(0.134 0 0 0.1368 78.8838 0.0435)">
		</image>
	</g>
</g>
<g id="guides">
</g>
</svg>
