<svg id="Layer_1" data-name="Layer 1" xmlns="http://www.w3.org/2000/svg" viewBox="0 0 500 500"><defs><style>.cls-1{fill:#888;}</style></defs><title>FB_grey_icon</title><path class="cls-1" d="M250,500C112.15,500,0,387.86,0,250S112.15,0,250,0,500,112.14,500,250,387.85,500,250,500Zm0-481.14C122.55,18.86,18.86,122.55,18.86,250S122.55,481.14,250,481.14,481.14,377.45,481.14,250,377.45,18.86,250,18.86Z"/><path class="cls-1" d="M191.95,209.26h24.88V185.1c0-10.68.28-27.11,8-37.28C233,137,244.18,129.7,263.44,129.7c31.38,0,44.59,4.48,44.59,4.48L301.83,171a84.1,84.1,0,0,0-20-3c-9.69,0-18.34,3.48-18.34,13.13v28.1h39.67l-2.76,36H263.44v125H216.83v-125H191.95Z"/></svg>