<svg id="Layer_1" data-name="Layer 1" xmlns="http://www.w3.org/2000/svg" viewBox="0 0 499.5 499.5"><defs><style>.cls-1{fill:#888;}</style></defs><title>IG_grey_icon</title><path class="cls-1" d="M250.25,499.5C112.54,499.5.5,387.45.5,249.73S112.54,0,250.25,0,500,112,500,249.73,388,499.5,250.25,499.5Zm0-480.66c-127.32,0-230.91,103.57-230.91,230.89S122.93,480.66,250.25,480.66,481.16,377.07,481.16,249.73,377.57,18.84,250.25,18.84Z" transform="translate(-0.5)"/><path class="cls-1" d="M324,129.58H176.56A46.48,46.48,0,0,0,130.13,176V323.47a46.49,46.49,0,0,0,46.44,46.44H324a46.5,46.5,0,0,0,46.46-46.44V176A46.5,46.5,0,0,0,324,129.58Zm13.34,27.69h5.3V198l-40.61.11-.13-40.74ZM216,225.07a42.22,42.22,0,1,1-8,24.67A42.21,42.21,0,0,1,216,225.07Zm131,98.4a23,23,0,0,1-23,23H176.56a23,23,0,0,1-23-23v-98.4h35.88a65.71,65.71,0,1,0,121.75,0H347Z" transform="translate(-0.5)"/></svg>