<svg id="Layer_1" data-name="Layer 1" xmlns="http://www.w3.org/2000/svg" viewBox="0 0 500 500"><defs><style>.cls-1{fill:#888;}</style></defs><title>Twitter_grey_icon</title><path class="cls-1" d="M250,500C112.15,500,0,387.86,0,250S112.15,0,250,0,500,112.14,500,250,387.85,500,250,500Zm0-481.14C122.55,18.86,18.86,122.55,18.86,250S122.55,481.14,250,481.14,481.14,377.45,481.14,250,377.45,18.86,250,18.86Z"/><path class="cls-1" d="M383.27,184.7a99.49,99.49,0,0,1-28.4,7.81,49.57,49.57,0,0,0,21.73-27.37,98.67,98.67,0,0,1-31.42,12A49.49,49.49,0,0,0,261,222.23a140.39,140.39,0,0,1-101.9-51.68,49.56,49.56,0,0,0,15.3,66,49.65,49.65,0,0,1-22.41-6.19V231a49.46,49.46,0,0,0,39.67,48.47,49.33,49.33,0,0,1-22.32.87,49.47,49.47,0,0,0,46.17,34.33,99.12,99.12,0,0,1-61.38,21.14,104.14,104.14,0,0,1-11.81-.66,140.22,140.22,0,0,0,75.79,22.19c90.95,0,140.67-75.31,140.67-140.65,0-2.15-.05-4.29-.15-6.41a99.77,99.77,0,0,0,24.68-25.6"/></svg>