<svg id="Layer_1" xmlns="http://www.w3.org/2000/svg" viewBox="0 0 512 107.7"><style>.st0{fill:#1B1B1B;} .st1{fill:#363636;} .st2{fill:#383838;} .st3{fill:#1A1A1A;} .st4{fill:#242424;} .st5{fill:#873701;} .st6{fill:#8E3B01;} .st7{fill:#252525;} .st8{fill:#AD4D01;} .st9{fill:#3E3E3E;} .st10{fill:#DA6700;} .st11{fill:#F37500;} .st12{fill:#F67700;} .st13{fill:#D76500;} .st14{fill:#D56400;} .st15{fill:#D06100;} .st16{fill:#602601;} .st17{fill:#8E4200;} .st18{fill:#1F1F1F;} .st19{fill:#FEFEFE;} .st20{fill:#AE4E01;} .st21{fill:#B14F01;} .st22{fill:#B04F01;} .st23{fill:#B75800;}</style><path class="st0" d="M130.9 44.1c.5 3.4 1 6.9 1.5 10.3 0 .3.2.4.5.4.5.6.3 1.2.2 1.8-.2 1.3-.5 2.6-.3 4 .1.7.4 1 1 1h46.1c.6.1 1.1.3 1.2 1v.1c0 3-.2 3.3-3.2 3.3h-17.2c-1.9 0-2 0-2.3 1.8-.8 4.3-1.5 8.5-2.2 12.8-.3 1.5-.2 1.6 1.4 1.6h38.1c1.5 0 1.7-.1 1.9-1.7.9-5.4 1.9-10.7 2.8-16.1.2-.9.1-2 .8-2.7.8-.2 1.6-.1 2.4-.1H227c.7 0 1.5-.2 2.1.4-.8 3.8-1.5 7.7-2.1 11.6-1.5 9.8-3.5 19.6-5.1 29.4-.6 3.8-1.2 4.4-5.1 4.4h-60.1c-12.9 0-25.8 0-38.7.1-3.5 0-5.1-1.9-5.8-4.5-1-3.8-1.5-7.7-2.3-11.5-1.9-10.1-3.8-20.2-5.6-30.3-.1-.3-.1-.6-.1-.8-.3-.7 0-1 .7-1.1.5-.1 1-.1 1.4-.1h16.8c1.2 0 1.9-.3 2.4-1.5 1.7-3.6 3-7.3 4.1-11.1.2-.8.2-2 1.3-2.5z"/><path class="st1" d="M229 62.1h-26.3c-.5 0-1.1.1-1.5-.2-.5-.5-.2-1.1-.1-1.6 1.7-10 3.5-20.1 5.2-30.1.3-1.5.5-3.1.8-4.6 1.3-7.7 2.6-15.4 4-23 .1-.7.2-1.4.7-1.9 1 0 2-.1 3-.1h21.8c.9 0 1.3.3 1.6 1 8.6 17.7 17.3 35.4 25.9 53.1.6 1.3 1.2 2.5 1.9 3.8.1.3.2.8.6.7.4-.1.2-.5.3-.8.6-4.3 1.2-8.5 1.8-12.8 2.1-14.7 4.1-29.4 6.1-44.1.1-.6.2-.9.9-.9h33.7c-.1.9-1 1-1.6 1.2-2 .7-3.9 1.5-5.7 2.5-5 3-8.6 7.3-11 12.5-2.8 6.1-4.3 12.6-4.9 19.3-.6 6.4.7 12.5 3.9 18.2 1.3 2.3 2.7 4.6 4 6.9.3.6.1 1-.5 1.2-.6.2-1.2.1-1.8.1h-49.9c-1.1 0-2.3.2-3.4.1-2.3-4.3-4.6-8.6-7-13.2-1 4.4-1.7 8.5-2.5 12.7z"/><path class="st1" d="M329.1.5c1.3.1 2.6.1 3.9.2 2.5.3 4.9.7 7.3 1.3 8.2 2.3 14.2 7.1 17.5 15.1 1 2.3 2 4.6 3.1 6.9 1 2.5 2.2 4.9 3.3 7.3.3.7.8 1.3.6 2.1-.5.5-1.1.5-1.7.5h-22.9c-1.5 0-1.7-.3-1.5-1.7.3-2.7-.9-4.7-3.2-6-2.1-1.1-4.3-1.3-6.6-1.4-2.8 0-5.6.3-8.1 1.7-5 2.6-5.6 8-1.3 11.6 2.6 2.1 5.4 3.8 8.3 5.4 5.4 2.9 10.9 5.6 16 9.1 3.4 2.3 6.5 4.9 8.9 8.3.3.5 1 1 .3 1.7-.9.5-1.8.7-2.8.7h-35.5c-1.5 0-3-.3-4.4-.5-.4.1-.8.1-1.2-.1-4.7-2-9-4.5-12.8-7.9-.2-.2-.3-.3-.5-.6-4-4.1-6.5-8.9-7-14.7-.4-4.7.1-9.3 1.1-13.9.9-4 2.1-7.9 4.2-11.6 3.2-5.7 8.1-9.4 14.3-11.4C313.2 1 318.2.5 323.2.4c1.9.2 3.9.3 5.9.1z"/><path class="st2" d="M130.9 44.1c-1.1 1.6-1.2 3.6-1.9 5.4-1 2.8-2.1 5.6-3.3 8.3-.7 1.7-1.7 1.8-3.1 1.8-5.8-.1-11.6 0-17.5 0-.6 0-1.2-.1-1.2.8-.8-4.1-1.6-8.1-2.3-12.2-.5-2.6-1-5.3-1.5-7.9 0-.3 0-.6-.5-.8-1 3.6-2 7.1-2.9 10.7-.8-.3-1.6-.3-2.5-.3H72.3c-.9 0-1.9.2-2.6-.7l6.6-27.9C77.9 14.6 79.5 8 81 1.4c.2-.8.5-.9 1.2-.9h41c.9 0 1.1.3 1.2 1.1l6.3 40.8c.1.5.2 1.1.2 1.7z"/><path class="st3" d="M309.9 62.8c.1-.3.3-.4.7-.3 2.3.6 4.6.6 6.9.5h28.3c2.4 0 4.9.3 7.2-.5.8.2 1.1.9 1.4 1.6.9 2 1.4 4.2 1.7 6.4v.6c-3.7 4.8-7.5 9.6-11.2 14.4-4 5.1-7.9 10.2-11.9 15.3-2.7 3.4-6 5.7-10.2 6.8-1 .3-2 .2-3 .4-4.7.7-9.4-.1-14.1-.3-1-.1-1.9-.1-2.9-.1h-32.7c-1.5 0-3-.2-4.4-.5-3.3-.6-5.4-2.7-6.8-5.6-.3-.7.3-.8.6-.9.6-.2 1.2-.2 1.8-.2h12c.5 0 1.1.2 1.3-.3.2-.4-.2-.8-.5-1.2-.4-.6-.6-1.3-.4-2.1.1-.2.1-.5 0-.7-1-2.4-1.2-5-1.6-7.5-.5-3.2-.5-6.4-.2-9.5.1-1.2.2-2.5.5-3.7 1-4 3.3-5.9 7.4-6 3.6-.1 7.2.4 10.8.3.9 0 1.8.1 2.6.4.5.3.4.8.4 1.3-.1.7.2 1 .9.9 1.9 0 3.9.3 5.8.3 1.4 0 1.6.2 1.6 1.6 0 1-.1 1.9.2 2.9.8 3.1 2.9 4.9 5.8 5.7 5.2 1.4 10.4 1.1 15.3-1.5 1.5-.8 2.7-2.1 3.4-3.7 1-2.3.5-4.5-1.2-6.3-2-2.1-4.6-3.1-7.1-4.3-2.3-1.1-4.7-2-7-3-.6-.5-1.2-.5-1.4-1.2z"/><path class="st2" d="M8.3 48.2c.6-4 1.1-8.1 1.7-12.2 1.8-11.4 3.5-22.9 5.3-34.3.2-1 .5-1.3 1.5-1.3h41c.7 0 1.2 0 1.4 1 2.3 13.2 4.7 26.4 7 39.6v.7c-.7 1.9-1.7 3.7-2.7 5.5-.7 1.4-1.7 1.9-3.2 1.9H42.9c-1 0-1.9 0-2.9.1-.8-3.2-1.6-6.5-2.4-9.7h-.3c-.5 3.1-1.1 6.2-1.6 9.2-2-.2-4-.1-6-.1H10.3c-.8 0-1.5.2-2-.4z"/><path class="st1" d="M180.7 62.8c0-.5-.2-.8-.8-.8H133c-.4-.1-.8-.3-.8-.8.1-1.7.1-3.5.6-5.2.1-.4 0-.8 0-1.2.7-1.4.6-2.9.9-4.4.8-4.4 1.6-8.8 2.3-13.2.9-4.9 1.7-9.8 2.6-14.7.2-1.3.5-2.6.8-3.9.1-.6.5-.8 1-.8.6-.1 1.1 0 1.7 0h57.7c.9 0 1.4-.4 1.7-1.3 1.1-3.2 2-6.5 2.9-9.7.5-1.7.7-3.4 1.4-5 .2-.4.3-.9.7-1.2h3.4c.2.3.1.6 0 .9-1.2 2.5-1.4 5.2-2 7.8-1 5-2.1 9.9-3.1 14.9-.1.6-.2 1.2-.8 1.5-.7.2-1.4.2-2 .2h-36.9c-.7 0-1.1.3-1.2 1.1-.7 4.2-1.5 8.4-2.2 12.5-.2.9.3 1.1 1.1 1.1h20c1.8 0 2 .3 1.7 2-1.1 6.3-2 12.5-3 18.8-.2.5-.1 1.2-.8 1.4z"/><path class="st4" d="M40 49.2c.2-.8.8-.5 1.3-.5h19.3c1.3 0 2-.4 2.6-1.7.8-1.7 1.8-3.2 2.5-5 .1-.2.3-.3.5-.3.7 3.7 1.3 7.3 2 11 0 .2.1.4.3.4.3 0 .3-.2.4-.5.3-1.1.6-2.3.9-3.4 1.2.4 2.4.3 3.6.3h22.2c.5 0 1.2-.2 1.2.7-1.2 4.5-2.4 9.1-3.6 13.6l-5.1 19.8c-1.1 4.1-2.9 5.5-7 5.5H53.6c-2.9 0-4.2-1.5-4.9-3.7-.7-2.1-1.1-4.3-1.6-6.4-2.3-9.6-4.6-19.2-7-28.9-.1-.3-.1-.6-.1-.9z"/><path class="st5" d="M511.7 35.4c-.8 5.9-2.4 11.5-5.3 16.7-2.3 4.2-5.2 7.8-8.8 10.9-6.4 5.5-13.9 8.4-22 10-3.8.7-7.6 1.1-11.4 1.3-6.8.3-13.6.1-20.4.1-1 0-1.2.3-1.4 1.3-.4 3.3-1 6.5-1.5 9.8-.5 3.4-1.1 6.8-1.6 10.3-.5 2.9-1 5.8-1.4 8.7-.5 3-2.1 3.3-4.1 3.4-9.9.5-19.8.2-29.8.3-.3 0-.6 0-.9-.3.1-.6.6-.6 1-.6 2.4-.5 3.8-2.1 4.5-4.4.9-2.9 1.1-6 1.6-9l.9-5.4c.1-.4.1-.9.4-1.2.9.2 1.7-.2 2.5-.6 8.8-4.7 17.5-9.3 26.3-14 5.7-3 11.3-6 17-9 8.4-4.5 16.9-9 25.3-13.5 4.2-2.3 8.5-4.5 12.7-6.8 4.7-2.5 9.5-5 14.2-7.6.8-.3 1.4-.9 2.2-.4z"/><path class="st6" d="M319.9 107.9c2-.5 4.1-.9 6-1.8 3.6-1.6 6.1-4.5 8.5-7.5l21-27 .6-.6c.5-.2 1-.1 1.6-.1h12.5c2.5 0 3.4-1 3.2-3.6-.4-4.8-1.9-9.4-3.2-14 .4-1.3 1-2.5 2.5-3 1.2 1.1 1.5 2.7 2.1 4 2.2 4.8 4.4 9.5 6.5 14.3.5 1.3 1.5 1.7 2.8 1.7h20.4c1.9 0 3.8.2 5.5-.8.3 0 .6.2.7.4.6 1.3 1.6 2.5 1.5 4.1-1 2.5-1.7 5.2-2.8 7.7-.1.3-.3.6-.4.9-.9 2.3-2.5 3.4-5.1 3.3-4.4-.2-8.8 0-13.2-.1-.6 0-1.3.1-1.9-.4-1-2.2-2-4.3-3-6.5-.2-.4-.3-1.1-.8-1.2-.6-.1-.6.6-.9.9l-10.8 14.1-9 11.7c-1.6 2-3.8 3-6.3 3.1-7.7.5-15.5.1-23.2.2-5.1.2-9.9.2-14.8.2z"/><path class="st7" d="M8.3 48.2h26.1c.5 0 1.1-.3 1.3.5-.6 4.1-1.3 8.3-1.9 12.4L29 91.4l-1.5 9.6c0 .3-.1.6-.1.8-1 4.7-2.3 5.8-7.2 5.8-5.1 0-10.2.2-15.2-.2-.3 0-.6-.1-1-.1-3-.5-4.2-1.7-3.9-4.8.3-3.7 1-7.4 1.5-11.1C3 81.8 4.5 72.1 6 62.4c.7-4.6 1.3-9.2 2-13.7.1-.2.2-.3.3-.5z"/><path class="st8" d="M511.7 35.4c-2 .5-3.7 1.8-5.5 2.7-3 1.5-6 3.2-9 4.8-7.3 3.9-14.6 7.7-21.9 11.6L460 62.6c-6.5 3.4-13 6.9-19.4 10.3L425.3 81c-4.1 2.2-8.1 4.3-12.2 6.5-.6.3-1 .3-1.3-.3-.3-.3-.4-.7-.3-1.1.6-3.2.9-6.4 1.7-9.6.4-1 .4-2.1.6-3.2.1-.4.1-.9.4-1.2 5.9-2.7 11.5-6 17.3-9 2.9-1.5 5.8-3.1 8.8-4.7 5.2-2.8 10.5-5.6 15.7-8.3.5-.3.8-.6 1.3-.9.5-.2 1.1-.2 1.7-.2 3.5 0 6.9.1 10.4 0 3.6-.1 7.1-.7 10.1-2.9 4-3 5.6-7.1 5.4-11.9-.1-2.9-1.8-4.9-4.3-6.3-.8-.4-1.7-.7-2.4-1.4-.1-.8.5-1.1 1-1.3l11.7-6.3 13.5-7.2c.4-.2.8-.5 1.4-.3 5.1 5.7 6.6 12.6 6.3 20-.1 1.4-.3 2.7-.4 4z"/><path class="st0" d="M293.4 70.1c-4.5-.2-9.1-.5-13.6-.5-2.3 0-4.4.6-5.7 2.7-.9 1.5-1.3 3.1-1.5 4.8-.3 2.5-.4 5-.2 7.5.1 1.6.2 3.2.4 4.9.2 1.4.9 2.8.7 4.3 0 .5.2.9.4 1.4.3.7.8 1.3.2 2.1-.2.2 0 .6.2.9.2.3.5.6.7 1 .2.4.8.7.4 1.3-.3.5-.8.2-1.2.2h-13.3c-.7 0-1.5-.1-1.9.7-2.3-3.7-4.2-7.7-6.2-11.6L239 63.7l-.6-1.2c.7-.5 1.4-.5 2.2-.5H293.2c.3 0 .6.1.8-.2.2-.3-.2-.5-.4-.7-1.2-.8-1-2.2-1.8-3.3-1.3-1.8-2.4-3.7-3.3-5.8-.9-2.1-1.6-4.3-2.2-6.6-.7-2.6-.7-5.3-.7-7.9 0-3.5.7-7 1.5-10.3 1-4 2.1-8 4.1-11.7C294 10.1 298 5.7 303.6 3c1.7-.8 3.4-1.4 5.2-2.1.3-.1.5-.2.7-.5h19.6c-.3.3-.7.2-1 .2-3.7-.1-7.4 0-11.1.5-5.9.8-11.5 2.3-16.4 5.9-3.3 2.5-5.7 5.9-7.4 9.7-2.1 4.5-3.2 9.3-3.8 14.2-.6 4.5-.7 9 .7 13.4 1 3.4 2.8 6.3 5.1 8.9.3.4.8.6.9 1.1-.6 2.4-.8 4.8-1.1 7.3-.3 2.5-.7 5-1 7.5-.1.4-.2.8-.6 1z"/><path class="st9" d="M206.6.5c-.7 2.4-1.3 4.7-2 7.1-.5 1.7-.9 3.4-1.4 5.1-.5 1.6-1.4 3.1-1.6 4.8-.1.5-.5.8-1.1.8H141c-.6 0-1.2-.2-1.6.5.8-4.9 1.7-9.8 2.5-14.6.2-1.1.1-2.7.8-3.3.8-.7 2.3-.2 3.5-.2h58.6c.7-.3 1.3-.2 1.8-.2z"/><path class="st10" d="M474.6.3c3.4.2 6.8.5 10.1 1.1 2.5.5 5 .9 7.4 1.8-.5.8-1.4 1.1-2.2 1.5-5.7 3-11.4 6.1-17.1 9.1-5.8 3.1-11.7 6.1-17.4 9.3-1.3.7-2.9 1-4 2.3-.4.2-.9.3-1.3.6-3.3 1.5-6.4 3.3-9.5 5-4.6 2.4-9.1 4.8-13.7 7.3-2.2 1.2-4.3 2.3-6.5 3.4-.4.2-.9.8-1.5.2-.1-1.9.4-3.7.7-5.5.2-1.7.5-3.3.8-5 .1-1 .1-2 .6-2.9 1.8-.3 3.3-1.4 4.9-2.2 4.7-2.5 9.3-5 14-7.4 7.3-3.9 14.7-7.8 22-11.7 4.2-2.5 8.4-4.7 12.7-6.9z"/><path class="st11" d="M474.6.3c-.5.8-1.3 1-2.1 1.4-4.5 2.4-9 4.8-13.5 7.1-8.1 4.3-16.3 8.6-24.4 12.9-4.1 2.2-8.2 4.4-12.2 6.6-.4.2-.8.4-1.2 0-.5-.5-.3-1.1-.2-1.7.9-5.9 1.9-11.8 2.7-17.7.5-3.4-.6-5.4-3.7-7-.2-.1-.4-.2-.5-.3-1.3-.7-2.8-.7-4.1-1.4 0-.1-.1-.1-.1-.2.4-.3.8-.1 1.2-.1h47.6c3.6.2 7 .3 10.5.4z"/><path class="st12" d="M360.7 24.2c-1-2.2-2.2-4.3-3-6.5-3.3-8.9-10-13.6-18.9-15.8-1.9-.5-3.9-.6-5.8-1.2h41.3c2.5 0 4.3.9 5.4 3.4 3 6.8 6.2 13.4 9.3 20.2-.5.5-1 .4-1.6.4h-25.1c-.6-.1-1.2-.1-1.6-.5z"/><path class="st13" d="M360.7 24.2H389c.6.8.7 2 1.5 2.7 1.2 1.3 1.6 3 2.4 4.6 2.1 4.5 4.2 9.1 6.3 13.6.3.7.7 1.3.6 2.1-.4.9-1.2.9-1.9.9h-25.8c-.5 0-.8-.3-1-.7-2.1-4.4-4-8.8-6.1-13.2-.1-.3-.2-.5-.1-.8-1.5-3-2.9-6.1-4.2-9.2z"/><path class="st14" d="M451.3 25.2c.1-.8.8-1.1 1.3-1.3 3.7-1.5 7-3.7 10.5-5.4 2.9-1.4 5.6-3 8.4-4.5 6.7-3.6 13.5-7 20.1-10.8.1-.1.2-.1.4-.1 2.8 1 5.6 2.2 8.1 3.9 2 1.3 3.9 2.8 5.5 4.6-1.5.7-3 1.5-4.4 2.2-3.2 1.7-6.5 3.5-9.7 5.2-4.2 2.2-8.3 4.4-12.5 6.6-.4.2-.7.5-.9.9-.5.3-1.1.1-1.6 0-2.9-.7-5.8-.9-8.8-.9h-14.6c-.6 0-1.3.1-1.8-.4z"/><path class="st11" d="M394.3 21.8c4.9-6.3 9.9-12.6 14.8-19 1.6-2.1 3.8-2.7 6.3-2.6l.1.1c.7 1.5 1.8 2.4 3.2 3.2 2.4 1.3 3.4 3.4 2.9 6.1-1 5.4-2.3 10.7-4.4 15.8-.7 1.7-1.8 2.5-3.7 2.4-3.5-.1-7.1 0-10.6 0-2 0-3.8-.7-5.2-2.1-1.4-1.3-2.4-2.6-3.4-3.9z"/><path class="st15" d="M394.3 21.8c1.1.3 1.5 1.3 2 2 1.9 2.5 4.1 3.8 7.3 3.6 3.3-.1 6.7 0 10 0 1.9 0 2.3-.3 3-2 1.5-3.4 2.4-7.1 3.3-10.7.5-1.9 1-3.9 1.2-5.9.3-2.5-1-4.1-3-5.3-.8-.4-1.5-.9-2.1-1.6-.5-.5-.8-1-.6-1.7 1.4.2 2.8.5 4.1 1.2.4.6 1 1.1 1.5 1.6 1.9 1.9 2.6 4.2 2.1 6.9-1.4 7.7-3.1 15.3-5 22.9-.1.5-.3.9-.2 1.4 0 .5-.2.9-.5 1.3-3.4 4.4-6.7 8.8-10.1 13.2-.4.5-.7 1-1.4 1-.7-.3-1-.9-1.4-1.5-3.4-5.4-6.7-10.9-9.7-16.5-1.1-2-2.3-4-3.3-6.2.8-1.3 1.9-2.5 2.8-3.7z"/><path class="st5" d="M388.5 85.6h16.1c1.6 0 2.5-.7 3.2-1.9 1.3-2.6 2.3-5.2 3.1-8 .2-.6.2-1.4.9-1.8.9.6 1.2 1.5 1.3 2.5-1 3.4-1.8 6.9-2.8 10.4-1.3 4.5-2.4 9.1-4.2 13.5-.7 1.8-1.9 3.1-3.8 3.6-1.2.3-2.4.8-3.4 1.5-.3.2-.6.4-1 .3-1.2-1.1-1.6-2.8-2.3-4.2-1.7-3.6-3.3-7.3-5-11-.7-1.7-1.4-3.3-2.1-4.9z"/><path class="st16" d="M397.9 105.7c1.4-1.1 3-1.8 4.8-2.3 1.5-.4 2.4-1.4 3-2.8 1.4-3.2 2.2-6.5 3.2-9.8 1.3-4.6 2.5-9.2 3.7-13.8.1-.3.2-.5.5-.7.2 0 .4.1.5.3-.4 2.3-.8 4.6-1.2 6.8-.2 1.3-.7 2.5-.5 3.8-.6 2.1-.8 4.4-1.2 6.6-.6 3-.7 6-1.6 9-.8 2.7-2.4 4.5-5.3 4.8-.2 0-.4.1-.5.2-1.7.2-3.1-.3-4.5-1.2-.5-.2-.9-.4-.9-.9z"/><path class="st17" d="M391.6 25.6c1 .9 1.5 2.3 2.1 3.5 3.6 6.6 7.3 13.1 11.4 19.4.3.4.6.9.9 1.3-.7 1.7-1.7 3.1-3.3 4.1-.3-.2-.5-.5-.7-.8-.9-2.1-2.1-4-2.7-6.3-1-2.3-2-4.5-3.1-6.8-2-4.4-4-8.7-5.9-13.1.5-.4.8-1 1.3-1.3z"/><path class="st18" d="M204.2 25.4c.5-2.2 1-4.4 1.4-6.6.8-4 1.7-7.9 2.5-11.9.4-2.2.9-4.4 1.9-6.4h1.7c-.5 2.9-1 5.7-1.5 8.6-.9 5-1.7 10-2.6 15-.1.4-.2.9-.2 1.3-1.1.6-2.2.6-3.2 0z"/><path class="st19" d="M204.2 25.4c1 0 2.1 0 3.1.1-.7 4.4-1.5 8.8-2.2 13.2-1.3 7.3-2.6 14.6-3.8 22-.1.4-.1.8-.2 1.2-1.2 6.6-2.3 13.2-3.4 19.8-.1.8-.4 1.1-1.2 1.1h-40c-1 0-1.1-.4-.9-1.2.9-4.9 1.8-9.8 2.6-14.6.2-.9.5-1.1 1.4-1.1H179c1.1 0 1.7-.1 1.6-1.4 0-.5.1-1 .2-1.6.6-2.3.8-4.7 1.2-7.1.4-2.4.7-4.7 1.1-7.1.4-2.2.7-4.5 1.1-6.7.1-.7 0-1-.9-1-3.3.1-6.6 0-9.9 0h-11.1c-1 0-1.2-.2-1-1.3.5-2.6.9-5.2 1.3-7.7.3-2 .8-3.9 1-5.9.1-.6.6-.6 1.1-.6h38.6c.3 0 .6-.1.9-.1zM364.7 33.4c1.5 2.8 2.7 5.7 4 8.6.9 2 1.9 4 2.8 6 .6.7 1.3 1.3.7 2.4l-2.1 2.7c.1.5-.2.7-.5 1-4 5.3-8.2 10.5-12.2 15.7-.3.4-.6 1-1.3.7-.2-1-.4-2-.7-3.1-.5-1.8-1-3.5-2.2-5-.4-1.4-1.5-2.5-2.4-3.5-3.1-3.5-6.8-6.2-10.8-8.4-5.3-3-10.8-5.9-16.1-9-2.1-1.2-4.1-2.7-5.7-4.5-3-3.3-2.4-8.2 2.3-10.7 3.1-1.6 6.3-2 9.7-1.8 2 .1 3.9.4 5.7 1.4 2.5 1.4 3.7 3.8 3.1 6.6-.2.9.1 1.1.9 1.1h23.5c.4.1.9 0 1.3-.2zM293.4 70.1c.5-1.6.5-3.4.8-5 .4-2.8.7-5.6 1.1-8.4.1-.7 0-1.3.3-2 .1-.3.3-.3.5-.3 2.5 2.5 5.4 4.3 8.5 6 1.7.9 3.5 1.8 5.3 2.5 3.9 1.9 8.1 3.2 11.9 5.3 1.3.7 2.4 1.5 3.5 2.4 3.2 2.6 2.4 7.3-.4 9.7-3.2 2.7-7 3.3-11 3.5-3.2.1-6.2-.3-8.9-2.1s-3.6-4.4-3.4-7.5c.1-1.2-.3-1.4-1.4-1.4-2.1 0-4.2-.2-6.3-.2-.8 0-1-.3-.7-1 .3-.6.3-1.1.2-1.5z"/><path class="st20" d="M356 70.6c1.4-.7 1.9-2.1 2.8-3.2 3.8-4.7 7.4-9.6 11.3-14.3 1 1.8 1.3 3.9 1.9 5.9.9 2.9 1.3 5.9 1.7 8.8.2 1.8-1.1 3.4-2.9 3.4H357c-.4 0-.7-.1-1-.3v-.3z"/><path class="st21" d="M372.2 50.4c.2-.9-.7-1.5-.7-2.4.4-.4.9-.2 1.4-.2h24.9c.7 0 1.6.2 1.6-1 1.3 2.3 2.2 4.8 3.4 7.1.9 1 1.3 2.3 1.8 3.5 1.5 3.5 3.2 7 4.8 10.5.3.6.7 1.2.5 1.9-1.7 1.3-3.6 1-5.5 1H384c-2 0-2.6-.4-3.4-2.2-1.9-4.2-3.8-8.5-5.7-12.7-.9-1.8-1.5-3.8-2.7-5.5z"/><path class="st19" d="M409.9 69.8c-1.2-3.1-2.8-6-4.1-9.1-1-2.3-2.3-4.4-3-6.8 1.1-1.3 2.2-2.6 3.2-4.1 2.5-2.8 4.6-5.9 6.9-8.8 1.5-1.9 2.9-3.8 4.4-5.7.2-.3.4-.5.5-.8.3-1.4 1.4-2.2 2.2-3.2.2-.2.5-.2.7.1-.4 2.4-.8 4.9-1.2 7.3-.2 1.1-.3 2.2-.5 3.3.4.7.1 1.4 0 2.1-.7 4.6-1.4 9.1-2.1 13.7-.6 4.3-1.4 8.5-2 12.8-.1.6 0 1.3-.6 1.7-.3 1.5-.6 3-.9 4.4-.2 0-.4 0-.5-.3l-1.2-2.4c-.3-1.5-1-2.9-1.8-4.2zM451.3 25.2c4.7 0 9.4.1 14.1 0 4.3 0 8.6.2 12.7 1.3 2 .9 4.1 1.6 5.5 3.5 1.8 2.4 1.8 5.1 1.2 7.8-1.6 7.2-6.3 10.6-13.3 11.3-4.3.4-8.7.1-13 .2-.5 0-1 0-1.4.1-.4.4-1 .4-1.5.4h-7.7c-1.6 0-1.9-.3-1.6-1.9.3-2.1.6-4.1 1.1-6.2.8-4.7 1.5-9.5 2.2-14.3.1-.6.1-1.3.6-1.8.1-.5.7-.3 1.1-.4z"/><path class="st22" d="M447.7 41.7c-.3 2.3-.6 4.5-1.1 6.7-.2.8 0 1 .8 1 3.3 0 6.5 0 9.8.1 0 .5-.4.7-.7.9-5.4 2.9-10.8 5.7-16.2 8.6-8.1 4.3-16.1 8.6-24.2 12.9-.5.3-1 .5-1.6.4.8-4.8 1.5-9.7 2.3-14.5 1.5-1 3.2-1.7 4.8-2.6 7.2-3.8 14.4-7.7 21.7-11.5l3.3-1.8c.2-.2.6-.6 1.1-.2z"/><path class="st14" d="M447.7 41.7c-2.3.8-4.4 2.2-6.6 3.3-3 1.5-5.9 3.2-8.8 4.7-4.7 2.5-9.5 5-14.2 7.5-.4.2-.8.5-1.4.4.8-5.3 1.6-10.5 2.4-15.8 2-1.1 3.9-2.2 5.9-3.2 4.7-2.5 9.4-4.9 14.1-7.4 3-1.6 6-3.3 9-4.9.6-.3 1.2-.8 1.9-.7.2 1.3-.3 2.5-.5 3.8-.5 3.9-1.2 7.7-1.8 11.6.1.3 0 .5 0 .7z"/><path class="st23" d="M420.7 31.3c-.4-.1-.5 0-.8.4-.7.9-1.5 1.8-2.2 2.7-.4-.5-.1-1 0-1.5 1.8-7.3 3.4-14.6 4.8-22 .3-1.7.6-3.5-.2-5.2-.6-1.3-1.6-2.2-2.5-3.2-.2-.3-.9-.4-.4-1 3.8 1.2 5.3 4.2 4.5 8.4-.8 4.4-1.4 8.8-2.1 13.2-.3 1.8-.7 3.5-.7 5.4-.2.8-.3 1.8-.4 2.8z"/></svg>