<svg id="Layer_1" xmlns="http://www.w3.org/2000/svg" viewBox="0 0 44.4 14.6"><style>.st0{fill:#E80E71;}</style><path class="st0" d="M4.6 14.2c.2-2.3.2-4.7.1-7 0-2.2.1-4.6-.2-6.9h1.4c1.5 0 3.1 0 4.6.1 2.2.1 4 .9 5.5 2.6.7.8 1.1 1.8 1.2 2.8.3 1.8.1 3.5-.7 5.2-1 2-2.6 3.1-4.8 3.5-1 .2-1.9.1-2.9 0-1.3-.1-2.6-.1-4-.2 0-.1-.1-.1-.2-.1zM7.2 7v5.2c0 .2 0 .5.3.6.1.1.3.2.6.2.8.2 1.6.3 2.5.2 1.8-.3 3.2-1.2 3.9-2.9.5-1.3.7-2.6.5-3.9-.3-2-1.3-3.4-3.1-4.3-1.5-.6-2.9-.7-4.3-.7-.3 0-.4.1-.4.4V7zM31 14.3c.6-.5.8-1.2 1.1-1.9 1.2-3.3 2.4-6.5 3.6-9.8.2-.6.5-1.3.7-1.9.1-.2.2-.3.4-.3 1.6 0 2.8 1 3.3 2.5l1.8 5.7c.6 1.7 1.2 3.4 2.1 4.9.1.2.3.5.4.7.1.1.1.2-.1.3-.9.3-1.9.3-2.7-.3-.2-.2-.4-.5-.5-.7-.4-1.1-.7-2.2-1.1-3.4-.1-.2-.2-.3-.4-.3h-4.3c-.2 0-.3.1-.3.3-.3 1-.6 1.9-.9 2.9-.1.3-.2.6-.4.8-.2.4-.5.6-.9.7-.6.1-1.1.1-1.6-.1-.1 0-.1 0-.2-.1zm8.2-5.6c-.7-2-1.4-3.8-2.1-5.7H37c-.6 1.9-1.3 3.8-1.9 5.7h4.1zM35.3.7C34 2 33.5 3.6 33 5.2c-1.1 3-2.1 6-3.2 9-.1.3-.3.3-.5.3-1.5-.1-2.5-1-3-2.6s-1-3.3-1.5-4.9c-.6-1.6-1.3-3.3-1.9-4.9-.2-.5-.5-.9-.7-1.3-.1-.2-.1-.3.1-.4.8-.2 1.6-.2 2.4.2.4.2.6.5.7.9.7 2.3 1.5 4.5 2.2 6.7.4 1.1.8 2.3 1.2 3.4 0 .1.1.1.1.2.1-.2.1-.3.2-.4.9-2.7 1.7-5.5 2.6-8.2.2-.8.5-1.5.8-2.3.2-.4.5-.7.9-.7.5 0 1 0 1.6.1.1.3.1.3.3.4zM21.4 14.3c-.5.2-1.1.3-1.6.1-.6-.1-1-.7-1-1.3 0-1.8 0-3.6-.1-5.5 0-2 0-3.9-.1-5.9 0-.3-.1-.7-.1-1 0-.1 0-.2.1-.3.5 0 1-.1 1.6 0 .5.1.8.4.8 1V12.5c.1.6 0 1.3.4 1.8zM2.8 13.9c-.7.4-1.7.3-2.1-.3-.3-.3-.4-.8-.4-1.2v-4C.3 7.2.3 6 .1 4.9c0-.1.1-.2.1-.2.5 0 .9-.1 1.4-.1.6.1 1 .5 1 1.1v7c0 .3.1.7.2 1.2zM2.6 1.6c0 .8-.6 1.4-1.4 1.2-.5-.1-.9-.6-1-1.1C.2 1 .4.5.9.3 1.4 0 2 .2 2.3.7l.3.9z"/></svg>