<?xml version="1.0" encoding="utf-8"?>
<!-- Generator: Adobe Illustrator 20.0.0, SVG Export Plug-In . SVG Version: 6.00 Build 0)  -->
<svg version="1.1" id="Layer_1" xmlns="http://www.w3.org/2000/svg" xmlns:xlink="http://www.w3.org/1999/xlink" x="0px" y="0px"
	 viewBox="0 0 783 152" style="enable-background:new 0 0 783 152;" xml:space="preserve">
<style type="text/css">
	.st0{fill:#EE2824;}
	.st1{fill:#FFFFFF;}
</style>
<g>
	<g>
		<path class="st0" d="M149.1,75.9c0,41.7-32.6,75.6-74.3,75.6c-41.5,0-74.5-33.9-74.5-75.6c0-41.3,33-75.3,74.5-75.3
			C116.5,0.6,149.1,34.6,149.1,75.9z M5.5,75.9C16,98,40.7,119.6,74.8,119.6c33.9,0,58.8-21.6,69.3-43.7
			c-10.5-21.8-35.3-43.3-69.3-43.3C40.7,32.6,16,54.1,5.5,75.9z M74.8,36c-22.1,0-40.1,18-40.1,39.9c0,22.3,17.9,40.1,40.1,40.1
			c22.1,0,39.9-17.8,39.9-40.1C114.8,54,96.9,36,74.8,36z"/>
		<g>
			<path class="st1" d="M186.6,76.8c0-19.2,14.7-32.1,34.1-32.1c16.3,0,24.5,9.5,28.2,18l-16.2,7.5c-1.6-4.8-6.4-9-12-9
				c-9,0-15.1,6.9-15.1,15.5c0,8.6,6,15.5,15.1,15.5c5.6,0,10.4-4.2,12-9l16.2,7.4c-3.6,8.3-11.9,18.1-28.2,18.1
				C201.3,108.9,186.6,95.9,186.6,76.8z"/>
			<path class="st1" d="M253.4,107.8v-62h37.7c12.8,0,18.4,8.6,18.4,15.8c0,7.7-4.6,12.9-10.6,14.2c6.7,1,11.8,7.2,11.8,15.2
				c0,8.6-5.9,16.8-18.3,16.8L253.4,107.8L253.4,107.8z M290.5,64.9c0-2.1-1.8-3.5-3.7-3.5h-14.5v7.3h14.5
				C288.8,68.6,290.5,67.2,290.5,64.9z M291.8,88.3c0-2.2-1.7-4-4.4-4h-15.1v7.9h15.1C290,92.2,291.8,90.6,291.8,88.3z"/>
			<path class="st1" d="M312.7,99.1l9.8-13.9c4.6,4.5,11.6,8,20,8c3.5,0,6.9-0.9,6.9-3.3c0-6-34.6,0.1-34.6-24.4
				c0-10.5,8.7-20.6,25.8-20.6c10.1,0,19.3,2.9,26.3,8.6l-10,13.3c-5.4-4.1-12.4-6.1-18.2-6.1c-3.7,0-4.7,1.2-4.7,2.8
				c0,5.9,34.5,0.8,34.5,23.9c0,13.7-10.1,21.6-26.8,21.6C328.2,108.9,319.2,105,312.7,99.1z"/>
		</g>
	</g>
	<g>
		<path class="st1" d="M400.7,107.8v-63h5.4v63H400.7z"/>
		<path class="st1" d="M449.7,107.8V76.9c0-8.8-4.4-11.4-11-11.4c-5.9,0-11.9,3.7-14.8,7.8v34.5H419V62.2h4.9v6.9
			c3.3-4,9.8-8,16.4-8c9.3,0,14.3,4.5,14.3,14.8v31.9C454.5,107.8,449.7,107.8,449.7,107.8z"/>
		<path class="st1" d="M467.8,99V66.5h-7.6v-4.3h7.6V49.7h5v12.5h9.2v4.3h-9.2v31.7c0,3.7,1.5,6.2,4.7,6.2c2.2,0,4.1-1,5.1-2.2
			l1.9,3.8c-1.8,1.7-4,2.8-7.7,2.8C470.8,108.9,467.8,105.2,467.8,99z"/>
		<path class="st1" d="M485.8,84.9c0-13.2,9.3-23.9,22-23.9c13.9,0,21.5,11,21.5,24.2v1.3h-38.1c0.5,9.9,7.1,18.1,17.8,18.1
			c5.8,0,11-2.2,14.9-6.3l2.5,3.2c-4.5,4.7-10.3,7.4-17.8,7.4C495.2,108.9,485.8,99,485.8,84.9z M507.7,65.3
			c-10.8,0-16.1,9.4-16.5,17.4h33.1C524.2,74.9,519,65.3,507.7,65.3z"/>
		<path class="st1" d="M538.7,107.8V62.2h4.9V70c3.9-5.1,9.1-8.8,15.4-8.8v5.4c-0.8-0.2-1.5-0.2-2.5-0.2c-4.6,0-10.9,4.2-12.9,8.1
			v33.2h-4.9V107.8z"/>
		<path class="st1" d="M595,107.8v-5.4c-4.1,4.4-9.2,6.5-15.5,6.5c-7.8,0-16-5.4-16-15.2c0-9.9,8-15.1,16-15.1
			c6.3,0,11.5,2.1,15.5,6.5v-9.2c0-6.8-5.5-10.5-12.3-10.5c-5.7,0-10.1,2-14.3,6.7l-2.7-3.4c4.7-5.1,10-7.6,17.6-7.6
			c9.2,0,16.6,4.4,16.6,14.6v32.1H595z M595,98.8v-10c-3.2-4.2-8.3-6.3-13.8-6.3c-7.6,0-12.5,4.8-12.5,11.3
			c0,6.4,4.9,11.2,12.5,11.2C586.7,105.1,591.7,103,595,98.8z"/>
		<path class="st1" d="M609.2,84.9c0-13.3,8.8-23.9,22.2-23.9c7.9,0,12.5,3.1,16.1,7.7l-3.4,3c-3.3-4.5-7.5-6.3-12.5-6.3
			c-10.7,0-17.2,8.5-17.2,19.4c0,10.9,6.5,19.5,17.2,19.5c5,0,9.2-1.9,12.5-6.4l3.4,3c-3.7,4.7-8.2,7.8-16.1,7.8
			C618,108.9,609.2,98.3,609.2,84.9z"/>
		<path class="st1" d="M659.2,99V66.5h-7.6v-4.3h7.6V49.7h5v12.5h9.3v4.3h-9.3v31.7c0,3.7,1.5,6.2,4.7,6.2c2.2,0,4.1-1,5.1-2.2
			l1.9,3.8c-1.8,1.7-4,2.8-7.7,2.8C662,108.9,659.2,105.2,659.2,99z"/>
		<path class="st1" d="M680.9,51.3c0-2.1,1.8-3.7,3.8-3.7c2.1,0,3.8,1.6,3.8,3.7s-1.7,3.8-3.8,3.8C682.7,55,680.9,53.3,680.9,51.3z
			 M682.2,107.8V62.2h4.9v45.6H682.2z"/>
		<path class="st1" d="M712.7,107.8l-19.3-45.6h5.5l16.6,39.8l16.4-39.8h5.6l-19.3,45.6C718.2,107.8,712.7,107.8,712.7,107.8z"/>
		<path class="st1" d="M739.2,84.9c0-13.2,9.3-23.9,22-23.9c13.9,0,21.5,11,21.5,24.2v1.3h-38.2c0.5,9.9,7.1,18.1,17.8,18.1
			c5.8,0,11-2.2,14.9-6.3l2.5,3.2c-4.5,4.7-10.3,7.4-17.8,7.4C748.7,108.9,739.2,99,739.2,84.9z M761,65.3
			c-10.8,0-16.1,9.4-16.5,17.4h33.1C777.5,74.9,772.5,65.3,761,65.3z"/>
	</g>
</g>
</svg>
