<?xml version="1.0" encoding="UTF-8"?>
<svg width="168px" height="64px" viewBox="0 0 168 64" version="1.1" xmlns="http://www.w3.org/2000/svg" xmlns:xlink="http://www.w3.org/1999/xlink">
    <!-- Generator: Sketch 43.2 (39069) - http://www.bohemiancoding.com/sketch -->
    <title>prn_cision_logo_desktop</title>
    <desc>Created with Sketch.</desc>
    <defs>
        <polygon id="path-1" points="0.0261139897 0.171102041 79.9995544 0.171102041 159.972995 0.171102041 159.972995 46.8301497 0.0261139897 46.8301497"></polygon>
    </defs>
    <g id="Page-1" stroke="none" stroke-width="1" fill="none" fill-rule="evenodd">
        <g id="prn_cision_logo_desktop">
            <g id="prn_new_logo">
                <polyline id="Fill-1" fill="#00847F" points="38.4241244 0.56555102 31.8538446 0.56555102 31.8538446 19.2422313 38.4241244 18.4894694 38.4241244 0.56555102"></polyline>
                <polyline id="Fill-2" fill="#00847F" points="31.8538446 46.4435374 38.4241244 46.4435374 38.4241244 28.5113469 31.8538446 27.758585 31.8538446 46.4435374"></polyline>
                <polyline id="Fill-3" fill="#FF6C36" points="31.8538446 19.2422313 31.8538446 27.758585 38.4241244 28.5113469 38.4241244 18.4894694 31.8538446 19.2422313"></polyline>
                <path d="M56.9428601,14.9668571 C56.8784456,14.3447075 56.8462383,13.5814966 56.8462383,12.6798367 C56.8462383,11.9061769 56.9106528,11.1651701 57.0394819,10.456381 C57.1683109,9.74759184 57.3937617,9.12544218 57.7158342,8.5877551 C58.0379067,8.05093878 58.4888083,7.61077551 59.0685389,7.26682993 C59.6482694,6.92331973 60.3890363,6.75134694 61.2908394,6.75134694 C62.9656166,6.75134694 64.157285,7.29904762 64.8658446,8.39444898 C65.5748394,9.48985034 65.9286839,10.7894422 65.9286839,12.2927891 L65.9286839,13.7748027 L72.4989637,13.7748027 L72.4989637,10.553034 C72.4989637,9.26432653 72.2413057,8.00827211 71.7259896,6.784 C71.2106736,5.55972789 70.4699067,4.45387755 69.5036891,3.46514286 C68.5374715,2.47727891 67.3780104,1.68315646 66.0253057,1.08103401 C64.672601,0.479782313 63.1806218,0.17937415 61.5489326,0.17937415 C59.6582798,0.17937415 58.0056995,0.512 56.5885803,1.17812245 C55.1714611,1.8442449 54.0006839,2.73502041 53.0779896,3.8517551 C52.1539896,4.96979592 51.4571813,6.30029932 50.9845181,7.8467483 C50.5114197,9.39319728 50.2759585,11.0262857 50.2759585,12.7438367 C50.2759585,14.3399184 50.4300311,15.7818776 50.7268601,17.0801633 L57.3023627,16.3274014 C57.1182591,15.9307755 56.9959585,15.4797279 56.9428601,14.9668571" id="Fill-4" fill="#00847F"></path>
                <path d="M65.9286839,33.4275918 C65.9286839,34.4585578 65.8851606,35.4041905 65.7998549,36.2627483 C65.7132435,37.1221769 65.5099896,37.841415 65.1879171,38.4213333 C64.8658446,39.0016871 64.3927461,39.4527347 63.7707979,39.7744762 C63.147544,40.0966531 62.2779482,40.2573061 61.1620104,40.2573061 C59.4872332,40.2573061 58.2955648,39.7744762 57.5870052,38.8075102 C56.8784456,37.841415 56.5241658,36.7564626 56.5241658,35.5543946 L56.5241658,33.4920272 L49.953886,33.4920272 L49.953886,35.9401361 C49.953886,37.4870204 50.2437513,38.9272381 50.8234819,40.2573061 C51.4032124,41.5899864 52.1861969,42.7389388 53.1746114,43.7045986 C54.1617202,44.6715646 55.3425078,45.4347755 56.7174093,45.9920544 C58.0910052,46.5506395 59.5725389,46.8301497 61.1620104,46.8301497 C63.2654922,46.8301497 65.0486425,46.4857687 66.5084145,45.7991837 C67.9681865,45.113034 69.1385285,44.1782857 70.0190052,42.9962449 C70.8986114,41.8150748 71.5327461,40.397932 71.9192332,38.7439456 C72.3057202,37.0903946 72.4989637,35.2966531 72.4989637,33.3635918 C72.4989637,33.0370612 72.4928705,32.724898 72.486342,32.4127347 L65.8890777,31.6573605 C65.9147565,32.185034 65.9286839,32.7719184 65.9286839,33.4275918" id="Fill-5" fill="#00847F"></path>
                <path d="M71.2428808,25.4053878 C70.748456,24.3970612 70.0512124,23.5158639 69.1494093,22.7639728 C68.2476062,22.0129524 67.0659482,21.3572789 65.6066114,20.7982585 L60.5822798,18.8011973 C59.7226943,18.4576871 59.0467772,18.1137415 58.5532228,17.7697959 C58.0587979,17.4262857 57.6836269,17.0287891 57.4259689,16.5781769 C57.3802694,16.4985034 57.3419689,16.4127347 57.3023627,16.326966 L50.7268601,17.0801633 C50.9658031,18.1237551 51.2948394,19.0767891 51.725285,19.928381 C52.6915026,21.8405442 54.5917306,23.3756735 57.4259689,24.5355102 L62.128228,26.4685714 C62.9434197,26.812517 63.5988808,27.1355646 64.0928705,27.4355374 C64.5859896,27.736381 64.9724767,28.1225578 65.2523316,28.5953741 C65.5308808,29.0686259 65.7132435,29.6899048 65.7998549,30.464 C65.8385907,30.8149116 65.8677513,31.2171973 65.8890777,31.6569252 L72.486342,32.4131701 C72.4593575,31.1201088 72.3788394,29.9406803 72.2413057,28.884898 C72.0689534,27.5748571 71.736,26.4150204 71.2428808,25.4053878" id="Fill-6" fill="#FF6C36"></path>
                <polyline id="Fill-7" fill="#00847F" points="84.0287254 46.4435374 90.5994404 46.4435374 90.5994404 34.4877279 84.0287254 33.7354014 84.0287254 46.4435374"></polyline>
                <polyline id="Fill-8" fill="#00847F" points="90.5994404 0.56555102 84.0282902 0.56555102 84.0282902 13.2658503 90.5994404 12.5130884 90.5994404 0.56555102"></polyline>
                <polyline id="Fill-9" fill="#FF6C36" points="84.0287254 13.2662857 84.0287254 33.734966 90.5994404 34.4877279 90.5994404 12.5135238 84.0287254 13.2662857"></polyline>
                <path d="M110.921347,7.87896599 C111.800953,7.12794558 112.842466,6.75134694 114.045886,6.75134694 C115.246694,6.75134694 116.288642,7.12794558 117.169119,7.87896599 C117.61828,8.26209524 117.950363,8.75493878 118.170591,9.35531973 L124.77743,8.59863946 C124.617699,7.85197279 124.391378,7.14840816 124.094549,6.49360544 C123.449534,5.07602721 122.601264,3.90617687 121.549741,2.98187755 C120.496912,2.05844898 119.316124,1.36097959 118.006508,0.887727891 C116.696891,0.415346939 115.375523,0.178938776 114.045886,0.178938776 C112.713637,0.178938776 111.39314,0.415346939 110.083523,0.887727891 C108.773036,1.36097959 107.593119,2.05844898 106.541596,2.98187755 C105.488767,3.90617687 104.640497,5.07602721 103.996788,6.49360544 C103.387896,7.83281633 103.071047,9.36663946 103.037098,11.0889796 L109.678321,10.3279456 C109.837617,9.26955102 110.250653,8.45191837 110.921347,7.87896599" id="Fill-10" fill="#00847F"></path>
                <path d="M117.169119,39.1301224 C116.289078,39.882449 115.246694,40.2577415 114.045451,40.2577415 C112.842902,40.2577415 111.800518,39.882449 110.921782,39.1301224 C110.249347,38.5562993 109.83544,37.735619 109.677016,36.6724354 L103.036663,35.9122721 C103.069306,37.678585 103.386155,39.2254694 103.996788,40.5477007 C104.640933,41.9439456 105.488332,43.1037823 106.541161,44.0272109 C107.593119,44.9515102 108.773036,45.649415 110.083959,46.1213605 C111.393575,46.5941769 112.714073,46.830585 114.045451,46.830585 C115.375523,46.830585 116.696456,46.5941769 118.006943,46.1213605 C119.31656,45.649415 120.497347,44.9515102 121.549741,44.0272109 C122.601264,43.1037823 123.449969,41.9439456 124.094114,40.5477007 C124.398342,39.889415 124.628145,39.1727891 124.788311,38.403483 L118.173637,37.645932 C117.953409,38.2497959 117.620021,38.7456871 117.169119,39.1301224" id="Fill-11" fill="#00847F"></path>
                <path d="M125.059896,11.3906939 C125.059896,10.3971701 124.964145,9.46808163 124.777865,8.59863946 L118.170591,9.35531973 C118.382549,9.9334966 118.490052,10.6109388 118.490052,11.3906939 L118.490052,35.6183946 C118.490052,36.3946667 118.38342,37.0694966 118.173637,37.645932 L124.788311,38.403483 C124.967627,37.543619 125.059896,36.6162721 125.059896,35.6183946 L125.059896,11.3906939" id="Fill-12" fill="#FF6C36"></path>
                <path d="M109.601285,35.6183946 L109.601285,11.3906939 C109.601285,11.0119184 109.627834,10.6592653 109.677886,10.328381 L103.037098,11.0889796 C103.035358,11.189551 103.030135,11.288381 103.030135,11.3906939 L103.030135,35.6183946 C103.030135,35.7185306 103.034922,35.8138776 103.037098,35.9122721 L109.677016,36.6728707 C109.627834,36.3441633 109.601285,35.9936871 109.601285,35.6183946" id="Fill-13" fill="#FF6C36"></path>
                <polyline id="Fill-14" fill="#00847F" points="153.788767 46.4435374 159.97256 46.4435374 159.97256 42.4337415 151.995171 41.5203265 153.788767 46.4435374"></polyline>
                <polyline id="Fill-15" fill="#00847F" points="137.040995 46.4435374 143.611275 46.4435374 143.611275 40.5594558 137.040995 39.8071293 137.040995 46.4435374"></polyline>
                <polyline id="Fill-16" fill="#00847F" points="159.97256 0.56555102 153.401845 0.56555102 153.401845 5.31940136 159.97256 4.56707483 159.97256 0.56555102"></polyline>
                <polyline id="Fill-17" fill="#00847F" points="143.353617 0.56555102 137.040995 0.56555102 137.040995 7.19368707 145.389202 6.23760544 143.353617 0.56555102"></polyline>
                <g id="Group-21">
                    <mask id="mask-2" fill="white">
                        <use xlink:href="#path-1"></use>
                    </mask>
                    <g id="Clip-19"></g>
                    <polyline id="Fill-18" fill="#FF6C36" mask="url(#mask-2)" points="153.401845 5.31983673 153.401845 28.2083265 153.273451 28.2083265 145.388767 6.23760544 137.040995 7.19412245 137.040995 39.8066939 143.610839 40.5598912 143.610839 18.8651973 143.740104 18.8651973 151.995606 41.5203265 159.972995 42.4341769 159.972995 4.56707483 153.401845 5.31983673"></polyline>
                    <path d="M14.9119585,1.04097959 C13.6445596,0.461061224 12.2809741,0.171102041 10.8216373,0.171102041 C9.57556477,0.171102041 8.3094715,0.34307483 7.02118135,0.68614966 C5.73289119,1.02965986 4.57343005,1.62089796 3.54279793,2.45855782 C2.5121658,3.29621769 1.66346114,4.40163265 0.99842487,5.77697959 C0.332082902,7.15102041 0,8.89077551 0,10.9958095 L0,36.0050068 C0,38.1104762 0.332082902,39.8502313 0.99842487,41.2242721 C1.66346114,42.599619 2.5121658,43.705034 3.54279793,44.5426939 C4.57343005,45.3807891 5.73289119,45.9711565 7.02118135,46.3146667 C8.3094715,46.6577415 9.57556477,46.8301497 10.8216373,46.8301497 C12.2809741,46.8301497 13.6445596,46.5401905 14.9119585,45.9602721 C16.1780518,45.3807891 17.2844145,44.6066939 18.2293057,43.641034 C19.1733264,42.674068 19.9140933,41.546449 20.4516062,40.2577415 C20.9878135,38.969034 21.2567876,37.6163265 21.2567876,36.1983129 L21.2567876,31.6573605 L14.6155648,30.9220136 L14.6155648,32.9334422 C14.6155648,34.283102 14.6355855,37.3559728 13.8678342,38.5684898 C13.6780725,38.8680272 13.4595855,39.1327347 13.2062798,39.3639184 C12.8232746,39.6691156 12.4050155,39.8937687 11.9488912,40.0322177 C11.5854715,40.1436735 11.2398964,40.2124626 10.9121658,40.2411973 C10.8138031,40.2481633 10.7141347,40.2533878 10.610114,40.2555646 C9.0602487,40.2577415 8.01960622,39.8066939 7.43987565,38.9045986 C6.86014508,38.0025034 6.57027979,36.8862041 6.57027979,35.5543946 L6.57027979,11.4468571 C6.57027979,10.1150476 6.86014508,8.99831293 7.43987565,8.09665306 C8.01960622,7.19455782 9.0602487,6.7435102 10.5639793,6.7435102 C10.7141347,6.74742857 10.8138031,6.75308844 10.9121658,6.75961905 C11.2398964,6.78878912 11.5854715,6.85757823 11.9488912,6.96859864 C12.4050155,7.10704762 12.8232746,7.33257143 13.2062798,7.63689796 C13.4595855,7.86851701 13.6780725,8.13322449 13.8678342,8.43232653 C14.6355855,9.64527891 14.6155648,12.7181497 14.6155648,14.0673741 L14.6155648,16.0788027 L21.2472124,15.249415 L21.2567876,10.8029388 C21.2567876,9.38536054 20.9878135,8.03178231 20.4516062,6.7435102 C19.9140933,5.45480272 19.1733264,4.32718367 18.2293057,3.36065306 C17.2844145,2.39368707 16.1780518,1.62089796 14.9119585,1.04097959 Z" id="Fill-20" fill="#00847F" mask="url(#mask-2)"></path>
                </g>
                <path d="M165.105264,2.66144218 L165.58228,2.66144218 C165.78858,2.66144218 165.944829,2.63009524 166.048415,2.56957823 C166.151565,2.5077551 166.203358,2.40544218 166.203358,2.26133333 C166.203358,2.13855782 166.158093,2.04843537 166.06713,1.99140136 C165.975731,1.93436735 165.859088,1.90563265 165.715026,1.90563265 L165.105264,1.90563265 L165.105264,2.66144218 Z M164.686135,1.52468027 L165.702404,1.52468027 C166.315212,1.52468027 166.622052,1.77632653 166.622052,2.2804898 C166.622052,2.40761905 166.604207,2.51559184 166.568518,2.60397279 C166.532394,2.69322449 166.482777,2.7672381 166.420104,2.82644898 C166.355689,2.88609524 166.28257,2.93137415 166.200746,2.96315646 C166.117617,2.99493878 166.029699,3.01714286 165.93656,3.02933333 L166.705181,4.20440816 L166.197699,4.20440816 L165.429078,3.04239456 L165.105264,3.04239456 L165.105264,4.20440816 L164.686135,4.20440816 L164.686135,1.52468027 Z M167.398073,2.86432653 C167.398073,2.60614966 167.348021,2.36277551 167.251399,2.13420408 C167.153472,1.90563265 167.022031,1.70666667 166.857513,1.53730612 C166.69256,1.36794558 166.497575,1.23297959 166.273865,1.13414966 C166.04885,1.03488435 165.810342,0.984816327 165.556166,0.984816327 C165.30199,0.984816327 165.063047,1.03488435 164.839337,1.13414966 C164.614321,1.23297959 164.420207,1.36794558 164.254819,1.53730612 C164.089865,1.70666667 163.958425,1.90563265 163.861803,2.13420408 C163.763876,2.36277551 163.715565,2.60614966 163.715565,2.86432653 C163.715565,3.12293878 163.763876,3.36631293 163.861803,3.59488435 C163.958425,3.82345578 164.089865,4.02242177 164.254819,4.19178231 C164.420207,4.36114286 164.614321,4.4952381 164.839337,4.59493878 C165.063047,4.69463946 165.30199,4.74427211 165.556166,4.74427211 C165.810342,4.74427211 166.04885,4.69463946 166.273865,4.59493878 C166.497575,4.4952381 166.69256,4.36114286 166.857513,4.19178231 C167.022031,4.02242177 167.153472,3.82345578 167.251399,3.59488435 C167.348021,3.36631293 167.398073,3.12293878 167.398073,2.86432653 L167.398073,2.86432653 Z M163.258135,2.86432653 C163.258135,2.54693878 163.318632,2.24827211 163.439192,1.96919728 C163.559751,1.68968707 163.723399,1.44631293 163.931876,1.23863946 C164.138176,1.03140136 164.381907,0.867265306 164.661326,0.746666667 C164.940311,0.626068027 165.239316,0.565986395 165.556166,0.565986395 C165.874321,0.565986395 166.171585,0.626068027 166.451876,0.746666667 C166.730425,0.867265306 166.97372,1.03140136 167.181762,1.23863946 C167.388497,1.44631293 167.552145,1.68968707 167.673575,1.96919728 C167.79457,2.24827211 167.854632,2.54693878 167.854632,2.86432653 C167.854632,3.18214966 167.79457,3.48038095 167.673575,3.75989116 C167.552145,4.03940136 167.388497,4.28277551 167.181762,4.49001361 C166.97372,4.69768707 166.730425,4.86138776 166.451876,4.98242177 C166.171585,5.10258503 165.874321,5.16353741 165.556166,5.16353741 C165.239316,5.16353741 164.940311,5.10258503 164.661326,4.98242177 C164.381907,4.86138776 164.138176,4.69768707 163.931876,4.49001361 C163.723399,4.28277551 163.559751,4.03940136 163.439192,3.75989116 C163.318632,3.48038095 163.258135,3.18214966 163.258135,2.86432653 L163.258135,2.86432653 Z" id="Fill-22" fill="#00847F"></path>
                <path d="M6.4732228,57.7201633 C6.4732228,56.650449 5.78773057,56.1158095 4.58169948,56.1158095 L2.78592746,56.1158095 L2.78592746,59.3654422 L4.58169948,59.3654422 C5.78773057,59.3654422 6.4732228,58.8173061 6.4732228,57.7201633 M8.52926425,57.6509388 C8.52926425,59.886585 7.13129534,61.1757279 4.69137824,61.1757279 L2.78592746,61.1757279 L2.78592746,63.9177143 L0.620207254,63.9177143 L0.620207254,54.3194558 L4.69137824,54.3194558 C7.13129534,54.3194558 8.52926425,55.5263129 8.52926425,57.6509388" id="Fill-23" fill="#00847F"></path>
                <path d="M12.1773886,59.3654422 L14.1781554,59.3654422 C15.3706943,59.3654422 16.0566218,58.8168707 16.0566218,57.7201633 C16.0566218,56.650449 15.3706943,56.1158095 14.1781554,56.1158095 L12.1773886,56.1158095 L12.1773886,59.3654422 Z M15.9051606,63.9181497 L14.3835855,61.1752925 L12.1773886,61.1752925 L12.1773886,63.9181497 L10.0107979,63.9181497 L10.0107979,54.3194558 L14.1781554,54.3194558 C16.6864041,54.3194558 18.112228,55.5267483 18.112228,57.6513741 C18.112228,59.132517 17.4820104,60.2022313 16.316456,60.7508027 L18.3594404,63.9181497 L15.9051606,63.9181497 L15.9051606,63.9181497 Z" id="Fill-24" fill="#00847F"></path>
                <polyline id="Fill-25" fill="#00847F" points="25.3244767 54.3194558 29.9853886 60.4895782 29.9853886 54.3194558 32.0418653 54.3194558 32.0418653 63.9181497 30.0672124 63.9181497 25.4206632 57.7610884 25.4206632 63.9181497 23.3506943 63.9181497 23.3506943 54.3194558 25.3244767 54.3194558"></polyline>
                <path d="M39.0199585,59.6262313 C38.9929741,58.6527347 38.361886,58.0218776 37.3887047,58.0218776 C36.4568705,58.0218776 35.8262176,58.6527347 35.6616995,59.6262313 L39.0199585,59.6262313 Z M40.9937409,60.8740136 L35.7030466,60.8740136 C35.9493886,61.8061497 36.6623005,62.3551565 37.6080622,62.3551565 C38.3070466,62.3551565 38.9651192,62.0804354 39.472601,61.5736599 L40.5828808,62.6977959 C39.8425492,63.5202177 38.7596891,64 37.4300518,64 C35.0723938,64 33.5782383,62.4922993 33.5782383,60.2566531 C33.5782383,57.980517 35.1272332,56.472381 37.3752124,56.472381 C39.9657202,56.472381 41.1721865,58.1860136 40.9937409,60.8740136 L40.9937409,60.8740136 Z" id="Fill-26" fill="#00847F"></path>
                <polyline id="Fill-27" fill="#00847F" points="43.3396477 56.5411701 44.9839585 61.8200816 46.5747358 56.5411701 48.6442694 56.5411701 50.2615959 61.8200816 51.8793575 56.5411701 53.9623834 56.5411701 51.2761244 63.9181497 49.1648083 63.9181497 47.5753368 59.0502313 45.9989223 63.9181497 43.8876062 63.9181497 41.1869845 56.5542313 43.3396477 56.5411701"></polyline>
                <path d="M57.2962694,57.994449 C56.8022798,57.994449 56.4458238,58.158585 56.4458238,58.5430204 C56.4458238,59.6536599 60.3385492,59.0915918 60.325057,61.696 C60.325057,63.2045714 58.9954197,63.9995646 57.3232539,63.9995646 C56.130715,63.9995646 54.9660311,63.6438639 54.1299482,62.9716463 L54.8145699,61.5457959 C55.5827565,62.1348571 56.5698653,62.4644354 57.3780933,62.4644354 C57.9129948,62.4644354 58.3103627,62.2863673 58.3103627,61.8884354 C58.3103627,60.7094422 54.4859689,61.3402993 54.4859689,58.748517 C54.4859689,57.226449 55.7877513,56.4449524 57.3915855,56.4449524 C58.406114,56.4449524 59.4476269,56.7462313 60.2706528,57.2678095 L59.5442487,58.7071565 C58.7351503,58.2548027 57.9129948,57.994449 57.2962694,57.994449" id="Fill-28" fill="#00847F"></path>
                <polyline id="Fill-29" fill="#00847F" points="62.8350466 56.5411701 64.4793575 61.8200816 66.0696995 56.5411701 68.1396684 56.5411701 69.7569948 61.8200816 71.3743212 56.5411701 73.4577824 56.5411701 70.7710881 63.9181497 68.6602073 63.9181497 67.0707358 59.0502313 65.493886 63.9181497 63.3830052 63.9181497 60.6823834 56.5542313 62.8350466 56.5411701"></polyline>
                <path d="M76.5718756,54.443102 C76.5718756,55.0465306 76.1470881,55.4988844 75.5438549,55.4988844 C74.9406218,55.4988844 74.5158342,55.0465306 74.5158342,54.443102 C74.5158342,53.8261769 74.9406218,53.3873197 75.5438549,53.3873197 C76.1470881,53.3873197 76.5718756,53.8261769 76.5718756,54.443102 L76.5718756,54.443102 Z M74.4884145,63.9177143 L76.5992953,63.9177143 L76.5992953,56.5407347 L74.4884145,56.5407347 L74.4884145,63.9177143 Z" id="Fill-30" fill="#00847F"></path>
                <path d="M83.2753368,56.4588844 L83.2753368,58.4472381 C81.7676891,58.3092245 80.8354197,59.1190204 80.8354197,60.3668027 L80.8354197,63.9181497 L78.7245389,63.9181497 L78.7245389,56.5411701 L80.8354197,56.5411701 L80.8354197,57.8712381 C81.3429016,56.9665306 82.1785492,56.472381 83.2753368,56.4588844" id="Fill-31" fill="#00847F"></path>
                <path d="M89.3346528,59.6262313 C89.3076684,58.6527347 88.6770155,58.0218776 87.703399,58.0218776 C86.7715648,58.0218776 86.1409119,58.6527347 85.976829,59.6262313 L89.3346528,59.6262313 Z M91.3084352,60.8740136 L86.0177409,60.8740136 C86.2645181,61.8061497 86.9774301,62.3551565 87.9227565,62.3551565 C88.6221762,62.3551565 89.2802487,62.0804354 89.7868601,61.5736599 L90.8971399,62.6977959 C90.1576788,63.5202177 89.0743834,64 87.7451813,64 C85.3870881,64 83.8933679,62.4922993 83.8933679,60.2566531 C83.8933679,57.980517 85.4423627,56.472381 87.6899067,56.472381 C90.2808497,56.472381 91.4868808,58.1860136 91.3084352,60.8740136 L91.3084352,60.8740136 Z" id="Fill-32" fill="#00847F"></path>
            </g>
        </g>
    </g>
</svg>