<?xml version="1.0" encoding="UTF-8"?>
<svg width="107px" height="42px" viewBox="0 0 107 42" version="1.1" xmlns="http://www.w3.org/2000/svg" xmlns:xlink="http://www.w3.org/1999/xlink">
    <!-- Generator: Sketch 43.2 (39069) - http://www.bohemiancoding.com/sketch -->
    <title>prn_cision_logo_mobile</title>
    <desc>Created with Sketch.</desc>
    <defs>
        <polygon id="path-1" points="8.31606218e-05 0.0281879195 13.5386324 0.0281879195 13.5386324 30.2371248 8.31606218e-05 30.2371248 8.31606218e-05 0.0281879195"></polygon>
    </defs>
    <g id="Page-1" stroke="none" stroke-width="1" fill="none" fill-rule="evenodd">
        <g id="prn_cision_logo_mobile">
            <g id="mobile_logo">
                <polygon id="Fill-1" fill="#FEFEFE" points="24.4725632 0.537233557 20.2879207 0.537233557 20.2879207 12.6290054 24.4725632 12.1419181"></polygon>
                <polygon id="Fill-2" fill="#FEFEFE" points="20.2878653 30.2405074 24.4725078 30.2405074 24.4725078 18.6304671 20.2878653 18.143098"></polygon>
                <polygon id="Fill-3" fill="#FF6C36" points="20.2878653 12.6294 20.2878653 18.1432389 24.4725078 18.6306081 24.4725078 12.1420309"></polygon>
                <g id="Group-61" transform="translate(0.000000, 0.253691)">
                    <path d="M36.2673174,9.60757047 C36.2262915,9.2047651 36.2057785,8.71063087 36.2057785,8.12657718 C36.2057785,7.62595973 36.2468044,7.14620134 36.3288562,6.68730201 C36.410908,6.22840268 36.5544987,5.82559732 36.7596282,5.47747651 C36.9647578,5.12991946 37.2519391,4.8449396 37.6211723,4.62197315 C37.9904054,4.39985235 38.4622034,4.28851007 39.0365661,4.28851007 C40.1032396,4.28851007 40.8622189,4.64311409 41.3135039,5.35232215 C41.7647889,6.0615302 41.9904313,6.9029396 41.9904313,7.87598658 L41.9904313,8.83578523 L46.1750738,8.83578523 L46.1750738,6.74987919 C46.1750738,5.91551678 46.0109702,5.10201342 45.682763,4.30936913 C45.3545557,3.51672483 44.8827578,2.80103356 44.2673692,2.16088591 C43.6519806,1.52130201 42.9135142,1.00715436 42.0519702,0.617033557 C41.1904262,0.228040268 40.2399003,0.033261745 39.2006697,0.033261745 C37.9967811,0.033261745 36.9442448,0.248899329 36.0416749,0.679892617 C35.1391049,1.11144966 34.3934313,1.6881745 33.805763,2.41119463 C33.217263,3.13477852 32.7731852,3.99648322 32.472421,4.99771812 C32.1711023,5.99895302 32.021136,7.05628188 32.021136,8.1682953 C32.021136,9.20166443 32.1192655,10.1352483 32.3083174,10.9758121 L36.4962863,10.488443 C36.3790298,10.2319329 36.301136,9.93962416 36.2673174,9.60757047" id="Fill-4" fill="#FEFEFE"></path>
                    <path d="M41.9904313,21.559643 C41.9904313,22.2271329 41.9627111,22.8393745 41.9083795,23.3955221 C41.8532163,23.9519517 41.723763,24.4176161 41.5186334,24.7930792 C41.3135039,25.1685423 41.0121852,25.4605691 40.6160635,25.6688779 C40.2191101,25.8774685 39.6652604,25.9817638 38.9545142,25.9817638 C37.8878407,25.9817638 37.1288614,25.6688779 36.6775764,25.043106 C36.2262915,24.4176161 36.000649,23.7148913 36.000649,22.9366228 L36.000649,21.6010792 L31.8160065,21.6010792 L31.8160065,23.1863678 C31.8160065,24.1878846 32.0006231,25.1203409 32.3698562,25.9817638 C32.7390894,26.8443141 33.2377759,27.5881933 33.8673018,28.2134013 C34.4959961,28.839455 35.2480453,29.3335893 36.1237267,29.6946765 C36.9985764,30.0560456 37.9421723,30.2370121 38.9545142,30.2370121 C40.2942319,30.2370121 41.4296516,30.0140456 42.3596645,29.5695221 C43.2891231,29.1252805 44.0347966,28.5200859 44.5955764,27.7550658 C45.1558018,26.9903275 45.5596852,26.0725289 45.8058407,25.0016698 C46.0519961,23.9310926 46.1750738,22.7697503 46.1750738,21.5182067 C46.1750738,21.3070792 46.171193,21.1046899 46.167035,20.9028644 L41.965206,20.4135221 C41.9815609,20.7554416 41.9904313,21.1351329 41.9904313,21.559643" id="Fill-6" fill="#FEFEFE"></path>
                    <path d="M45.3750687,16.3657933 C45.0601671,15.7129611 44.6160894,15.1421557 44.0417267,14.6556322 C43.467364,14.1691087 42.7147604,13.7445987 41.7853018,13.3829477 L38.5852811,12.0896859 C38.037807,11.8672832 37.607035,11.6448805 37.292965,11.422196 C36.9780635,11.2000752 36.7391153,10.9427195 36.5750117,10.6506926 C36.5459054,10.5988268 36.5215117,10.5435785 36.4962863,10.4883302 L32.3083174,10.9756993 C32.4605013,11.6513638 32.6700661,12.2686792 32.9442189,12.8200349 C33.5596075,14.0577664 34.7698718,15.0519544 36.5750117,15.8025987 L39.5699028,17.0541423 C40.0891023,17.2768268 40.5065687,17.4859812 40.821193,17.6799141 C41.135263,17.8749745 41.3814184,18.1250013 41.5596593,18.4308403 C41.7370687,18.737243 41.8532163,19.1400483 41.9083795,19.6406658 C41.9330505,19.8684242 41.9516231,20.1285987 41.965206,20.4132966 L46.167035,20.9029208 C46.1498484,20.0660215 46.0985661,19.3021289 46.0109702,18.6185718 C45.9011982,17.7703973 45.6891386,17.0194711 45.3750687,16.3657933" id="Fill-8" fill="#FF6C36"></path>
                    <polygon id="Fill-10" fill="#FEFEFE" points="53.5182676 29.9868161 57.7031873 29.9868161 57.7031873 22.2461315 53.5182676 21.7587624"></polygon>
                    <polygon id="Fill-12" fill="#FEFEFE" points="57.7031041 0.283542282 53.5181845 0.283542282 53.5181845 8.50624027 57.7031041 8.01915302"></polygon>
                    <polygon id="Fill-14" fill="#FF6C36" points="53.5182676 8.50621208 53.5182676 21.7590443 57.7031873 22.2458497 57.7031873 8.01884295"></polygon>
                    <path d="M70.6463342,5.01849262 C71.2065596,4.53196913 71.8699041,4.2884255 72.6363679,4.2884255 C73.4011684,4.2884255 74.0647902,4.53196913 74.6255699,5.01849262 C74.9116425,5.26654631 75.1231477,5.58591544 75.2634119,5.97434497 L79.4713394,5.48443893 C79.3696062,5.00101611 79.2254611,4.54578121 79.0364093,4.12127114 C78.6255959,3.20375436 78.085329,2.44634497 77.4156088,1.84791544 C76.745057,1.25004966 75.9930078,0.798479195 75.1589067,0.491794631 C74.3248057,0.185955705 73.4832202,0.032895302 72.6363679,0.032895302 C71.7878523,0.032895302 70.9468212,0.185955705 70.1127202,0.491794631 C69.2780648,0.798479195 68.5268472,1.25004966 67.8568497,1.84791544 C67.1862979,2.44634497 66.6460311,3.20375436 66.2360492,4.12127114 C65.8482435,4.98861342 65.6461632,5.98167383 65.6248187,7.09678792 L69.8546451,6.60406309 C69.956101,5.91881477 70.2191658,5.38916376 70.6463342,5.01849262" id="Fill-16" fill="#FEFEFE"></path>
                    <path d="M74.6256808,25.2518658 C74.0651782,25.738953 73.4012793,25.9819329 72.6359244,25.9819329 C71.8702922,25.9819329 71.2063933,25.738953 70.6467223,25.2518658 C70.2184451,24.880349 69.9545487,24.3490067 69.8536472,23.6603758 L65.6243751,23.1684966 C65.6454425,24.3120805 65.8475228,25.3138792 66.2358829,26.1696644 C66.646142,27.073651 67.1858544,27.8245772 67.8566834,28.422443 C68.5266808,29.0208725 69.2781756,29.4727248 70.1128311,29.7782819 C70.9469321,30.0841208 71.7882404,30.2371812 72.6359244,30.2371812 C73.4833311,30.2371812 74.3243622,30.0841208 75.1592948,29.7782819 C75.9933959,29.4727248 76.7451679,29.0208725 77.4154425,28.422443 C78.0851627,27.8245772 78.6259839,27.073651 79.0359658,26.1696644 C79.2297301,25.7431812 79.3763699,25.2794899 79.4783803,24.7816913 L75.2654632,24.2909396 C75.125199,24.681906 74.912585,25.0029664 74.6256808,25.2518658" id="Fill-18" fill="#FEFEFE"></path>
                    <path d="M79.6513267,7.29196107 C79.6513267,6.64927651 79.590065,6.04718255 79.4716997,5.48455168 L75.2634951,5.97417584 C75.3982153,6.34851141 75.4666842,6.78711544 75.4666842,7.29196107 L75.4666842,22.9779745 C75.4666842,23.480847 75.3987697,23.9174779 75.2654355,24.2912497 L79.4783526,24.7817195 C79.5925598,24.2244443 79.6513267,23.6240416 79.6513267,22.9779745 L79.6513267,7.29196107 Z" id="Fill-20" fill="#FF6C36"></path>
                    <path d="M69.8053863,22.9781154 L69.8053863,7.29210201 C69.8053863,7.04686711 69.8225728,6.81854497 69.854451,6.60431678 L65.6249018,7.09675973 C65.623793,7.16187383 65.6204666,7.22614228 65.6204666,7.29210201 L65.6204666,22.9781154 C65.6204666,23.0426658 65.6235158,23.1049611 65.6246246,23.1683839 L69.8538966,23.6608268 C69.8225728,23.4480081 69.8053863,23.2213772 69.8053863,22.9781154" id="Fill-22" fill="#FF6C36"></path>
                    <polygon id="Fill-24" fill="#FEFEFE" points="97.9488256 29.9868161 101.887313 29.9868161 101.887313 27.3909906 96.8064759 26.7990443"></polygon>
                    <polygon id="Fill-26" fill="#FEFEFE" points="87.281979 29.9868161 91.4668987 29.9868161 91.4668987 26.1775007 87.281979 25.6901315"></polygon>
                    <polygon id="Fill-28" fill="#FEFEFE" points="101.88734 0.283542282 97.7024207 0.283542282 97.7024207 3.36166309 101.88734 2.87429396"></polygon>
                    <polygon id="Fill-30" fill="#FEFEFE" points="91.3024902 0.283542282 87.2819513 0.283542282 87.2819513 4.57487114 92.5992415 3.95586443"></polygon>
                    <polygon id="Fill-32" fill="#FF6C36" points="97.7025039 3.3616349 97.7025039 18.1805879 97.6204521 18.1805879 92.5989365 3.95555436 87.2819236 4.57484295 87.2819236 25.6901315 91.4665661 26.1772188 91.4665661 12.1314604 91.5488951 12.1314604 96.806864 26.7987624 101.887701 27.3909906 101.887701 2.87426577"></polygon>
                    <g id="Group-36">
                        <mask id="mask-2" fill="white">
                            <use xlink:href="#path-1"></use>
                        </mask>
                        <g id="Clip-35"></g>
                        <path d="M11.6104148,2.09317852 C11.0086091,1.46712483 10.3039614,0.966789262 9.49758057,0.591326174 C8.69036813,0.215863087 7.82189404,0.0281315436 6.89243549,0.0281315436 C6.09880596,0.0281315436 5.29242513,0.139473826 4.47190699,0.361312752 C3.65138886,0.583997315 2.91292254,0.966789262 2.25650803,1.50912483 C1.60009352,2.0514604 1.05954948,2.76715168 0.635984715,3.65760805 C0.211588342,4.54721879 8.31606218e-05,5.67360805 8.31606218e-05,7.03649396 L8.31606218e-05,15.1326282 L8.31606218e-05,23.2281987 C8.31606218e-05,24.5910846 0.211588342,25.7180376 0.635984715,26.6076483 C1.05954948,27.4981047 1.60009352,28.213796 2.25650803,28.7561315 C2.91292254,29.2984671 3.65138886,29.6809772 4.47190699,29.9033799 C5.29242513,30.1255007 6.09880596,30.2371248 6.89243549,30.2371248 C7.82189404,30.2371248 8.69036813,30.0493933 9.49758057,29.6739302 C10.3039614,29.2984671 11.0086091,28.7978497 11.6104148,28.1720779 C12.2116661,27.546306 12.683464,26.8162389 13.0258085,25.9818765 C13.3673215,25.1475141 13.5386324,24.2714336 13.5386324,23.3536349 L13.5386324,20.4136349 L9.30880596,19.9375409 L9.30880596,21.2398228 C9.30880596,22.1130846 9.32155725,24.1031517 8.8325728,24.8881852 C8.71171269,25.0821181 8.57255725,25.2535007 8.41122565,25.4031785 C8.16728782,25.600494 7.90089663,25.7462255 7.61038886,25.8355812 C7.37892513,25.9077423 7.15882668,25.9525611 6.95009352,25.9711651 C6.88744585,25.9756752 6.82396658,25.9793396 6.75771528,25.980749 C6.74801321,25.980749 6.73803394,25.9818765 6.72833187,25.9818765 C5.7705987,25.9818765 5.10780855,25.6898497 4.73857539,25.105796 C4.36934223,24.5217423 4.18472565,23.799004 4.18472565,22.9364537 L4.18472565,15.1326282 L4.18472565,7.32852081 C4.18472565,6.46625235 4.36934223,5.74323221 4.73857539,5.1594604 C5.10780855,4.57540671 5.7705987,4.28337987 6.72833187,4.28337987 C6.73803394,4.28337987 6.74801321,4.28394362 6.75771528,4.2842255 C6.82396658,4.28591678 6.88744585,4.28958121 6.95009352,4.29409128 C7.15882668,4.3126953 7.37892513,4.35723221 7.61038886,4.42911141 C7.90089663,4.51874899 8.16728782,4.66476242 8.41122565,4.86207785 C8.57255725,5.0117557 8.71171269,5.18313826 8.8325728,5.37650738 C9.32155725,6.1621047 9.30880596,8.15160805 9.30880596,9.02515168 L9.30880596,10.3274336 L13.5325339,9.79045369 L13.5386324,6.91162148 C13.5386324,5.99382282 13.3673215,5.1174604 13.0258085,4.28337987 C12.683464,3.44901745 12.2116661,2.71895034 11.6104148,2.09317852" id="Fill-34" fill="#FEFEFE" mask="url(#mask-2)"></path>
                    </g>
                    <path d="M105.156357,1.6403396 L105.46017,1.6403396 C105.591564,1.6403396 105.69108,1.62060805 105.757054,1.58086309 C105.822751,1.54055436 105.85546,1.47459463 105.85546,1.3815745 C105.85546,1.30180268 105.826909,1.24345369 105.768973,1.20652752 C105.710761,1.16960134 105.636194,1.15127919 105.54444,1.15127919 L105.156357,1.15127919 L105.156357,1.6403396 Z M104.889411,0.90435302 L105.536678,0.90435302 C105.926978,0.90435302 106.122406,1.06756107 106.122406,1.3936953 C106.122406,1.47600403 106.111041,1.54591007 106.08831,1.60313154 C106.065302,1.66091678 106.033701,1.70883624 105.993784,1.74717181 C105.952758,1.78578926 105.906188,1.8151047 105.854074,1.83568188 C105.801129,1.85625906 105.745134,1.8706349 105.685813,1.8788094 L106.175352,2.63931946 L105.852134,2.63931946 L105.362595,1.88698389 L105.156357,1.88698389 L105.156357,2.63931946 L104.889411,2.63931946 L104.889411,0.90435302 Z M106.616657,1.77197718 C106.616657,1.60482282 106.584779,1.44668859 106.52324,1.29926577 C106.46087,1.15127919 106.377155,1.02217852 106.272095,0.912527517 C106.167035,0.803158389 106.043126,0.716057718 105.900644,0.651507383 C105.757331,0.587238926 105.605424,0.554822819 105.443538,0.554822819 C105.281652,0.554822819 105.129468,0.587238926 104.986986,0.651507383 C104.843673,0.716057718 104.720041,0.803158389 104.614704,0.912527517 C104.509644,1.02217852 104.425929,1.15127919 104.36439,1.29926577 C104.30202,1.44668859 104.271251,1.60482282 104.271251,1.77197718 C104.271251,1.93913154 104.30202,2.09670201 104.36439,2.24468859 C104.425929,2.39267517 104.509644,2.52149396 104.614704,2.63114497 C104.720041,2.74079597 104.843673,2.82789664 104.986986,2.8921651 C105.129468,2.95671544 105.281652,2.98884966 105.443538,2.98884966 C105.605424,2.98884966 105.757331,2.95671544 105.900644,2.8921651 C106.043126,2.82789664 106.167035,2.74079597 106.272095,2.63114497 C106.377155,2.52149396 106.46087,2.39267517 106.52324,2.24468859 C106.584779,2.09670201 106.616657,1.93913154 106.616657,1.77197718 L106.616657,1.77197718 Z M103.979911,1.77197718 C103.979911,1.56620537 104.018442,1.37311812 104.095227,1.19215168 C104.172012,1.01118523 104.27624,0.853614765 104.40902,0.719158389 C104.540414,0.584983893 104.695647,0.478715436 104.873333,0.400916779 C105.051297,0.322554362 105.241735,0.283655034 105.443538,0.283655034 C105.646173,0.283655034 105.835502,0.322554362 106.01402,0.400916779 C106.191152,0.478715436 106.346385,0.584983893 106.478888,0.719158389 C106.610559,0.853614765 106.714787,1.01118523 106.791849,1.19215168 C106.869188,1.37311812 106.907165,1.56620537 106.907165,1.77197718 C106.907165,1.97746711 106.869188,2.17083624 106.791849,2.35123893 C106.714787,2.53248725 106.610559,2.69005772 106.478888,2.82451409 C106.346385,2.95868859 106.191152,3.06495705 106.01402,3.14303758 C105.835502,3.22111812 105.646173,3.26029933 105.443538,3.26029933 C105.241735,3.26029933 105.051297,3.22111812 104.873333,3.14303758 C104.695647,3.06495705 104.540414,2.95868859 104.40902,2.82451409 C104.27624,2.69005772 104.172012,2.53248725 104.095227,2.35123893 C104.018442,2.17083624 103.979911,1.97746711 103.979911,1.77197718 L103.979911,1.77197718 Z" id="Fill-37" fill="#FEFEFE"></path>
                    <path d="M4.12282642,37.6520698 C4.12282642,36.9594926 3.68623316,36.613345 2.91810622,36.613345 L1.77437047,36.613345 L1.77437047,38.7172913 L2.91810622,38.7172913 C3.68623316,38.7172913 4.12282642,38.3626872 4.12282642,37.6520698 M5.43232902,37.6078148 C5.43232902,39.0549826 4.54195596,39.889345 2.98796114,39.889345 L1.77437047,39.889345 L1.77437047,41.664902 L0.395012953,41.664902 L0.395012953,35.4503114 L2.98796114,35.4503114 C4.54195596,35.4503114 5.43232902,36.2316805 5.43232902,37.6078148" id="Fill-39" fill="#FEFEFE"></path>
                    <path d="M7.75569819,38.7173758 L9.03027332,38.7173758 C9.78980699,38.7173758 10.2264003,38.3622081 10.2264003,37.6524362 C10.2264003,36.9598591 9.78980699,36.6134295 9.03027332,36.6134295 L7.75569819,36.6134295 L7.75569819,38.7173758 Z M10.1302111,41.6649866 L9.16111269,39.8894295 L9.03027332,39.8894295 L7.75569819,39.8894295 L7.75569819,41.6649866 L6.37606347,41.6649866 L6.37606347,35.450396 L9.03027332,35.450396 C10.6277889,35.450396 11.5359028,36.232047 11.5359028,37.6076174 C11.5359028,38.5665705 11.134237,39.2588658 10.3921671,39.6143154 L11.6930764,41.6649866 L10.1302111,41.6649866 Z" id="Fill-41" fill="#FEFEFE"></path>
                    <polygon id="Fill-43" fill="#FEFEFE" points="16.1294184 35.4504242 19.0976982 39.445498 19.0976982 35.4504242 20.407478 35.4504242 20.407478 41.6650148 19.1500894 41.6650148 16.1906801 37.6786792 16.1906801 41.6650148 14.872307 41.6650148 14.872307 35.4504242"></polygon>
                    <g id="Group-47" transform="translate(21.344560, 36.644295)" fill="#FEFEFE">
                        <path d="M3.50752098,2.24181342 C3.49033446,1.61153154 3.08839145,1.20308859 2.46856762,1.20308859 C1.87507798,1.20308859 1.47341218,1.61153154 1.36862979,2.24181342 L3.50752098,2.24181342 Z M4.76463238,3.04967919 L1.39496399,3.04967919 C1.55186036,3.65346443 2.00591736,4.00863221 2.60827746,4.00863221 C3.05346399,4.00863221 3.47259352,3.83104832 3.79581114,3.50265906 L4.50295363,4.23047114 C4.0314329,4.76294094 3.34175415,5.07385369 2.49490181,5.07385369 C0.993298187,5.07385369 0.0416634715,4.09742416 0.0416634715,2.65025638 C0.0416634715,1.17659195 1.02822565,0.200162416 2.45997435,0.200162416 C4.10988109,0.200162416 4.87828523,1.30963893 4.76463238,3.04967919 L4.76463238,3.04967919 Z" id="Fill-45"></path>
                    </g>
                    <polygon id="Fill-48" fill="#FEFEFE" points="27.6031171 36.8887409 28.6506637 40.3065262 29.6635601 36.8887409 30.981656 36.8887409 32.0120161 40.3065262 33.042099 36.8887409 34.3690653 36.8887409 32.6578969 41.664902 31.3134668 41.664902 30.3008477 38.5134926 29.2968218 41.664902 27.9523917 41.664902 26.2323528 36.8974792"></polygon>
                    <path d="M36.4921282,37.8296255 C36.1777811,37.8296255 35.9507526,37.9361758 35.9507526,38.1850752 C35.9507526,38.904149 38.4300479,38.540243 38.4214547,40.2264443 C38.4214547,41.2034376 37.5746023,41.7178671 36.5093148,41.7178671 C35.7500583,41.7178671 35.0079883,41.4875718 34.4754832,41.0523503 L34.9117992,40.1289141 C35.4007837,40.5108604 36.029478,40.7239611 36.5442422,40.7239611 C36.8849236,40.7239611 37.1380091,40.6083906 37.1380091,40.3510349 C37.1380091,39.5874242 34.7022345,39.996149 34.7022345,38.3178403 C34.7022345,37.3323906 35.5316231,36.8264174 36.5531127,36.8264174 C37.1992707,36.8264174 37.8626153,37.0220416 38.3865272,37.3591691 L37.9238769,38.2916255 C37.4088355,37.9984711 36.8849236,37.8296255 36.4921282,37.8296255" id="Fill-50" fill="#FEFEFE"></path>
                    <polygon id="Fill-52" fill="#FEFEFE" points="40.0198295 36.8887409 41.0673762 40.3065262 42.0802725 36.8887409 43.3983684 36.8887409 44.4287285 40.3065262 45.4588114 36.8887409 46.7857777 36.8887409 45.0746093 41.664902 43.7301793 41.664902 42.7175601 38.5134926 41.7135342 41.664902 40.3691041 41.664902 38.6490653 36.8974792"></polygon>
                    <path d="M48.7690199,35.5305342 C48.7690199,35.9212188 48.4984707,36.2140913 48.1142687,36.2140913 C47.7300666,36.2140913 47.4595174,35.9212188 47.4595174,35.5305342 C47.4595174,35.1311114 47.7300666,34.8469772 48.1142687,34.8469772 C48.4984707,34.8469772 48.7690199,35.1311114 48.7690199,35.5305342 L48.7690199,35.5305342 Z M47.4420536,41.6650711 L48.7864837,41.6650711 L48.7864837,36.8891919 L47.4420536,36.8891919 L47.4420536,41.6650711 Z" id="Fill-54" fill="#FEFEFE"></path>
                    <path d="M53.0384585,36.8353248 L53.0384585,38.1226671 C52.0782306,38.0335933 51.4844637,38.5576067 51.4844637,39.3657544 L51.4844637,41.665043 L50.1400337,41.665043 L50.1400337,36.8886 L51.4844637,36.8886 L51.4844637,37.7497409 C51.8076813,37.163996 52.3399093,36.844345 53.0384585,36.8353248" id="Fill-56" fill="#FEFEFE"></path>
                    <g id="Group-60" transform="translate(53.222798, 36.644295)" fill="#FEFEFE">
                        <path d="M3.67508964,2.24181342 C3.65762591,1.61153154 3.2559601,1.20308859 2.63613627,1.20308859 C2.04236943,1.20308859 1.64098083,1.61153154 1.53619845,2.24181342 L3.67508964,2.24181342 Z M4.93220104,3.04967919 L1.56225544,3.04967919 C1.71942902,3.65346443 2.17348601,4.00863221 2.77584611,4.00863221 C3.22103264,4.00863221 3.64016218,3.83104832 3.96310259,3.50265906 L4.67024508,4.23047114 C4.19900155,4.76294094 3.5090456,5.07385369 2.66247047,5.07385369 C1.16086684,5.07385369 0.209232124,4.09742416 0.209232124,2.65025638 C0.209232124,1.17659195 1.1957943,0.200162416 2.62754301,0.200162416 C4.27744974,0.200162416 5.04557668,1.30963893 4.93220104,3.04967919 L4.93220104,3.04967919 Z" id="Fill-58"></path>
                    </g>
                </g>
            </g>
        </g>
    </g>
</svg>