<?xml version="1.0" encoding="utf-8"?>
<!-- Generator: Adobe Illustrator 17.0.0, SVG Export Plug-In . SVG Version: 6.00 Build 0)  -->
<!DOCTYPE svg PUBLIC "-//W3C//DTD SVG 1.1//EN" "http://www.w3.org/Graphics/SVG/1.1/DTD/svg11.dtd">
<svg version="1.1" id="Layer_1" xmlns="http://www.w3.org/2000/svg" xmlns:xlink="http://www.w3.org/1999/xlink" x="0px" y="0px"
	 width="35px" height="24.984px" viewBox="0 0 35 24.984" enable-background="new 0 0 35 24.984" xml:space="preserve">
<g>
	<path fill="#FFFFFF" d="M14.877,4.35c0,0-1.409,2.149-2.708,2.026c-0.705-0.082-0.501-1.071-0.501-1.071s2.16-0.157,2.411-1.205
		c0.25-1.048-1.84-1.112-2.912,0.227c-0.466,0.582-0.606,1.141-0.53,1.578c-0.186,0.186-0.652,0.629-0.984,0.617
		C9.257,6.51,9.822,5.689,10.014,5.346c0.169-0.314,1.223-1.927,0.035-1.927c-0.92,0-1.537,0.606-1.764,0.873
		c0.798-1.444,1.66-3.011,1.648-3.011c1.957-0.134,2.638-0.978,2.638-0.978c-1.432,0.32-2.865,0.384-5.346,0.047
		c-2.481-0.344-5.06,0.693-5.73,1.363C0.587,2.621,0.29,4.578,2.106,4.648C4.662,4.741,4.447,2.144,4.29,2.08
		c-0.157-0.07,0,0-0.047,0.047c0.227,1.363-0.978,1.98-1.84,1.98s-1.252-0.32-1.252-0.932C1.605,0.38,7.428,1.288,7.428,1.288
		C5.495,1.562,4.72,3.495,4.22,4.7C3.719,5.905,2.764,6.563,2.106,6.563c-0.448,0-0.693-0.25-0.809-0.413
		C1.53,6.057,1.699,5.836,1.699,5.574c0-0.344-0.291-0.623-0.652-0.623s-0.652,0.28-0.652,0.623c0,0.017,0.012,0.035,0.012,0.058
		c0,0.378,0.198,1.124,1.741,1.205c2.935,0,3.855-2.935,4.472-4.233c0.617-1.299,2.05-1.275,2.05-1.275L5.828,6.698h1.13
		c0,0,0.291-0.524,0.687-1.24c0.786-1.147,1.654-1.689,1.793-1.671c0.344,0.047,0,0.361-0.658,1.339S8.576,6.809,9.304,6.809
		c0.67,0,1.281-0.635,1.368-0.728c0.163,0.472,0.623,0.757,1.269,0.687c1.275-0.134,2.387-1.229,3.115-2.341
		C15.057,4.437,14.877,4.35,14.877,4.35z M13.101,3.669c0.524,0.25-0.32,1.135-1.363,1.275C11.738,4.938,12.577,3.418,13.101,3.669z
		"/>
	<g>
		<path fill="#FFFFFF" d="M0.564,7.995h0.472v2.958h4.088V7.995h0.477v6.388H5.124V11.39H1.042v2.993H0.57V7.995
			C0.57,7.995,0.564,7.995,0.564,7.995z"/>
		<path fill="#FFFFFF" d="M7.138,11.21v-0.017c0-1.741,1.287-3.302,3.22-3.302s3.203,1.543,3.203,3.284v0.017
			c0,1.741-1.287,3.302-3.22,3.302C8.407,14.494,7.138,12.951,7.138,11.21z M13.072,11.21v-0.017c0-1.578-1.153-2.877-2.731-2.877
			s-2.708,1.275-2.708,2.859v0.017c0,1.578,1.153,2.877,2.731,2.877C11.942,14.063,13.072,12.788,13.072,11.21z"/>
		<path fill="#FFFFFF" d="M14.999,11.728V7.995h0.472v3.686c0,1.508,0.815,2.376,2.16,2.376c1.299,0,2.125-0.786,2.125-2.329V7.995
			h0.472v3.68c0,1.834-1.066,2.813-2.62,2.813C16.082,14.482,14.999,13.515,14.999,11.728z"/>
		<path fill="#FFFFFF" d="M21.952,7.995H22.4l4.408,5.561V7.995h0.454v6.388h-0.355l-4.495-5.677v5.677h-0.454V7.995
			C21.958,7.995,21.952,7.995,21.952,7.995z"/>
		<path fill="#FFFFFF" d="M29.085,7.995h2.125c2.009,0,3.395,1.38,3.395,3.174v0.017c0,1.799-1.386,3.197-3.395,3.197h-2.125V7.995z
			 M29.557,8.432v5.514h1.654c1.782,0,2.9-1.211,2.9-2.737v-0.017c0-1.514-1.124-2.754-2.9-2.754h-1.654V8.432z"/>
	</g>
	<g>
		<path fill="#FFFFFF" d="M0.575,16.165H4.04c0.949,0,1.712,0.274,2.184,0.745c0.349,0.349,0.542,0.792,0.542,1.316v0.023
			c0,1.135-0.745,1.712-1.427,1.991c1.007,0.262,1.892,0.839,1.892,2.003v0.023c0,1.403-1.2,2.288-3.011,2.288H0.575
			C0.575,24.554,0.575,16.165,0.575,16.165z M6.125,18.29c0-0.92-0.757-1.549-2.096-1.549h-2.83v3.296h2.766
			c1.258,0,2.155-0.611,2.155-1.724V18.29C6.12,18.29,6.125,18.29,6.125,18.29z M4.034,20.614H1.192v3.366h3.045
			c1.438,0,2.347-0.658,2.347-1.712v-0.023C6.591,21.214,5.688,20.614,4.034,20.614z"/>
		<path fill="#FFFFFF" d="M9.223,16.165h0.623v7.815h4.926v0.576H9.223V16.165z"/>
		<path fill="#FFFFFF" d="M15.791,20.387v-0.023c0-2.288,1.689-4.338,4.233-4.338c2.539,0,4.204,2.026,4.204,4.315v0.023
			c0,2.288-1.689,4.338-4.233,4.338C17.456,24.702,15.791,22.675,15.791,20.387z M23.582,20.387v-0.023
			c0-2.073-1.508-3.773-3.581-3.773s-3.558,1.677-3.558,3.75v0.023c0,2.073,1.508,3.773,3.581,3.773
			C22.097,24.137,23.582,22.46,23.582,20.387z"/>
		<path fill="#FFFFFF" d="M25.976,20.387v-0.023c0-2.265,1.642-4.338,4.146-4.338c1.368,0,2.23,0.408,3.069,1.101l-0.408,0.466
			c-0.658-0.576-1.427-1.007-2.696-1.007c-2.038,0-3.465,1.724-3.465,3.75v0.022c0,2.166,1.357,3.785,3.593,3.785
			c1.066,0,2.061-0.443,2.673-0.961v-2.411h-2.807v-0.576h3.406v3.238c-0.757,0.67-1.927,1.258-3.296,1.258
			C27.548,24.702,25.976,22.745,25.976,20.387z"/>
	</g>
</g>
</svg>
