<?xml version="1.0" encoding="utf-8"?>
<!-- Generator: Adobe Illustrator 17.0.0, SVG Export Plug-In . SVG Version: 6.00 Build 0)  -->
<!DOCTYPE svg PUBLIC "-//W3C//DTD SVG 1.1//EN" "http://www.w3.org/Graphics/SVG/1.1/DTD/svg11.dtd" [
	<!ENTITY ns_flows "http://ns.adobe.com/Flows/1.0/">
	<!ENTITY ns_extend "http://ns.adobe.com/Extensibility/1.0/">
	<!ENTITY ns_ai "http://ns.adobe.com/AdobeIllustrator/10.0/">
	<!ENTITY ns_graphs "http://ns.adobe.com/Graphs/1.0/">
]>
<svg version="1.1" xmlns:x="&ns_extend;" xmlns:i="&ns_ai;" xmlns:graph="&ns_graphs;"
	 xmlns="http://www.w3.org/2000/svg" xmlns:xlink="http://www.w3.org/1999/xlink" xmlns:a="http://ns.adobe.com/AdobeSVGViewerExtensions/3.0/"
	 x="0px" y="0px" width="58.3px" height="22.3px" viewBox="0 0 58.3 22.3" style="enable-background:new 0 0 58.3 22.3;"
	 xml:space="preserve">
<style type="text/css">
	.st0{fill:none;}
	.st1{fill:#BAD8EB;}
	.st2{fill:#FFFFFF;}
	.st3{fill:#003764;}
	.st4{fill:#B7E1F8;}
</style>
<g id="Icon">
	<g>
		<path class="st0" d="M10,22c-5.4,0-9.9-4.9-9.9-11c0-6,4.4-11,9.9-11h9.2c5.4,0,9.9,4.9,9.9,11c0,6.1-4.4,11-9.9,11H10z"/>
	</g>
	<g>
		<path class="st0" d="M38.9,22c-5.5,0-9.9-4.9-9.9-11c0-6,4.4-11,9.9-11H48c5.4,0,9.9,4.9,9.9,11c0,6.1-4.4,11-9.9,11H38.9z"/>
	</g>
	<g>
		<path class="st1" d="M48,0.1H39c-3.2,0-6.1,1.8-7.9,4.4c2.6,0.8,4.4,3.2,4.4,6c0,3-2.1,5.5-5,6.1c1.7,3.2,4.9,5.3,8.5,5.3H48
			c5.4,0,9.9-4.9,9.9-11C57.9,5,53.5,0.1,48,0.1z"/>
		<path class="st1" d="M22.9,10.6c0-2.8,1.8-5.1,4.3-6c-1.8-2.7-4.7-4.5-7.9-4.5H10c-5.4,0-9.9,4.9-9.9,11c0,6.1,4.4,11,9.9,11h9.2
			c3.6,0,6.7-2.2,8.5-5.4C24.9,16,22.9,13.5,22.9,10.6z"/>
	</g>
	<path class="st2" d="M11.4,17.7L11.4,17.7L11.4,17.7z"/>
	<g>
		<ellipse class="st3" cx="12.6" cy="2.6" rx="1.4" ry="1.4"/>
		<path class="st3" d="M16.2,13.5c-0.3,0.1-0.5,0.3-0.5,0.6l0,0c-0.4,1.2-1.4,2.2-2.6,2.6c-0.6,0.2-1.1,0.2-1.6,0.1l0,0h0
			c-0.8-0.1-1.6-0.5-2.2-1.1c0,0,0,0,0,0c-0.1-0.1-0.1-0.1-0.2-0.2c-0.1-0.1-0.1-0.1-0.2-0.2c0,0,0,0,0-0.1
			c-0.3-0.4-0.6-0.9-0.7-1.4l0,0c-0.2-0.6-0.2-1.2-0.1-1.8c0.2-1.4,1-2.5,2.1-3.1l0,0c0.3-0.1,0.4-0.3,0.5-0.6
			c0.1-0.4-0.2-0.9-0.7-0.9c-0.2,0-0.3,0-0.5,0.1h0c-1.6,0.8-2.8,2.4-3.1,4.4c-0.1,0.9,0,1.8,0.2,2.6l0,0c0.9,3,4,4.7,7,3.8
			c1.9-0.6,3.2-2,3.8-3.8l0,0c0-0.2,0.1-0.3,0-0.5C17.1,13.6,16.6,13.4,16.2,13.5z"/>
		<path class="st3" d="M22.7,15.1c-0.2-0.3-0.5-0.4-0.8-0.2L21,15.3l-2.3-3.5c-0.1-0.1-0.3-0.4-0.7-0.4h-4.4V10h3
			c0.4,0,0.8-0.4,0.8-0.9c0-0.5-0.4-0.9-0.8-0.9h-3V6.4c0-0.5-0.4-1-1-1c-0.5,0-1,0.4-1,1v5.7c0,0.5,0.4,0.9,0.9,1
			c0.1,0,0.1,0,0.2,0h5.1l2.2,3.3c0.1,0.2,0.3,0.3,0.5,0.3c0,0,0.1,0,0.1,0c0,0,0,0,0,0c0.1,0,0.2,0,0.2,0c0,0,0,0,0,0c0,0,0,0,0,0
			l1.6-0.9C22.8,15.7,22.9,15.3,22.7,15.1z"/>
	</g>
	<path class="st3" d="M50.4,19c0,0.1-0.1,0.1-0.1,0.1H38c-0.1,0-0.1-0.1-0.1-0.1v-4.5c0-0.1,0.1-0.1,0.1-0.1h12.2
		c0.1,0,0.1,0.1,0.1,0.1V19 M42.5,16.5h1.2c0.1,0,0.1-0.1,0.1-0.1v-1.2c0-0.1-0.1-0.1-0.1-0.1h-1.2c-0.1,0-0.1,0.1-0.1,0.1v1.2
		C42.3,16.5,42.4,16.5,42.5,16.5 M40.2,17H39c-0.1,0-0.1,0.1-0.1,0.1v1.2c0,0.1,0.1,0.1,0.1,0.1h1.2c0.1,0,0.1-0.1,0.1-0.1v-1.2
		C40.3,17,40.3,17,40.2,17 M40.2,16.5h1.2c0.1,0,0.1-0.1,0.1-0.1v-1.2c0-0.1-0.1-0.1-0.1-0.1h-1.2c-0.1,0-0.1,0.1-0.1,0.1v1.2
		C40,16.5,40.1,16.5,40.2,16.5 M44.7,16.5h1.2c0.1,0,0.1-0.1,0.1-0.1v-1.2c0-0.1-0.1-0.1-0.1-0.1h-1.2c-0.1,0-0.1,0.1-0.1,0.1v1.2
		C44.6,16.5,44.7,16.5,44.7,16.5 M47,16.5h1.2c0.1,0,0.1-0.1,0.1-0.1v-1.2c0-0.1-0.1-0.1-0.1-0.1H47c-0.1,0-0.1,0.1-0.1,0.1v1.2
		C46.9,16.5,47,16.5,47,16.5 M47,17h-1.2c-0.1,0-0.1,0.1-0.1,0.1v1.2c0,0.1,0.1,0.1,0.1,0.1H47c0.1,0,0.1-0.1,0.1-0.1v-1.2
		C47.2,17,47.1,17,47,17 M42.5,17h-1.2c-0.1,0-0.1,0.1-0.1,0.1v1.2c0,0.1,0.1,0.1,0.1,0.1h1.2c0.1,0,0.1-0.1,0.1-0.1v-1.2
		C42.6,17,42.5,17,42.5,17 M49.3,17h-1.2C48,17,48,17,48,17.1v1.2c0,0.1,0.1,0.1,0.1,0.1h1.2c0.1,0,0.1-0.1,0.1-0.1v-1.2
		C49.4,17,49.4,17,49.3,17 M44.7,17h-1.2c-0.1,0-0.1,0.1-0.1,0.1v1.2c0,0.1,0.1,0.1,0.1,0.1h1.2c0.1,0,0.1-0.1,0.1-0.1v-1.2
		C44.9,17,44.8,17,44.7,17 M38.2,13.7c0,0.1,0,0.1,0.1,0.1H50c0.1,0,0.1-0.1,0.1-0.1v-11c0-0.1,0-0.1-0.1-0.1H38.3
		c-0.1,0-0.1,0.1-0.1,0.1V13.7z M39.8,11.7V4.3c0-0.1,0-0.1,0.1-0.1h8.6c0.1,0,0.1,0,0.1,0.1v7.4c0,0.1,0,0.1-0.1,0.1h-8.6
		C39.8,11.8,39.8,11.8,39.8,11.7"/>
	<g>
		<path class="st4" d="M28.1,14.8c-0.1,0.1-0.4,0.1-0.5,0l-0.9-0.9c-0.1-0.1-0.1-0.4,0-0.5l2.9-2.9l-2.9-2.9c-0.1-0.1-0.1-0.4,0-0.5
			l0.9-0.9C27.8,6,28,6,28.1,6.1l4.1,4.1c0.1,0.1,0.1,0.4,0,0.5L28.1,14.8z"/>
	</g>
</g>
<g id="TM">
	<g>
		<path class="st3" d="M55.3,21.8v-1.2h-0.4v-0.2H56v0.2h-0.4v1.2H55.3z"/>
		<path class="st3" d="M56.2,21.8v-1.4h0.4l0.3,1l0.3-1h0.4v1.4h-0.3v-1.1L57,21.8h-0.3l-0.3-1.1v1.1H56.2z"/>
	</g>
</g>
</svg>
