<svg xmlns="http://www.w3.org/2000/svg" viewBox="0 0 1559.1 323.1"><g fill="#FFF"><path d="M1218.1 120.2c14.2-14.2 32.8-22.1 52-22.1 20.5 0 38.1 7.1 52.2 20.5 15 14.2 23.1 33.6 23.1 52.8 0 21.3-7.1 38.9-21.3 53-14.4 14.4-32.3 22.1-53.6 22.1-21.5 0-38.9-7.3-53.3-22.6-13.7-14.2-20.7-32.3-20.7-52 0-19.6 7.6-37.8 21.6-51.7zm52.7 86.9c18.4 0 33.3-15.5 33.3-34.7 0-19.4-15-34.9-33.3-34.9-18.4 0-33.3 15.5-33.3 34.9 0 19.2 15.2 34.7 33.3 34.7zM914.1 120.2c14.2-14.2 32.8-22.1 52-22.1 20.5 0 38.1 7.1 52.2 20.5 15 14.2 23.1 33.6 23.1 52.8 0 21.3-7.1 38.9-21.3 53-14.4 14.4-32.3 22.1-53.6 22.1-21.5 0-38.9-7.3-53.3-22.6-13.7-14.2-20.7-32.3-20.7-52 .1-19.6 7.7-37.8 21.6-51.7zm52.8 86.9c18.4 0 33.3-15.5 33.3-34.7 0-19.4-15-34.9-33.3-34.9s-33.3 15.5-33.3 34.9c-.1 19.2 15.2 34.7 33.3 34.7zM462.8 242.6h41.3V47.3l-41.3 8.6M399.9 101.6h41.2v141h-41.2z"/><circle cx="420.5" cy="60.2" r="25.3"/><path d="M589.8 183.7l-26.5-82.1h-46L569 233.9l-20 54.3h41.7l73.6-186.6h-44.6M210.5 171.5c0-15.6 3.8-30.2 11-43.2V46.9L180 55.5v61.4c-9.5-12.1-22.6-17.9-39.6-17.9-17.9 0-33.9 6.6-47 19.4-14.7 14.2-22.6 32.3-22.6 52.5 0 22.1 8.4 41 24.7 55.4 12.3 11 27 16.5 44.1 16.5 16.8 0 29.4-4.5 41.7-16.5v15.8h40.2v-26.7c-7.2-13-11-27.8-11-43.9zm-61.7 33.9c-21.3 0-36.5-15-36.5-34.7 0-18.9 15.2-34.9 34.9-34.9 19.4 0 34.4 15.2 34.4 35.4.1 19.5-14.9 34.2-32.8 34.2zM884.7 132.6c-1.8-7.5-4.7-13.5-9.2-18.7-7.8-9.2-18.9-13.5-32.2-14.6-10.8-.9-20.1.5-29.1 5.2-9.7 5.1-20.7 17.1-20.7 17.1S782.5 99 755.1 99c-19.3 0-31.2 8.2-39.1 21.5v-18.9h-37.5v141h39.4v-74.2c0-15.4 3.6-30.8 24.5-30.8 18 0 19.4 14.7 19.4 26.8v78.2h40.7v-74.7c0-23.8 10.4-30.3 24.6-30.3 11.5 0 19.2 5.2 19.2 26.8v78.2h40.4v-26.9c-7.2-13.2-11-28.1-11-44 0-13.8 3.2-27.1 9-39.1zM1109.1 47.3l-42 8.6v46.4h-17.8v40.8h17.8v99.5h42v-99.5h18.7v-40.8h-18.7"/><circle cx="1166.6" cy="60.2" r="25.3"/><path d="M1187.2 135.9v-34.3H1146v141h41.2V209c-5-11.4-7.6-23.8-7.6-37 0-12.7 2.7-24.9 7.6-36.1zM1440.1 98.9c-18.6 0-31.8 7.4-40.4 21.5l.5-18.9h-39.4v141h40.7v-76.4c0-18.9 8.7-28.6 24.9-28.6 16 0 20.2 8.9 20.2 28.6v76.4h41.5v-92.9c.1-32.3-18.8-50.7-48-50.7zM338 226.8c-12.3 12.1-24.9 16.5-41.7 16.5-17.1 0-31.8-5.5-44.1-16.5-16.3-14.4-24.7-33.3-24.7-55.4 0-20.2 7.9-38.3 22.6-52.5 13.1-12.9 29.1-19.4 47-19.4 17.1 0 30.2 5.8 39.6 17.9v-15.8h41.5v141H338v-15.8zm-32.6-21c17.9 0 32.8-14.7 32.8-34.1 0-20.2-15-35.4-34.4-35.4-19.7 0-34.9 16-34.9 34.9 0 19.6 15.3 34.6 36.5 34.6z"/></g></svg>