<svg width="92" height="17" viewBox="0 0 92 17" xmlns="http://www.w3.org/2000/svg" xmlns:xlink="http://www.w3.org/1999/xlink"><title>Mashable Copy</title><defs><path id="a" d="M11.412 12.471V.665H.566V12.47z"/></defs><g fill="none" fill-rule="evenodd"><path d="M13.376 4.433c-.174.612-.35 1.224-.523 1.836-.25.887-.482 1.777-.749 2.658-.4 1.327-.82 2.649-1.24 3.97a138.791 138.791 0 0 1-1.101 3.34c-.037.104-.244.206-.374.21-.657.022-1.314-.009-1.97.016-.58.023-.496-.507-.58-.773-.486-1.549-.919-3.116-1.33-4.686C5.172 9.71 4.895 8.4 4.584 7.1c-.226-.94-.466-1.878-.832-2.817-.033.125-.077.25-.094.379-.017.126-.005.256-.009.385-.075 2.448-.141 4.897-.233 7.344-.048 1.294-.15 2.585-.208 3.879-.013.312-.132.415-.429.412a79.955 79.955 0 0 0-2.354 0c-.3.004-.438-.099-.423-.414.082-1.659.147-3.319.237-4.976.048-.87.15-1.739.204-2.61C.528 7.3.59 5.917.67 4.533.734 3.46.825 2.39.88 1.318.894 1.013.99.892 1.3.894 2.611.904 3.925.877 5.24.92c.191.006.464.271.542.477.21.554.327 1.143.494 1.714.415 1.418.854 2.83 1.25 4.254.207.745.335 1.512.508 2.267.168.73.348 1.456.523 2.184.052.009.102.019.154.027.16-.517.33-1.03.478-1.55.487-1.7.952-3.405 1.452-5.1.375-1.278.808-2.54 1.177-3.82.101-.354.268-.48.608-.478C13.648.9 14.871.907 16.093.89c.357-.005.471.121.484.476.066 1.862.149 3.723.235 5.584.066 1.42.145 2.84.22 4.26.07 1.312.136 2.623.223 3.932.025.376.128.744.18 1.118.044.308-.105.424-.41.42a79.028 79.028 0 0 0-2.573.003c-.348.006-.434-.15-.432-.467a78.41 78.41 0 0 0-.024-2.644c-.066-2.394-.13-4.787-.229-7.18-.028-.652-.181-1.3-.276-1.95a4.64 4.64 0 0 1-.115-.01M66.942 10.81c0 .486.024.836-.005 1.182-.114 1.431 1.683 2.96 3.387 1.998.583-.328.957-.78 1.122-1.392.163-.603.371-1.242.319-1.845-.062-.696-.3-1.412-.616-2.042-.7-1.402-2.894-1.417-3.778-.123-.515.752-.41 1.552-.43 2.223m-3.553 5.788c.043-.439.106-.794.107-1.15.012-4.921.025-9.843.012-14.765-.002-.527.136-.711.672-.68.746.044 1.496.031 2.244.004.419-.016.527.145.523.544-.017 1.782-.01 3.563-.004 5.345 0 .208.035.417.057.655.55-.396.995-.852 1.536-1.082 2.4-1.026 4.855-.254 6.064 2.23.53 1.085.76 2.291.644 3.49-.2 2.08-.817 3.99-2.79 5.103-1.715.97-4.285.973-5.651-.852-.076-.102-.219-.154-.331-.229-.055.125-.142.246-.158.375-.13 1.091-.126 1.093-1.25 1.09a72.55 72.55 0 0 1-1.586-.021c-.044 0-.088-.056-.09-.057M42.892 6.563c.643-.424 1.167-.882 1.775-1.15 2.017-.89 4.543-.188 5.232 2.245.245.864.418 1.714.406 2.62-.029 1.945-.02 3.892-.001 5.838.005.428-.11.59-.555.57a30.934 30.934 0 0 0-2.353 0c-.411.014-.534-.132-.531-.538.016-2.02.037-4.042-.01-6.06-.017-.755-.179-1.529-.896-1.995-.617-.4-1.337-.38-1.93-.098-.68.322-1.157.954-1.166 1.778-.02 1.983-.004 3.966-.008 5.95-.003 1.097.112.945-.976.954-.62.006-1.242-.023-1.86.009-.45.024-.605-.118-.597-.585.027-1.469.01-2.938.01-4.408 0-3.69.01-7.381-.01-11.072-.003-.493.145-.64.622-.615.729.037 1.462.045 2.19-.002.533-.035.638.179.631.664-.024 1.726-.01 3.452-.008 5.178 0 .217.02.433.035.717M58.268 12.35c0-.184-.018-.369.004-.549.065-.535-.2-.694-.673-.614-.317.054-.628.168-.946.194-.674.053-1.193.357-1.606.879-.425.538-.363 1.12-.075 1.666.234.447.67.63 1.179.638 1.339.022 2.117-.787 2.117-2.215m.202 3.35c-.773.383-1.438.837-2.172 1.055-2.2.655-4.782-.442-4.859-3.165-.061-2.205 1.233-3.286 2.958-3.899.956-.339 1.926-.46 2.931-.456.239 0 .496-.107.71-.226.091-.05.162-.28.13-.395-.214-.734-.835-1.165-1.61-1.197-1.258-.05-2.49.025-3.663.731-.194-.589-.39-1.107-.531-1.638-.106-.395.084-.617.476-.777 1.604-.654 3.283-.81 4.96-.62 1.556.179 2.877.918 3.42 2.518a8.71 8.71 0 0 1 .442 2.494c.064 1.998.014 4 .038 5.999.005.436-.118.586-.555.564a23.075 23.075 0 0 0-1.914-.003c-.347.01-.548-.062-.562-.47-.007-.2-.15-.397-.199-.516M25.195 12.272c0-.164-.016-.33.003-.493.058-.501-.185-.67-.64-.595-.354.057-.702.16-1.058.199a2.131 2.131 0 0 0-1.511.841c-.388.495-.494 1.027-.16 1.616.28.493.686.716 1.238.723 1.319.019 2.128-.848 2.128-2.29m-.1-3.294c-.319-1.267-.683-1.529-1.913-1.57-1.16-.038-2.267.114-3.4.741l-.67-2.199c.73-.22 1.444-.52 2.186-.638.977-.153 1.98-.246 2.967-.215 1.712.056 3.111.735 3.824 2.422.164.391.278.83.298 1.253.048 1.008.005 2.02.037 3.029.045 1.439.113 2.878.195 4.315.025.432-.102.596-.548.57a15.165 15.165 0 0 0-1.75 0c-.439.024-.735-.059-.8-.56-.022-.169-.13-.328-.204-.503-.516.328-.985.703-1.514.945-1.41.64-3.475.504-4.62-.759-.483-.533-.768-1.143-.814-1.896-.084-1.35.162-2.535 1.308-3.388.719-.536 1.502-.93 2.399-1.043.751-.094 1.509-.148 2.26-.25.26-.036.508-.168.758-.254" fill="#B3B6B8"/><g transform="translate(80.513 4.429)"><mask id="b" fill="#fff"><use xlink:href="#a"/></mask><path d="M8.158 5.236c.268-1.282-.745-2.325-1.782-2.456C5.27 2.64 3.84 3.85 3.915 5.236h4.243zm-4.12 2.385c-.152.747.224 1.428.956 1.827.58.316 1.18.526 1.863.474 1.13-.085 2.261-.134 3.51-.205.099.456.257 1.079.356 1.711.02.136-.14.37-.278.445-.297.16-.627.322-.954.35-1.299.11-2.623.35-3.897.2-1.99-.236-3.749-1.072-4.493-3.163C.712 8.165.392 7.067.672 5.82c.213-.949.419-1.865.93-2.684.717-1.15 1.707-1.998 3.049-2.258a11.569 11.569 0 0 1 2.745-.2c1.535.077 3.087 1.52 3.599 2.996.388 1.118.406 2.238.417 3.386.005.49-.194.571-.617.569C8.75 7.61 6.707 7.62 4.662 7.62h-.625z" fill="#B3B6B8" mask="url(#b)"/></g><path d="M30.316 13.792c1.072.424 2.18.854 3.4.764.18-.014.416.006.524-.098.287-.274.661-.574.74-.924.11-.488-.309-.827-.74-1.015-.741-.324-1.516-.573-2.248-.916-.892-.417-1.633-1.065-1.907-2.033a3.123 3.123 0 0 1 .47-2.712c.831-1.166 2.028-1.707 3.436-1.776 1.145-.057 2.278-.003 3.368.429.264.104.388.17.29.497-.136.448-.174.924-.287 1.379-.08.317-.202.6-.643.378-.792-.397-1.653-.39-2.507-.331-.508.035-.837.378-.95.848-.111.466.222.768.594.94.865.398 1.769.713 2.624 1.132 1.46.715 1.947 1.983 1.755 3.528-.122.985-1.1 2.19-2.337 2.625-1.204.423-2.42.46-3.641.365-.7-.055-1.38-.353-2.073-.533-.474-.123-.443-.471-.355-.82.145-.572.32-1.138.487-1.727M79.865 8.349c0 2.57-.012 5.142.01 7.713.004.477-.12.651-.612.626a30.497 30.497 0 0 0-2.299-.004c-.36.01-.524-.08-.523-.488.01-5.234.01-10.468 0-15.7 0-.411.168-.495.525-.486.785.018 1.571.03 2.354-.004.45-.02.555.15.552.574-.015 2.59-.007 5.179-.007 7.769" fill="#B3B6B8"/></g></svg>
