<svg id="Layer_1" data-name="Layer 1" xmlns="http://www.w3.org/2000/svg" viewBox="0 0 20 20"><defs><style>.cls-1{opacity:0.5;}.cls-2{fill:#637282;}.cls-3{fill:#fff;}</style></defs><title>icons</title><g class="cls-1"><path class="cls-2" d="M19.38,0H0.62A0.63,0.63,0,0,0,0,.64V19.36A0.63,0.63,0,0,0,.62,20H19.38A0.63,0.63,0,0,0,20,19.36V0.64A0.63,0.63,0,0,0,19.38,0Z"/></g><path class="cls-3" d="M7.91,14.57A6.52,6.52,0,0,0,14.48,8c0-.1,0-0.2,0-0.3a4.7,4.7,0,0,0,1.15-1.2,4.61,4.61,0,0,1-1.33.36,2.32,2.32,0,0,0,1-1.28,4.63,4.63,0,0,1-1.47.56,2.31,2.31,0,0,0-3.93,2.1A6.55,6.55,0,0,1,5.16,5.85a2.31,2.31,0,0,0,.71,3.08,2.29,2.29,0,0,1-1-.29v0a2.31,2.31,0,0,0,1.85,2.26,2.3,2.3,0,0,1-1,0,2.31,2.31,0,0,0,2.16,1.6,4.63,4.63,0,0,1-2.87,1,4.7,4.7,0,0,1-.55,0,6.53,6.53,0,0,0,3.54,1"/></svg>
