<svg id="Layer_1" data-name="Layer 1" xmlns="http://www.w3.org/2000/svg" viewBox="0 0 20 20"><defs><style>.cls-1{fill:#637282;opacity:0.5;}.cls-2{fill:#fff;}</style></defs><title>icons</title><path class="cls-1" d="M19.38,0H0.62A0.63,0.63,0,0,0,0,.64V19.36A0.63,0.63,0,0,0,.62,20H19.38A0.63,0.63,0,0,0,20,19.36V0.64A0.63,0.63,0,0,0,19.38,0Z"/><rect class="cls-2" x="3.67" y="7.75" width="2.67" height="8.59"/><circle class="cls-2" cx="5" cy="5.03" r="1.55"/><path class="cls-2" d="M16.34,16.34H13.67V12.16c0-1,0-2.28-1.39-2.28s-1.6,1.09-1.6,2.21v4.25H8V7.75h2.56V8.92h0a2.8,2.8,0,0,1,2.53-1.39c2.7,0,3.2,1.78,3.2,4.09v4.71Z"/></svg>
