<svg id="Layer_1" data-name="Layer 1" xmlns="http://www.w3.org/2000/svg" viewBox="0 0 20 20"><defs><style>.cls-1{opacity:0.5;}.cls-2{fill:#637282;}.cls-3{fill:#fff;}</style></defs><title>icons</title><g class="cls-1"><path class="cls-2" d="M19.38,0H0.62A0.63,0.63,0,0,0,0,.64V19.36A0.63,0.63,0,0,0,.62,20H19.38A0.63,0.63,0,0,0,20,19.36V0.64A0.63,0.63,0,0,0,19.38,0Z"/></g><path class="cls-3" d="M10.33,10.88l-0.58-.45a0.89,0.89,0,0,1-.42-0.7,1.13,1.13,0,0,1,.45-0.79,2.74,2.74,0,0,0,1.36-2.29A2.72,2.72,0,0,0,10,4.47h1l1.05-.66H8.89a4.92,4.92,0,0,0-3,1,2.91,2.91,0,0,0-1,2.16A2.55,2.55,0,0,0,7.47,9.47c0.16,0,.34,0,0.52,0a1.46,1.46,0,0,0-.16.63,1.69,1.69,0,0,0,.48,1.1,6.94,6.94,0,0,0-3.08.73,2.33,2.33,0,0,0-1.25,2c0,1.2,1.12,2.31,3.46,2.32,2.77,0,4.24-1.52,4.25-3A2.81,2.81,0,0,0,10.33,10.88ZM8.23,9c-1.39,0-2-1.8-2-2.88a1.87,1.87,0,0,1,.36-1.19,1.51,1.51,0,0,1,1.13-.53c1.34,0,2,1.82,2,3a1.64,1.64,0,0,1-.41,1.18A1.65,1.65,0,0,1,8.23,9Zm0,6.5c-1.72,0-2.83-.83-2.83-2a1.81,1.81,0,0,1,1.39-1.66,6.39,6.39,0,0,1,1.69-.25,2.59,2.59,0,0,1,.37,0c1.22,0.88,1.75,1.31,1.75,2.14C10.59,14.78,9.77,15.52,8.22,15.52Z"/><polygon class="cls-3" points="14.41 9.02 14.41 7.4 13.62 7.4 13.61 9.01 12 9.01 12 9.81 13.61 9.82 13.6 11.44 14.4 11.45 14.41 9.82 16.03 9.83 16.03 9.02 14.41 9.02"/></svg>
