<svg id="Layer_1" data-name="Layer 1" xmlns="http://www.w3.org/2000/svg" viewBox="0 0 20 20"><defs><style>.cls-1{opacity:0.5;}.cls-2{fill:#637282;}.cls-3{fill:#fff;}</style></defs><title>icons</title><g class="cls-1"><path class="cls-2" d="M19.38,0H0.62A0.63,0.63,0,0,0,0,.64V19.36A0.63,0.63,0,0,0,.62,20H19.38A0.63,0.63,0,0,0,20,19.36V0.64A0.63,0.63,0,0,0,19.38,0Z"/></g><path id="f" class="cls-3" d="M13.42,20V13h2.34l0.35-2.72H13.42V8.58a1.13,1.13,0,0,1,1.35-1.32H16.2V4.83a19.25,19.25,0,0,0-2.1-.11,3.27,3.27,0,0,0-3.49,3.59v2H8.27V13h2.35v7h2.81Z"/></svg>
