<?xml version="1.0" encoding="utf-8"?>
<!-- Generator: Adobe Illustrator 21.1.0, SVG Export Plug-In . SVG Version: 6.00 Build 0)  -->
<svg version="1.1" id="Layer_1" xmlns="http://www.w3.org/2000/svg" xmlns:xlink="http://www.w3.org/1999/xlink" x="0px" y="0px"
	 viewBox="0 0 363 386" style="enable-background:new 0 0 363 386;" xml:space="preserve">
<style type="text/css">
	.st0{fill:#165E78;}
	.st1{fill:#49B6DB;}
	.st2{fill:#D0D9EE;}
	.st3{fill:#D6D6D5;}
	.st4{fill:none;}
	.st5{fill:#545454;}
	.st6{fill:#3E3E3E;}
	.st7{fill:#FFFFFF;}
	.st8{fill:#A5A5A5;}
</style>
<title>Privacy Policy-foreground</title>
<polygon points="157.9,108.2 125.9,89.8 125.9,126.7 "/>
<circle cx="70.3" cy="108.2" r="70.3"/>
<rect x="42.8" y="143.8" class="st0" width="27.6" height="3.1"/>
<rect x="70.3" y="143.8" width="27.6" height="3.1"/>
<rect x="39" y="93.7" class="st1" width="62.6" height="50"/>
<rect x="39" y="93.7" class="st2" width="31.3" height="50"/>
<polygon class="st1" points="70.3,139.1 43.7,139.1 43.7,98.4 70.3,98.4 70.3,100.4 45.7,100.4 45.7,137.1 70.3,137.1 "/>
<polygon class="st0" points="96.9,139.1 70.3,139.1 70.3,137.1 94.9,137.1 94.9,100.4 70.3,100.4 70.3,98.4 96.9,98.4 "/>
<path class="st0" d="M64.6,114.5c0,2.3,1.3,4.3,3.4,5.2l-3.7,11.9h6.1v-22.9C67.1,108.7,64.6,111.3,64.6,114.5z"/>
<path d="M72.7,119.7c2.9-1.3,4.1-4.8,2.8-7.7c-0.9-2-3-3.3-5.2-3.3v22.9h6.1L72.7,119.7z"/>
<path class="st3" d="M70.3,64.4L70.3,64.4C59.1,64.4,50,73.5,50,84.8l0,0v8.9h9.2v-8.9c0-6.1,5-11.1,11.1-11.1l0,0
	c6.1,0,11.1,5,11.1,11.1v8.9h9.2v-8.9C90.6,73.6,81.5,64.5,70.3,64.4z"/>
<path class="st4" d="M17.6-30v416h27.3l147.3-117.5l4,3.1l1.8-1.5c-12.2-13.6-18.9-31.2-18.9-49.5V81.2h4.5c7,0,13.1,4.5,15.2,11.1
	V11.7c0-6.5,5.3-11.7,11.7-11.7h100.5c6.5,0,11.7,5.2,11.7,11.7v44.6l12.6-12.6c7.1-7.1,18.6-7.1,25.7,0l2.1,2.1l-22.6,22.6
	c5.8-0.2,10.7,4.3,11,10.1c0.1,2.9-1,5.8-3.1,7.9L333,101.7v0.2l0.4-0.4c4-4.3,10.7-4.5,15-0.5c4.3,4,4.5,10.7,0.5,15
	c-0.2,0.2-0.3,0.3-0.5,0.5L333,131.8v0.1l0.4-0.4c4.1-4.1,10.8-4.1,14.9,0c3,3,3.9,7.6,2.3,11.6l-10.3,29.7
	c-4.3,12.3-10.2,23.9-17.7,34.6v8.3c0,6.5-5.3,11.7-11.8,11.7h-3l-4.6,5.3l0,0L253.3,290l0,0l-12.9,16.3l4,3.1l-19.6,25v10.7
	c0,14.5-4.3,28.8-12.3,40.9h186.2V-30H17.6z"/>
<path class="st5" d="M322.6,111.2v1.1l10.4-10.4v-0.2l-7.4,7.4C324.7,109.9,323.7,110.7,322.6,111.2z"/>
<path class="st5" d="M322.6,141.3v1.1l10.4-10.4v-0.1l-7.4,7.4C324.7,140.1,323.7,140.8,322.6,141.3z"/>
<path class="st6" d="M332.9,162c-2.7,2.7-6.6,3.7-10.3,2.7v42.8c7.4-10.7,13.4-22.3,17.6-34.6l10.4-29.8c-0.5,1.3-1.3,2.4-2.2,3.4
	L332.9,162z"/>
<path d="M199.4,161.4L199.4,161.4c4,1.6,7.9,3.6,11.5,6.1V25c0-5.3,4.3-9.6,9.6-9.6l0,0h80.2c5.3,0,9.6,4.3,9.6,9.6l0,0v69.4
	c0.1-0.1,0.2-0.2,0.3-0.4l11.9-11.8V56.3l0,0V11.7c0-6.5-5.3-11.7-11.8-11.7H210.4c-6.5,0-11.8,5.3-11.8,11.7c0,0,0,0,0,0l0,0v80.6
	c0.5,1.6,0.7,3.2,0.8,4.8L199.4,161.4z"/>
<path d="M310.7,124.2l11.9-11.9v-1.1c-4,1.9-8.8,1-11.9-2.1l0,0c-0.1-0.1-0.2-0.2-0.3-0.4v15.9C310.5,124.5,310.6,124.4,310.7,124.2
	z"/>
<path d="M322.6,164.7c-5.6-1.5-9-7.3-7.4-13c0.5-1.8,1.4-3.4,2.7-4.7l4.7-4.7v-1.1c-4,1.9-8.8,1-11.9-2.1l0,0
	c-0.1-0.1-0.2-0.2-0.3-0.4v57.6c0,5.3-4.3,9.6-9.6,9.6l0,0h-65.8c0.4,2.8,0.6,5.6,0.6,8.4v13h75.3c6.4,0,11.6-5.3,11.7-11.7V164.7z"
	/>
<path class="st7" d="M310.4,196.4v-57.6c-3.7-4-3.7-10.2,0-14.2v-15.9c-3.7-4-3.7-10.2,0-14.2V25c0-5.3-4.3-9.6-9.6-9.6l0,0h-80.2
	c-5.3,0-9.6,4.3-9.6,9.6c0,0,0,0,0,0l0,0v142.5c13,8.9,21.7,22.9,24.1,38.5h65.8C306,206,310.4,201.7,310.4,196.4z M218,24.1h85.2
	v52.6H218V24.1z M273.3,155.3H218V151h55.3V155.3z M273.3,134.6H218v-4.3h55.3V134.6z M273.3,113.9H218v-4.3h55.3V113.9z
	 M273.3,93.1H218v-4.3h55.3V93.1z"/>
<path d="M303.2,66.4V24.1H218v52.6h85.2L303.2,66.4z M250.8,57.4c-2.8,2.8-6.5,4.6-10.5,4.8h-2.4c-9.1-0.7-15.9-8.6-15.2-17.7
	s8.6-15.9,17.7-15.2c9.1,0.7,15.9,8.6,15.2,17.7C255.3,50.9,253.6,54.6,250.8,57.4L250.8,57.4z M279.5,62.3h-18.9v-6h18.9V62.3z
	 M288.3,62.3l-2-1.4l-2,1.4l0.8-2.3l-2-1.4h2.5l0.8-2.3l0.8,2.3h2.5l-2,1.5L288.3,62.3z M298.4,49.6h-37.8v-6h37.8L298.4,49.6z"/>
<path class="st5" d="M253.3,290L253.3,290l50-57.2l0,0l4.6-5.3h-72.3v-13c0-23.4-14.4-44.5-36.2-53l0,0V97.2c0-8.8-7.2-16-16-16
	h-4.5v139.4c0,18.3,6.7,35.9,18.9,49.5l-1.8,1.5l44.3,34.8L253.3,290z"/>
<path class="st5" d="M322.6,82.3l-11.9,11.9c-0.1,0.1-0.2,0.2-0.3,0.4c-3.7,4-3.7,10.2,0,14.2c0.1,0.1,0.2,0.2,0.3,0.4l0,0
	c4.1,4.1,10.8,4.1,14.9,0l7.4-7.4l15.3-15.3c4.1-4.1,4.1-10.8,0-14.9c-2.1-2.1-4.9-3.2-7.9-3.1L363,45.8l-2.1-2.1
	c-7.1-7.1-18.6-7.1-25.7,0l-12.7,12.6l0,0V82.3z"/>
<path class="st5" d="M310.7,124.2c-0.1,0.1-0.2,0.2-0.3,0.4c-3.7,4-3.7,10.2,0,14.2c0.1,0.1,0.2,0.2,0.3,0.4l0,0
	c4.1,4.1,10.8,4.1,14.9,0l7.4-7.4l15.3-15.3c4.3-4,4.5-10.7,0.5-14.9s-10.7-4.5-14.9-0.5l0,0c-0.2,0.2-0.3,0.3-0.5,0.5l-0.4,0.4
	l-10.5,10.4L310.7,124.2z"/>
<path class="st5" d="M317.9,147c-4.1,4.1-4.1,10.9,0,15s10.9,4.1,15,0l15.5-15.5c4.3-4,4.5-10.7,0.5-14.9c-4-4.3-10.7-4.5-14.9-0.5
	c-0.2,0.2-0.3,0.3-0.5,0.5l-0.4,0.4l-10.5,10.4L317.9,147z"/>
<polygon class="st1" points="224.8,334.2 224.8,334.5 244.4,309.5 240.4,306.4 196.1,271.6 192.1,268.4 44.9,386 44.9,386 
	166.8,288.7 "/>
<path class="st0" d="M224.8,334.5v-0.3l-58-45.5L44.9,386h167.6c8-12.1,12.3-26.3,12.3-40.9L224.8,334.5z"/>
<path class="st1" d="M239,29.2c-9.1,0-16.5,7.4-16.5,16.6c0,4.4,1.7,8.6,4.8,11.7l0.5-5.9c0.1-1.4,1.1-2.6,2.4-3.1l3.9-1.4
	c1.2-0.4,2.1-1.5,2.4-2.7l0,0v-0.6c0-0.3,0-0.5-0.1-0.8l-2.5-5.1l-0.1-0.2c-0.4-0.8-0.5-1.6-0.4-2.5c0.2-1.2,1.1-2.1,2.2-2.4
	c0.5-1.7,6.1-1.7,8-1.2s0.5,3,0.5,3l0,0c0.2,0.2,0.4,0.5,0.5,0.8v0.1l0,0l0.3,0.7c0.1,0.4,0.2,0.8,0.1,1.2h0.1v1.4l0.8,1.3
	c0.2,0.4,0.1,0.9-0.2,1.1l-0.1,0.1l-0.5,0.2v1.5c0,0.7-0.5,1.2-1.2,1.2h-2.1v0.5l0,0c0.3,1.3,1.2,2.3,2.4,2.7l3.9,1.4
	c1.3,0.5,2.3,1.7,2.4,3.1l0.5,5.8c6.5-6.5,6.5-16.9,0-23.4C247.6,30.9,243.4,29.2,239,29.2z"/>
<path class="st8" d="M238.4,46.9v2.2h1.3v-2.2c0-0.5,0.2-1,0.6-1.4l1.2-1.1v-0.5h2.1c0.7,0,1.2-0.5,1.2-1.2l0,0v-1.5l0.5-0.2
	c0.4-0.2,0.6-0.7,0.4-1.1c0,0,0,0,0,0l0-0.1l-0.8-1.3v1h-0.4c-0.2,0-0.4-0.2-0.4-0.4c0,0,0,0,0,0l0,0v-0.4h-1.2
	c-0.1,0-0.1-0.1-0.1-0.2l0,0c0-0.1-0.1-0.2-0.1-0.2h-2.2v0.3h-0.3c0,0.1,0,0.2,0,0.4v2.3h-0.6c-0.6,0-1.1-0.2-1.5-0.6l-1.9,2.3l0,0
	c0,0.3,0.1,0.5,0.1,0.8v0.6l1.3,1.2C238.1,45.9,238.4,46.4,238.4,46.9z"/>
<path class="st8" d="M240.4,35.2l-0.2,0.4c-0.2,0.3-0.1,0.7,0.1,1l0.1,0.2c0.2,0.3,0.3,0.7,0.3,1.1V38h3.7v-0.9h0.7
	c0.1-0.4,0-0.8-0.1-1.2l-0.3-0.7l0,0v-0.1c-0.1-0.3-0.3-0.5-0.5-0.8h-4C240.4,34.5,240.5,34.9,240.4,35.2z"/>
<path d="M238.4,49.1v13.1h1.3V49.1H238.4z"/>
<path d="M238.3,40.7c-0.5-0.4-0.8-1-0.8-1.7c0-0.8,0.6-1.4,1.4-1.5c0.7,0,1.3,0.4,1.4,1.1h0.3v-0.3h-0.2V38h0.2v-0.2
	c0-0.4-0.1-0.8-0.3-1.1l-0.1-0.2c-0.2-0.3-0.2-0.7-0.1-1l0.2-0.4c0.1-0.3,0-0.6-0.2-0.8h4c0,0,1.5-2.5-0.5-3s-7.5-0.4-8.1,1.3
	c-1.1,0.3-2,1.3-2.2,2.4c-0.1,0.9,0,1.7,0.4,2.5l0.1,0.2l2.5,5.2l0,0L238.3,40.7z"/>
<path d="M244.4,38h-3.9v0.3h2.4c0.1,0,0.1,0.1,0.1,0.2l0,0c0,0.1,0.1,0.2,0.1,0.2h1.2v0.4c0,0.2,0.2,0.4,0.4,0.4l0,0h0.4v-2.3h-0.8
	L244.4,38z"/>
<path class="st8" d="M239,37.6c-0.8,0-1.4,0.6-1.5,1.4c0,0,0,0,0,0l0,0c0,1.3,1,2.3,2.3,2.3h0.6V39C240.4,38.2,239.8,37.6,239,37.6
	L239,37.6z"/>
<path class="st5" d="M236.8,48.3l-1.7-1.7c-0.3,0.2-0.6,0.4-0.9,0.5l-3.9,1.4c-1.3,0.5-2.3,1.7-2.4,3.1l-0.5,5.9
	c2.8,2.8,6.6,4.5,10.5,4.8V48.8C237.4,48.8,237,48.6,236.8,48.3z"/>
<path d="M236.8,48.3c0.3,0.3,0.7,0.5,1.1,0.5v-0.4h0.5v-1.5c0-0.5-0.2-1-0.6-1.4l-1.3-1.2l0,0c-0.2,0.9-0.7,1.7-1.4,2.2L236.8,48.3z
	"/>
<path d="M238.4,48.4h-0.5v13.8h0.5V48.4z"/>
<path class="st5" d="M250.1,50.6c-0.4-1-1.2-1.7-2.2-2.1l-3.9-1.4c-0.3-0.1-0.6-0.3-0.9-0.5l-1.7,1.7c-0.3,0.3-0.7,0.5-1.1,0.5v13.4
	c4-0.3,7.7-2,10.5-4.8l-0.5-5.8C250.3,51.2,250.2,50.9,250.1,50.6z M247.1,55.1l-1.9,1l-1.9-1v-2.6h3.7V55.1z"/>
<path d="M239.7,46.9v1.5h0.5v0.4c0.4,0,0.8-0.2,1.1-0.5l1.7-1.7c-0.7-0.5-1.3-1.3-1.4-2.2l0,0l-1.2,1.1
	C240,45.8,239.7,46.4,239.7,46.9z"/>
<path d="M240.3,48.4h-0.5v13.9h0.5V48.4z"/>
<polygon points="243.4,55.1 245.2,56 247.1,55.1 247.1,52.4 243.4,52.4 "/>
<rect x="260.6" y="43.5" class="st2" width="37.8" height="6.1"/>
<rect x="260.6" y="56.2" class="st2" width="18.9" height="6.1"/>
<polygon class="st7" points="287.1,58.6 286.3,56.2 285.6,58.6 283.2,58.6 285.1,60 284.4,62.3 286.3,60.9 288.3,62.3 287.6,60 
	289.5,58.6 "/>
<rect x="218" y="88.9" class="st3" width="55.3" height="4.3"/>
<rect x="218" y="109.6" class="st3" width="55.3" height="4.3"/>
<rect x="218" y="130.3" class="st3" width="55.3" height="4.3"/>
<rect x="218" y="151" class="st3" width="55.3" height="4.3"/>
</svg>
