<?xml version="1.0" encoding="utf-8"?>
<!-- Generator: Adobe Illustrator 21.1.0, SVG Export Plug-In . SVG Version: 6.00 Build 0)  -->
<svg version="1.1" id="Layer_1" xmlns="http://www.w3.org/2000/svg" xmlns:xlink="http://www.w3.org/1999/xlink" x="0px" y="0px"
	 width="64px" height="64px" viewBox="0 0 64 64" style="enable-background:new 0 0 64 64;" xml:space="preserve">
<style type="text/css">
	.st0{fill:#F58025;}
</style>
<g>
	<path class="st0" d="M26.9,59.5c-3.8,0-6.9-3.1-6.9-6.9c0-1.9,0.7-3.6,2-4.9c0.7-0.7,1.9-0.7,2.6,0s0.7,1.9,0,2.6
		c-0.6,0.6-1,1.4-1,2.3c0,1.8,1.5,3.2,3.3,3.2s3.2-1.5,3.2-3.2v-6c0-1,0.8-1.8,1.8-1.8c1,0,1.8,0.8,1.8,1.8v6
		C33.8,56.4,30.7,59.5,26.9,59.5z"/>
	<g>
		<path class="st0" d="M30.9,32.7V43c0.3-0.1,0.7-0.2,1.1-0.2c0.4,0,0.7,0.1,1.1,0.2V32.7H30.9z"/>
	</g>
	<g>
		<path class="st0" d="M32,7.5c0.4,0,0.7,0,1.1,0v-2c0-0.6-0.5-1.1-1.1-1.1s-1.1,0.5-1.1,1.1v2C31.3,7.5,31.6,7.5,32,7.5z"/>
	</g>
	<g>
		<path class="st0" d="M8.7,28.5c3.1,0,5.9,1,7.8,2.6c1.9-1.6,4.6-2.6,7.8-2.6c3.1,0,5.9,1,7.8,2.6c1.9-1.6,4.6-2.6,7.8-2.6
			c3.1,0,5.9,1,7.8,2.6c1.9-1.6,4.6-2.6,7.8-2.6c2.6,0,5,0.7,6.8,1.9c-2-10.9-14.7-21.1-30-21.1C16.6,9.3,3.9,19.6,2,30.4
			C3.8,29.3,6.1,28.5,8.7,28.5z"/>
	</g>
</g>
</svg>
