<?xml version="1.0" encoding="utf-8"?>
<!-- Generator: Adobe Illustrator 21.1.0, SVG Export Plug-In . SVG Version: 6.00 Build 0)  -->
<svg version="1.1" id="Layer_1" xmlns="http://www.w3.org/2000/svg" xmlns:xlink="http://www.w3.org/1999/xlink" x="0px" y="0px"
	 width="50px" height="50px" viewBox="0 0 50 50" style="enable-background:new 0 0 50 50;" xml:space="preserve">
<style type="text/css">
	.st0{fill:#F58025;}
</style>
<g>
	<path class="st0" d="M8.6,33.4h32.8c1.9,0,3.5-1.6,3.5-3.5l0,0V8.7c0-1.9-1.5-3.5-3.5-3.5H8.6c-1.9,0-3.5,1.6-3.5,3.5V30
		C5.2,31.8,6.7,33.4,8.6,33.4z M9,8.9h32v20.7H9V8.9z M48.9,40.6l-4.1-4.1c-0.9-0.9-2.7-1.7-4-1.7H9.1c-1.3,0-3,0.8-4,1.7L1,40.6
		c-0.6,0.6-1,1.8-1,2.6c0,0.9,0.6,1.6,1.4,1.6h47.3c0.8,0,1.4-0.8,1.4-1.6C50,42.3,49.5,41.1,48.9,40.6z M29.7,41.3h-9.4
		c-0.2,0-0.3-0.3-0.3-0.5c0-0.3,0.1-0.7,0.2-0.8l0.8-1.4c0.2-0.3,0.5-0.5,0.8-0.5h6.3c0.3,0,0.6,0.3,0.8,0.5l0.8,1.4
		c0.1,0.2,0.2,0.6,0.2,0.8C30,41.1,29.8,41.3,29.7,41.3z"/>
	<rect x="11.5" y="22.7" class="st0" width="11.2" height="3.8"/>
	<rect x="24.4" y="22.7" class="st0" width="6.1" height="3.8"/>
	<polygon class="st0" points="38.5,16.6 33.5,16.6 33.5,13.4 36.1,12 38.5,13.4 	"/>
	<path class="st0" d="M28.3,16.6H13.6c-1.2,0-2.2-1-2.2-2.2l0,0c0-1.2,1-2.2,2.2-2.2h14.7c1.2,0,2.2,1,2.2,2.2l0,0
		C30.5,15.7,29.6,16.6,28.3,16.6z"/>
	<circle class="st0" cx="19.3" cy="19.4" r="1"/>
	<circle class="st0" cx="26.1" cy="19.4" r="1"/>
	<circle class="st0" cx="15.9" cy="19.4" r="1"/>
	<circle class="st0" cx="22.7" cy="19.4" r="1"/>
	<circle class="st0" cx="12.5" cy="19.4" r="1"/>
	<circle class="st0" cx="29.5" cy="19.4" r="1"/>
</g>
</svg>
