<?xml version="1.0" encoding="utf-8"?>
<!-- Generator: Adobe Illustrator 19.1.0, SVG Export Plug-In . SVG Version: 6.00 Build 0)  -->
<svg version="1.1" id="Layer_1" xmlns="http://www.w3.org/2000/svg" xmlns:xlink="http://www.w3.org/1999/xlink" x="0px" y="0px"
	 width="95px" height="27.9px" viewBox="0 0 95 27.9" enable-background="new 0 0 95 27.9" xml:space="preserve">
<g>
	<path fill="#FFFFFF" d="M13.9,0.6C6.6,0.6,0.6,6.6,0.6,13.9c0,7.3,5.9,13.3,13.3,13.3c7.3,0,13.3-5.9,13.3-13.3
		C27.2,6.6,21.2,0.6,13.9,0.6"/>
</g>
<path fill="#F58025" d="M25.6,25.3h0.2c0.2,0,0.3,0.1,0.3,0.3c0,0.1-0.1,0.3-0.3,0.3h-0.2V25.3 M25.6,26.2h0.1
	c0.4,0,0.3,0.2,0.3,0.5c0,0.1,0,0.3,0.1,0.4h0.5c0-0.1-0.1-0.5-0.1-0.6c0-0.4-0.3-0.4-0.4-0.4v0c0.3,0,0.4-0.3,0.4-0.5
	c0-0.4-0.2-0.6-0.6-0.6h-0.9v2.2h0.5V26.2z M25.8,24.1c-1,0-1.9,0.8-1.9,1.9c0,1,0.8,1.9,1.9,1.9c1,0,1.9-0.8,1.9-1.9
	C27.7,24.9,26.8,24.1,25.8,24.1 M25.8,27.5c-0.8,0-1.5-0.7-1.5-1.5c0-0.8,0.7-1.5,1.5-1.5c0.8,0,1.5,0.7,1.5,1.5
	C27.3,26.8,26.6,27.5,25.8,27.5"/>
<path fill="#F58025" d="M20.8,15.9h-2.9c0.1-0.4,0.1-0.8-0.2-1.3L13,6.4c-0.7-1.2-1.4-2.1-2-2.8c0,0,0,0,0,0c1.9,1,5.6,3.1,12.8,7.3
	l0.4,0.2c1.3,0.8,2.1,2,1.9,2.8C25.8,15.2,23.9,15.9,20.8,15.9 M11.4,23.9L11,24.2c-1.3,0.8-2.8,0.8-3.4,0.2
	c-0.8-0.8-0.4-2.8,1.1-5.5l1.4-2.5c0.3,0.3,0.7,0.5,1.2,0.5h9.4c1.4,0,2.5-0.1,3.5-0.4c0,0,0,0,0,0C22.4,17.7,18.7,19.8,11.4,23.9
	 M6.4,6.7l0-0.5c0-1.5,0.6-2.8,1.5-3c1.1-0.3,2.7,1.1,4.2,3.7l1.4,2.5c-0.4,0.1-0.8,0.4-1,0.8l-4.7,8.1c-0.7,1.2-1.2,2.2-1.4,3.2
	c0,0,0,0,0,0C6.4,19.4,6.4,15.1,6.4,6.7 M13.9,0C6.2,0,0,6.2,0,13.9c0,7.7,6.2,13.9,13.9,13.9s13.9-6.2,13.9-13.9
	C27.8,6.2,21.6,0,13.9,0"/>
<path fill="#FFFFFF" d="M42.2,3.8h-9.1h-0.2v0.9l0.2,0c3.2,0.4,3.6,0.8,3.6,2.5v17.2h3.7v-9h1.5c3.5,0,10.8,0,10.8-5.8
	C52.7,3.8,45.9,3.8,42.2,3.8 M41.8,13.9h-1.4V7.2c0-1.6,0-1.8,3-1.8c3.4,0,5.2,1.5,5.2,4.3C48.6,13.4,45.1,13.9,41.8,13.9"/>
<path fill="#FFFFFF" d="M73.5,3.8h-2.2v16.1C70.8,19.1,59.8,3.8,59.8,3.8H52v0.9l0.2,0c3.2,0.4,3.6,0.6,3.6,2.8v16.9h2.4V7.1
	c0.6,0.8,12.5,17.3,12.5,17.3h3.2V3.8H73.5z"/>
<path fill="#FFFFFF" d="M76.6,13.4c0,5.6,3.4,11.3,11.1,11.3c3.6,0,5.4-0.4,7.1-0.8l0.2,0v-1.7l-0.3,0.1c-1.8,0.5-3.5,0.7-4.9,0.7
	c-6.1,0-9.1-3.4-9.1-10.3c0-4.6,2.2-7.4,5.9-7.4c2.5,0,3.9,1,4.3,2.9l0,0.2H95L95,8c-0.1-1.1-1.1-4.6-8.2-4.6
	C80,3.4,76.6,6.8,76.6,13.4"/>
</svg>
