<?xml version="1.0" encoding="utf-8"?>
<svg version="1.2" viewBox="0 0 224.2 24" x="0px" xml:space="preserve" xmlns:xlink="http://www.w3.org/1999/xlink" xmlns="http://www.w3.org/2000/svg" y="0px">
    <g>
        <polygon fill="#FFFFFF" points="107.3,8.5 102.4,17 97.5,8.5 91.2,8.5 87.5,21 93.2,21 95.1,13 99.7,21 105.1,21 109.6,13
		111.5,21 117.3,21 113.6,8.5 	"/>
        <path d="M68.9,8.5l-8.4,12.4h5.6l1.3-2.1h8.8l1.3,2.1h6.2L75.3,8.5H68.9z M68.9,16.4l3-4.9l3,4.9H68.9z" fill="#FFFFFF"/>
        <path d="M178.6,8.5l-8.4,12.4h5.6l1.3-2.1h8.8l1.3,2.1h6.2L185,8.5H178.6z M178.6,16.4l3-4.9l3,4.9H178.6z" fill="#FFFFFF"/>
        <polygon fill="#FFFFFF" points="217.8,8.5 210.9,8.5 204.1,14.1 204.1,8.5 198.3,8.5 198.3,21 204.1,21 204.1,15.1 210.9,21
		218.5,21 210.1,14.5 	"/>
        <path
            d="M165.2,12.6c0-1.9-1.3-2.9-3.2-3.5c-2.1-0.5-4.7-0.6-7.2-0.6c-4.8,0-8.9,0-8.9,0v12.4h5.8v-3.7h4.9l3,3.9
		h6.6l-4.3-4.8C164.3,15.6,165.2,14.1,165.2,12.6z M157.7,14.6c-0.7,0.1-1.4,0.2-2.5,0.2c-1,0-3.5,0-3.5,0V11c0,0,2.8,0,3.6,0
		c3,0,4.2,0.6,4.2,1.8C159.5,13.8,158.7,14.5,157.7,14.6z"
            fill="#FFFFFF"/>
        <polygon fill="#FFFFFF" points="120,11.4 127.4,11.4 127.4,21 133.2,21 133.2,11.4 140.2,11.4 140.8,8.5 120.5,8.5 	"/>
        <path d="M70.8,0C50.8,5.5,38.1,9.5,29,19.3c4.4,1.8,9,3.5,13,4.7c4.7-9.3,13.2-16.8,28.9-23.6V0z" fill="#FFFFFF"/>
        <path d="M45,2.4c-2.4-0.2-5-0.7-7.1-1.3C33.5,0.9,10.3,0.3,0,4.7c2.8,1.7,5.7,3.4,9.3,5.3C19.6,5.2,32.8,3.5,45,2.8
		C45,2.8,45,2.4,45,2.4z" fill="#FFFFFF"/>
        <path d="M59.9,2.3c-3.2,0.4-8.3,0.6-11.4,0.6c-9.2,1-25.4,3.6-34.6,9.3c3.4,1.7,6.8,3.4,10.4,4.9
		c9.6-8.3,22.5-12,35.6-14.5V2.3z" fill="#FFFFFF"/>
        <path d="M223,10.2c0-0.5-0.4-0.7-1-0.7h-1.1v2.8h0.4v-1.3v-0.4V9.8h0.6c0.2,0,0.6,0.1,0.6,0.4
		c0,0.5-0.4,0.5-0.6,0.5h-0.5v0.4h0.4l0.7,1.2h0.5l-0.7-1.2C222.7,10.9,223,10.7,223,10.2z" fill="#FFFFFF"/>
        <path d="M221.8,8.3c-1.3,0-2.4,1-2.4,2.4c0,1.4,1.1,2.4,2.4,2.4c1.3,0,2.4-1,2.4-2.4C224.2,9.4,223.1,8.3,221.8,8.3
		z M221.8,12.6c-1.1,0.1-1.9-0.7-1.9-1.9c0-1.1,0.8-1.9,1.9-1.9c1.1,0,1.9,0.8,1.9,1.9S222.9,12.6,221.8,12.6z" fill="#FFFFFF"/>
    </g>
</svg>
