<?xml version="1.0" encoding="utf-8"?>
<!-- Generator: Adobe Illustrator 19.1.0, SVG Export Plug-In . SVG Version: 6.00 Build 0)  -->
<svg version="1.1" id="Layer_1" xmlns="http://www.w3.org/2000/svg" xmlns:xlink="http://www.w3.org/1999/xlink" x="0px" y="0px"
	 viewBox="-286 490 224.2 24" style="enable-background:new -286 490 224.2 24;" xml:space="preserve">
<style type="text/css">
	.st0{fill:#004d6e;}
</style>
<g>
	<polygon class="st0" points="-178.7,498.5 -183.6,507 -188.5,498.5 -194.8,498.5 -198.5,511 -192.8,511 -190.9,503 -186.3,511
		-180.9,511 -176.4,503 -174.5,511 -168.7,511 -172.4,498.5 	"/>
	<path class="st0" d="M-217.1,498.5l-8.4,12.4h5.6l1.3-2.1h8.8l1.3,2.1h6.2l-8.4-12.4H-217.1z M-217.1,506.4l3-4.9l3,4.9H-217.1z"/>
	<path class="st0" d="M-107.4,498.5l-8.4,12.4h5.6l1.3-2.1h8.8l1.3,2.1h6.2l-8.4-12.4H-107.4z M-107.4,506.4l3-4.9l3,4.9H-107.4z"/>
	<polygon class="st0" points="-68.2,498.5 -75.1,498.5 -81.9,504.1 -81.9,498.5 -87.7,498.5 -87.7,511 -81.9,511 -81.9,505.1
		-75.1,511 -67.5,511 -75.9,504.5 	"/>
	<path class="st0" d="M-120.8,502.6c0-1.9-1.3-2.9-3.2-3.5c-2.1-0.5-4.7-0.6-7.2-0.6c-4.8,0-8.9,0-8.9,0v12.4h5.8v-3.7h4.9l3,3.9
		h6.6l-4.3-4.8C-121.7,505.6-120.8,504.1-120.8,502.6z M-128.3,504.6c-0.7,0.1-1.4,0.2-2.5,0.2c-1,0-3.5,0-3.5,0V501
		c0,0,2.8,0,3.6,0c3,0,4.2,0.6,4.2,1.8C-126.5,503.8-127.3,504.5-128.3,504.6z"/>
	<polygon class="st0" points="-166,501.4 -158.6,501.4 -158.6,511 -152.8,511 -152.8,501.4 -145.8,501.4 -145.2,498.5 -165.5,498.5
			"/>
	<path class="st0" d="M-215.2,490c-20,5.5-32.7,9.5-41.8,19.3c4.4,1.8,9,3.5,13,4.7c4.7-9.3,13.2-16.8,28.9-23.6L-215.2,490
		L-215.2,490z"/>
	<path class="st0" d="M-241,492.4c-2.4-0.2-5-0.7-7.1-1.3c-4.4-0.2-27.6-0.8-37.9,3.6c2.8,1.7,5.7,3.4,9.3,5.3
		c10.3-4.8,23.5-6.5,35.7-7.2V492.4z"/>
	<path class="st0" d="M-226.1,492.3c-3.2,0.4-8.3,0.6-11.4,0.6c-9.2,1-25.4,3.6-34.6,9.3c3.4,1.7,6.8,3.4,10.4,4.9
		c9.6-8.3,22.5-12,35.6-14.5C-226.1,492.6-226.1,492.3-226.1,492.3z"/>
	<path class="st0" d="M-63,500.2c0-0.5-0.4-0.7-1-0.7h-1.1v2.8h0.4V501v-0.4v-0.8h0.6c0.2,0,0.6,0.1,0.6,0.4c0,0.5-0.4,0.5-0.6,0.5
		h-0.5v0.4h0.4l0.7,1.2h0.5l-0.7-1.2C-63.3,500.9-63,500.7-63,500.2z"/>
	<path class="st0" d="M-64.2,498.3c-1.3,0-2.4,1-2.4,2.4c0,1.4,1.1,2.4,2.4,2.4s2.4-1,2.4-2.4C-61.8,499.4-62.9,498.3-64.2,498.3z
		 M-64.2,502.6c-1.1,0.1-1.9-0.7-1.9-1.9c0-1.1,0.8-1.9,1.9-1.9s1.9,0.8,1.9,1.9S-63.1,502.6-64.2,502.6z"/>
</g>
</svg>
