<?xml version="1.0" encoding="utf-8"?>
<!-- Generator: Adobe Illustrator 20.0.0, SVG Export Plug-In . SVG Version: 6.00 Build 0)  -->
<svg version="1.1" id="Layer_1" xmlns="http://www.w3.org/2000/svg" xmlns:xlink="http://www.w3.org/1999/xlink" x="0px" y="0px"
	 viewBox="0 0 86 42" style="enable-background:new 0 0 86 42;" xml:space="preserve">
<style type="text/css">
	.st0{fill:#004D6E;}
</style>
<g>
	<path class="st0" d="M51.9,12.6h-11v6.9h11V12.6z M50.6,18.1h-8.2V14h8.2V18.1z"/>
	<path class="st0" d="M38.2,8.5v16.6c-0.6,0.1-1.7,0.3-3,0.5c-0.6-0.7-2.1-2.2-4.2-3.2c-2.9-1.5-10.7,1-11.5,1.3l-0.2,0.1l-5.4,5.4
		c-1.4,0.1-7.3,0.5-7.3,4.8v2.8l0.1,0.4l0.2,0.2c0.3,0.3,1,0.6,3.3,0.6c0.3,0,0.7,0,1,0c0.4,0.8,1,1.4,1.8,1.8l-3.1,0.4
		c-0.4,0.1-0.6,0.4-0.6,0.8c0,0.3,0.3,0.6,0.7,0.6c0,0,0.1,0,0.1,0l28.8-4.1h2c0,1.5,1.2,2.8,2.8,2.8s2.8-1.2,2.8-2.8
		c0,1.5,1.2,2.8,2.8,2.8s2.8-1.2,2.8-2.8h13.8c0,1.5,1.2,2.8,2.8,2.8s2.8-1.2,2.8-2.8c0,1.5,1.2,2.8,2.8,2.8s2.8-1.2,2.8-2.8h2.8
		v-9.6v-1.4V8.5H38.2z M78.1,9.9v13.8H39.6V9.9H78.1z M38.2,36.1l-1.4,0.2c0.7-0.7,1.2-1.6,1.3-2.6l0,0V36.1z M31.6,34.4l-0.1-0.2
		c-0.1-0.2-0.1-0.3-0.1-0.5c0-0.2,0-0.3,0-0.5c0-1.5,1.2-2.8,2.8-2.8c0.2,0,0.4,0,0.6,0.1c0,0,0.1,0,0.1,0c0.1,0,0.3,0.1,0.4,0.1
		c0,0,0.1,0,0.1,0c0.1,0.1,0.3,0.1,0.4,0.2c0,0,0.1,0.1,0.1,0.1c0.1,0.1,0.2,0.1,0.3,0.2c0.1,0.1,0.1,0.1,0.2,0.2
		c0,0.1,0.1,0.1,0.1,0.2c0.1,0.1,0.2,0.3,0.2,0.4c0,0,0,0,0,0.1c0.1,0.3,0.2,0.7,0.2,1l0,0.2c0,1.5-1.2,2.7-2.7,2.7
		C32.9,36,32,35.3,31.6,34.4z M30.3,23.6c1.4,0.7,2.5,1.6,3.2,2.3c-2.2,0.4-4.9,0.8-7.7,1.2v-3.6C27.7,23.2,29.4,23.1,30.3,23.6z
		 M20,24.9c1-0.3,2.7-0.8,4.4-1.2v3.6c-3,0.5-5.9,1-8.2,1.4L20,24.9z M10.7,36.5c-1.7,0-2.5-0.1-2.8-0.2v-2.4c0-3.4,6.1-3.4,6.2-3.4
		l0.1,0c6-1.2,20.4-3.4,23.9-4v5.8l-0.1,0c0-0.1,0-0.1-0.1-0.2c-0.1-0.2-0.2-0.5-0.3-0.7c-0.1-0.2-0.1-0.3-0.2-0.4
		c0-0.1-0.1-0.1-0.1-0.2c-0.1-0.1-0.2-0.3-0.3-0.4c-0.1-0.1-0.1-0.1-0.2-0.2c-0.1-0.1-0.3-0.2-0.4-0.3c-0.1,0-0.1-0.1-0.2-0.1
		c-0.2-0.1-0.3-0.2-0.5-0.3c-0.1,0-0.1-0.1-0.2-0.1c-0.2-0.1-0.4-0.1-0.5-0.2c-0.1,0-0.1,0-0.2-0.1c-0.3,0-0.5-0.1-0.8-0.1
		c-2.3,0-4.1,1.9-4.1,4.1c0,0.2,0,0.4,0.1,0.6c-4.2,0.8-7.9,1.4-11.1,1.8c0-0.1,0-0.2,0-0.3c0-0.1,0-0.2-0.1-0.4
		c0-0.1-0.1-0.3-0.1-0.4c0-0.1-0.1-0.2-0.1-0.3c-0.1-0.1-0.1-0.3-0.2-0.4c-0.1-0.1-0.1-0.2-0.2-0.3c-0.1-0.1-0.2-0.2-0.3-0.3
		c-0.1-0.1-0.1-0.2-0.2-0.3c-0.1-0.1-0.2-0.2-0.3-0.3c-0.1-0.1-0.2-0.1-0.3-0.2c-0.1-0.1-0.3-0.2-0.4-0.2c-0.1,0-0.2-0.1-0.3-0.1
		c-0.2-0.1-0.3-0.1-0.5-0.2c-0.1,0-0.2-0.1-0.3-0.1c-0.3-0.1-0.5-0.1-0.8-0.1c-2.3,0-4.1,1.9-4.1,4.1C10.7,36.2,10.7,36.4,10.7,36.5
		z M12.3,37.1l-0.1-0.2c-0.1-0.2-0.1-0.3-0.1-0.5c0-0.2,0-0.3,0-0.5c0-1.5,1.2-2.8,2.8-2.8s2.8,1.2,2.8,2.8c0,0.1,0,0.3,0,0.4l0,0.2
		c-0.3,1.2-1.4,2.1-2.7,2.1C13.7,38.8,12.7,38.1,12.3,37.1z M18.8,37.1C22,36.7,26,36,30.5,35.2c0.4,0.7,1,1.4,1.8,1.7L17.6,39
		C18.1,38.5,18.5,37.9,18.8,37.1z M43.7,38.8c-0.8,0-1.4-0.6-1.4-1.4h2.8C45.1,38.1,44.4,38.8,43.7,38.8z M49.2,38.8
		c-0.8,0-1.4-0.6-1.4-1.4h2.8C50.6,38.1,49.9,38.8,49.2,38.8z M68.4,38.8c-0.8,0-1.4-0.6-1.4-1.4h2.8C69.8,38.1,69.2,38.8,68.4,38.8
		z M73.9,38.8c-0.8,0-1.4-0.6-1.4-1.4h2.8C75.3,38.1,74.7,38.8,73.9,38.8z M78.1,36h-1.7h-4.8h-0.7H66H51.6h-4.8h-0.7h-4.8h-1.7
		v-2.6v-5.7h38.5V36z M39.6,26.4V25h38.5v1.4H39.6z"/>
	<path class="st0" d="M64.3,12.6h-11v6.9h11V12.6z M62.9,18.1h-8.2V14h8.2V18.1z"/>
	<path class="st0" d="M76.7,12.6h-11v6.9h11V12.6z M75.3,18.1h-8.2V14h8.2V18.1z"/>
</g>
</svg>
