<?xml version="1.0" encoding="utf-8"?>
<!-- Generator: Adobe Illustrator 19.1.0, SVG Export Plug-In . SVG Version: 6.00 Build 0)  -->
<svg version="1.1" id="Layer_1" xmlns="http://www.w3.org/2000/svg" xmlns:xlink="http://www.w3.org/1999/xlink" x="0px" y="0px"
	 viewBox="0 0 512 512" enable-background="new 0 0 512 512" xml:space="preserve">
<g>
	<path fill="#00749A" d="M256,512C114.9,512,0,397.2,0,256S114.9,0,256,0c141.2,0,256,114.8,256,256S397.2,512,256,512z M256,12.5
		C121.7,12.5,12.5,121.7,12.5,256S121.7,499.5,256,499.5c134.3,0,243.5-109.2,243.5-243.5S390.3,12.5,256,12.5z"/>
	<path fill="#00749A" d="M201.8,217.9H225v-22.6c0-10,0.3-25.3,7.5-34.8c7.6-10.1,18.1-16.9,36.1-16.9c29.3,0,41.7,4.2,41.7,4.2
		l-5.8,34.4c0,0-9.7-2.8-18.7-2.8c-9,0-17.1,3.2-17.1,12.3v26.3h37.1l-2.6,33.6h-34.5v116.8H225V251.6h-23.2V217.9z"/>
</g>
</svg>
