<?xml version="1.0" encoding="utf-8"?>
<!-- Generator: Adobe Illustrator 19.1.0, SVG Export Plug-In . SVG Version: 6.00 Build 0)  -->
<svg version="1.1" id="Layer_1" xmlns="http://www.w3.org/2000/svg" xmlns:xlink="http://www.w3.org/1999/xlink" x="0px" y="0px"
	 viewBox="0 0 512 512" enable-background="new 0 0 512 512" xml:space="preserve">
<g>
	<path fill="#00749A" d="M256,512C114.9,512,0,397.2,0,256S114.9,0,256,0c141.2,0,256,114.8,256,256S397.2,512,256,512z M256,12.5
		C121.7,12.5,12.5,121.7,12.5,256S121.7,499.5,256,499.5c134.3,0,243.5-109.2,243.5-243.5S390.3,12.5,256,12.5z"/>
	<path fill="#00749A" d="M218.8,356.6c-26.7,0-46-16.9-46-37.2c0-19.9,23.9-36.5,50.6-36.2c6.2,0.1,12.1,1.1,17.3,2.8
		c14.5,10.1,24.9,15.8,27.8,27.3c0.6,2.3,0.9,4.7,0.9,7.2C269.5,340.7,256.4,356.6,218.8,356.6 M225.9,237.5
		c-17.9-0.5-35-20.1-38.1-43.6c-3.1-23.6,8.9-41.6,26.9-41.1c17.9,0.5,35,19.4,38.1,43C255.8,219.3,243.8,238,225.9,237.5
		 M263,272.3c-6.3-4.5-18.3-15.3-18.3-21.7c0-7.5,2.1-11.1,13.4-19.9c11.5-9,19.7-21.6,19.7-36.3c0-17.5-7.8-34.6-22.4-40.2h22.1
		l15.6-11.3h-69.6c-31.2,0-60.6,23.6-60.6,51c0,28,21.3,50.6,53,50.6c2.2,0,4.3,0,6.5-0.2c-2.1,3.9-3.5,8.4-3.5,13
		c0,7.8,4.2,14.1,9.5,19.2c-4,0-7.9,0.1-12.1,0.1c-38.6,0-68.4,24.6-68.4,50.2c0,25.1,32.6,40.9,71.2,40.9c44.1,0,68.4-25,68.4-50.2
		C287.4,297.4,281.4,285.3,263,272.3 M364.3,239.5h-27.1v-27.1h-21.8v27.1h-27.1v21.8h27.1v27.1h21.8v-27.1h27.1V239.5z"/>
</g>
</svg>
