<?xml version="1.0" encoding="utf-8"?>
<!-- Generator: Adobe Illustrator 20.0.0, SVG Export Plug-In . SVG Version: 6.00 Build 0)  -->
<svg version="1.1" id="Layer_1" xmlns="http://www.w3.org/2000/svg" xmlns:xlink="http://www.w3.org/1999/xlink" x="0px" y="0px"
	 viewBox="0 0 82 42" style="enable-background:new 0 0 82 42;" xml:space="preserve">
<style type="text/css">
	.st0{fill:#FFFFFF;}
	.st1{fill:#004D6E;}
</style>
<g>
	<path class="st0" d="M44.4,31.4c-0.4-1.2-1.2-2.3-2.3-2.5c-1.1-0.2-2.2-0.4-3.2-0.6c-1.5-1.3-1.5-3.2-1.5-3.2h-1
		c-0.8,0.4-1.6,0.7-2.5,0.7c-0.9,0-1.7-0.2-2.5-0.7h-1c0,0,0,1.9-1.5,3.2c-1,0.3-2.1,0.4-3.2,0.6c-1.2,0.2-1.9,1.3-2.3,2.5
		c-0.7,0.9-1.2,5.7-1.3,7.8h0.6h22.4h0.6C45.5,37.1,45.1,32.3,44.4,31.4z"/>
	<path class="st1" d="M45.6,39.7H22.2c-0.1,0-0.2-0.1-0.3-0.1c-0.1-0.1-0.1-0.2-0.1-0.3c0.1-1.4,0.5-6.7,1.3-8
		c0.6-1.6,1.5-2.5,2.7-2.8l0.7-0.1c0.8-0.1,1.6-0.3,2.3-0.5C30,26.7,30,25.1,30,25c0-0.3,0.2-0.5,0.5-0.5h1c0.1,0,0.2,0,0.2,0.1
		c1.4,0.8,3,0.8,4.5,0c0.1,0,0.2-0.1,0.2-0.1h1c0.3,0,0.5,0.2,0.5,0.5c0,0,0,1.7,1.3,2.8c0.7,0.2,1.5,0.3,2.4,0.5l0.7,0.1
		c1.2,0.2,2.1,1.1,2.7,2.8c0.8,1.3,1.2,6.6,1.3,8c0,0.1,0,0.3-0.1,0.3C45.9,39.6,45.8,39.7,45.6,39.7z M22.7,38.7h22.5
		c-0.2-2.6-0.6-6.4-1.1-7c0,0-0.1-0.1-0.1-0.1c-0.5-1.3-1.1-2.1-2-2.2l-0.7-0.1c-0.9-0.1-1.7-0.3-2.5-0.5c-0.1,0-0.1-0.1-0.2-0.1
		c-1.2-1-1.5-2.4-1.6-3.1h-0.4c-1.6,0.9-3.5,0.9-5.2,0h-0.4c-0.1,0.7-0.4,2.1-1.6,3.1c-0.1,0-0.1,0.1-0.2,0.1
		c-0.8,0.2-1.7,0.4-2.5,0.5l-0.7,0.1c-0.8,0.2-1.5,0.9-2,2.2c0,0,0,0.1-0.1,0.1C23.3,32.4,22.8,36.1,22.7,38.7z"/>
</g>
<g>
	<path class="st1" d="M33.9,26c-0.7,0-1.4-0.2-2.1-0.4h-0.4c-0.1,0-0.2,0-0.2-0.1c-2.2-1.3-3.7-4.1-3.9-7.3l0-0.4c0-0.1,0-0.2,0-0.3
		l0.5-0.1l-0.5,0l0-0.1c0-0.1,0-0.2,0-0.3l0-0.4c0.2-3.2,1.7-6,3.9-7.3c0.1,0,0.2-0.1,0.2-0.1h0.4c1.4-0.6,2.8-0.6,4.2,0h0.4
		c0.1,0,0.2,0,0.2,0.1c2.2,1.3,3.7,4.1,3.9,7.3l0,0.4c0,0.1,0,0.2,0,0.3l0,0.1l0,0.1c0,0.1,0,0.2,0,0.3l0,0.4
		c-0.2,3.2-1.7,6-3.9,7.3c-0.1,0-0.2,0.1-0.2,0.1H36C35.3,25.8,34.6,26,33.9,26z M31.6,24.6h0.3c0.1,0,0.1,0,0.2,0
		c1.2,0.5,2.4,0.5,3.6,0c0.1,0,0.1,0,0.2,0h0.3c1.9-1.2,3.2-3.6,3.4-6.5l0-0.4c0-0.1,0-0.2,0-0.3h0.5l-0.5,0c0,0,0-0.1,0-0.2
		c0-0.1,0-0.2,0-0.3l0-0.4c-0.2-2.9-1.5-5.3-3.4-6.5h-0.3c-0.1,0-0.1,0-0.2,0c-1.2-0.5-2.4-0.5-3.6,0c-0.1,0-0.1,0-0.2,0h-0.3
		c-1.9,1.2-3.2,3.6-3.4,6.5l0,0.4c0,0.1,0,0.2,0,0.3c0,0,0,0.1,0,0.1l-0.5,0.1h0.5c0,0.1,0,0.2,0,0.3l0,0.4
		C28.4,20.9,29.7,23.4,31.6,24.6z"/>
</g>
<g>
	<path class="st0" d="M59.1,34.8c-0.4-1.2-1.2-2.3-2.3-2.5c-1.1-0.2-2.2-0.4-3.2-0.6c-1.5-1.3-1.5-3.2-1.5-3.2h-1
		c-0.8,0.4-1.6,0.7-2.5,0.7c-0.9,0-1.7-0.2-2.5-0.7h-1c0,0,0,1.9-1.5,3.2c-1,0.3-2.1,0.4-3.2,0.6c-1.2,0.2-1.9,1.3-2.3,2.5
		c-0.7,0.9-1.2,2.3-1.3,4.4h0.6h22.4h0.6C60.3,37.1,59.8,35.7,59.1,34.8z"/>
	<path class="st1" d="M60.4,39.7H36.9c-0.1,0-0.2-0.1-0.3-0.1c-0.1-0.1-0.1-0.2-0.1-0.3c0.1-2,0.5-3.5,1.3-4.6
		c0.6-1.6,1.5-2.5,2.7-2.8l0.7-0.1c0.8-0.1,1.6-0.3,2.4-0.5c1.2-1.1,1.3-2.8,1.3-2.8c0-0.3,0.2-0.5,0.5-0.5h1c0.1,0,0.2,0,0.2,0.1
		c1.4,0.8,3,0.8,4.5,0C51,28,51,28,51.1,28h1c0.3,0,0.5,0.2,0.5,0.5c0,0,0,1.7,1.3,2.8c0.7,0.2,1.5,0.3,2.3,0.5l0.7,0.1
		c1.2,0.2,2.1,1.1,2.7,2.8c0.8,1.1,1.2,2.6,1.3,4.6c0,0.1,0,0.3-0.1,0.3C60.6,39.6,60.5,39.7,60.4,39.7z M37.4,38.7h22.5
		c-0.1-1.6-0.5-2.8-1.1-3.6c0,0-0.1-0.1-0.1-0.1c-0.5-1.3-1.1-2.1-2-2.2L56,32.6c-0.9-0.1-1.7-0.3-2.5-0.5c-0.1,0-0.1-0.1-0.2-0.1
		c-1.2-1-1.5-2.4-1.6-3.1h-0.4c-1.6,0.9-3.5,0.9-5.2,0h-0.4C45.5,29.6,45.2,31,44,32c-0.1,0-0.1,0.1-0.2,0.1
		c-0.8,0.2-1.7,0.4-2.5,0.5l-0.7,0.1c-0.8,0.2-1.5,0.9-2,2.2c0,0,0,0.1-0.1,0.1C37.9,36,37.5,37.1,37.4,38.7z"/>
</g>
<g>
	<path class="st1" d="M48.7,29.4c-0.7,0-1.4-0.2-2.1-0.4h-0.4c-0.1,0-0.2,0-0.2-0.1c-2.2-1.3-3.7-4.1-3.9-7.3l0-0.4
		c0-0.1,0-0.2,0-0.3l0.5-0.1l-0.5,0l0-0.1c0-0.1,0-0.2,0-0.3l0-0.4c0.2-3.2,1.7-6,3.9-7.3c0.1,0,0.2-0.1,0.2-0.1h0.4
		c1.4-0.6,2.8-0.6,4.2,0h0.4c0.1,0,0.2,0,0.2,0.1c2.2,1.3,3.7,4.1,3.9,7.3l0,0.4c0,0.1,0,0.2,0,0.3l0,0.1l0,0.1c0,0.1,0,0.2,0,0.3
		l0,0.4c-0.2,3.2-1.7,6-3.9,7.3c-0.1,0-0.2,0.1-0.2,0.1h-0.4C50.1,29.2,49.4,29.4,48.7,29.4z M46.3,28h0.3c0.1,0,0.1,0,0.2,0
		c1.2,0.5,2.4,0.5,3.6,0c0.1,0,0.1,0,0.2,0H51c1.9-1.2,3.2-3.6,3.4-6.5l0-0.4c0-0.1,0-0.2,0-0.3h0.5l-0.5,0c0,0,0-0.2,0-0.2
		c0-0.1,0-0.2,0-0.3l0-0.4c-0.2-2.9-1.5-5.3-3.4-6.5h-0.3c-0.1,0-0.1,0-0.2,0c-1.2-0.5-2.4-0.5-3.6,0c-0.1,0-0.1,0-0.2,0h-0.3
		c-1.9,1.2-3.2,3.6-3.4,6.5l-0.5,0.1l0.5,0c0,0,0,0.1,0,0.1l0,0.2c0,0.1,0,0.2,0,0.2c0,0,0,0.1,0,0.1l-0.5,0.1h0.5
		c0,0.1,0,0.2,0,0.2l0,0.2c0,0,0,0.2,0,0.2C43.1,24.3,44.4,26.8,46.3,28z"/>
</g>
<g>
	<path class="st0" d="M49.1,37.6c-0.4-1-1-1.9-1.9-2.1c-0.9-0.2-1.8-0.3-2.6-0.5c-1.2-1-1.2-2.6-1.2-2.6h-0.8
		c-0.6,0.4-1.3,0.6-2,0.6s-1.4-0.2-2-0.6h-0.8c0,0,0,1.6-1.2,2.6c-0.8,0.2-1.7,0.4-2.6,0.5c-1,0.2-1.5,1.1-1.9,2.1
		c-0.6,0.7-1,1.8-1,3.6h0.5h18.4h0.5C50.1,39.5,49.7,38.4,49.1,37.6z"/>
	<path class="st1" d="M50.2,41.7H30.9c-0.1,0-0.2-0.1-0.3-0.1c-0.1-0.1-0.1-0.2-0.1-0.3c0.1-1.7,0.4-2.9,1.1-3.8
		c0.5-1.3,1.3-2.1,2.2-2.3l0.6-0.1c0.7-0.1,1.3-0.2,1.9-0.4c1-0.9,1-2.2,1-2.2c0-0.3,0.2-0.5,0.5-0.5h0.8c0.1,0,0.2,0,0.2,0.1
		c1.1,0.7,2.4,0.7,3.6,0c0.1,0,0.2-0.1,0.2-0.1h0.8c0.3,0,0.5,0.2,0.5,0.5c0,0,0,1.3,1,2.2c0.6,0.2,1.2,0.3,1.9,0.4l0.6,0.1
		c1,0.2,1.7,1,2.2,2.3c0.7,0.9,1,2.1,1.1,3.8c0,0.1,0,0.3-0.1,0.3C50.4,41.7,50.3,41.7,50.2,41.7z M31.4,40.8h18.3
		c-0.1-1.3-0.4-2.2-0.9-2.9c0,0-0.1-0.1-0.1-0.1c-0.4-1.1-0.9-1.6-1.6-1.8l-0.6-0.1c-0.7-0.1-1.4-0.2-2.1-0.4
		c-0.1,0-0.1-0.1-0.2-0.1c-1-0.8-1.3-1.9-1.3-2.5h-0.3c-1.4,0.7-2.9,0.7-4.3,0h-0.3c-0.1,0.6-0.4,1.7-1.3,2.5
		c-0.1,0-0.1,0.1-0.2,0.1c-0.7,0.2-1.4,0.3-2.1,0.4L33.9,36c-0.7,0.1-1.2,0.7-1.6,1.8c0,0,0,0.1-0.1,0.1
		C31.8,38.6,31.5,39.5,31.4,40.8z"/>
</g>
<g>
	<path class="st0" d="M45.7,26.2C45.7,26.1,45.6,26.1,45.7,26.2c0-0.1,0-0.2,0-0.2c0-0.1,0-0.3,0-0.4c0-0.1,0-0.1,0-0.2
		c-0.2-2.6-1.4-4.7-3-5.7h-0.4c-0.5-0.2-1.1-0.4-1.6-0.4c-0.6,0-1.1,0.1-1.6,0.4h-0.4c-1.7,1-2.9,3.1-3,5.7c0,0.1,0,0.1,0,0.2
		c0,0.1,0,0.3,0,0.4c0,0,0,0.1,0,0.1c0,0,0,0.1,0,0.1c0,0.1,0,0.3,0,0.4c0,0.1,0,0.1,0,0.2c0.2,2.6,1.4,4.7,3,5.7h0.4
		c0.5,0.2,1.1,0.4,1.6,0.4s1.1-0.1,1.6-0.4h0.4c1.7-1,2.9-3.1,3-5.7c0-0.1,0-0.1,0-0.2C45.6,26.4,45.7,26.3,45.7,26.2z"/>
	<path class="st1" d="M40.6,33.2c-0.6,0-1.2-0.1-1.7-0.4h-0.3c-0.1,0-0.2,0-0.2-0.1c-1.9-1.1-3.1-3.4-3.3-6.1l0-0.3
		c0-0.1,0-0.2,0-0.3l0.5-0.1l-0.5,0c0-0.2,0-0.3,0-0.4l0-0.3c0.2-2.7,1.4-5,3.3-6.1c0.1,0,0.2-0.1,0.2-0.1h0.3
		c1.1-0.5,2.3-0.5,3.5,0h0.3c0.1,0,0.2,0,0.2,0.1c1.9,1.1,3.1,3.4,3.3,6.1c0,0,0,0.2,0,0.2l0,0.1c0,0.1,0,0.2,0,0.3c0,0,0,0.1,0,0.1
		l-0.5,0.1h0.5c0,0.1,0,0.2,0,0.3l0,0.3c-0.2,2.7-1.4,5-3.3,6.1c-0.1,0-0.2,0.1-0.2,0.1h-0.3C41.7,33.1,41.1,33.2,40.6,33.2z
		 M38.7,31.9h0.2c0.1,0,0.1,0,0.2,0c1,0.4,2,0.4,2.9,0c0.1,0,0.1,0,0.2,0h0.2C44,31,45,29,45.2,26.7l0.5-0.1l-0.5,0l0-0.2
		c0-0.1,0-0.1,0-0.2l0.5,0l-0.5,0c0,0,0-0.1,0-0.1c0-0.1,0-0.2,0-0.2l0-0.2l0.5-0.2l-0.5,0c-0.1-2.3-1.2-4.3-2.7-5.3h-0.2
		c-0.1,0-0.1,0-0.2,0c-1-0.4-2-0.4-2.9,0c-0.1,0-0.1,0-0.2,0h-0.2c-1.5,0.9-2.6,2.9-2.7,5.3l0,0.3c0,0.1,0,0.1,0,0.2
		c0,0,0,0.1,0,0.1c0,0.2,0,0.2,0,0.3l0,0.2c0,0,0,0.1,0,0.1C36.1,29,37.1,31,38.7,31.9z"/>
</g>
</svg>
