<?xml version="1.0" encoding="utf-8"?>
<!-- Generator: Adobe Illustrator 19.1.0, SVG Export Plug-In . SVG Version: 6.00 Build 0)  -->
<svg version="1.1" id="Layer_1" xmlns="http://www.w3.org/2000/svg" xmlns:xlink="http://www.w3.org/1999/xlink" x="0px" y="0px"
	 viewBox="0 0 310.4 51.3" enable-background="new 0 0 310.4 51.3" xml:space="preserve">
<g>
	<polyline fill="#005983" points="154.8,29.1 152.2,18 145.9,29.1 138.3,29.1 132,18 129.3,29.1 121.4,29.1 126.6,11.9 135.3,11.9 
		142.1,23.6 148.9,11.9 157.5,11.9 162.7,29.1 154.8,29.1 	"/>
	<path fill="#005983" d="M95.5,22.8l4.1-6.9l4.1,6.9H95.5 M95.6,11.9L83.9,29.1h7.9l1.8-3h12.2l1.8,3h8.7l-11.7-17.2H95.6z"/>
	<path fill="#005983" d="M247.7,22.8l4.1-6.9l4.1,6.9H247.7 M247.8,11.9l-11.7,17.2h7.9l1.8-3h12.2l1.8,3h8.7l-11.7-17.2H247.8z"/>
	<polyline fill="#005983" points="292.6,29.1 283.2,20.9 283.2,29.1 275.1,29.1 275.1,11.9 283.2,11.9 283.2,19.4 292.5,11.9 
		302.3,11.9 291.5,20.1 303,29.1 292.6,29.1 	"/>
	<path fill="#005983" d="M210.5,15.3c0,0,3.8,0,5,0c4.1,0,5.8,0.8,5.8,2.5c0,1.4-1.1,2.3-2.5,2.6c-1,0.2-2,0.3-3.6,0.3
		c-1.3,0-4.7,0-4.7,0V15.3 M221.5,29.1h9.1l-6-6.6c3.3-0.8,4.7-2.8,4.7-5.1c0-2.6-1.9-4.1-4.5-4.8c-2.8-0.7-6.4-0.8-9.9-0.8
		c-6.7,0-12.3,0-12.3,0v17.2h8v-5.2h6.9L221.5,29.1z"/>
	<polyline fill="#005983" points="184.9,15.8 184.9,29.1 176.8,29.1 176.8,15.8 166.4,15.8 167.3,11.9 195.4,11.9 194.5,15.8 
		184.9,15.8 	"/>
	<path fill="#005983" d="M40.3,26.7c6.2,2.5,12.5,4.9,18,6.5c6.5-13,18.4-23.3,40.1-32.7V0C70.4,7.6,52.9,13.1,40.3,26.7"/>
	<path fill="#005983" d="M52.8,1.4C46.6,1.1,14.3,0.3,0,6.5c3.9,2.3,8,4.7,12.9,7.2c14.2-6.7,32.7-9.1,49.6-10V3.4
		C59.2,3,55.6,2.2,52.8,1.4"/>
	<path fill="#005983" d="M67.3,4C54.5,5.3,32,9,19.2,17c4.7,2.3,9.5,4.7,14.4,6.8C47.1,12.3,65,7.2,83.2,3.6V3.2
		C78.6,3.7,71.6,4.1,67.3,4"/>
	<path fill="#005983" d="M125.9,37.6c-1.6-0.6-3.7-0.9-5.3-0.9c-4.8,0-7.5,2.6-7.5,6c0,3.4,2.6,5.9,7,5.9c1.1,0,2-0.1,2.7-0.2v-4.3
		h-4.4v-2.6h8.4v8.9c-2.2,0.5-4.5,0.9-6.7,0.9c-6.7,0-11.3-2.7-11.3-8.3c0-5.7,4.3-8.8,11.3-8.8c2.4,0,4.3,0.3,6.1,0.7L125.9,37.6"
		/>
	<path fill="#005983" d="M143.1,51h-3.8v-1.7h-0.1c-1.2,1.2-2.9,1.9-5,1.9c-3.6,0-5.2-2-5.2-4.8v-7.7h4v6.5c0,1.5,0,3.5,2.6,3.5
		c2.9,0,3.5-2.5,3.5-4.1v-6h4V51"/>
	<path fill="#005983" d="M155.8,43.7c-0.1-1.5-1-2.9-3.2-2.9c-2.2,0-3.3,1.2-3.5,2.9H155.8 M158.4,50.3c-1.5,0.6-3.1,1-5.2,1
		c-5,0-8-2.3-8-6.3c0-3.5,2.3-6.4,7.1-6.4c5.7,0,7.3,3.1,7.3,7.4H149c0.2,2,1.9,3.1,4.4,3.1c1.9,0,3.6-0.6,5.1-1.2V50.3z"/>
	<path fill="#005983" d="M171.3,41.3c-1.2-0.3-2.1-0.5-3.6-0.5c-1.1,0-2.3,0.3-2.3,1.4c0,1.9,6.9,0.7,6.9,5.1c0,2.8-3.2,4-6.4,4
		c-1.5,0-3.1-0.2-4.5-0.5l0.2-2.6c1.2,0.5,2.5,0.8,3.9,0.8c1,0,2.6-0.3,2.6-1.5c0-2.4-6.9-0.8-6.9-5.2c0-2.6,2.9-3.8,6-3.8
		c1.9,0,3.1,0.2,4.3,0.5L171.3,41.3"/>
	<path fill="#005983" d="M176.2,41.1h-2.9v-2.3h2.9v-2.4l4-1v3.5h3.5v2.3h-3.5v5.7c0,1,0.4,2,1.9,2c0.7,0,1.4-0.1,1.8-0.3L184,51
		c-0.8,0.2-1.7,0.3-2.9,0.3c-3.1,0-4.8-1.5-4.8-4V41.1"/>
	<path fill="#005983" d="M197.9,41.5h1.4c2,0,4.4-0.5,4.4-2.5c0-2-2.3-2.2-4.4-2.2h-1.4V41.5 M193.8,34.2h4.5c4.4,0,9.7-0.1,9.7,4.5
		c0,1.9-1.6,3.8-4.3,4.1v0c1.1,0.1,1.8,1,2.2,1.7l3.3,6.5h-4.6l-2.5-5.2c-0.6-1.2-1.1-1.7-2.9-1.7h-1.3V51h-4.1V34.2z"/>
	<path fill="#005983" d="M219.8,43.7c-0.1-1.5-1-2.9-3.2-2.9s-3.3,1.2-3.5,2.9H219.8 M222.5,50.3c-1.5,0.6-3.1,1-5.2,1
		c-5,0-8-2.3-8-6.3c0-3.5,2.3-6.4,7.1-6.4c5.7,0,7.3,3.1,7.3,7.4H213c0.2,2,1.9,3.1,4.4,3.1c1.9,0,3.6-0.6,5.1-1.2V50.3z"/>
	<polyline fill="#005983" points="223.9,38.8 228.1,38.8 231.5,47.8 231.6,47.8 234.7,38.8 239.3,38.8 242.6,47.8 242.7,47.8 
		245.8,38.8 249.6,38.8 244.9,51 240.3,51 236.9,41.7 236.9,41.7 233.6,51 229.1,51 223.9,38.8 	"/>
	<path fill="#005983" d="M255.7,48.9c1.2,0,2.2-0.4,2.8-1.1c0.7-0.7,0.8-1.6,0.8-2.5h-1.7c-1.8,0-4.4,0.2-4.4,2.1
		C253.2,48.5,254.3,48.9,255.7,48.9 M251,39.4c1.5-0.6,3.6-0.9,5.3-0.9c4.6,0,6.6,1.5,6.6,5.1v1.6c0,1.2,0,2.2,0.1,3.1
		c0,0.9,0.1,1.8,0.2,2.7h-3.5c-0.1-0.6-0.1-1.4-0.2-1.8h-0.1c-0.9,1.3-2.9,2.1-4.7,2.1c-2.7,0-5.3-1.3-5.3-3.6
		c0-1.8,1.1-2.9,2.6-3.5c1.5-0.6,3.5-0.7,5.1-0.7h2.2c0-2-1.1-2.6-3.4-2.6c-1.7,0-3.4,0.5-4.7,1.3L251,39.4z"/>
	<path fill="#005983" d="M265.9,38.8h3.5v2.8h0.1c0.2-1.1,1.8-3.1,4.2-3.1c0.4,0,0.8,0,1.2,0.1v3.2c-0.4-0.2-1.1-0.3-1.8-0.3
		c-3.2,0-3.2,3.2-3.2,5V51h-4V38.8"/>
	<path fill="#005983" d="M282.8,48.8c2.6,0,3.5-2.2,3.5-4c0-1.7-1-3.9-3.6-3.9c-2.6,0-3.3,2.2-3.3,3.9
		C279.4,46.5,280.2,48.8,282.8,48.8 M286.4,49.6L286.4,49.6c-1.2,1.2-2.9,1.7-4.7,1.7c-4.7,0-6.4-3.1-6.4-6.4c0-3.4,1.7-6.3,6.4-6.3
		c2,0,3.4,0.5,4.6,1.7h0.1v-6h4V51h-3.8V49.6z"/>
	<path fill="#005983" d="M303,41.3c-1.2-0.3-2.1-0.5-3.6-0.5c-1.1,0-2.3,0.3-2.3,1.4c0,1.9,6.9,0.7,6.9,5.1c0,2.8-3.2,4-6.4,4
		c-1.5,0-3.1-0.2-4.5-0.5l0.2-2.6c1.2,0.5,2.5,0.8,3.9,0.8c1,0,2.6-0.3,2.6-1.5c0-2.4-6.9-0.8-6.9-5.2c0-2.6,2.9-3.8,6-3.8
		c1.9,0,3.1,0.2,4.3,0.5L303,41.3"/>
	<path fill="#005983" d="M307.6,41h0.5l0.7,1.1h0.4l-0.8-1.2c0.4-0.1,0.7-0.3,0.7-0.7c0-0.5-0.3-0.8-0.9-0.8h-1v2.7h0.4v-2.3h0.5
		c0.3,0,0.6,0.1,0.6,0.4c0,0.4-0.3,0.4-0.6,0.4h-0.5V41 M308.1,43.2c1.3,0,2.3-1,2.3-2.3c0-1.3-1.1-2.3-2.3-2.3
		c-1.3,0-2.3,1-2.3,2.3C305.8,42.2,306.8,43.2,308.1,43.2z M306.2,40.9c0-1.1,0.8-1.9,1.9-1.9c1,0,1.9,0.8,1.9,1.9
		c0,1.1-0.8,1.9-1.9,1.9C307,42.8,306.2,42,306.2,40.9z"/>
</g>
</svg>
