<?xml version="1.0" encoding="utf-8"?>
<!-- Generator: Adobe Illustrator 20.0.0, SVG Export Plug-In . SVG Version: 6.00 Build 0)  -->
<svg version="1.1" id="Layer_1" xmlns="http://www.w3.org/2000/svg" xmlns:xlink="http://www.w3.org/1999/xlink" x="0px" y="0px"
	 viewBox="0 0 86 42" style="enable-background:new 0 0 86 42;" xml:space="preserve">
<style type="text/css">
	.st0{fill:#004D6E;}
</style>
<path class="st0" d="M55.4,42H44.8v-5.9h-3.5V42H30.6V13.7h-1.2V9h27.1v4.7h-1.2V42z M45.9,40.8h8.2V12.5h1.2v-2.4H30.6v2.4h1.2
	v28.3h8.2v-5.9h5.9V40.8z M53,38.5h-5.9v-3.5H53V38.5z M48.3,37.3h3.5v-1.2h-3.5V37.3z M38.9,38.5H33v-3.5h5.9V38.5z M34.2,37.3h3.5
	v-1.2h-3.5V37.3z M53,33.2h-5.9v-3.5H53V33.2z M48.3,32h3.5v-1.2h-3.5V32z M45.9,33.2h-5.9v-3.5h5.9V33.2z M41.2,32h3.5v-1.2h-3.5
	V32z M38.9,33.2H33v-3.5h5.9V33.2z M34.2,32h3.5v-1.2h-3.5V32z M53,27.9h-5.9v-3.5H53V27.9z M48.3,26.7h3.5v-1.2h-3.5V26.7z
	 M45.9,27.9h-5.9v-3.5h5.9V27.9z M41.2,26.7h3.5v-1.2h-3.5V26.7z M38.9,27.9H33v-3.5h5.9V27.9z M34.2,26.7h3.5v-1.2h-3.5V26.7z
	 M53,22.6h-5.9V19H53V22.6z M48.3,21.4h3.5v-1.2h-3.5V21.4z M45.9,22.6h-5.9V19h5.9V22.6z M41.2,21.4h3.5v-1.2h-3.5V21.4z
	 M38.9,22.6H33V19h5.9V22.6z M34.2,21.4h3.5v-1.2h-3.5V21.4z M53,17.2h-5.9v-3.5H53V17.2z M48.3,16.1h3.5v-1.2h-3.5V16.1z
	 M45.9,17.2h-5.9v-3.5h5.9V17.2z M41.2,16.1h3.5v-1.2h-3.5V16.1z M38.9,17.2H33v-3.5h5.9V17.2z M34.2,16.1h3.5v-1.2h-3.5V16.1z"/>
</svg>
