<?xml version="1.0" encoding="utf-8"?>
<!-- Generator: Adobe Illustrator 19.1.0, SVG Export Plug-In . SVG Version: 6.00 Build 0)  -->
<svg version="1.1" id="Layer_1" xmlns="http://www.w3.org/2000/svg" xmlns:xlink="http://www.w3.org/1999/xlink" x="0px" y="0px"
	 viewBox="0 0 512 512" enable-background="new 0 0 512 512" xml:space="preserve">
<g>
	<path fill="#007499" d="M256.1,512c-141.2,0-256-114.8-256-256S114.9,0,256.1,0c141.2,0,256,114.8,256,256S397.2,512,256.1,512z
		 M256.1,12.5C121.8,12.5,12.5,121.7,12.5,256s109.2,243.5,243.5,243.5S499.6,390.3,499.6,256S390.3,12.5,256.1,12.5z"/>
	<path fill="#007499" d="M325,143.7H187.1c-23.9,0-43.4,19.5-43.4,43.4v45.8v92c0,23.9,19.5,43.4,43.4,43.4H325
		c23.9,0,43.4-19.5,43.4-43.4v-92v-45.8C368.5,163.2,349,143.7,325,143.7z M337.5,169.6l5,0v5v33.1l-38,0.1l-0.1-38.1L337.5,169.6z
		 M224,232.9c7.2-10,18.9-16.5,32.1-16.5c13.2,0,24.9,6.5,32.1,16.5c4.7,6.5,7.5,14.4,7.5,23.1c0,21.8-17.8,39.5-39.6,39.5
		c-21.8,0-39.6-17.7-39.6-39.5C216.5,247.4,219.3,239.4,224,232.9z M346.6,324.9c0,11.9-9.7,21.5-21.5,21.5H187.1
		c-11.9,0-21.5-9.6-21.5-21.5v-92h33.6c-2.9,7.1-4.5,14.9-4.5,23.1c0,33.9,27.6,61.4,61.5,61.4c33.9,0,61.5-27.5,61.5-61.4
		c0-8.2-1.6-15.9-4.5-23.1h33.6V324.9z"/>
</g>
</svg>
