<?xml version="1.0" encoding="utf-8"?>
<!-- Generator: Adobe Illustrator 21.1.0, SVG Export Plug-In . SVG Version: 6.00 Build 0)  -->
<svg version="1.1" id="Layer_1" xmlns="http://www.w3.org/2000/svg" xmlns:xlink="http://www.w3.org/1999/xlink" x="0px" y="0px"
	 viewBox="0 0 512 512" style="enable-background:new 0 0 512 512;" xml:space="preserve">
<style type="text/css">
	.st0{fill:#00749A;}
</style>
<g>
	<path class="st0" d="M256,512C114,512,0,396.9,0,256S114,0,256,0c140.9,0,256,114,256,256S396.9,512,256,512z M256,11.8
		C121.5,11.8,11.8,121.5,11.8,256s109.7,243.1,243.1,243.1C389.4,499.1,498,389.4,498,256S389.4,11.8,256,11.8z"/>
</g>
<g>
	<path class="st0" d="M336.7,165.6h-171c-8.6,0-15.1,6.5-15.1,14v171c0,7.5,6.5,14,15.1,14h171c8.6,0,15.1-6.5,15.1-14V180.7
		C351.7,172.1,344.2,165.6,336.7,165.6z M210.8,336.7h-30.1v-95.7h30.1V336.7z M195.8,228c-9.7,0-17.2-7.5-17.2-17.2
		s7.5-17.2,17.2-17.2s17.2,7.5,17.2,17.2S205.4,228,195.8,228z M321.6,336.7h-30.1v-46.3c0-10.8,0-25.8-15.1-25.8
		s-18.3,11.8-18.3,24.7v47.3H228v-95.7h28v12.9l0,0c4.3-7.5,14-15.1,28-15.1c30.1,0,35.5,19.4,35.5,45.2v52.7L321.6,336.7
		L321.6,336.7z"/>
</g>
</svg>
