<?xml version="1.0" encoding="utf-8"?>
<!-- Generator: Adobe Illustrator 20.0.0, SVG Export Plug-In . SVG Version: 6.00 Build 0)  -->
<svg version="1.1" id="Layer_1" xmlns="http://www.w3.org/2000/svg" xmlns:xlink="http://www.w3.org/1999/xlink" x="0px" y="0px"
	 viewBox="0 0 86 42" style="enable-background:new 0 0 86 42;" xml:space="preserve">
<style type="text/css">
	.st0{fill:#FFFFFF;}
	.st1{fill:#004D6E;}
</style>
<g>
	<path class="st0" d="M41.4,35.3c-0.8,0-1.5-0.6-1.7-1.4l-4-20.6c-0.2-0.9,0.4-1.8,1.4-2l2.1-0.4l0.1,0.2c0.5,1.4,1.8,2.3,3.2,2.3
		c0.2,0,0.4,0,0.7-0.1C44.8,13,46,11.5,46,9.8l0-0.2L48,9.2c0.1,0,0.2,0,0.3,0c0.8,0,1.5,0.6,1.7,1.4l4,20.6c0.1,0.5,0,0.9-0.3,1.3
		c-0.3,0.4-0.7,0.6-1.1,0.7l-10.9,2.1C41.7,35.3,41.5,35.3,41.4,35.3C41.4,35.3,41.4,35.3,41.4,35.3z M39.5,17.8l0.6-0.9l-0.9-0.6
		l-0.6,0.9L39.5,17.8z M42.3,17.3l0.6-0.9L42,15.8l-0.6,0.9L42.3,17.3z M45.4,16.7l0.6-0.9l-0.9-0.6l-0.6,0.9L45.4,16.7z M48.2,16.1
		l0.6-0.9L48,14.7l-0.6,0.9L48.2,16.1z"/>
	<path class="st1" d="M48.3,9.5c0.7,0,1.3,0.5,1.4,1.2l4,20.6c0.2,0.8-0.4,1.5-1.1,1.7L41.7,35c-0.1,0-0.2,0-0.3,0
		c-0.7,0-1.3-0.5-1.4-1.2l-4-20.6c-0.2-0.8,0.4-1.5,1.1-1.7l1.8-0.3c0.5,1.5,1.9,2.5,3.5,2.5c0.2,0,0.5,0,0.7-0.1
		c1.8-0.4,3.1-2,3-3.8l1.8-0.3C48.2,9.5,48.2,9.5,48.3,9.5 M48.3,16.5l0.9-1.3l-1.3-0.9L47,15.6L48.3,16.5 M45.5,17.1l0.9-1.3
		l-1.3-0.9l-0.9,1.3L45.5,17.1 M42.4,17.7l0.9-1.3L42,15.4l-0.9,1.3L42.4,17.7 M39.6,18.2l0.9-1.3L39.1,16l-0.9,1.3L39.6,18.2
		 M48.3,8.9c-0.1,0-0.3,0-0.4,0l-1.8,0.3l-0.5,0.1l0,0.5c0.1,1.5-1,2.9-2.6,3.2c-0.2,0-0.4,0.1-0.6,0.1c-1.3,0-2.5-0.8-3-2.1
		l-0.2-0.5l-0.5,0.1L37.1,11c-1.1,0.2-1.8,1.3-1.6,2.4l4,20.6c0.2,0.9,1,1.6,2,1.6c0.1,0,0.3,0,0.4,0l10.9-2.1
		c0.5-0.1,1-0.4,1.3-0.9c0.3-0.4,0.4-1,0.3-1.5l-4-20.6C50.1,9.6,49.3,8.9,48.3,8.9L48.3,8.9z M47.8,15.5l0.3-0.4l0.4,0.3l-0.3,0.4
		L47.8,15.5L47.8,15.5z M45,16l0.3-0.4l0.4,0.3l-0.3,0.4L45,16L45,16z M41.9,16.6l0.3-0.4l0.4,0.3l-0.3,0.4L41.9,16.6L41.9,16.6z
		 M39,17.1l0.3-0.4l0.4,0.3l-0.3,0.4L39,17.1L39,17.1z"/>
</g>
<rect x="39.3" y="15.4" class="st0" width="2.3" height="3.5"/>
<g>
	<path class="st0" d="M45.9,41.6c-0.5,0-1-0.2-1.4-0.6L26.8,23.3c-0.4-0.4-0.6-0.9-0.6-1.4s0.2-1,0.6-1.4l1.7-1.7l0.2,0.1
		c0.7,0.5,1.6,0.8,2.5,0.8c1.1,0,2.2-0.4,2.9-1.2c1.4-1.4,1.6-3.8,0.4-5.4l-0.1-0.2l1.7-1.7c0.4-0.4,0.9-0.6,1.4-0.6
		c0.5,0,1,0.2,1.4,0.6l17.7,17.7c0.4,0.4,0.6,0.9,0.6,1.4c0,0.5-0.2,1-0.6,1.4L47.4,41C47,41.4,46.5,41.6,45.9,41.6z M33.5,25.3
		v-1.4h-1.4v1.4H33.5z M35.9,22.9l0-1.4h-1.4v1.4H35.9z M38.6,20.2v-1.4h-1.4v1.4H38.6z M41,17.8v-1.4h-1.4v1.4H41z"/>
	<path class="st1" d="M37.5,10.8c0.4,0,0.9,0.2,1.2,0.5L56.5,29c0.7,0.7,0.7,1.8,0,2.4l-9.4,9.4c-0.3,0.3-0.8,0.5-1.2,0.5
		c-0.4,0-0.9-0.2-1.2-0.5L27,23.1c-0.7-0.7-0.7-1.8,0-2.4l1.6-1.6c0.8,0.6,1.7,0.9,2.6,0.9c1.1,0,2.3-0.4,3.1-1.3
		c1.6-1.6,1.7-4,0.4-5.8l1.6-1.6C36.7,10.9,37.1,10.8,37.5,10.8 M39.4,18.1l1.9,0l0-1.9l-1.9,0V18.1 M36.9,20.5l1.9,0l0-1.9l-1.9,0
		V20.5 M34.3,23.2h1.9l0-1.9h-1.9L34.3,23.2 M31.8,25.6l1.9,0l0-1.9l-1.9,0V25.6 M37.5,10.2c-0.6,0-1.2,0.2-1.6,0.7l-1.6,1.6
		L34,12.8l0.3,0.4c1.1,1.5,1,3.7-0.4,5c-0.7,0.7-1.7,1.1-2.7,1.1c-0.8,0-1.6-0.3-2.3-0.8l-0.4-0.3l-0.3,0.3l-1.6,1.6
		c-0.9,0.9-0.9,2.4,0,3.3l17.7,17.7c0.4,0.4,1,0.7,1.6,0.7c0.6,0,1.2-0.2,1.6-0.7l9.4-9.4c0.9-0.9,0.9-2.4,0-3.3L39.2,10.8
		C38.7,10.4,38.2,10.2,37.5,10.2L37.5,10.2z M39.9,17.5v-0.8l0.8,0l0,0.8L39.9,17.5L39.9,17.5z M37.5,19.9v-0.8l0.8,0l0,0.8
		L37.5,19.9L37.5,19.9z M34.8,21.8h0.8l0,0.8h-0.8L34.8,21.8L34.8,21.8z M32.4,25v-0.8l0.8,0l0,0.8L32.4,25L32.4,25z"/>
</g>
</svg>
