<?xml version="1.0" encoding="utf-8"?>
<!-- Generator: Adobe Illustrator 19.1.0, SVG Export Plug-In . SVG Version: 6.00 Build 0)  -->
<svg version="1.1" id="Layer_1" xmlns="http://www.w3.org/2000/svg" xmlns:xlink="http://www.w3.org/1999/xlink" x="0px" y="0px"
	 viewBox="0 0 512 512" enable-background="new 0 0 512 512" xml:space="preserve">
<g>
	<path fill="#00749A" d="M256,511.9c-141.2,0-256-114.8-256-256c0-141.2,114.8-256,256-256s256,114.8,256,256
		C512,397.1,397.2,511.9,256,511.9z M256,12.4c-134.3,0-243.5,109.2-243.5,243.5c0,134.3,109.2,243.5,243.5,243.5
		s243.5-109.2,243.5-243.5C499.5,121.6,390.3,12.4,256,12.4z"/>
	<path fill="#00749A" d="M256,142.8c-61.9,0-112.2,50.3-112.2,112.4c0,46,27.6,85.6,67.2,102.9c-0.3-7.8-0.1-17.3,1.9-25.8
		c2.2-9.1,14.4-61.2,14.4-61.2s-3.6-7.2-3.6-17.8c0-16.7,9.6-29.1,21.6-29.1c10.2,0,15.1,7.7,15.1,16.9c0,10.3-6.5,25.7-9.9,39.9
		c-2.8,11.9,6,21.7,17.7,21.7c21.3,0,35.6-27.3,35.6-59.7c0-24.6-16.6-43.1-46.7-43.1c-34,0-55.2,25.4-55.2,53.8
		c0,9.8,2.9,16.7,7.4,22.1c2.1,2.5,2.4,3.4,1.6,6.3c-0.5,2.1-1.8,7-2.3,9c-0.7,2.8-3,3.9-5.6,2.8c-15.7-6.4-23-23.6-23-42.9
		c0-31.9,26.9-70.2,80.2-70.2c42.8,0,71,31.1,71,64.4c0,44.1-24.5,77-60.5,77c-12.1,0-23.5-6.6-27.4-14c0,0-6.5,25.9-7.9,30.9
		c-2.4,8.6-7,17.3-11.3,24.1c10.1,3,20.7,4.6,31.8,4.6c61.9,0,112.2-50.3,112.2-112.4C368.2,193.2,318,142.8,256,142.8"/>
</g>
</svg>
