<?xml version="1.0" encoding="utf-8"?>
<!-- Generator: Adobe Illustrator 20.0.0, SVG Export Plug-In . SVG Version: 6.00 Build 0)  -->
<svg version="1.1" id="Layer_1" xmlns="http://www.w3.org/2000/svg" xmlns:xlink="http://www.w3.org/1999/xlink" x="0px" y="0px"
	 viewBox="0 0 512 512" style="enable-background:new 0 0 512 512;" xml:space="preserve">
<style type="text/css">
	.st0{fill:#FFFFFF;}
</style>
<path class="st0" d="M481,116.6c-16.6,7.4-34.4,12.2-53,14.6c19-11.4,33.6-29.4,40.6-51C450.8,90.8,431,98.4,410,102.6
	c-16.8-18-40.8-29.2-67.4-29.2c-51,0-92.2,41.4-92.2,92.2c0,7.2,0.8,14.2,2.4,21c-76.6-3.8-144.7-40.6-190.3-96.4
	c-8,13.6-12.4,29.6-12.4,46.4c0,32,16.2,60.2,41,76.8c-15-0.4-29.4-4.6-41.8-11.6v1.2c0,44.8,31.8,82,74,90.4
	c-7.8,2.2-15.8,3.2-24.4,3.2c-6,0-11.8-0.6-17.4-1.6c11.8,36.6,45.8,63.4,86.2,64c-31.6,24.8-71.4,39.4-114.7,39.4
	c-7.4,0-14.8-0.4-22-1.2c40.8,26.2,89.4,41.4,141.5,41.4c169.7,0,262.5-140.7,262.5-262.5c0-4,0-8-0.2-12
	C453,151.5,468.6,135.2,481,116.6"/>
</svg>
