<?xml version="1.0" encoding="utf-8"?>
<!-- Generator: Adobe Illustrator 20.0.0, SVG Export Plug-In . SVG Version: 6.00 Build 0)  -->
<svg version="1.1" id="Layer_1" xmlns="http://www.w3.org/2000/svg" xmlns:xlink="http://www.w3.org/1999/xlink" x="0px" y="0px"
	 viewBox="0 0 512 512" style="enable-background:new 0 0 512 512;" xml:space="preserve">
<style type="text/css">
	.st0{fill:#FFFFFF;}
</style>
<path class="st0" d="M187.2,443.5c-49.4,0-85-31.2-85-68.8c0-36.8,44.2-67.5,93.5-66.9c11.5,0.2,22.4,2,32,5.2
	c26.8,18.7,46,29.2,51.4,50.5c1.1,4.3,1.7,8.7,1.7,13.3C280.9,414.2,256.7,443.5,187.2,443.5 M200.3,223.4
	c-33.1-0.9-64.7-37.2-70.4-80.6c-5.7-43.6,16.5-76.9,49.7-76c33.1,0.9,64.7,35.9,70.4,79.5C255.5,189.8,233.4,224.3,200.3,223.4
	 M268.9,287.7c-11.6-8.3-33.8-28.3-33.8-40.1c0-13.9,3.9-20.5,24.8-36.8c21.3-16.6,36.4-39.9,36.4-67.1c0-32.3-14.4-64-41.4-74.3
	h40.9l28.8-20.9H195.8c-57.7,0-112,43.6-112,94.3c0,51.8,39.4,93.5,98,93.5c4.1,0,7.9,0,12-0.4c-3.9,7.2-6.5,15.5-6.5,24
	c0,14.4,7.8,26.1,17.6,35.5c-7.4,0-14.6,0.2-22.4,0.2c-71.3,0-126.4,45.5-126.4,92.8c0,46.4,60.3,75.6,131.6,75.6
	c81.5,0,126.4-46.2,126.4-92.8C314,334.1,302.9,311.8,268.9,287.7 M456.1,227.1H406V177h-40.3v50.1h-50.1v40.3h50.1v50.1H406v-50.1
	h50.1V227.1z"/>
</svg>
