<?xml version="1.0" encoding="utf-8"?>
<!-- Generator: Adobe Illustrator 20.0.0, SVG Export Plug-In . SVG Version: 6.00 Build 0)  -->
<svg version="1.1" id="Layer_1" xmlns="http://www.w3.org/2000/svg" xmlns:xlink="http://www.w3.org/1999/xlink" x="0px" y="0px"
	 viewBox="0 0 86 42" style="enable-background:new 0 0 86 42;" xml:space="preserve">
<style type="text/css">
	.st0{fill:#004D6E;}
</style>
<g>
	<g>
		<path class="st0" d="M44.7,42h-3.5v-3.9c-3-0.1-5.7-0.7-8-1.7L33,36.3v-6.1l0.6,0.3c1.1,0.5,2.4,1,3.9,1.4
			c1.3,0.4,2.6,0.6,3.6,0.7v-5.2l-1-0.4c-2.6-1-4.5-2.2-5.6-3.4c-1.1-1.2-1.7-2.8-1.7-4.6c0-2,0.8-3.6,2.3-4.9
			c1.4-1.2,3.4-1.9,5.9-2.2V9h3.5v2.9c2.8,0.2,5.4,0.8,7.7,1.8l0.4,0.2l-2.1,5.3L50.2,19c-1.8-0.7-3.7-1.2-5.5-1.4v4.9
			c2.4,0.9,4.1,1.7,5.1,2.4c1.1,0.7,1.9,1.6,2.5,2.5c0.5,0.9,0.8,2,0.8,3.2c0,2.2-0.8,3.9-2.4,5.2c-1.5,1.2-3.5,2-6,2.3V42z
			 M42.1,41.1h1.8v-3.9l0.4,0c2.5-0.2,4.5-0.9,5.9-2.1c1.4-1.2,2.1-2.7,2.1-4.6c0-1-0.2-2-0.7-2.7c-0.5-0.8-1.2-1.5-2.2-2.2
			c-1-0.7-2.8-1.5-5.2-2.5L43.8,23v-6.4l0.5,0c2,0.2,4,0.6,5.9,1.4l1.5-3.7c-2.2-0.9-4.7-1.4-7.4-1.6l-0.4,0V9.9h-1.8v2.9l-0.4,0
			c-2.5,0.2-4.5,0.9-5.8,2.1c-1.4,1.1-2,2.5-2,4.2c0,1.6,0.5,3,1.5,4.1c1,1.1,2.8,2.2,5.2,3.1l1.6,0.6v6.7l-0.5,0
			c-1.2-0.1-2.7-0.3-4.3-0.8c-1.3-0.4-2.5-0.8-3.5-1.2v4.1c2.2,0.9,4.9,1.4,7.8,1.5l0.4,0V41.1z M43.8,33.6v-6l0.6,0.3
			c0.9,0.4,1.6,0.8,2.1,1.2c0.5,0.5,0.8,1,0.8,1.7c0,1-0.5,2.3-3,2.7L43.8,33.6z M44.7,29v3.5c1.7-0.4,1.7-1.4,1.7-1.7
			c0-0.4-0.2-0.7-0.5-1C45.6,29.5,45.2,29.2,44.7,29z M42.1,22.3L41.4,22c-0.9-0.4-1.6-0.8-2-1.2c-0.5-0.4-0.7-1-0.7-1.7
			c0-0.9,0.5-2.1,2.9-2.4l0.5-0.1V22.3z M41.2,17.7c-1.6,0.4-1.6,1.2-1.6,1.5c0,0.4,0.1,0.8,0.4,1.1c0.3,0.2,0.6,0.5,1.2,0.8V17.7z"
			/>
	</g>
</g>
</svg>
