<?xml version="1.0" encoding="utf-8"?>
<!-- Generator: Adobe Illustrator 19.1.0, SVG Export Plug-In . SVG Version: 6.00 Build 0)  -->
<svg version="1.1" id="Layer_1" xmlns="http://www.w3.org/2000/svg" xmlns:xlink="http://www.w3.org/1999/xlink" x="0px" y="0px"
	 viewBox="0 0 512 512" enable-background="new 0 0 512 512" xml:space="preserve">
<g>
	<path fill="#00749A" d="M256.1,512c-141.2,0-256-114.8-256-256S114.9,0,256.1,0c141.2,0,256,114.8,256,256S397.2,512,256.1,512z
		 M256.1,12.5C121.8,12.5,12.5,121.7,12.5,256s109.2,243.5,243.5,243.5c134.3,0,243.5-109.2,243.5-243.5S390.3,12.5,256.1,12.5z"/>
	<path fill="#00749A" d="M368.5,198.4c-8.3,3.7-17.2,6.1-26.5,7.3c9.5-5.7,16.8-14.7,20.3-25.5c-8.9,5.3-18.8,9.1-29.3,11.2
		c-8.4-9-20.4-14.6-33.7-14.6c-25.5,0-46.1,20.7-46.1,46.1c0,3.6,0.4,7.1,1.2,10.5c-38.3-1.9-72.3-20.3-95.1-48.2
		c-4,6.8-6.2,14.8-6.2,23.2c0,16,8.1,30.1,20.5,38.4c-7.5-0.2-14.7-2.3-20.9-5.8v0.6c0,22.4,15.9,41,37,45.2
		c-3.9,1.1-7.9,1.6-12.2,1.6c-3,0-5.9-0.3-8.7-0.8c5.9,18.3,22.9,31.7,43.1,32c-15.8,12.4-35.7,19.7-57.3,19.7
		c-3.7,0-7.4-0.2-11-0.6c20.4,13.1,44.7,20.7,70.7,20.7c84.8,0,131.2-70.3,131.2-131.2c0-2,0-4-0.1-6
		C354.5,215.8,362.3,207.7,368.5,198.4"/>
</g>
</svg>
