<?xml version="1.0" encoding="utf-8"?>
<!-- Generator: Adobe Illustrator 20.0.0, SVG Export Plug-In . SVG Version: 6.00 Build 0)  -->
<svg version="1.1" id="Layer_1" xmlns="http://www.w3.org/2000/svg" xmlns:xlink="http://www.w3.org/1999/xlink" x="0px" y="0px"
	 viewBox="0 0 86 42" style="enable-background:new 0 0 86 42;" xml:space="preserve">
<style type="text/css">
	.st0{fill:#004D6E;}
</style>
<path class="st0" d="M60,42c-0.7,0-1.7-0.6-3.1-1.7L56.6,40l0.1-0.3c0-0.2,0.4-2-2.1-2.6c-2.2-0.6-2.7-0.3-3.4,0
	c-0.2,0.1-0.5,0.3-0.8,0.4c-0.3,0.1-0.6,0.2-0.8,0.3c-0.6,0.3-1.1,0.5-2.3,0.3c-0.4-0.1-0.8-0.2-1.2-0.2c-0.9-0.2-1.5-0.3-1.9-0.1
	c-0.3,0.2-0.5,0.9-0.7,1.5c-0.3,0.8-0.5,1.5-1.1,1.7c-0.7,0.2-2.9,0.3-3.7-0.8c-0.2-0.2-0.3-0.4-0.3-0.5c-0.2-0.4-0.4-0.7-2.1-1.5
	c-0.9-0.5-1.5-0.6-2.1-0.7c-0.9-0.2-1.5-0.3-2.4-1.5c-0.8-1.1-1.2-1.2-2.1-1.4c-0.5-0.1-1.1-0.3-2-0.7c-0.5-0.2-1.1-0.4-1.7-0.7
	c-3.7-1.5-6.4-2.6-6.9-3.7c-0.6-1.3-1.8-4.8-1.9-5c0-0.2-0.9-3.4-0.6-5c0-0.3,0.1-0.6,0.1-0.8c0.1-0.8,0.1-1.3,0.8-2.4
	c0.8-1.4,2.4-4.5,2.5-4.5L21.5,8L22,8.8c0.4,0.5,1.1,1.3,1.5,1.4c0.5,0.1,1.3,0.3,2.3,0.5c0.8,0.2,1.6,0.3,2.4,0.5
	c1.7,0.4,4.9,0.6,6.4,0.6c0.7,0,1.7,0.1,3,0.3c1.5,0.2,3.2,0.4,4.4,0.4c0.5,0,0.9,0,1.2,0c1.1,0,1.2,0,2.8,0.5
	c0.6,0.2,1,0.3,1.5,0.4c1.2,0.3,1.9,0.5,2.5,1.2c0.7,0.9,1,3.3,0.2,4.2c-0.4,0.4-0.7,0.4-0.9,0.4c0,0.1-0.1,0.3-0.1,0.7
	c0,0.3-0.1,0.5-0.1,0.8C49,21,49,21.5,49,21.6c0,0,0,0,0.2,0c0.4,0.1,0.5,0.1,0.8,0c0.2-0.1,0.3-0.1,0.6-0.2c0.6-0.2,0.9-0.2,1-1.2
	c0.2-1.2,0.2-2.4,0.2-2.4l0-1.3l1.3,1.3c0.6,0.5,0.6,0.7,0.6,1.4c0,0.1,0,0.3,0,0.5c0,0.3,0,0.5,0,0.7c0,0.2,0,0.5,0,0.6
	c0.2,0,0.3,0.1,0.4,0.1c0.6,0.2,1.4,0.5,1.9,0.3c0.4-0.2,1.7-1.9,2.7-3.3l0.1-0.1c0,0,3.9-2.9,4.7-3.5c0.5-0.4,1.3-1.7,1.7-2.5
	l0.2-0.4l3.1,1l0.1,0.2c0,0,0.7,1.1,0.9,2c0.2,1-0.8,1.7-1.8,2.4c-0.3,0.2-0.6,0.4-0.8,0.6c-0.9,0.8-3,3.1-3.4,3.8
	c-0.3,0.5-0.5,1.7-0.5,3.2c0,0.7,0,1,0.1,1.4c0.1,0.3,0.1,0.7,0.1,1.3c0,0.2,0,0.4,0,0.6c0,1,0.1,2-0.7,3.2c-0.4,0.6-0.7,1-1,1.3
	c-0.3,0.3-0.5,0.6-0.6,0.8c-0.1,0.2-0.2,0.4-0.4,0.7c-0.5,0.6-1,1.3-0.3,2.3l0.1,0.1c0.5,1.3,1.6,4.4,0.4,5.2
	C60.5,41.9,60.2,42,60,42z M57.8,39.6c1.7,1.4,2.2,1.3,2.2,1.3c0.3-0.2,0-2-0.8-3.9c-1.1-1.7-0.2-2.9,0.3-3.6
	c0.1-0.1,0.2-0.3,0.3-0.4c0.1-0.4,0.4-0.8,0.8-1.2c0.3-0.3,0.6-0.7,0.9-1.2c0.6-0.9,0.6-1.6,0.5-2.6c0-0.2,0-0.4,0-0.6
	c0-0.5,0-0.8-0.1-1.1c-0.1-0.3-0.1-0.7-0.1-1.5c0-0.6,0.1-2.8,0.7-3.8c0.4-0.7,2.5-3.2,3.6-4c0.3-0.2,0.6-0.4,0.9-0.6
	c0.4-0.3,1.5-1,1.4-1.3c-0.1-0.5-0.5-1.2-0.7-1.5L65.9,13c-0.4,0.7-1.1,1.9-1.8,2.4c-0.8,0.6-4.1,3-4.6,3.4c-0.6,0.8-2.2,3.2-3,3.6
	c-0.9,0.4-2,0-2.7-0.3c-0.1,0-0.2-0.1-0.3-0.1c-0.7-0.2-0.8-0.7-0.8-1.2c-0.3,1.1-0.8,1.4-1.8,1.7c-0.2,0.1-0.4,0.1-0.5,0.2
	c-0.4,0.1-0.7,0.2-1.4,0c-1.2-0.3-1.1-1.1-0.9-2.3c0-0.2,0.1-0.5,0.1-0.7c0.1-1.1,0.3-1.6,1.2-1.7c0.1,0,0.2,0,0.2-0.1
	c0.4-0.4,0.3-2.1-0.3-2.8c-0.3-0.4-0.8-0.6-1.9-0.8c-0.4-0.1-0.9-0.2-1.5-0.4c-1.5-0.4-1.6-0.4-2.5-0.4c-0.3,0-0.7,0-1.3,0
	c-1.3,0-3-0.2-4.5-0.4c-1.2-0.1-2.3-0.3-2.9-0.3c-1.6,0-4.9-0.2-6.7-0.6c-0.8-0.2-1.7-0.4-2.4-0.5c-1-0.2-1.8-0.4-2.3-0.5
	c-0.6-0.1-1.1-0.7-1.6-1.1l-0.9,2c0,0.1-1.7,3.1-2.5,4.6c-0.6,1-0.6,1.3-0.7,2c0,0.2,0,0.5-0.1,0.9c-0.2,1.1,0.4,3.6,0.6,4.5l0,0
	c0,0,1.2,3.6,1.8,4.8c0.4,0.8,4.3,2.3,6.4,3.1c0.7,0.3,1.3,0.5,1.8,0.7c0.8,0.3,1.4,0.5,1.8,0.6c1.1,0.3,1.7,0.5,2.7,1.8
	c0.7,0.9,1,1,1.8,1.1c0.5,0.1,1.3,0.2,2.4,0.8c2,1,2.2,1.4,2.6,2c0.1,0.1,0.1,0.3,0.3,0.4c0.4,0.6,2,0.6,2.5,0.4
	c0.1-0.1,0.3-0.6,0.4-1c0.3-0.8,0.5-1.6,1.1-2c0.8-0.6,1.7-0.4,2.8-0.1c0.4,0.1,0.7,0.2,1.1,0.2c0.9,0.1,1.2,0,1.7-0.2
	c0.2-0.1,0.5-0.2,0.9-0.3c0.3-0.1,0.5-0.2,0.7-0.3c1-0.5,1.8-0.8,4.2-0.1C57.7,36.8,57.9,38.8,57.8,39.6z"/>
</svg>
