<?xml version="1.0" encoding="utf-8"?>
<!-- Generator: Adobe Illustrator 19.1.0, SVG Export Plug-In . SVG Version: 6.00 Build 0)  -->
<svg version="1.1" id="Layer_1" xmlns="http://www.w3.org/2000/svg" xmlns:xlink="http://www.w3.org/1999/xlink" x="0px" y="0px"
	 viewBox="0 0 512 512" enable-background="new 0 0 512 512" xml:space="preserve">
<path fill="#00749A" d="M256,511.3c-141.2,0-256-114.8-256-256c0-141.2,114.8-256,256-256c141.1,0,256,114.8,256,256
	C512,396.5,397.2,511.3,256,511.3z M256,11.8c-134.3,0-243.5,109.2-243.5,243.5c0,134.3,109.2,243.5,243.5,243.5
	c134.3,0,243.5-109.2,243.5-243.5C499.5,121.1,390.3,11.8,256,11.8z"/>
<g>
	<path fill="#00749A" d="M348,177.3H164c-20.1,0-36.5,17.8-36.5,39.5v77.1c0,21.7,16.4,39.5,36.5,39.5H348
		c20.1,0,36.5-17.8,36.5-39.5v-77.1C384.5,195.1,368.1,177.3,348,177.3z M220.3,287.7v-66.3l81.8,33.1L220.3,287.7z"/>
</g>
</svg>
