<?xml version="1.0" encoding="utf-8"?>
<!-- Generator: Adobe Illustrator 19.0.0, SVG Export Plug-In . SVG Version: 6.00 Build 0)  -->
<!DOCTYPE svg PUBLIC "-//W3C//DTD SVG 1.1//EN" "http://www.w3.org/Graphics/SVG/1.1/DTD/svg11.dtd">
<svg version="1.1" id="Layer_1" xmlns="http://www.w3.org/2000/svg" xmlns:xlink="http://www.w3.org/1999/xlink" x="0px" y="0px"
	 viewBox="0 0 200 34.5" style="enable-background:new 0 0 200 34.5;" xml:space="preserve">
<g>
	<g id="XMLID_109_">
		<path id="XMLID_110_" d="M94.1,4.3c0.2,0.1,1.1,0.3,1.1-0.2C95.4,2.7,94.2,2,94,1.9c-0.2-0.1-0.6-0.1-0.7,0
			C93.1,2,93,2.3,93.1,2.5C93.2,2.7,93.9,4.2,94.1,4.3z M185.6,6.8c-0.7-0.4-1.4-0.1-1.6,0c-0.2,0.2-0.4,0.3-0.6,0.5
			c-0.2,0.2-0.4,0.1-0.5-0.1c-0.2-0.4-0.8-0.3-1,0c-0.1,0.3-0.1,0.7-0.4,0.9c-0.3,0.2-2.4,6.1-10.5,10.1c-0.4,0.2-1.5,0.7-1.9,0.6
			c-0.6-0.1-0.8-0.3-0.8-0.7c-0.4-3.6,1.6-5.5,3.1-9c1.2-2.8,1.9-5.4,1.7-5.9C173.1,3,173,2.7,173,2.4c0-0.4-0.2-0.7-0.4-0.8
			c-0.2-0.1-0.3-0.4-0.5-0.3c-0.2,0-0.4,0-0.5,0.1c-1.9,2.9-4,10.2-4.2,10.7c-0.3,0.6-3,3.4-3.6,3.8c-0.4,0.2-5.6,4.1-5.8,3.7
			c-0.2-0.2,4.8-3.9,1.9-8.4c-0.1-0.2-1.4-2.5-3.1-1.7c-2.2,1.1-4,6.4-3.7,8.2c0.1,0.5,0.3,1.6-0.1,1.5c-3.7-0.7-2.4-6.4-3.1-7.8
			c-0.1-0.2-0.2-0.4-0.3-0.7c-0.1-0.4-0.9-0.8-1.2-0.6c-0.3,0.1-4,5.7-4.2,5.9c-0.1,0.1-0.3,0.2-0.4,0.1c-0.1-0.1,0.1-0.4,0.1-0.4
			c0.1-0.2,4.8-10.5,4.9-11c0.3-0.3,0.1-0.7,0.1-1c0.1-0.1,0-0.1,0-0.2c-0.4-0.1-0.4-0.5-0.6-0.8c-0.3-0.1-0.5-0.4-0.9-0.3
			c-0.1,0.2-7.7,17-7.7,17.2c-0.1,0.7,0.3,2.1,1,2.4c0.4,0.1,1.6-0.6,2.4-1.3c1.6-1.5,4.8-6.5,5.2-6.7c0.1,0.1,0.1,0.2,0.1,0.4
			c0.9,5.6,3.3,6.3,3.8,6.6c0.2,0.1,1.6,0.5,2,0.2c0.1,0.1,0.2,0.1,0.2,0.1c0.4,0.1,0.5,0.3,1,0.6c2.7,1.7,10.3-4.9,10.4-5.1
			c0.1-0.2,0.2-0.4,0.4-0.4c0.2,0,0.3,0.2,0.3,0.4c0.1,2.4,1.6,3.7,2.1,3.8c3.6,1,8.7-4.2,9-4.4c0.1-0.1,0.3-0.2,0.4-0.2
			c0,0.1-0.1,0.2-0.1,0.3c-0.1,1.1-4.1,8-2.3,11.8c0.1,0.2,0.3,0.3,0.4,0.3c0.4,0.1,0.7-0.1,0.7-0.4c0-0.1,2.4-11.4,5.1-15.2
			c0.3-0.4,2.5-4.3,3.3-4.1c0.8,0.2-0.2,3.9-0.5,4.6c-1.3,3.6-3.8,4.9-3.8,4.9c-0.4,0.2-0.5-0.4-0.8-0.2c-0.1,0.1-0.3,0.2-0.3,0.5
			c0,0.4,0.4,0.6,0.4,0.9c0,0.5,0.3,0.9,0.6,0.9c0.5,0.1,1,0.1,1.4-0.1c3.1-2,6.3-7.5,4.4-12.3C186.4,7.1,185.8,7,185.6,6.8z
			 M155.2,18.5c-0.7-0.5,1.1-7.2,3.3-6.7c0.7,0.1,0.4,2.4,0.3,3v0C158.2,16.7,155.7,18.8,155.2,18.5z M10.9,2.8
			c0.3-0.5,1.1-0.5,1.6-0.6c0.2,0,3.9-0.7,9.7,0.7c0.4,0.1,0.7,0.3,1.2,0.3c0.3-0.2,0.3,0.2,0.5,0.1C23.9,3.2,24,3.1,24,2.9
			c0-0.2-0.1-0.5-0.3-0.5c-0.3-0.5-0.9-0.7-1.5-0.9c-7.7-2.7-12.5-1.1-12.7-1c-2.7,0.8-5,2.2-5.2,2.3C4.2,2.9,4.1,3,4.1,3.2
			C4.1,3.4,4.3,4.3,4.5,4.4c0.3,0.2,0.5,0.5,1,0.4C6,4.7,7.2,4,7.3,3.9c0.1-0.1,0.4-0.4,0.5-0.2C7.8,4,7.6,4.1,7.5,4.4
			c-0.1,0.3-3.9,7.5-3.9,7.5s-0.3,1.3-0.9,1.3c-0.1,0-1.7-0.2-1.7,0c0.1,0.3,0.1,1.5,0.7,1.8c0.7,0.3,0.3,0.8,0.1,1.2
			c-0.1,0.5-1.8,4.6-1.9,5.3c-0.1,0.5,0,3.7,3.4,4.4C7.5,26.8,17,21.3,19,19.3c0.3-0.3,0.6-0.5,0.7-0.9c0.1-0.7-0.2-1.1-0.6-1.6
			c-0.1-0.1-0.1-0.2-0.1-0.3c-0.2-0.2-0.3-0.5-0.6-0.7c-0.2-0.1-0.3,0.2-0.5,0.2c0,0.3,0.1,0.4,0.1,0.7c0,0.5-0.3,0.7-0.6,0.9
			c-8.1,6.6-14,6.3-14,6.3c-1.7,0-1.6-1.5-1.6-1.8c0.6-2.7,2.4-6.4,2.5-6.9C4.6,15,4.9,15.1,5.1,15c0.2-0.1,12.7-4.8,13.8-6
			c0.2-0.2,0.6-0.5,0.5-0.8c-0.1-0.2,0-0.7-0.2-0.7c-0.5-0.1-0.4-0.9-0.9-0.9c-0.1,0-0.2,0.1-0.2,0.2c-0.3,0.4-1.5,1.1-1.7,1.2
			c-0.3,0.1-10.4,4.5-10.5,4.4c0,0-0.2,0-0.2-0.2c0-0.2,4.3-8.2,4.5-8.5C10.5,3.4,10.7,3.1,10.9,2.8z M128,7c-0.6,0-2.4,0.8-3.4,2.5
			c-1,1.8-2.4,3.9-2.4,8.6c0,0.2-5.5,3.6-6.7,0.4c-0.2-0.4-0.1-0.8-0.1-1.2c0.5-4.8,3.6-12.4,3.9-12.9c0.1-0.1,0.1-0.9-0.2-1.3
			c-0.3-0.4-0.4-0.5-0.8-0.7c-0.4-0.2-0.9,0.4-0.9,0.5v0c0,0.2-0.1,0.3-0.2,0.3c-0.2,0.1-2.6,1.5-5.2,2.3c-0.3,0.1-0.5,0.3-0.7,0.1
			c-0.4-0.2,1.4-2.6-0.3-3.7c-0.2-0.2-0.6-0.5-0.9-0.2c-0.2,0.3-1.8,3.9-1.9,4c-0.1,0.3-0.4,0.8-0.5,0.8c-0.7,0.1-4.8,1-4.8,0.7
			c0-0.4,0.3-0.6,0.3-0.9c0.1-0.3-0.5-1.3-0.7-1.6c-0.4-0.5-0.9-0.3-1-0.2c-0.3,0.3-0.8,1.7-1,1.9c-0.2,0.2-0.6,1.4-1.4,1.4
			c-0.2,0-4.6,0.5-4.8,0.3c-0.3-0.3-0.5,0-0.6,0.2c-0.2,0.4,0.3,1.7,0.9,1.9c0.2,0.1,3-0.3,3.1-0.1c0.2,0.2-0.1,0.4-0.3,0.6
			c-0.2,0.2-6.9,7.5-7.2,7.7c-0.1,0.1-0.4,0.4-0.5,0.3c-0.3-0.5,0.1-0.9,0.2-1.3c0.2-0.6,1.3-5,1.4-5.5c0.1-0.4-0.3-2.5-1.9-2.4
			c-0.1,0-0.1,0.3-0.1,0.4c-0.2,0.4-0.5,0.7-0.7,1.1c-0.6,1-6.3,7.4-9,9.1c-0.3,0.2-0.6,0.4-0.8,0.3c-0.2-0.1,0-0.7,0-1
			c0.1-0.5,5.5-15.2,5.5-15.6c0-0.2,0-0.5-0.2-0.5c-0.2-0.1-0.5-0.2-0.6-0.4c0-0.1-0.1-0.1-0.2-0.1c-0.1-0.2-0.3-0.4-0.5-0.4
			c-0.2,0-0.3,0-0.4,0.1c-0.2,0.1-0.3,0.4-0.3,0.6c0.1,1.6-5,14.6-5.2,15.1c-0.1,0.3-0.8,2.3,0.9,4.1c1,1.1,2.4,0.4,3.4-0.3
			c0.3-0.2,4.9-4.2,6.3-6c0.1-0.2,0.4-0.5,0.5-0.5c0.1,0.1-0.1,0.5-0.1,0.8c-0.2,1.3-0.9,3.1,0.4,4.8c0.5,0.6,1.4,0.9,2.7-0.1
			c0.3-0.2,5.8-6,5.9-6.1c0.1-0.1,0.6-0.9,1-1.3c0.2-0.2,0.3-0.5,0.4-0.4c0.1,0.1-0.1,0.4-0.1,0.6c-0.2,0.8-1.9,3.8-1.5,6.1
			c0,0.2,0.3,1.2,1,1.7c0.7,0.5,1.6-0.1,1.9-0.4c0.3-0.3,4.9-5.7,6.9-8.9c0.4-0.7,0.8-1.1,0.9-1.1c0.2,0.1-1.6,4.9-0.6,10.1
			c0.1,0.5,0.8,1,1.1,1c0.5-0.1,0.4-0.8,0.5-1.3c-0.4-4.3,1.9-12.8,2.1-13.1c0.1-0.1,0.3-0.4,0.5-0.2c0.2,0.1,4-1.4,5.2-2.2
			c0,0,0.1,0,0.1,0.1c-0.1,0.4-2.8,7.2-2.9,10.8c0,1.9,0.9,5.4,4.7,5.5c1.4,0,4-1.5,4.1-1.6c0.5-0.2,0.7,0.8,0.9,1
			c1.9,2.5,3.3,0.7,3.4,0.1c0-0.1,0-0.9-0.2-1.2c-0.6-1-1.2,0.8-1.6,0.5c-0.2-0.1-0.9-0.5-0.9-1.3c0-0.2,2.1-1.4,3.5-2.8
			c2.5-2.6,3.8-6.2,2.6-8.6C130,7.9,129.2,6.9,128,7z M106.1,9.2c-0.2,0.9-6.8,9.3-7,9.1c-0.1-0.1,0-0.4,0.1-0.6
			c2.4-5.5,2.3-7.7,2.9-7.8c0.3-0.1,3.1-0.7,3.4-0.8C105.8,9.1,106.2,8.9,106.1,9.2L106.1,9.2z M124,16.7c-0.1-0.3,0.9-5.5,3.8-7.4
			c0.3-0.2,1.2-0.4,1.4-0.1C130.4,11.7,124.2,17.8,124,16.7z M199.9,6.4c-0.3-0.8-1.7-1.6-2.4-1.6c-0.4,0-2.5,0-4.1,1.9
			c-0.6,0.8-1.5,1.9-1.5,2.4c0,0.3-0.2,0.8,0,1.9c0.2,0.8,2,5.4,2.1,5.7c0.4,1.3-1,2.2-2.7,1.4c-0.7-0.3-0.9-1.3-1-1.8
			c0-0.3,0.1-0.8-0.4-0.6c-0.1,0-0.2,0.2-0.3,0.3c-0.4,0.2-0.9,0.6-0.7,1c0.2,0.5,0.1,1.1,0.4,1.5c1.2,2.3,4,2.9,5.7,1.6
			c1.3-1.1,0.6-3.7,0.4-4.3c-0.4-1.1-1.8-4.2-1.9-5c-0.1-1,1.2-2,1.5-2.2c1.9-1.6,3.5-1.6,3.9-0.9c0.2,0.3,0.6,0.6,0.8,0.3
			c0.1-0.1,0.1-0.2,0.2-0.3C200.1,7.3,200,6.8,199.9,6.4z M33.6,11.2c0.2-0.2,0.2-0.3,0.3-0.6c0-0.4-0.2-0.6-0.3-0.8
			c-0.4,0.1-0.2-0.5-0.4-0.5c-0.4-0.1-0.7,0.2-1,0.5c-3.1,2.6-6.6,7.8-6.9,8.1c-0.1,0.1-0.4,0.4-0.4,0.2c0.3-5.1,1.3-8.7,1.2-9v0
			c-0.4-0.6-0.9-1.2-1.7-1.3c-0.3,0.3-3.1,12.6-0.5,15c0.2,0.2,0.9,0.2,1,0C27,19,32.5,12.2,33.6,11.2z M63.2,11.9
			c-0.7-0.2-1.3,1.7-3,3.3c-1.6,1.5-3.3,3.7-3.9,3.6c-0.1,0-0.2-0.2-0.2-0.4c-0.2-1.4-0.2-3.7,0.2-5.7c0.3-1.3-0.5-2-0.6-2.2
			c-0.1-0.2-0.4-0.3-0.6-0.2c0,0-0.1-0.1-0.3,0c-0.3,0.1-7.5,8.8-7.8,8.5c-0.4-0.4,1-5.1,2-6.3c0.2-0.3-0.6-1.2-0.8-1.4
			c-0.3-0.2-1-0.6-1-0.4c0,0.9-4,7.3-11.3,9.5c-0.3,0.1-0.6,0.2-0.7-0.2c-0.1-0.1,0-0.3,0-0.3c0.1-0.1,5.4-4.8,5.3-7.9l0,0
			c0-0.3,0.2-2.9-2.2-3.2c-1.9-0.2-5,6.7-5.1,9.8c0,0.6-1.5,0.7-1.6,1.2c-0.1,0.7,1.1,1.5,1.3,1.6c0.3,0.2,0.7-0.4,1-0.4
			c0.1,0,0.5,0.5,0.7,0.7c3.4,2.9,9.9-4,10.1-4.2c0.1-0.1,0.3-0.1,0.3,0.2c0,0.4-0.7,3.8,1.6,4.5c1.2,0.4,6.6-6.5,7.3-7.4
			c0-0.1,0.2-0.1,0.2,0c0,0.6-0.5,6,2.7,6.4c1.6,0.2,4.8-4.1,5.1-4.3c0.2,0.1-0.1,0.1,0,0.2v0.4c-1,4.7-3.4,14-8.1,14.8
			C50,32.9,43.1,29.7,43,26.6c0-0.4-0.1-0.8-0.4-1.2c-0.2-0.3,0-1.1-0.5-0.9c-0.1,0.4-0.4-0.1-0.5,0c-0.1,0.1-0.1,0.1-0.1,0.3
			c-1.8,5.8,9.2,10.5,13.5,9.7c6.1-1.1,8.7-14.4,9.5-19.4c0-0.4,0.1-0.7,0.1-1C64.7,12.1,63.4,11.9,63.2,11.9z M38.6,10.9
			c0.5,0.3-2.3,4.6-2.6,4.4C35.6,15.1,38.4,10.7,38.6,10.9z"/>
	</g>
</g>
</svg>
