<?xml version="1.0" encoding="utf-8"?>
<!-- Generator: Adobe Illustrator 19.0.0, SVG Export Plug-In . SVG Version: 6.00 Build 0)  -->
<!DOCTYPE svg PUBLIC "-//W3C//DTD SVG 1.1//EN" "http://www.w3.org/Graphics/SVG/1.1/DTD/svg11.dtd">
<svg version="1.1" id="Layer_1" xmlns="http://www.w3.org/2000/svg" xmlns:xlink="http://www.w3.org/1999/xlink" x="0px" y="0px"
	 viewBox="45.4 0.7 200 200" style="enable-background:new 45.4 0.7 200 200;" xml:space="preserve">
<style type="text/css">
	.st0{fill:#FFFFFF;}
</style>
<path id="XMLID_1_" class="st0" d="M245.4,38.7c-7.4,3.3-15.3,5.4-23.6,6.4c8.5-5,15-13.1,18-22.7c-8,4.7-16.7,8.1-26.1,9.9
	c-7.5-8-18.1-12.9-29.9-12.9c-22.7,0-41,18.4-41,41c0,3.3,0.3,6.3,1.1,9.3c-34.1-1.7-64.3-18-84.6-42.8c-3.5,6.1-5.5,13.1-5.5,20.6
	c0,14.2,7.2,26.8,18.3,34.1c-6.7-0.2-13.1-2-18.6-5.1v0.5c0,19.9,14.1,36.5,32.9,40.2c-3.4,1-7.1,1.5-10.8,1.5
	c-2.7,0-5.2-0.2-7.7-0.7c5.2,16.3,20.4,28.2,38.4,28.4c-14.1,11.1-31.8,17.6-51,17.6c-3.3,0-6.6-0.2-9.8-0.6
	c18.1,11.6,39.7,18.4,62.9,18.4c75.5,0,116.8-62.5,116.8-116.8c0-1.8-0.1-3.6-0.1-5.3C233,54.2,239.9,46.9,245.4,38.7"/>
</svg>
