<?xml version="1.0" encoding="UTF-8"?>
<svg width="22px" height="22px" viewBox="0 0 22 22" version="1.1" xmlns="http://www.w3.org/2000/svg" xmlns:xlink="http://www.w3.org/1999/xlink">
    <!-- Generator: Sketch 44.1 (41455) - http://www.bohemiancoding.com/sketch -->
    <title>Page 1</title>
    <desc>Created with Sketch.</desc>
    <defs></defs>
    <g id="Symbols" stroke="none" stroke-width="1" fill="none" fill-rule="evenodd">
        <g id="Instagram-icon" transform="translate(-9.000000, -9.000000)" fill="#FFFFFF">
            <g id="Page-1">
                <g transform="translate(9.000000, 9.000000)">
                    <g id="Group-3" transform="translate(0.000000, 0.035858)">
                        <path d="M10.9965298,0.00678361913 C8.01007341,0.00678361913 7.6355496,0.0191484811 6.46269643,0.0714220013 C5.2922004,0.123567609 4.49286706,0.305160531 3.7933631,0.570706602 C3.0702877,0.845163901 2.45699405,1.21244294 1.84566468,1.8095805 C1.23429167,2.4067607 0.858327381,3.00577431 0.577303571,3.71206375 C0.305446429,4.39532897 0.119581349,5.17610605 0.0661527778,6.31942942 C0.0126369048,7.46509784 2.18253968e-05,7.83084193 2.18253968e-05,10.7480113 C2.18253968e-05,13.6651808 0.0126369048,14.0309675 0.0661527778,15.1766359 C0.119581349,16.3199166 0.305446429,17.1007363 0.577303571,17.7839589 C0.858327381,18.4902484 1.23429167,19.0893046 1.84566468,19.6864422 C2.45699405,20.2836224 3.0702877,20.6508588 3.7933631,20.9254014 C4.49286706,21.1909048 5.2922004,21.3724977 6.46269643,21.424686 C7.6355496,21.4769168 8.01007341,21.4892817 10.9965298,21.4892817 C13.9830298,21.4892817 14.3574663,21.4769168 15.5303631,21.424686 C16.7008591,21.3724977 17.5001925,21.1909048 18.1996964,20.9254014 C18.9228155,20.6508588 19.5360655,20.2836224 20.1473948,19.6864422 C20.7587679,19.0893046 21.1347321,18.490291 21.415756,17.7839589 C21.6876131,17.1007363 21.8735218,16.3199166 21.9269067,15.1766359 C21.9804226,14.0309675 21.9930813,13.6651808 21.9930813,10.7480113 C21.9930813,7.83088457 21.9804226,7.46509784 21.9269067,6.31942942 C21.8735218,5.17610605 21.6876131,4.39532897 21.415756,3.71206375 C21.1347321,3.00577431 20.7587679,2.4067607 20.1473948,1.8095805 C19.5360655,1.21244294 18.9228155,0.845163901 18.1996964,0.570706602 C17.5001925,0.305160531 16.7008591,0.123567609 15.5303631,0.0714220013 C14.3574663,0.0191484811 13.9830298,0.00678361913 10.9965298,0.00678361913 M10.9965298,1.94214035 C13.932744,1.94214035 14.2805099,1.95305554 15.4400496,2.00473213 C16.5122004,2.05252872 17.0944583,2.22751284 17.4819464,2.37461206 C17.9952361,2.56946523 18.3615972,2.8022231 18.746379,3.17807226 C19.1311607,3.55396407 19.3694504,3.91177759 19.5689782,4.41315143 C19.7195298,4.79164412 19.8986726,5.36038514 19.9476052,6.40764631 C20.0004663,7.54026767 20.0116845,7.88000292 20.0116845,10.7480113 C20.0116845,13.6160624 20.0004663,13.9557976 19.9476052,15.0883764 C19.8986726,16.1356802 19.7195298,16.7044212 19.5689782,17.0829139 C19.3694504,17.5842451 19.1311607,17.9421013 18.746379,18.3179504 C18.3615972,18.6938422 17.9952361,18.9266001 17.4819464,19.1214533 C17.0944583,19.2685098 16.5122004,19.4435366 15.4400496,19.4912905 C14.2806845,19.5429671 13.9329623,19.553925 10.9965298,19.553925 C8.06009722,19.553925 7.712375,19.5429671 6.55300992,19.4912905 C5.48085913,19.4435366 4.89855754,19.2685098 4.51106944,19.1214533 C3.99782341,18.9266001 3.6314623,18.6938422 3.24668056,18.3179504 C2.86189881,17.9421013 2.62356548,17.5842451 2.42408135,17.0829139 C2.27352976,16.7044212 2.0943869,16.1356802 2.04545437,15.088419 C1.9925496,13.9557976 1.981375,13.6160624 1.981375,10.7480113 C1.981375,7.88000292 1.9925496,7.54026767 2.04545437,6.40764631 C2.0943869,5.36038514 2.27352976,4.79164412 2.42408135,4.41315143 C2.62356548,3.91177759 2.86189881,3.55396407 3.24668056,3.1781149 C3.6314623,2.8022231 3.99782341,2.56946523 4.51106944,2.37461206 C4.89855754,2.22751284 5.48085913,2.05252872 6.55296627,2.00473213 C7.7125496,1.95305554 8.06031548,1.94214035 10.9965298,1.94214035" id="Fill-1"></path>
                    </g>
                    <path d="M10.9965298,14.3643071 C8.9721369,14.3643071 7.33099802,12.7612667 7.33099802,10.7838694 C7.33099802,8.80647218 8.9721369,7.20347441 10.9965298,7.20347441 C13.0209226,7.20347441 14.6620615,8.80647218 14.6620615,10.7838694 C14.6620615,12.7612667 13.0209226,14.3643071 10.9965298,14.3643071 M10.9965298,5.26811768 C7.87785516,5.26811768 5.34964484,7.73759382 5.34964484,10.7838694 C5.34964484,13.8301877 7.87785516,16.2996638 10.9965298,16.2996638 C14.1152044,16.2996638 16.643371,13.8301877 16.643371,10.7838694 C16.643371,7.73759382 14.1152044,5.26811768 10.9965298,5.26811768" id="Fill-4"></path>
                    <path d="M18.1860817,5.05018912 C18.1860817,5.76206407 17.5953119,6.33911939 16.8665183,6.33911939 C16.1377246,6.33911939 15.5469111,5.76206407 15.5469111,5.05018912 C15.5469111,4.33831417 16.1377246,3.76125885 16.8665183,3.76125885 C17.5953119,3.76125885 18.1860817,4.33831417 18.1860817,5.05018912" id="Fill-6"></path>
                </g>
            </g>
        </g>
    </g>
</svg>