<?xml version="1.0" encoding="utf-8"?>
<!-- Generator: Adobe Illustrator 19.0.0, SVG Export Plug-In . SVG Version: 6.00 Build 0)  -->
<!DOCTYPE svg PUBLIC "-//W3C//DTD SVG 1.1//EN" "http://www.w3.org/Graphics/SVG/1.1/DTD/svg11.dtd">
<svg version="1.1" id="Layer_1" xmlns="http://www.w3.org/2000/svg" xmlns:xlink="http://www.w3.org/1999/xlink" x="0px" y="0px"
	 viewBox="0 0 200 200" style="enable-background:new 0 0 200 200;" xml:space="preserve">
<style type="text/css">
	.st0{fill:#FFFFFF;}
</style>
<path id="XMLID_1_" class="st0" d="M100,0C44.8,0,0,44.8,0,100c0,41,24.6,76.1,59.9,91.6c-0.3-7-0.1-15.4,1.7-23
	c1.9-8.1,12.9-54.5,12.9-54.5s-3.2-6.4-3.2-15.8c0-14.8,8.6-25.9,19.3-25.9c9.1,0,13.5,6.8,13.5,15c0,9.2-5.8,22.8-8.8,35.5
	c-2.5,10.6,5.3,19.3,15.8,19.3c18.9,0,31.7-24.3,31.7-53.2c0-21.9-14.8-38.3-41.6-38.3c-30.3,0-49.2,22.6-49.2,47.9
	c0,8.7,2.6,14.9,6.6,19.6c1.8,2.2,2.1,3.1,1.4,5.6c-0.5,1.8-1.6,6.3-2,8c-0.7,2.5-2.7,3.4-5,2.5c-14-5.7-20.5-21-20.5-38.2
	c0-28.4,23.9-62.5,71.5-62.5c38.2,0,63.3,27.6,63.3,57.3c0,39.2-21.8,68.5-54,68.5c-10.8,0-20.9-5.8-24.4-12.5c0,0-5.8,23-7,27.5
	c-2.1,7.7-6.3,15.4-10.1,21.4c9,2.7,18.5,4.1,28.4,4.1c55.2,0,100-44.8,100-100C200,44.8,155.2,0,100,0"/>
</svg>
