<svg width="159" height="17" viewBox="0 0 159 17" xmlns="http://www.w3.org/2000/svg" xmlns:xlink="http://www.w3.org/1999/xlink"><title>WSJ Copy</title><defs><path id="a" d="M6.938.588H.075v15.959h6.863V.588z"/><path id="c" d="M.337 15.846h7.9V.043h-7.9v15.803z"/></defs><g fill="none" fill-rule="evenodd"><path d="M26.115.881c.167.056.28.112.223.335-.056.389-.67.222-1.005.333-.837.278-.558 1.391-.67 2.17V14.737c0 .446-.055.946.28 1.114.223.332.893.11 1.34.166.67-.113.948-.834 1.395-1.169.168-.613.446-1.113.559-1.725.335-1.112.167-2.56.558-3.673.223-.055.279.112.335.28v6.174c.111.168-.056.446-.056.613l-.502.112H22.374c-.224-.055-.558 0-.67-.222.056-.613 1.06-.335 1.06-1.059V7.503c-.055-1.002 0-2.281 0-3.227 0-.946.28-2.226-.39-2.727-.279-.278-1.172.167-1.06-.445.055-.111.11-.167.278-.223h4.523z" fill="#B3B6B8"/><g transform="translate(43.824 .292)"><mask id="b" fill="#fff"><use xlink:href="#a"/></mask><path d="M4.735 1.423c.223.168.502 0 .614-.055.223-.222 0-.78.447-.724l.278.057v5.842c-.111.056 0 .39-.167.39h-.335c-.111-2.115-.279-4.285-1.842-5.287a1.886 1.886 0 0 0-.95-.278c-.67.055-1.06.556-1.34 1.057-.39.612-.278 1.781.057 2.337.837 1.169 2.177 1.837 3.182 2.783 1.004 1.057 2.177 2.17 2.233 3.95.168 1.947-.502 3.56-1.787 4.619-.726.5-1.842.557-2.68.222l-1.172-.778c-.279-.111-.335.167-.446.278 0 .333-.056.556-.28.668l-.39-.112-.056-3.227V9.548a.79.79 0 0 1 .502 0c.112 2.282.168 4.673 1.843 5.842.502.335 1.116.613 1.842.39 1.06-.446 1.452-1.613 1.452-2.893-.112-1.114-.559-1.948-1.34-2.56C3.338 9.048 1.775 8.38.77 6.988.493 6.655.493 6.21.27 5.82-.29 3.983.436 2.147 1.497 1.034 1.999.701 2.78.478 3.45.644c.503.168.95.446 1.285.78" fill="#B3B6B8" mask="url(#b)"/></g><path d="M4.397.937c.112.055.278.055.335.278-.168.39-.67.39-.838.724-.168.333-.168.946-.056 1.335l.671 3.951c.279 1.28.557 2.614.892 3.895h.169c.446-1.891.781-3.784 1.115-5.676C6.351 3.998 6.63 2.05 5.29 1.382c-.111-.278.056-.445.335-.445.782.055 3.294 0 3.908.055a.61.61 0 0 1 0 .446c-.446.167-.95.11-1.228.5-.614 1.002.223 2.06.167 3.228l.67 3.506c.167.778.167 1.724.614 2.337h.057l.837-3.618c.446-1.501.67-3.115 1.005-4.673.111-.501-.056-.835-.391-1.057-.224-.223-.614-.168-.95-.223a.61.61 0 0 1 0-.446c.838 0 3.406-.055 3.742 0 .167.057.11.335.055.446-.502.11-1.005.223-1.284.557-.335.89-.502 1.835-.726 2.725l-.95 4.341c-.558 2.392-1.171 4.841-1.73 7.29-.112.166-.39.166-.502.056-.335-.446-.335-1.17-.503-1.78L7.58 9.839l-.447-2.002h-.111l-.67 3.283c-.335 1.613-.67 3.228-1.005 4.897-.056.333-.28.557-.727.444-.39-.11-.222-.61-.334-.945l-.28-1.781-.837-4.396-.557-3.171c-.169-1.28-.504-2.56-.782-3.785-.056-.333-.391-.555-.615-.778-.39-.112-.725.056-1.116-.167C-.014 1.327-.07.992.154.937h4.243zM34.769.937c.055.112.167.334.055.445-.502.223-1.34 0-1.451.613C33.26 3.72 33.26 5 33.26 6.725l-.056 6.788h-.056c.336.835-.446 2.504.782 2.56.28.055.838.055 1.117-.112 1.116-.89 1.451-2.393 1.675-3.895.167-.778.056-1.725.28-2.505a.628.628 0 0 1 .445 0v6.79l-.056.277c-.893 0-1.842 0-2.512.057l-3.182-.057h-1.73c-.28 0-.168-.389-.113-.556.559-.055 1.23 0 1.508-.445.223-.836.056-1.949.167-2.838-.111-.778.056-1.612-.055-2.503l.055-.725V2.44c-.055-.278-.223-.611-.39-.778-.335-.39-1.675.167-1.173-.724h4.802zM58.385.993l.112.278v6.4c-.056.166-.168.222-.28.277l-.279-.11c.056-2.004-.222-3.785-.782-5.399-.11-.333-.39-.612-.725-.779-.279 0-.559 0-.67.223v11.852h-.056c.056.835-.111 1.891.502 2.283.391.278 1.062-.167 1.118.444 0 .445-.615.112-.894.278h-1.228v-.055c-.391.167-.782-.11-1.117.055-.335-.055-1.06-.055-1.564-.055-.167-.056-.11-.389-.055-.502.615-.111 1.284-.165 1.508-.834V1.995c-.112-.28-.28-.335-.503-.39-.837.222-1.06 1.113-1.284 1.948-.28 1.223-.503 2.448-.391 3.95-.112.168 0 .445-.279.445l-.335-.11V1.104C51.91.88 56.654.937 58.385.993M76.81.993c.39.167.167.946.223 1.335.167.891-.112 1.892.055 2.671-.167.334.056.556 0 .89-.111.39 0 .946-.111 1.28-.782.056-.391-.945-.503-1.446-.168-1.726-.781-3.284-2.233-4.007-.503-.167-1.34-.167-1.675.223-.335 1.001-.167 2.671-.167 3.616-.112.334.055.446 0 .835v1.558c.055.167-.056.613.335.556 1.34-.611 1.507-2.17 1.507-3.728 0-.221.112-.333.446-.278l.056.334c-.11.723.112 1.614-.056 2.393 0 .779 0 1.837.056 2.671a24.898 24.898 0 0 0 0 2.894c0 .222-.11.333-.334.333-.391-.333-.113-1.279-.28-1.781-.223-.946-.446-2.058-1.508-2.28l-.167.11c-.111 1.224-.055 2.115-.055 3.229 0 1 .055 2.28 0 3.282.335.667 1.172.389 1.954.389 1.395-.611 1.898-2.28 2.177-3.84l.67.169v4.117l-.167.167-6.477.055c-.447-.111-1.228.056-1.674-.111-.168-.89.893-.28 1.227-.611.224-.113.335-.335.447-.557V2.328c-.112-.278-.28-.556-.503-.668-.39-.166-1.228.167-1.171-.5l.11-.167h7.817zM84.904.993c.28.167 1.062-.112 1.23.223 0 2.058.055 3.839 0 5.842-.057.167-.336.167-.448.056-.223-2.17-.167-4.73-2.177-5.51-.447-.166-.95.056-1.395.056-.28.28-.503.502-.503.946v5.398c.056.167.11.279.28.279 1.506-.39 1.395-2.227 1.618-3.728.055-.112.335-.112.446 0v2.28c.112.111 0 .111 0 .334.112.502 0 .89.056 1.504v1.501c-.167.835.056 1.892-.167 2.67-.112.113-.335.057-.391-.11-.111-1.28-.111-2.949-1.117-3.729-.111-.11-.446-.11-.614 0l-.111.39v3.617h.056c.055.89-.335 2.337.334 2.893.447.223 1.061.278 1.62.167 1.227-.39 1.562-1.67 2.01-2.782-.112-.446.167-.89.167-1.391l.112-1.78c.111-.112.223-.168.39-.055l.113.11c-.168.835.335 2.17-.447 2.505-.056.222-.335.222-.335.5.223-.222.502-.446.725-.778h.112l-.055 3.225c-.112.392.166 1.003-.28 1.114-.95.112-1.843.056-2.791.056-1.788-.11-3.462-.056-5.193-.056-.167-.055-.167-.39-.056-.5.502-.168 1.173-.057 1.508-.557.502-.389.222-1.502.28-2.226.055-1.224-.113-2.837 0-3.95l-.058-3.172V2.384c-.166-.445-.502-.835-1.06-.835-.335 0-.726.056-.614-.389.056-.223 5.862-.167 6.755-.167M94.675 1.16l.112.166.055 4.286c-.167.722 0 1.612-.11 2.336-.169.167-.335 0-.448-.056l-.168-2.726c-.222-1.28-.446-2.448-1.173-3.339-.166-.167-.558-.167-.67 0l-.223.223v13.522c.113.778 1.23.333 1.676.667.055.279-.056.446-.28.5-1.45.168-2.902-.11-4.354 0-.335.057-.335-.332-.223-.5.502-.11 1.116-.056 1.284-.557l.056-6.231V2.105c-.112-.166-.224-.333-.447-.389-1.005.111-1.06 1.113-1.34 1.836l-.446 3.005c-.112.5.11 1.169-.168 1.447l-.336-.056-.055-3.116c0-1.112-.056-2.504.055-3.617.392-.278 6.254-.11 7.203-.055M106.735 1.104c.278-.055.334.223.223.39-.558.111-1.117.111-1.452.501-.391.89.056 2.058-.112 3.005.056.166-.056.5 0 .778.056.723 0 1.558 0 2.226v6.231c-.334 1.113-.837 2.226-1.954 2.504-1.117.279-1.842-.222-2.345-.778-.613-.89-1.284-2.059-.781-3.393.223-.502.614-.78 1.172-.835.279.11.615.222.726.5-.055.5.28 1.056-.055 1.39-.056.447-.67.447-.67.947.055.668.335 1.224.892 1.447.503.111.782-.112 1.06-.39.393-1.113.17-2.894.17-4.118l.054-3.227v-5.73c-.112-.335-.223-.613-.502-.891-.335-.279-1.116.11-1.284-.334l.168-.335c1.73 0 2.959.168 4.69.112M118.962 1.16c.223-.111.67-.167.838.11.055.335-.169.39-.392.446-.335 0-.559.167-.781.334-.224.389-.224.946-.224 1.502v6.344l-.056.055c.112 1.67 0 2.782.112 4.509.168.666.558 1.28 1.172 1.612.502.111 1.172.057 1.508-.333.558-.39.67-1.002.782-1.615V8.561l-.056-.334.056-4.897c.055-.501-.056-1.057-.335-1.447-.28-.223-.783-.223-1.118-.278l.056-.39 2.96-.055c.167 0 .278.166.278.278 0 .278-.446.11-.558.222-.278.056-.558.279-.558.557l-.168.89v11.128c-.111.947-.669 1.726-1.34 2.283-.445.389-1.338.222-1.842.334-1.116-.223-2.065-1.002-2.401-2.06-.67-1.392-.223-3.672-.39-5.174v-7.18c-.111-.333-.28-.555-.558-.722-.28-.11-.782 0-.782-.334-.056-.333.335-.167.502-.278l3.295.056zM136.157 1.16c.111.11.335.166.391.333 1.117 3.117 1.954 6.344 3.239 9.348.335-.055-.113-.389.111-.556-.056-1.169.055-2.28-.056-3.505.111-.668 0-1.168.056-1.892-.167-.112.112-.278-.056-.334.111-.668-.055-1.614-.055-2.392-.28-.39-.782-.502-1.341-.502 0-.055-.11-.39.112-.445h3.238c.223.056.112.278.112.445-.335.167-.838.112-1.062.445l-.222.557-.055 3.004v9.516c-.057.445.055 1.168-.057 1.614-.112.11-.39.167-.502.056-.392-.502-.336-1.337-.726-1.837-.614-1.502-.949-3.227-1.564-4.674l-1.116-3.171c-.168-.558-.447-1.002-.615-1.504l-.111.056c-.167.668-.167 1.225-.056 1.892l-.056 3.006v4.952c.112.278.223.557.502.724.28.165.95-.167.95.333l-.056.223-3.126.055c-.223-.055-.503-.055-.503-.333.224-.445 1.173 0 1.396-.556.223-.446.223-1.058.223-1.67l-.056-6.4V2.606c-.112-.779-.892-.834-1.507-1-.168-.113 0-.28 0-.39.837-.112 1.675-.056 2.568-.056" fill="#B3B6B8"/><g transform="translate(150.755 1.173)"><mask id="d" fill="#fff"><use xlink:href="#c"/></mask><path d="M4.776.043c.223.055.446.11.446.389-.111.39-.836.167-1.116.39-.392.167-.392.667-.503 1.002v12.408c-.167.39.111.667.335.891.448.279 1.451.222 2.01.054.894-.555 1.061-1.669 1.452-2.67l.39-2.894c.057-.111.28-.111.447 0v5.176h-.056c0 .278.056.724-.055 1.002-.279.11-.726 0-.95.054l-.167-.054-3.015.054c-1.173-.054-2.456.111-3.406-.165-.111-.057-.111-.278-.055-.391.335-.222 1.06.056 1.228-.445l.056-.556V1.156C1.538.599.923.543.365.543c0-.222-.112-.445.112-.5h4.299z" fill="#B3B6B8" mask="url(#d)"/></g><path d="M112.317 2.662c-.335-.612-.78-1.113-1.619-1.057-.782.166-1.116 1.002-1.34 1.724 0 1.615.056 2.672 0 4.063-.055.278.224.445 0 .723.111.056 0 .39.111.445-.11.89-.055 1.836-.11 2.671.223.724-.056 1.39 0 2.17-.056.947.11 2.004.948 2.56.391.222 1.062.278 1.453-.056.278-.444.557-.835.67-1.391l.055-7.234-.056-.055V3.719l-.112-1.057zm1.005-.055c.727 1 .95 2.448 1.284 3.839.391 2.894.113 6.232-1.005 8.346a4.889 4.889 0 0 1-1.785 1.892c-.67.168-1.676.222-2.123-.223-2.121-1.947-2.623-5.008-2.568-8.568.112-2.393.838-4.675 2.233-6.288.558-.612 1.62-.78 2.513-.501.558.39 1.117.89 1.451 1.503zM64.582 1.716c-.39 0-.725-.167-1.061-.056-.502 0-.67.39-.726.78l.056 5.675c.447.167 1.396.222 1.843-.056.39-.333.67-.722.781-1.223.057-1.781.671-4.174-.893-5.12zm.446-.723c.95.278 1.731.89 2.178 1.725.391 1.223.614 3.228-.167 4.284-.39.556-.837 1.057-1.451 1.447-.113.39.278.39.502.723.782.557.893 1.837.893 2.839 0-.113-.111-.224-.167-.113-.057.168.056.279.223.279.056.946-.112 2.004.111 2.839a.499.499 0 0 0 .335.332c.28-.054.335-.332.447-.5-.056-.5.055-1.056.112-1.558.167.111.335-.223.447 0 .11 1.28.056 2.615-.782 3.227-.335.222-.67.335-1.173.28a2.127 2.127 0 0 1-1.228-.947l-.167-1.058v-4.006c-.168-.779-.335-1.614-1.117-1.836-.336-.112-.893-.223-1.173 0l-.111.222v6.176c.111.335.223.613.502.724.279.056.67 0 .615.445l-.113.168-2.903.054c-.11 0-.278-.11-.334 0-.28-.222-1.228.28-1.006-.389 0-.389.503-.11.726-.278.28-.055.447-.333.614-.5 0-.278.168-.613.057-.891l.055-3.228c0-1.335-.055-2.615 0-3.783 0-.834 0-2.003-.055-2.893.055-.557 0-1.391.055-1.948-.112-.501-.223-1.001-.67-1.169-.279-.11-.782.056-.893-.221-.056-.223 0-.39.224-.446h5.414zM130.407 2.607c-.503-.612-1.062-1.169-2.122-.947a.92.92 0 0 0-.615.668c0 2.115 0 3.729.057 5.843.558.166 1.563.166 2.01 0 .502-.223.67-.724.837-1.28l.055-2.95c-.055-.388-.055-.944-.222-1.334m-2.457-1.391c1.675-.223 3.35.11 4.02 1.446.558.89.893 2.282.503 3.506-.503.89-.893 2.003-1.899 2.448 0 .5.558.613.781 1.001.225.447.447.836.447 1.447l.112 2.839c0 .5-.056 1.334.447 1.558.67-.224.502-1.226.614-1.947.056-.057.28-.057.335 0 .167 1.223-.112 2.39-.837 3.114-.391.168-.893.39-1.341.224-.503 0-.503-.557-.837-.835l-.168-1.614v-3.227c-.055-.723-.111-1.559-.67-1.947-.39-.334-1.116-.446-1.674-.223l-.113.166c-.222 2.17.057 3.95 0 6.233.057.334.113.723.504.89.334.055.502 0 .893.111.055.111 0 .278.055.446l-2.958.054-1.62-.11c-.111-.112-.111-.39 0-.446.503 0 .893-.167 1.174-.445l.166-.557V2.551c-.112-.334-.166-.668-.502-.835-.28-.111-.782.055-.782-.334.168-.389.502-.055.894-.222.836.056 1.507.056 2.456.056M145.648 5.89l-.223-.056c-.168.39-.223.89-.335 1.335l-.446 2.95c-.168.667-.28 1.334-.335 1.947l.278.167 2.234-.056.111-.111c-.278-2.17-.949-4.062-1.284-6.177zm1.396-1.892c.223 1.558.726 2.949.894 4.562l1.005 4.62c.335 1.112.279 2.56 1.34 3.116.279.054.614.054.446.5l-.056.11c-1.285.057-3.015.111-4.354-.054-.28-.78.67-.446 1.004-.67.279-.221.335-.666.279-1.166-.167-.781-.279-1.615-.614-2.227-.893-.056-1.954-.056-2.736.055-.223.278-.278.724-.335 1.17-.111.667-.558 1.669.112 2.225.28.278 1.396-.222 1.005.613-.893.165-1.954.11-2.847.11-.28-.11-.893.112-.726-.445 0-.334.558-.11.726-.221.502-.279.726-.78.837-1.28l.67-3.785.838-4.785.502-2.783c.168-.834.28-1.78.67-2.447l.726.054.614 2.728zM16.79 8.839l-.613-2.783L16.065 6l-.39 2.06-.503 3.171-.056.724.447.056c.614-.167 1.395.277 1.786-.167l-.558-3.005zm.337-7.512c.222 1.502.67 2.838.893 4.395l1.172 5.731c.28 1.28.39 2.56.725 3.73.169.5.503.834 1.062.89 0 .166.167.277.056.388l-.168.167h-3.294c-.112-.167-.67 0-.893-.167-.168-.834 1.06-.165 1.171-.778.28-.278.169-.835.113-1.17-.28-.555-.056-1.502-.615-1.89h-2.233l-.224.11c-.055 1.002-.78 2.115-.167 3.117.224.167.67.111.838.278l-.056.333-3.183.056c-.334.111-.278-.389-.167-.5.67.055 1.061-.278 1.396-.612.391-.891.391-2.004.67-3.005l.614-3.895.559-3.227c.278-1.337.446-2.727.725-4.118.056-.279 1.117-.446 1.006.167z" fill="#B3B6B8"/></g></svg>
