<?xml version="1.0" encoding="utf-8"?>
<!-- Generator: Adobe Illustrator 19.2.0, SVG Export Plug-In . SVG Version: 6.00 Build 0)  -->
<svg version="1.1" id="Layer_1" xmlns:sketch="http://www.bohemiancoding.com/sketch/ns"
	 xmlns="http://www.w3.org/2000/svg" xmlns:xlink="http://www.w3.org/1999/xlink" x="0px" y="0px" viewBox="0 0 46 34"
	 style="enable-background:new 0 0 46 34;" xml:space="preserve">
<style type="text/css">
	.st0{fill:#FFFFFF;}
	.st1{fill:#0074E4;}
</style>
<title>ZLogo Copy + Shape</title>
<desc>Created with Sketch.</desc>
<rect x="12" class="st0" width="34" height="34"/>
<g id="Tests" sketch:type="MSPage">
	<g id="ZLogo-Copy-_x2B_-Shape" sketch:type="MSLayerGroup">
		<g id="ZLogo-Copy" transform="translate(12.000000, 0.000000)" sketch:type="MSShapeGroup">
			<g id="Layer_1_1_">
				<path id="Shape" class="st1" d="M0,0v34h34V0H0L0,0z M18.7,7.3c0.7,0.4,3.4,2.2,4.3,2.8c-3,0.1-8.9,1.4-11.4,2.2
					C13.7,10.8,17.4,7.9,18.7,7.3L18.7,7.3z M8.4,15.6c1.6-0.7,6.1-2.1,10.4-3.1c0,0-8.3,7.7-10.6,10l1.9-5.2
					c-1.5,0.2-2.1,0.3-4.2,0.7L8.4,15.6L8.4,15.6z M22.9,22.6C15.7,23,7.8,25.6,6.9,26l1-2.7c2.5-1.1,8.6-3.4,16.1-3.9
					C23.9,19.9,23.1,22,22.9,22.6L22.9,22.6z M25.5,15.2c0,0-0.4,0.7-0.7,1.8c-2.9,0.2-7.5,1.1-9.7,1.9c1.1-1.1,8.5-8.4,8.5-8.4
					c2.8,1.9,5.8,4.3,5.8,4.3L25.5,15.2L25.5,15.2z"/>
			</g>
		</g>
		<path id="Shape_1_" sketch:type="MSShapeGroup" class="st1" d="M7.5,24L0,16.5L7.5,9"/>
	</g>
</g>
</svg>
