<?xml version="1.0" encoding="utf-8"?>
<!-- Generator: Adobe Illustrator 16.0.0, SVG Export Plug-In . SVG Version: 6.00 Build 0)  -->
<!DOCTYPE svg PUBLIC "-//W3C//DTD SVG 1.1//EN" "http://www.w3.org/Graphics/SVG/1.1/DTD/svg11.dtd">
<svg version="1.1" id="Layer_1" xmlns="http://www.w3.org/2000/svg" xmlns:xlink="http://www.w3.org/1999/xlink" x="0px" y="0px"
	 width="250px" height="250px" viewBox="0 0 250 250" enable-background="new 0 0 250 250" xml:space="preserve">
<g id="VIP">
	<path id="Rope" fill="#F47920" d="M179.3,190.5V82h7.3v-4h-7.3v-3.2c4.7-1.6,8-6.1,8-11.3c0-6.6-5.4-12-12-12s-12,5.4-12,12
		c0,5.2,3.3,9.7,8,11.3V78h-6.1H164h-3.1c0,0,0,0,0,0c0,9.4-15.9,17-35.5,17c-19.6,0-35.5-7.6-35.5-17c0,0,0,0,0,0H86h-0.6h-6.7
		v-3.2c4.7-1.6,8-6.1,8-11.3c0-6.6-5.4-12-12-12s-12,5.4-12,12c0,5.2,3.3,9.7,8,11.3V78h-7.3v4h7.3v108.5h-12v8h12h8h12v-8h-12V82
		H86v-0.4c3.3,9.9,19.6,17.4,39.3,17.4c19.5,0,35.6-7.3,39.2-17h6.8v108.5h-12v8h12h8h12v-8H179.3z"/>
	<path fill="#F47920" d="M125,0C56,0,0,56,0,125c0,69,56,125,125,125c69,0,125-56,125-125C250,56,194,0,125,0z M125,241.7
		C60.6,241.7,8.3,189.4,8.3,125C8.3,60.6,60.6,8.3,125,8.3c64.4,0,116.7,52.2,116.7,116.7C241.7,189.4,189.4,241.7,125,241.7z"/>
</g>
</svg>
