<?xml version="1.0" encoding="utf-8"?>
<!-- Generator: Adobe Illustrator 16.0.0, SVG Export Plug-In . SVG Version: 6.00 Build 0)  -->
<!DOCTYPE svg PUBLIC "-//W3C//DTD SVG 1.1//EN" "http://www.w3.org/Graphics/SVG/1.1/DTD/svg11.dtd">
<svg version="1.1" id="Layer_1" xmlns="http://www.w3.org/2000/svg" xmlns:xlink="http://www.w3.org/1999/xlink" x="0px" y="0px"
	 width="250px" height="250px" viewBox="0 0 250 250" enable-background="new 0 0 250 250" xml:space="preserve">
<g id="Favorites">
	<path fill="#F47920" d="M159,122.1c-20.6,0-37.3,16.7-37.3,37.3c0,20.6,16.7,37.3,37.3,37.3c20.6,0,37.3-16.7,37.3-37.3
		C196.4,138.8,179.7,122.1,159,122.1z M182.3,157.4c-0.6,2.7-2,5.6-4.8,8.4c-8,8-18.5,18.3-18.5,18.3s-10.5-10.3-18.5-18.3
		c-3.6-3.6-5-7.4-5.1-10.9c0-0.4-0.1-0.8-0.1-1.2c0-6.8,5.5-12.4,12.4-12.4c5.1,0,9.5,3.1,11.4,7.5c1.9-4.4,6.3-7.5,11.4-7.5
		c6.8,0,12.4,5.5,12.4,12.4C182.8,155,182.6,156.2,182.3,157.4z"/>
	<path fill="#F47920" d="M171.6,119.4l-9.3-34.5l-88.9,23.8l15.1,56.5l28.5-7.6c1-22.3,19.4-40,42-40
		C163.4,117.5,167.6,118.1,171.6,119.4z"/>
	<path fill="#F47920" d="M180.9,109.5c-2.1-7.9,2.6-16.1,10.5-18.2L184,63.8L44.5,101.2l7.4,27.4c7.9-2.1,16.1,2.6,18.2,10.5
		c2.1,7.9-2.6,16.1-10.5,18.2l7.5,27.8l51.8-13.9c-0.9-3.1-1.5-6.3-1.6-9.6l-31.4,8.4l-17.2-64.3l96.7-25.9l11.1,41.3
		c11.7,5.3,20.5,15.7,23.6,28.4l6.6-1.8l-7.5-27.8C191.1,122.1,183,117.4,180.9,109.5z"/>
	<path fill="#F47920" d="M125,0C56,0,0,56,0,125c0,69,56,125,125,125c69,0,125-56,125-125C250,56,194,0,125,0z M125,241.7
		C60.6,241.7,8.3,189.4,8.3,125C8.3,60.6,60.6,8.3,125,8.3c64.4,0,116.7,52.2,116.7,116.7C241.7,189.4,189.4,241.7,125,241.7z"/>
</g>
</svg>
