<?xml version="1.0" encoding="utf-8"?>
<!-- Generator: Adobe Illustrator 16.0.0, SVG Export Plug-In . SVG Version: 6.00 Build 0)  -->
<!DOCTYPE svg PUBLIC "-//W3C//DTD SVG 1.1//EN" "http://www.w3.org/Graphics/SVG/1.1/DTD/svg11.dtd">
<svg version="1.1" id="Layer_1" xmlns="http://www.w3.org/2000/svg" xmlns:xlink="http://www.w3.org/1999/xlink" x="0px" y="0px"
	 width="250px" height="250px" viewBox="0 0 250 250" enable-background="new 0 0 250 250" xml:space="preserve">
<g id="Perks">
	<path id="bucket" fill="#F47920" d="M71.7,92.7l14,107h78.7l14-107H71.7z M94.5,196.6l-9-92.7h16l5,92.7H94.5z M131,196.6h-12
		l-2-92.7h16L131,196.6z M155.5,196.6h-12l5-92.7h16L155.5,196.6z"/>
	<g id="popcorn">
		<path fill="#F47920" d="M121.7,65.5c0.1,0,0.2,0,0.2,0c0.4,0.9,1.3,1.5,2.4,1.5c0.5,0,1-0.2,1.4-0.4c0.4,0.2,0.8,0.3,1.2,0.3
			c1.6,0,2.8-1.3,2.8-2.8c0-0.8-0.4-1.6-0.9-2.1c1.5-0.6,2.6-2,2.6-3.7c0-2.2-1.8-4-4-4c-1.2,0-2.3,0.5-3,1.4
			c-0.5-0.8-1.3-1.4-2.3-1.4c-1.5,0-2.7,1.2-2.7,2.7c0,0.7,0.3,1.3,0.7,1.8c-1.2,0.6-2,1.8-2,3.2C118,63.9,119.7,65.5,121.7,65.5z
			 M125.3,61.6C125.3,61.6,125.3,61.6,125.3,61.6C125.3,61.6,125.3,61.6,125.3,61.6C125.3,61.6,125.3,61.6,125.3,61.6z"/>
		<path fill="#F47920" d="M146.1,54.8c-0.1,1.5,1,2.7,2.5,2.8c0.7,0,1.3-0.2,1.8-0.5c0.5,1.2,1.7,2.1,3.1,2.2c2,0.1,3.8-1.4,3.9-3.4
			c0-0.1,0-0.2,0-0.2c0.9-0.3,1.6-1.2,1.7-2.2c0-0.5-0.1-1-0.3-1.4c0.2-0.3,0.3-0.7,0.3-1.1c0.1-1.6-1.1-2.9-2.6-3
			c-0.8-0.1-1.6,0.3-2.2,0.8c-0.5-1.6-1.8-2.7-3.5-2.9c-2.2-0.2-4.1,1.5-4.3,3.7c-0.1,1.2,0.4,2.3,1.2,3.1
			C146.8,53,146.2,53.8,146.1,54.8z M153.7,52C153.7,52,153.7,52,153.7,52C153.7,52,153.7,52,153.7,52C153.7,52,153.7,52,153.7,52z"
			/>
		<path fill="#F47920" d="M168.6,88.2c0.1-1.5-0.9-2.8-2.4-2.9c-0.7-0.1-1.3,0.1-1.8,0.5c-0.5-1.2-1.6-2.2-3-2.3
			c-1.2-0.1-2.3,0.4-3,1.2c-0.6-1.5-2-2.5-3.7-2.5c-1.2,0-2.3,0.5-3,1.4c-0.2-0.3-0.4-0.5-0.6-0.7c1.1-0.6,1.8-1.7,2-3
			c0.6-0.1,1.2-0.4,1.6-0.9c0.5,1.5,2,2.6,3.7,2.7c2.2,0,4-1.7,4-4c0-1.2-0.5-2.3-1.4-3c0.8-0.4,1.4-1.3,1.4-2.3
			c0-1.5-1.2-2.7-2.6-2.7c-0.7,0-1.3,0.2-1.8,0.6c-0.6-1.2-1.8-2-3.2-2c-2,0-3.7,1.6-3.7,3.6c0,0.1,0,0.2,0,0.2
			c-0.9,0.4-1.5,1.3-1.6,2.3c0,0.4,0.1,0.7,0.2,1c-0.2,0-0.5-0.1-0.7-0.1c-1.2,0-2.3,0.5-3,1.4c-0.1-0.2-0.2-0.3-0.4-0.5
			c0,0-0.1-0.1-0.1-0.1c-0.7-0.8-1.8-1.3-2.9-1.3c-0.3,0-0.6,0-0.9,0.1c0-0.1,0-0.1-0.1-0.2c-0.4-0.7-1-1.3-1.8-1.5
			c1.1-1.2,1.5-3,0.7-4.5c-1-2-3.4-2.8-5.4-1.8c-1.1,0.5-1.8,1.5-2.1,2.6c-0.8-0.5-1.8-0.7-2.7-0.2c-1.3,0.6-1.9,2.2-1.2,3.6
			c0.3,0.6,0.8,1,1.4,1.3c-0.8,1.1-1,2.5-0.4,3.8c0.8,1.6,2.5,2.4,4.2,1.9c-0.7,0.7-1.1,1.6-1.1,2.6c0,2,1.6,3.6,3.5,3.7
			c-0.3,0.2-0.6,0.4-0.9,0.7c-0.5-0.8-1.3-1.4-2.3-1.4c0,0,0,0-0.1,0c0-0.2,0.1-0.4,0.1-0.7c0-2.2-1.8-4-4-4
			c-0.2-0.4-0.4-0.9-0.7-1.3c-0.8-0.9-1.9-1.4-3-1.4c0.3-0.9,0.2-1.9-0.4-2.7c-0.9-1.1-2.6-1.3-3.8-0.4c-0.5,0.4-0.8,1-0.9,1.6
			c-1.2-0.5-2.7-0.4-3.8,0.5c-1.6,1.3-1.8,3.6-0.5,5.2c0.1,0.1,0.1,0.1,0.2,0.2c-0.3,0.6-0.3,1.3-0.1,2c-0.2,0.1-0.4,0.3-0.6,0.5
			c-0.2,0-0.3-0.1-0.5-0.1c0.3-0.5,0.4-1.1,0.4-1.7c0-2.2-1.8-4-4-4c-1.2,0-2.3,0.5-3,1.4c0,0-0.1-0.1-0.1-0.1
			c0.8-0.5,1.4-1.4,1.4-2.4c0-0.8-0.4-1.6-0.9-2.1c0.2-0.1,0.5-0.2,0.7-0.4c0.6,0.3,1.4,0.3,2.1,0c0.6-0.3,1.1-0.7,1.4-1.3
			c1,0.9,2.4,1.2,3.8,0.6c1.9-0.8,2.8-2.9,2-4.8c0-0.1-0.1-0.1-0.1-0.2c0.7-0.7,0.9-1.8,0.5-2.8c-0.2-0.5-0.5-0.9-0.9-1.2
			c0-0.4,0-0.8-0.2-1.2c-0.6-1.5-2.2-2.2-3.7-1.6c-0.8,0.3-1.3,0.9-1.6,1.7c-1.1-1.2-2.9-1.7-4.4-1c-1.8,0.7-2.8,2.6-2.4,4.5
			c-0.6,0.2-1.1,0.6-1.5,1.1c-0.5-0.8-1.3-1.4-2.3-1.4c-1.5,0-2.7,1.2-2.7,2.7c0,0.7,0.3,1.3,0.7,1.8c-1.2,0.6-2,1.8-2,3.2
			c0,1.3,0.7,2.5,1.8,3.1c-0.6,0.2-1.2,0.5-1.7,0.9c0-0.1,0-0.2,0-0.3c0-1.2-0.6-2.3-1.4-3.1c0-0.7-0.1-1.3-0.4-2
			c-0.5-1.1-1.5-1.8-2.6-2.1c0.5-0.8,0.7-1.8,0.2-2.7c-0.6-1.3-2.2-1.9-3.6-1.2c-0.6,0.3-1,0.8-1.3,1.4c-1.1-0.8-2.5-1-3.8-0.4
			c-1.8,0.9-2.6,3.1-1.7,4.9c0,0.1,0.1,0.1,0.1,0.2c-0.6,0.8-0.8,1.8-0.3,2.8c0.2,0.5,0.6,0.8,1,1.1c0,0.4,0.1,0.8,0.3,1.2
			c0,0.1,0.1,0.2,0.2,0.3c-0.1,0-0.1,0-0.2,0c-1.5,0-2.7,1.2-2.7,2.7c0,0.7,0.3,1.3,0.7,1.8c-1.2,0.6-2,1.8-2,3.2
			c0,2,1.6,3.7,3.7,3.7c0.1,0,0.2,0,0.2,0c0.4,0.9,1.3,1.5,2.4,1.5c0.5,0,1-0.2,1.4-0.4c0.3,0.1,0.6,0.2,0.9,0.2
			c0,0.1,0.1,0.1,0.1,0.2c-1.2,0.6-2,1.8-2,3.2c0,2,1.6,3.7,3.7,3.7c0.1,0,0.2,0,0.2,0c0.4,0.9,1.3,1.5,2.4,1.5c0.5,0,1-0.2,1.4-0.4
			c0.4,0.2,0.8,0.3,1.2,0.3c1.6,0,2.8-1.3,2.8-2.8c0-0.2,0-0.4-0.1-0.7c0.2,0.1,0.5,0.1,0.8,0.1c0.1,0,0.2,0,0.2,0
			c0.4,0.9,1.3,1.5,2.4,1.5c0.5,0,1-0.2,1.4-0.4c0.4,0.2,0.8,0.3,1.2,0.3c1.6,0,2.8-1.3,2.8-2.8c0.3,0.1,0.7,0.2,1,0.2
			c0.1,0,0.2,0,0.2,0c0.4,0.9,1.3,1.5,2.4,1.5c0.5,0,1-0.2,1.4-0.4c0.4,0.2,0.8,0.3,1.2,0.3c1.3,0,2.4-0.9,2.7-2c0.2,0,0.3,0,0.5,0
			c0.1,0,0.2,0,0.2,0c0.4,0.9,1.3,1.5,2.4,1.5c0.5,0,1-0.2,1.4-0.4c0.4,0.2,0.8,0.3,1.2,0.3c1.6,0,2.8-1.3,2.8-2.8
			c0-0.2,0-0.4-0.1-0.5c0.3,0.1,0.6,0.2,1,0.2c0.5,0,1-0.2,1.4-0.4c0.4,0.2,0.8,0.3,1.2,0.3c0.2,0,0.4,0,0.5-0.1
			c0.1,1.9,1.7,3.4,3.6,3.4c0.1,0,0.2,0,0.2,0c0.4,0.9,1.3,1.5,2.4,1.5c0.5,0,1-0.2,1.4-0.4c0.4,0.2,0.8,0.3,1.2,0.3
			c1,0,1.9-0.6,2.4-1.4c0.3,0.1,0.6,0.2,1,0.2c0.5,0,1-0.2,1.4-0.4c0.4,0.2,0.8,0.3,1.2,0.3c1.6,0,2.8-1.3,2.8-2.8
			c0-0.4-0.1-0.7-0.2-1c0.5,0.3,1.2,0.5,1.9,0.5c0.1,0,0.2,0,0.2,0c0.4,0.9,1.3,1.5,2.4,1.5c0.5,0,1-0.2,1.4-0.4
			c0.4,0.2,0.8,0.3,1.2,0.3c0.8,0,1.6-0.4,2.1-0.9c0.5,0.5,1.1,0.9,1.9,1c0.8,0.1,1.6-0.2,2.2-0.7c0.4,1.6,1.8,2.8,3.5,2.9
			c2.2,0.2,4.2-1.4,4.4-3.6c0.1-1.2-0.3-2.3-1.1-3.1C167.9,90,168.6,89.2,168.6,88.2z M155,75.6C155,75.6,155,75.6,155,75.6
			C155,75.6,155,75.6,155,75.6C155,75.6,155,75.6,155,75.6z M136.7,74.6C136.7,74.6,136.7,74.6,136.7,74.6
			C136.7,74.6,136.7,74.6,136.7,74.6C136.7,74.6,136.7,74.6,136.7,74.6z M114.4,68.3C114.4,68.3,114.4,68.3,114.4,68.3
			C114.4,68.3,114.4,68.3,114.4,68.3C114.4,68.3,114.4,68.3,114.4,68.3z M88.7,87.3C88.7,87.3,88.7,87.3,88.7,87.3
			C88.7,87.3,88.7,87.3,88.7,87.3C88.7,87.3,88.7,87.3,88.7,87.3z M95.3,95.7C95.3,95.7,95.3,95.7,95.3,95.7
			C95.3,95.7,95.3,95.7,95.3,95.7C95.3,95.7,95.3,95.7,95.3,95.7z M99.3,86.3C99.3,86.3,99.3,86.3,99.3,86.3
			C99.3,86.3,99.3,86.3,99.3,86.3C99.3,86.3,99.3,86.3,99.3,86.3z M104,93.6C104,93.6,104,93.6,104,93.6C104,93.6,104,93.6,104,93.6
			C104,93.6,104,93.6,104,93.6z M106,75.6C106,75.6,106,75.6,106,75.6C106,75.6,106,75.6,106,75.6C106,75.6,106,75.6,106,75.6z
			 M113,92.3C113,92.3,113,92.3,113,92.3C113,92.3,113,92.3,113,92.3C113,92.3,113,92.3,113,92.3z M121.3,91.6
			C121.3,91.6,121.3,91.6,121.3,91.6C121.3,91.6,121.3,91.6,121.3,91.6C121.3,91.6,121.3,91.6,121.3,91.6z M127.7,88.3
			C127.7,88.3,127.7,88.3,127.7,88.3C127.7,88.3,127.7,88.3,127.7,88.3C127.7,88.3,127.7,88.3,127.7,88.3z M143,91.6
			C143,91.6,143,91.6,143,91.6C143,91.6,143,91.6,143,91.6C143,91.6,143,91.6,143,91.6z M147,82.8C147,82.8,147,82.8,147,82.8
			C147,82.8,147.1,82.8,147,82.8C147.1,82.8,147,82.8,147,82.8z M152.7,89.6C152.7,89.6,152.7,89.6,152.7,89.6
			C152.7,89.6,152.7,89.6,152.7,89.6C152.7,89.6,152.7,89.6,152.7,89.6z M160.9,90.8C160.9,90.8,160.9,90.8,160.9,90.8
			C160.9,90.8,160.9,90.8,160.9,90.8C160.9,90.8,160.9,90.8,160.9,90.8z"/>
	</g>
	<path fill="#F47920" d="M125,0C56,0,0,56,0,125c0,69,56,125,125,125c69,0,125-56,125-125C250,56,194,0,125,0z M125,241.7
		C60.6,241.7,8.3,189.4,8.3,125C8.3,60.6,60.6,8.3,125,8.3c64.4,0,116.7,52.2,116.7,116.7C241.7,189.4,189.4,241.7,125,241.7z"/>
</g>
</svg>
