<?xml version="1.0" encoding="utf-8"?>
<!-- Generator: Adobe Illustrator 16.0.0, SVG Export Plug-In . SVG Version: 6.00 Build 0)  -->
<!DOCTYPE svg PUBLIC "-//W3C//DTD SVG 1.1//EN" "http://www.w3.org/Graphics/SVG/1.1/DTD/svg11.dtd">
<svg version="1.1" id="Layer_1" xmlns="http://www.w3.org/2000/svg" xmlns:xlink="http://www.w3.org/1999/xlink" x="0px" y="0px"
	 width="250px" height="250px" viewBox="0 0 250 250" enable-background="new 0 0 250 250" xml:space="preserve">
<g id="Worry_Free">
	<g id="TIcket">
		<polygon fill="#F47920" points="161.9,85.4 73,109.2 88.1,165.7 177,141.8 		"/>
		<path fill="#F47920" d="M190.9,91.8l-7.4-27.4L44,101.7l7.4,27.4c7.9-2.1,16.1,2.6,18.2,10.5c2.1,7.9-2.6,16.1-10.5,18.2l7.5,27.8
			L206,148.3l-7.5-27.8c-7.9,2.1-16.1-2.6-18.2-10.5C178.3,102,182.9,93.9,190.9,91.8z M182,144.7l-96.7,25.9L68,106.3l96.7-25.9
			L182,144.7z"/>
	</g>
	<path fill="#F47920" d="M125,0C56,0,0,56,0,125c0,69,56,125,125,125c69,0,125-56,125-125C250,56,194,0,125,0z M125,241.7
		C60.6,241.7,8.3,189.4,8.3,125C8.3,60.6,60.6,8.3,125,8.3c64.4,0,116.7,52.2,116.7,116.7C241.7,189.4,189.4,241.7,125,241.7z"/>
</g>
</svg>
