<svg width="165" height="50" version="1.1" id="Layer_1" xmlns="http://www.w3.org/2000/svg" xmlns:xlink="http://www.w3.org/1999/xlink" x="0px" y="0px"
	 viewBox="0 0 165 50" enable-background="new 0 0 165 50" xml:space="preserve">
<g>
	<g>
		<g>
			<g>
				<path fill="#FFFFFF" d="M128.5,26.7c-1.7-0.3-3.7-1.3-5.6-2.7l2.4-3.6c2,1.5,4.1,2.4,5.8,2.4c1.5,0,2.2-0.6,2.2-1.5
					c0-1.2-1.8-1.6-3.8-2.3c-2.5-0.8-5.7-2.1-5.7-5.9c0-3.3,1.9-5.3,4.6-6v0V5.8v0V4.7c-5.9,0.9-10.4,6-10.4,12.2
					s4.5,11.3,10.4,12.2v-1.1V26.7z"/>
				<path fill="#FFFFFF" d="M142.4,16.9c0-6.1-4.6-11.2-10.3-12.2v1.1v0V7v0c1.7,0.3,3.8,1,5.3,2.1l-1.9,3.8
					c-1.8-1.1-3.6-1.8-4.9-1.8c-1.3,0-1.9,0.6-1.9,1.4c0,1.1,1.8,1.6,3.7,2.4c2.5,0.9,5.3,2.2,5.3,5.8c0,3.7-2.9,5.7-5.7,6.2v0v0
					v0.9v0.1v1.1C137.8,28.1,142.4,23,142.4,16.9z"/>
			</g>
			<path fill="#FFFFFF" d="M11.8,0.5H0.5V28h5.9v-8.4h4.8c6.2,0,11.1-3.2,11.1-9.6C22.3,4.4,18.3,0.5,11.8,0.5z M6.4,14.4V6h4.9
				c3,0,4.9,1.4,4.9,4.1c0,2.5-1.8,4.2-4.8,4.2"/>
			<path fill="#FFFFFF" d="M35.1,6.2c-6.5,0-11.4,4.9-11.4,11c0,6.1,4.8,11,11.3,11c6.5,0,11.4-4.9,11.4-11
				C46.4,11,41.6,6.2,35.1,6.2z M40.2,17.1C40.2,17.1,40.2,17.1,40.2,17.1c0,3.2-1.9,5.8-5.3,5.8c-3.3,0-5.5-2.7-5.5-5.8
				c0-3.2,1.9-5.8,5.4-5.8C38.1,11.3,40.2,14,40.2,17.1C40.2,17.1,40.2,17.1,40.2,17.1L40.2,17.1z"/>
			<path fill="#FFFFFF" d="M61.5,6.2c-3.1,0-5,1.5-6.5,3.4V6.6h-6.1v27.3H55v-9c1.3,1.6,3.4,3.1,6.5,3.1c5,0,9.5-3.8,9.5-10.9
				C71,10.1,66.4,6.2,61.5,6.2z M60,23c-2.8,0-5-2.3-5-5.8c0-3.6,2.3-5.9,5-5.9c2.8,0,5.1,2.3,5.1,5.8C65.1,20.7,62.8,23,60,23z"/>
			<path fill="#FFFFFF" d="M73.8,17.1c0-6,4.6-11,11-11c3.9,0,6.3,1.5,8.3,3.7l-3.5,3.5c-1.3-1.2-2.5-2-4.9-2c-2.9,0-5,2.6-5,5.8
				c0,3.2,2,5.8,5.3,5.8c2,0,3.3-0.9,4.8-2.2l3.5,3.5c-2,2.2-4.4,3.8-8.5,3.8C78.3,28.1,73.8,23.2,73.8,17.1L73.8,17.1z"/>
			<path fill="#FFFFFF" d="M110.2,6.8v2.5c-1.5-1.6-3.3-3.1-6.5-3.1c-5,0-9.5,3.8-9.5,10.9c0,7.1,4.6,11,9.5,11
				c3.1,0,4.8-1.5,6.5-3.4v2.7v0.4V28h5.3v-0.3v-0.4V6.8H110.2z M105.3,23c-2.8,0-5.1-2.3-5.1-5.8c0-3.6,2.4-5.9,5.1-5.9
				c2.8,0,5,2.3,5,5.8C110.3,20.7,108,23,105.3,23z"/>
			<path fill="#FFFFFF" d="M157.1,6.6c-3,0-4.9,1.6-6.3,3.4V0.5h-6.1V28h5.9V16.3c0-2.8,1.7-4.3,4-4.3c2.3,0,3.8,1.4,3.8,4.3V28h5.9
				V14.4C164.4,9.5,161.6,6.6,157.1,6.6z"/>
		</g>
	</g>
	<g>
		<path fill="#FFFFFF" d="M3.7,47.2V39h-3v-1.7h8V39H5.4v8.2H3.7z"/>
		<path fill="#FFFFFF" d="M10.2,47.2V37h1.7v4c0.8-0.9,1.4-1.3,2.4-1.3c0.8,0,1.5,0.3,2,0.8c0.5,0.5,0.8,1.2,0.8,2.1v4.7h-1.7V43
			c0-0.6-0.2-1-0.4-1.3c-0.3-0.3-0.7-0.5-1.2-0.5c-0.5,0-1,0.2-1.3,0.5c-0.3,0.3-0.5,0.8-0.5,1.4v4.2H10.2z"/>
		<path fill="#FFFFFF" d="M22.4,47.4c-1.1,0-2-0.4-2.7-1.1c-0.7-0.7-1.1-1.7-1.1-2.8c0-1.1,0.3-2,1-2.7c0.7-0.8,1.6-1.1,2.6-1.1
			c1.1,0,2,0.4,2.6,1.1c0.6,0.8,0.9,1.8,0.9,2.9c0,0.2,0,0.3,0,0.5h-5.5c0.1,0.6,0.3,1,0.7,1.4c0.4,0.3,0.9,0.5,1.4,0.5
			c0.7,0,1.4-0.3,2-0.9l1,0.9C24.7,46.9,23.7,47.4,22.4,47.4z M20.3,43h3.8c-0.1-0.6-0.2-1.1-0.6-1.4c-0.3-0.4-0.8-0.6-1.3-0.6
			c-0.5,0-0.9,0.2-1.3,0.6C20.6,42,20.4,42.5,20.3,43z"/>
		<path fill="#FFFFFF" d="M32,47.2v-9.9h3.8c1.1,0,2.1,0.3,2.7,0.9c0.7,0.6,1,1.4,1,2.4c0,1.1-0.4,1.9-1.1,2.4
			c-0.7,0.6-1.7,0.9-2.8,0.9h-1.9v3.2H32z M33.7,42.5h2c0.6,0,1.2-0.2,1.5-0.5c0.4-0.3,0.6-0.8,0.6-1.3c0-0.6-0.2-1-0.6-1.3
			c-0.4-0.3-0.9-0.5-1.6-0.5h-2V42.5z"/>
		<path fill="#FFFFFF" d="M44.7,47.4c-1.1,0-2.1-0.4-2.8-1.1c-0.8-0.8-1.1-1.7-1.1-2.7c0-1.1,0.4-2,1.1-2.8c0.8-0.8,1.7-1.1,2.8-1.1
			c1.1,0,2.1,0.4,2.8,1.1c0.8,0.8,1.1,1.7,1.1,2.8c0,1.1-0.4,2-1.1,2.7C46.8,47,45.8,47.4,44.7,47.4z M44.7,45.9
			c0.7,0,1.2-0.2,1.6-0.7c0.4-0.5,0.6-1,0.6-1.7c0-0.7-0.2-1.2-0.6-1.7c-0.4-0.5-1-0.7-1.6-0.7c-0.7,0-1.2,0.2-1.6,0.7
			c-0.4,0.5-0.6,1-0.6,1.7c0,0.7,0.2,1.2,0.6,1.7C43.5,45.7,44.1,45.9,44.7,45.9z"/>
		<path fill="#FFFFFF" d="M50.4,49.5v-9.7h1.7V41c0.6-0.9,1.5-1.4,2.5-1.4c0.9,0,1.7,0.3,2.4,1c0.7,0.7,1,1.6,1,2.8
			c0,1.2-0.3,2.1-1,2.8c-0.7,0.7-1.5,1-2.4,1c-1,0-1.9-0.4-2.5-1.3v3.4H50.4z M54.2,45.9c0.6,0,1.1-0.2,1.5-0.7
			c0.4-0.4,0.6-1,0.6-1.7c0-0.7-0.2-1.3-0.6-1.7c-0.4-0.4-0.9-0.7-1.5-0.7c-0.6,0-1.1,0.2-1.5,0.7c-0.4,0.5-0.6,1-0.6,1.7
			c0,0.7,0.2,1.3,0.6,1.7C53.1,45.7,53.6,45.9,54.2,45.9z"/>
		<path fill="#FFFFFF" d="M62.4,47.4c-0.8,0-1.5-0.3-1.9-0.8c-0.5-0.5-0.7-1.2-0.7-2.1v-4.7h1.7V44c0,0.6,0.1,1,0.4,1.3
			c0.3,0.3,0.7,0.5,1.2,0.5c0.5,0,0.9-0.2,1.2-0.5c0.3-0.3,0.4-0.8,0.4-1.4v-4.2h1.7v7.4h-1.7v-1.2C64.1,46.9,63.3,47.4,62.4,47.4z"
			/>
		<path fill="#FFFFFF" d="M68.7,47.2v-7.4h1.5v1.1c0.8-0.9,1.4-1.3,2.4-1.3c0.8,0,1.5,0.3,2,0.8c0.5,0.5,0.8,1.2,0.8,2.1v4.7h-1.7
			V43c0-0.6-0.2-1-0.4-1.3c-0.3-0.3-0.7-0.5-1.2-0.5c-0.5,0-1,0.2-1.3,0.5c-0.3,0.3-0.5,0.8-0.5,1.4v4.2H68.7z"/>
		<path fill="#FFFFFF" d="M80.4,47.4c-0.9,0-1.7-0.3-2.4-1c-0.7-0.7-1-1.6-1-2.8c0-1.2,0.3-2.1,1-2.8c0.7-0.7,1.5-1,2.4-1
			c1,0,1.8,0.4,2.5,1.3v-4h1.7v10.2h-1.7V46C82.3,46.9,81.4,47.4,80.4,47.4z M79.3,45.2c0.4,0.4,0.9,0.7,1.5,0.7
			c0.6,0,1.1-0.2,1.5-0.7c0.4-0.5,0.6-1,0.6-1.7c0-0.7-0.2-1.3-0.6-1.7c-0.4-0.4-0.9-0.7-1.5-0.7c-0.6,0-1.1,0.2-1.5,0.7
			c-0.4,0.4-0.6,1-0.6,1.8C78.6,44.2,78.9,44.8,79.3,45.2z"/>
		<path fill="#FFFFFF" d="M90.1,47.4c-1.1,0-2-0.4-2.7-1.1c-0.7-0.7-1.1-1.7-1.1-2.8c0-1.1,0.3-2,1-2.7c0.7-0.8,1.6-1.1,2.6-1.1
			c1.1,0,2,0.4,2.6,1.1c0.6,0.8,0.9,1.8,0.9,2.9c0,0.2,0,0.3,0,0.5H88c0.1,0.6,0.3,1,0.7,1.4c0.4,0.3,0.9,0.5,1.4,0.5
			c0.7,0,1.4-0.3,2-0.9l1,0.9C92.4,46.9,91.4,47.4,90.1,47.4z M88,43h3.8c-0.1-0.6-0.2-1.1-0.6-1.4C90.9,41.2,90.5,41,90,41
			c-0.5,0-0.9,0.2-1.3,0.6C88.3,42,88.1,42.5,88,43z"/>
		<path fill="#FFFFFF" d="M95.2,47.2v-7.4H97v1.6c0.6-1.3,1.3-1.9,2.7-1.8v1.9h-0.1c-0.8,0-1.4,0.2-1.8,0.7
			c-0.5,0.5-0.7,1.2-0.7,2.2v2.8H95.2z"/>
		<path fill="#FFFFFF" d="M105.5,47.2v-9.9h1.6l5.2,6.8v-6.8h1.7v9.9h-1.4l-5.4-7v7H105.5z"/>
		<path fill="#FFFFFF" d="M119.8,47.4c-1.1,0-2-0.4-2.7-1.1c-0.7-0.7-1.1-1.7-1.1-2.8c0-1.1,0.3-2,1-2.7c0.7-0.8,1.6-1.1,2.6-1.1
			c1.1,0,2,0.4,2.6,1.1c0.6,0.8,0.9,1.8,0.9,2.9c0,0.2,0,0.3,0,0.5h-5.5c0.1,0.6,0.3,1,0.7,1.4c0.4,0.3,0.9,0.5,1.4,0.5
			c0.7,0,1.4-0.3,2-0.9l1,0.9C122.1,46.9,121.1,47.4,119.8,47.4z M117.7,43h3.8c-0.1-0.6-0.2-1.1-0.6-1.4c-0.3-0.4-0.8-0.6-1.3-0.6
			c-0.5,0-0.9,0.2-1.3,0.6C118,42,117.8,42.5,117.7,43z"/>
		<path fill="#FFFFFF" d="M127.4,47.3c-1.4,0-2.2-0.7-2.2-2.2v-3.8h-0.9v-1.5h0.9v-2.1h1.7v2.1h2.1v1.5H127v3.6c0,0.6,0.4,0.9,1,0.9
			c0.4,0,0.7-0.1,1.1-0.3V47C128.5,47.2,128,47.3,127.4,47.3z"/>
		<path fill="#FFFFFF" d="M132.5,47.2l-2.4-7.4h1.7l1.5,5.1l1.6-5.1h1.5l1.7,5.1l1.5-5.1h1.7l-2.4,7.4h-1.5l-1.7-5.1l-1.7,5.1H132.5
			z"/>
		<path fill="#FFFFFF" d="M146,47.4c-1.1,0-2.1-0.4-2.8-1.1c-0.8-0.8-1.1-1.7-1.1-2.7c0-1.1,0.4-2,1.1-2.8c0.8-0.8,1.7-1.1,2.8-1.1
			c1.1,0,2.1,0.4,2.8,1.1c0.8,0.8,1.1,1.7,1.1,2.8c0,1.1-0.4,2-1.1,2.7C148.1,47,147.1,47.4,146,47.4z M146,45.9
			c0.7,0,1.2-0.2,1.6-0.7c0.4-0.5,0.6-1,0.6-1.7c0-0.7-0.2-1.2-0.6-1.7c-0.4-0.5-1-0.7-1.6-0.7c-0.7,0-1.2,0.2-1.6,0.7
			c-0.4,0.5-0.6,1-0.6,1.7c0,0.7,0.2,1.2,0.6,1.7C144.8,45.7,145.4,45.9,146,45.9z"/>
		<path fill="#FFFFFF" d="M151.6,47.2v-7.4h1.7v1.6c0.6-1.3,1.5-1.9,2.7-1.8v1.9h0c-0.8,0-1.4,0.2-1.9,0.7c-0.5,0.5-0.7,1.2-0.7,2.2
			v2.8H151.6z"/>
		<path fill="#FFFFFF" d="M157.5,47.2V37h1.7v6.1l3.1-3.3h2.1l-3,3l3.1,4.4h-2l-2.2-3.2l-1,1.1v2.1H157.5z"/>
	</g>
</g>
</svg>
