<svg width="165" height="50" version="1.1" id="Layer_1" xmlns="http://www.w3.org/2000/svg" xmlns:xlink="http://www.w3.org/1999/xlink" x="0px" y="0px"
	 viewBox="0 0 165 50" enable-background="new 0 0 165 50" xml:space="preserve">
<g>
	<g>
		<path d="M4,38.3H0.5v-0.9h7.8v0.9H5.1v8.9H3.8v-8.8L4,38.3z M10.3,36.8h0.8v4.4c0.5-0.8,1.3-1.5,2.6-1.5c1.8,0,2.9,1.2,2.9,2.9
			v4.5h-1.1v-4.3c0-1.4-0.7-2.2-2-2.2s-2.2,0.9-2.2,2.3v4.2h-1.1V36.8H10.3z M22.3,46.6c1,0,1.7-0.4,2.3-1.1l0.7,0.6
			c-0.8,0.9-1.6,1.4-3,1.4c-2,0-3.7-1.5-3.7-3.9c0-2.2,1.4-3.9,3.5-3.9c2.2,0,3.4,1.8,3.4,3.9v0.4h-5.8C19.8,45.6,21,46.6,22.3,46.6
			z M24.4,43.2c-0.2-1.3-0.9-2.5-2.4-2.5c-1.2,0-2.2,1-2.4,2.5H24.4z M31.9,37.4h3.7c2.2,0,3.7,1.2,3.7,3.1c0,2.2-1.8,3.2-3.9,3.2
			h-2.4v3.5h-1.1L31.9,37.4L31.9,37.4z M35.5,42.7c1.6,0,2.8-0.8,2.8-2.2c0-1.4-1.1-2.1-2.7-2.1h-2.7v4.4H35.5z M40.7,43.7
			c0-2.1,1.6-3.9,3.8-3.9s3.8,1.8,3.8,3.9c0,2.1-1.6,3.9-3.8,3.9C42.3,47.6,40.7,45.8,40.7,43.7z M47.3,43.7c0-1.6-1.2-2.9-2.8-2.9
			s-2.7,1.3-2.7,2.9c0,1.5,1.2,2.9,2.7,2.9C46.2,46.6,47.3,45.3,47.3,43.7z M50.2,39.9h1.1v1.5c0.7-0.9,1.6-1.6,2.9-1.6
			c1.8,0,3.6,1.4,3.6,3.9c0,2.4-1.8,3.9-3.6,3.9c-1.4,0-2.2-0.8-2.9-1.5v3.7h-1.1V39.9z M56.7,43.7c0-1.8-1.2-2.9-2.6-2.9
			c-1.4,0-2.7,1.2-2.7,2.9s1.3,2.9,2.7,2.9C55.6,46.6,56.7,45.5,56.7,43.7z M59.7,44.6v-4.6h1.1v4.4c0,1.4,0.7,2.2,2,2.2
			c1.2,0,2.2-0.9,2.2-2.3v-4.3h1.1v7.5H65v-1.3c-0.4,0.8-1.2,1.5-2.5,1.5C60.8,47.5,59.7,46.3,59.7,44.6z M68.7,39.9h0.9v1.4
			c0.5-0.8,1.3-1.5,2.6-1.5c1.8,0,2.9,1.2,2.9,2.9v4.4h-1.1V43c0-1.4-0.7-2.2-2-2.2c-1.2,0-2.2,0.9-2.2,2.3v4.1h-1.1L68.7,39.9
			L68.7,39.9L68.7,39.9z M77,43.7c0-2.4,1.7-3.9,3.5-3.9c1.4,0,2.2,0.8,2.8,1.5v-4.6h1.1v10.4h-1.1v-1.3c-0.5,0.9-1.4,1.6-2.8,1.6
			C78.6,47.5,77,46.1,77,43.7z M83.4,43.6c0-1.7-1.3-2.9-2.7-2.9S78,41.9,78,43.6c0,1.8,1.2,2.9,2.6,2.9
			C82,46.6,83.4,45.4,83.4,43.6z M90.1,46.6c1,0,1.7-0.4,2.3-1.1l0.7,0.6c-0.8,0.9-1.6,1.4-3,1.4c-2,0-3.7-1.5-3.7-3.9
			c0-2.2,1.4-3.9,3.5-3.9c2.2,0,3.4,1.8,3.4,3.9v0.4h-5.8C87.7,45.6,88.8,46.6,90.1,46.6z M92.2,43.2c-0.2-1.3-0.9-2.5-2.4-2.5
			c-1.2,0-2.2,1-2.4,2.5H92.2z M95.2,39.9h1.1v2c0.5-1.2,1.6-2.1,2.9-2.1V41h0.1c-1.6,0-3,1.1-3,3.4v2.8h-1.1V39.9z M105.8,37.4h1.2
			l6.3,8v-8h1.1v9.8h-0.9l-6.6-8.1v8.1h-1.1V37.4z M120.2,46.6c1,0,1.7-0.4,2.3-1.1l0.7,0.6c-0.8,0.9-1.6,1.4-3,1.4
			c-2,0-3.7-1.5-3.7-3.9c0-2.2,1.4-3.9,3.5-3.9c2.2,0,3.4,1.8,3.4,3.9v0.4h-5.8C117.7,45.6,118.9,46.6,120.2,46.6z M122.3,43.2
			c-0.2-1.3-0.9-2.5-2.4-2.5c-1.2,0-2.2,1-2.4,2.5H122.3z M125.8,45.4v-4.6h-1.1v-0.9h1.1v-2.4h1.1v2.4h2.2v0.9h-2.2v4.4
			c0,0.9,0.4,1.2,1.2,1.2c0.4,0,0.7-0.1,1-0.2v0.9c-0.4,0.2-0.7,0.3-1.3,0.3C126.7,47.5,125.8,46.9,125.8,45.4z M130.5,39.9h1.2
			l1.9,6l2-6h0.9l2,6l1.9-6h1.2l-2.6,7.5H138l-2-5.8l-2,5.8h-1L130.5,39.9z M142.5,43.6c0-2,1.6-3.8,3.8-3.8c2.2,0,3.8,1.8,3.8,3.9
			c0,2.1-1.6,3.8-3.8,3.8C144.1,47.5,142.5,45.8,142.5,43.6L142.5,43.6z M149.1,43.6c0-1.6-1.2-2.8-2.8-2.8c-1.6,0-2.7,1.4-2.7,2.9
			c0,1.5,1.2,2.8,2.7,2.8C148,46.5,149.1,45.2,149.1,43.6L149.1,43.6z M152.2,39.9h1.1v2c0.5-1.2,1.6-2.1,2.9-2.1V41h0
			c-1.6,0-2.9,1.1-2.9,3.4v2.8h-1.1V39.9z M158,36.8h1.2v7.3l3.9-4.2h1.4l-3.1,3.1l3.2,4.2h-1.3l-2.6-3.4l-1.5,1.6v1.8H158L158,36.8
			L158,36.8z"/>
	</g>
	<g>
		<g>
			<path fill="#09456C" d="M129,27.2c-2-0.3-4-1.3-5.8-2.7l2.3-3.6c2,1.5,4,2.4,5.8,2.4c1.5,0,2.2-0.6,2.2-1.5
				c0-1.2-1.8-1.6-3.8-2.3c-2.5-0.8-5.4-2.1-5.4-5.9c0-3.3,1.9-5.3,4.9-6v0V6.3v0V5.2c-6,0.9-10.4,6-10.4,12.2S123,28.7,129,29.5
				v-1.1V27.2z"/>
			<path fill="#3380B3" d="M143.3,17.4c0-6.1-5.3-11.2-10.3-12.2v1.1v0v1.1v0c1,0.3,3.3,1,4.9,2.1l-2.1,3.8c-1.8-1.1-3.7-1.8-5-1.8
				c-1.3,0-1.9,0.6-1.9,1.4c0,1.1,1.7,1.6,3.7,2.4c2.5,0.9,5.7,2.2,5.7,5.8c0,3.7-2.3,5.8-5.3,6.2v0v0v0.9v0.1v1.1
				C138,28.6,143.3,23.5,143.3,17.4z"/>
		</g>
		<path fill="#09456C" d="M11.7,0H1v28h6v-8h4.1c6.2,0,11.1-3.7,11.1-10C22.2,4.3,18.2,0,11.7,0z M7,14V6h4.2c3,0,4.9,1.6,4.9,4.3
			c0,2.5-1.4,4-4.4,4"/>
		<path fill="#09456C" d="M35,6.6c-6.5,0-11.4,4.9-11.4,11c0,6.1,4.8,11,11.3,11c6.5,0,11.4-4.9,11.4-11C46.3,11.4,41.5,6.6,35,6.6z
			 M39.4,17h0.5c0,3-1.8,6.1-5.2,6.1c-3.3,0-5.4-2.6-5.4-5.7c0-3.2,1.9-6,5.4-6c3.3,0,5.3,2.6,5.3,5.6H39.4L39.4,17z"/>
		<path fill="#09456C" d="M61.5,6.7c-3.1,0-4.5,1.5-6.5,3.4V6h-6v28h6v-8.6c2,1.6,3.3,3.1,6.5,3.1c5,0,9.5-3.8,9.5-10.9
			C71,10.5,66.4,6.7,61.5,6.7z M60,23.4c-2.8,0-5-2.3-5-5.8c0-3.6,2.3-5.9,5-5.9c2.8,0,5.1,2.3,5.1,5.8C65.1,21.2,62.7,23.4,60,23.4
			z"/>
		<path fill="#3380B3" d="M73.8,17.6c0-6,4.6-11,11-11c3.9,0,6.3,1.5,8.3,3.7l-3.5,3.5c-1.3-1.2-2.5-2-4.9-2c-2.9,0-5,2.6-5,5.8
			c0,3.2,2,5.8,5.3,5.8c2,0,3.3-0.9,4.8-2.2l3.5,3.5c-2,2.2-4.4,3.8-8.5,3.8C78.3,28.5,73.8,23.7,73.8,17.6L73.8,17.6z"/>
		<path fill="none" d="M105.1,11.7c-2.8,0-5.1,2.3-5.1,5.9c0,3.5,2.4,5.8,5.1,5.8c2.8,0,5-2.3,5-5.9C110.1,14,107.9,11.7,105.1,11.7
			z"/>
		<path fill="#3380B3" d="M111,7v2.8c-2-1.6-3.7-3.1-6.9-3.1c-5,0-9.7,3.8-9.7,10.9c0,7.1,4.9,11,9.8,11c3.1,0,4.8-1.5,6.8-3.4v2.7
			v0.4V28h5v0.2v-0.4V7H111z M105.3,23.4c-2.8,0-5.1-2.3-5.1-5.8c0-3.6,2.4-5.9,5.1-5.9c2.8,0,5,2.3,5,5.8
			C110.3,21.1,108,23.4,105.3,23.4z"/>
		<path fill="#3380B3" d="M157,7c-3,0-5,1.6-6,3.4V0h-6v28h5V16.7c0-2.8,1.8-4.3,4.1-4.3c2.3,0,3.9,1.4,3.9,4.3V28h6V14.9
			C164,10,161.5,7,157,7z"/>
	</g>
</g>
</svg>
