<?xml version="1.0" encoding="utf-8"?>
<svg preserveAspectRatio="xMinYMin meet" viewBox="0 0 144 72" xmlns="http://www.w3.org/2000/svg" >
<g>
	<g>
		<g>
			<rect fill="#E3120B" width="144" height="72"/>
		</g>
	</g>
	<g>
		<path fill="#FFFFFF" d="M66.798,19.012c-0.064-2.021-0.49-2.298-3.553-2.298c-0.147,0-0.362,0-0.658,0v11.637
			c0,1.595,0.404,2.02,1.978,2.063l0.043,0.553c-1.49-0.022-2.617-0.022-3.361-0.022c-0.766,0-1.936,0-3.468,0.022l0.043-0.553
			c1.574-0.043,1.979-0.468,1.979-2.063V16.714c-0.318,0-0.597,0-0.767,0c-3.148,0-3.574,0.276-3.616,2.298l-0.787-0.043
			l0.083-3.297c2.894,0.022,5.042,0.043,6.489,0.043c1.384,0,3.489-0.02,6.276-0.043l0.085,3.297L66.798,19.012L66.798,19.012z
			 M77.6,30.882c-0.596,0-1.468,0.043-2.64,0.085l0.043-0.51c1.129-0.171,1.234-0.384,1.255-2.277v-1.34v-1.894
			c0-2.68-0.468-3.574-1.872-3.574c-0.788,0-1.596,0.489-1.936,1.234c-0.127,0.255-0.212,0.531-0.299,0.809
			c-0.02,0.105-0.02,0.191-0.02,0.233v3.192v1.34c0,1.894,0.127,2.106,1.256,2.277l0.042,0.51c-1.191-0.043-2.063-0.085-2.659-0.085
			c-0.617,0-1.553,0.043-2.766,0.085l0.042-0.51c1.425,0,1.617-0.277,1.639-2.277v-1.34v-7.042v-1.34
			c-0.022-2-0.213-2.276-1.639-2.276l-0.042-0.512c1.936-0.105,2.383-0.169,4.127-0.49v6.595c1.127-1.254,2.083-1.745,3.341-1.745
			c2.084,0,3.231,1.319,3.231,3.744v3.064v1.34c0.022,2,0.214,2.278,1.64,2.278l0.042,0.509
			C79.152,30.925,78.216,30.882,77.6,30.882L77.6,30.882z M84.382,24.968c0.084,3.233,1.255,5.064,3.213,5.064
			c1.169,0,2.147-0.532,3.192-1.745l0.319,0.595c-1.32,1.638-2.618,2.32-4.318,2.32c-2.958,0-4.958-2.17-4.958-5.382
			c0-3.425,2.063-5.787,5.042-5.787c1.637,0,2.786,0.596,3.573,1.894c0.533,0.894,0.681,1.51,0.704,3.041H84.382L84.382,24.968z
			 M86.466,20.777c-1.276,0-1.934,1.063-2.148,3.381c1.956-0.042,2.553-0.084,4.532-0.296
			C88.595,21.798,87.807,20.777,86.466,20.777L86.466,20.777z M18.827,51.161c2.664,0,3.444-0.59,3.68-2.878l0.944,0.047
			l-0.543,3.963l-1.818,0.023l-5.781-0.047l-3.917,0.023l0.072-0.612c1.722-0.047,2.17-0.52,2.17-2.29V38.232
			c0-1.768-0.448-2.24-2.17-2.287l-0.072-0.613l3.658,0.047l5.757-0.071l1.51,0.024l0.094,3.469l-0.944,0.069
			c-0.164-2.147-0.567-2.381-3.963-2.381c-0.188,0-0.354,0-0.52,0l-0.235,0.022v6.417c0.448,0,0.802,0.024,1.015,0.024
			c0.377,0.022,0.731,0.047,1.085,0.047c1.886,0,2.312-0.401,2.336-2.194h0.802c-0.07,1.439-0.07,2.17-0.07,2.878
			c0,0.564,0,1.368,0.024,2.43h-0.755c-0.095-1.699-0.472-2.029-2.288-2.051l-1.275-0.026l-0.896,0.05v4.977
			C16.727,51.067,16.844,51.161,18.827,51.161L18.827,51.161z M32.01,40.994c-1.77,0-2.69,1.581-2.69,4.624
			c0,3.585,1.109,5.592,3.114,5.592c1.039,0,1.911-0.45,2.832-1.44l0.354,0.848c-1.346,1.393-2.455,1.935-4.012,1.935
			c-3.114,0-5.144-2.43-5.144-6.133c0-3.822,2.147-6.251,5.545-6.251c0.895,0,1.815,0.164,3.23,0.542l0.048,2.831l-1.062,0.069
			C33.802,41.488,33.378,40.994,32.01,40.994L32.01,40.994z M43.896,52.553c-3.373,0-5.638-2.265-5.757-5.732
			c0-0.118,0-0.236,0-0.354c0-3.986,2.148-6.298,5.828-6.298c3.421,0,5.829,2.547,5.829,6.205
			C49.794,50.077,47.458,52.553,43.896,52.553L43.896,52.553z M43.613,41.063c-1.723,0-2.597,1.487-2.597,4.436
			c0,0.354,0,0.708,0.048,1.062c0.235,3.374,1.344,5.189,3.161,5.189c1.699,0,2.713-1.768,2.713-4.74
			C46.939,43.518,45.547,41.063,43.613,41.063L43.613,41.063z M60.336,52.293l0.047-0.566c1.249-0.188,1.392-0.425,1.392-2.525
			l0.023-1.487v-2.098c0-2.974-0.543-3.965-2.077-3.965c-0.918,0-1.697,0.497-2.17,1.368c-0.189,0.354-0.354,0.921-0.354,1.157
			v3.538v1.487c0.025,2.1,0.142,2.336,1.394,2.525l0.07,0.566c-1.296-0.046-4.639-0.047-6.04,0l0.047-0.566
			c1.581,0,1.816-0.306,1.816-2.525v-1.487V45.24v-1.51c0-2.195-0.235-2.501-1.816-2.523l-0.047-0.543
			c2.1-0.117,2.571-0.189,4.364-0.567l0.119,2.124c1.344-1.51,2.381-2.051,3.821-2.051c2.288,0,3.585,1.485,3.585,4.152v2.854
			c0,1.32,0,1.982,0,2.029c-0.023,0.188-0.023,0.377-0.023,0.566c0,1.509,0.4,1.958,1.839,1.958l0.048,0.566
			C64.958,52.246,61.591,52.248,60.336,52.293L60.336,52.293z M74.207,52.553c-3.373,0-5.639-2.265-5.756-5.732
			c0-0.118,0-0.236,0-0.354c0-3.986,2.146-6.298,5.827-6.298c3.42,0,5.826,2.547,5.826,6.205
			C80.103,50.077,77.769,52.553,74.207,52.553L74.207,52.553z M73.924,41.063c-1.722,0-2.595,1.487-2.595,4.436
			c0,0.354,0,0.708,0.046,1.062c0.236,3.374,1.344,5.189,3.163,5.189c1.699,0,2.713-1.768,2.713-4.74
			C77.25,43.518,75.859,41.063,73.924,41.063L73.924,41.063L73.924,41.063z M97.747,52.293l0.048-0.566
			c1.25-0.188,1.368-0.425,1.393-2.525v-1.487v-2.098c0-2.927-0.519-3.965-1.983-3.965c-0.872,0-1.77,0.567-2.146,1.368
			c-0.117,0.284-0.236,0.567-0.308,0.898c-0.022,0.116-0.047,0.212-0.047,0.259v3.538v1.487c0,2.1,0.141,2.336,1.393,2.525
			l0.047,0.566c-1.282-0.047-4.388-0.046-5.592,0l0.048-0.566c1.25-0.188,1.368-0.425,1.391-2.525v-1.487v-2.098
			c0-2.927-0.517-3.965-1.981-3.965c-0.897,0-1.699,0.521-2.147,1.368c-0.188,0.377-0.354,0.921-0.354,1.157v3.538v1.487
			c0.022,2.1,0.142,2.336,1.392,2.525l0.049,0.566c-1.27-0.046-4.612-0.047-6.017,0l0.047-0.566c1.581,0,1.817-0.306,1.817-2.525
			v-1.487V45.24v-1.51c0-2.195-0.236-2.501-1.817-2.523l-0.047-0.543c2.1-0.117,2.572-0.189,4.364-0.567l0.118,2.123
			c1.344-1.487,2.382-2.05,3.773-2.05c1.605,0,2.55,0.66,3.257,2.241c1.438-1.651,2.501-2.241,3.939-2.241
			c2.242,0,3.516,1.508,3.516,4.152v2.854c0,1.297,0,1.958,0,2.029c0,0.188-0.023,0.377-0.023,0.566c0,1.509,0.425,1.958,1.84,1.958
			l0.048,0.566C102.337,52.244,98.994,52.248,97.747,52.293L97.747,52.293L97.747,52.293z M109.231,52.199
			c-0.707,0-1.768,0.047-3.208,0.094l0.048-0.566c1.582,0,1.817-0.306,1.817-2.524l0.023-1.487v-2.477l-0.023-1.511
			c0-2.193-0.235-2.5-1.817-2.523l-0.048-0.542c2.171-0.143,2.666-0.212,4.577-0.566v7.62l0.023,1.487
			c0,2.218,0.212,2.524,1.816,2.524l0.049,0.566C111.025,52.246,109.964,52.199,109.231,52.199L109.231,52.199z M109.136,37.762
			c-0.895,0-1.581-0.684-1.581-1.605c0-0.897,0.708-1.605,1.581-1.605c0.874,0,1.581,0.731,1.581,1.605
			C110.717,37.053,110.034,37.762,109.136,37.762L109.136,37.762z M119.231,40.994c-1.062,0-1.818,0.611-1.818,1.487
			c0,0.825,0.377,1.32,1.603,2.098c1.11,0.731,1.984,1.393,2.574,1.912c0.66,0.636,1.038,1.44,1.038,2.357
			c0,2.101-1.77,3.705-4.035,3.705c-0.872,0-1.699-0.189-3.208-0.684l-0.095-2.408l1.203-0.047c0.542,1.818,0.897,2.171,2.148,2.171
			c1.084,0,1.792-0.567,1.792-1.416c0-0.803-0.496-1.416-1.982-2.432c-0.754-0.518-1.273-0.871-1.557-1.083
			c-0.614-0.473-1.061-1.037-1.297-1.675c-0.143-0.354-0.212-0.777-0.212-1.273c0-2.147,1.461-3.538,3.68-3.538
			c0.826,0,1.296,0.07,3.207,0.518l0.049,2.382l-1.204,0.049C120.835,41.535,120.34,40.994,119.231,40.994L119.231,40.994z
			 M131.31,51.326c0.377,0,0.73-0.048,1.296-0.213v0.685c-0.802,0.448-1.91,0.707-3.042,0.707c-1.039,0-2.029-0.588-2.454-1.461
			c-0.353-0.731-0.471-1.463-0.471-3.066v-6.04h-1.509V40.85c1.864-0.141,2.594-0.943,3.137-3.397h1.062v3.186h2.971l-0.33,1.299
			h-2.641v5.801C129.329,50.643,129.705,51.326,131.31,51.326L131.31,51.326z"/>
	</g>
</g>
</svg>
