<?xml version="1.0" encoding="UTF-8" standalone="no"?>
<svg width="124px" height="20px" viewBox="0 0 124 20" version="1.1" xmlns="http://www.w3.org/2000/svg" xmlns:xlink="http://www.w3.org/1999/xlink">
    <!-- Generator: Sketch 43.2 (39069) - http://www.bohemiancoding.com/sketch -->
    <title>Logo/UEFA.com</title>
    <desc>Created with Sketch.</desc>
    <defs></defs>
    <g id="Symbols" stroke="none" stroke-width="1" fill="none" fill-rule="evenodd">
        <g id="Logo/UEFA.com" fill="#000000">
            <path d="M69.4201379,19.5048734 L69.4201379,17.0330465 L71.3798842,17.0330465 L71.3798842,19.5048734 L69.4201379,19.5048734 Z M5.07236599,14.5839172 C5.85778691,15.3949422 7.09854438,15.8392067 8.41888193,15.8378227 C9.73852749,15.8405907 10.979977,15.3949422 11.7647059,14.5839172 C12.726587,13.6040441 13.0345274,12.6241709 13.0303754,10.5550885 L13.0324514,0 L16.8363799,0 L16.8363799,11.5425736 C16.8329199,13.9555805 16.124311,15.8219067 14.6676493,17.2453523 C13.0248394,18.8549462 11.009733,19.6078431 8.41888193,19.6147631 C5.82664688,19.6078431 3.8129245,18.8549462 2.17011456,17.2453523 C0.713452842,15.8219067 0.0041520049,13.9555805 0,11.5439576 L0,0 L3.80462049,0 L3.80738849,10.5550885 C3.80323649,12.6241709 4.11117685,13.6040441 5.07236599,14.5839172 Z M33.5322836,3.58940824 L23.8954802,3.58940824 L23.8954802,7.98361342 L32.7143386,7.98361342 L32.7143386,11.5197376 L23.8954802,11.5197376 L23.8954802,13.3729158 C23.8954802,15.4136262 24.606857,15.9153268 26.4378912,15.9153268 L33.5322836,15.9153268 L33.5322836,19.504735 L26.2233709,19.504735 C22.8367189,19.504735 20.0908597,17.9857932 20.0908597,13.7811963 L20.0908597,1.43036569 C20.0908597,0.523152617 20.6908244,0 21.5219174,0 L33.5322836,0 L33.5322836,3.58940824 Z M39.9727352,11.5197376 L39.9789632,19.504735 L37.5991724,19.504735 C36.7673874,19.504735 36.1688067,18.9815824 36.1688067,18.0736773 L36.1688067,5.72423075 C36.1688067,1.52032579 38.9139739,0 42.3006259,0 L49.6088465,0 L49.6088465,3.58940824 L42.5151462,3.58940824 C40.68342,3.58940824 39.9727352,4.09110883 39.9727352,6.13320324 L39.9720432,7.98361342 L48.7922856,7.98361342 L48.7922856,11.5197376 L39.9727352,11.5197376 Z M57.62706,0.00553600653 C58.7474093,0.00553600653 59.1190138,0.5930447 59.35983,1.2732815 L66.5068145,19.507503 L62.4233177,19.508887 L61.01648,15.9222468 L56.3634665,15.9222468 L57.635364,12.3307626 L59.6096423,12.3307626 L57.1066754,5.94705502 L52.3041897,19.508887 L48.4961092,19.507503 L54.9545528,1.2732815 C55.1946771,0.593736701 55.5655896,0.00553600653 56.6873229,0.00553600653 L57.62706,0.00553600653 Z M83.9540927,9.61998775 C83.4759201,7.4540252 82.1535065,6.13161164 79.8463758,6.13161164 C76.4431158,6.13161164 74.7553258,9.22623929 74.7553258,12.3201749 C74.7553258,15.4154946 76.4431158,18.5087382 79.8463758,18.5087382 C82.0414024,18.5087382 83.8419885,16.7939602 84.0661968,14.3747254 L85.8384109,14.3747254 C85.3609303,17.8631015 83.0821716,20 79.8463758,20 C75.4030386,20 72.9831117,16.4839439 72.9831117,12.3201749 C72.9831117,8.15779003 75.4030386,4.64104188 79.8463758,4.64104188 C82.9416955,4.64104188 85.3325583,6.30045983 85.7263068,9.61998775 L83.9540927,9.61998775 Z M101.31065,12.3200365 C101.31065,16.4844975 98.8914147,19.9998616 94.4473854,19.9998616 C90.0026642,19.9998616 87.5827373,16.4844975 87.5827373,12.3200365 C87.5827373,8.15765163 90.0026642,4.64090348 94.4473854,4.64090348 C98.8914147,4.64090348 101.31065,8.15765163 101.31065,12.3200365 Z M89.3549514,12.3200365 C89.3549514,15.4153562 91.0427414,18.5085998 94.4473854,18.5085998 C97.8506455,18.5085998 99.5391275,15.4153562 99.5391275,12.3200365 C99.5391275,9.22610089 97.8506455,6.13147324 94.4473854,6.13147324 C91.0427414,6.13147324 89.3549514,9.22610089 89.3549514,12.3200365 Z M103.442289,5.06316237 L105.073335,5.06316237 L105.073335,7.51007726 L105.158451,7.51007726 C106.087116,5.7662352 107.60675,4.64104188 109.912496,4.64104188 C111.824495,4.64104188 113.541349,5.56901497 114.076265,7.48239723 C114.948186,5.56901497 116.777145,4.64104188 118.689143,4.64104188 C121.868195,4.64104188 123.499241,6.30045983 123.499241,9.73278388 L123.499241,19.5778795 L121.727718,19.5778795 L121.727718,9.81720798 C121.727718,7.42565316 120.827425,6.13161164 118.294702,6.13161164 C115.229139,6.13161164 114.357218,8.66364262 114.357218,11.3645218 L114.357218,19.5778795 L112.584312,19.5778795 L112.584312,9.73278388 C112.612684,7.76334956 111.797507,6.13161164 109.54712,6.13161164 C106.480864,6.13161164 105.242875,8.43805036 105.214503,11.4766259 L105.214503,19.5778795 L103.442289,19.5778795 L103.442289,5.06316237 Z" id="Combined-Shape"></path>
        </g>
    </g>
</svg>