<svg xmlns="http://www.w3.org/2000/svg" viewBox="0 180 612 612" enable-background="new 0 180 612 612"><radialGradient id="a" cx="130.802" cy="895.869" r="968.776" gradientTransform="matrix(.539 -.842 .618 .395 -492.923 652.145)" gradientUnits="userSpaceOnUse"><stop offset="0" stop-color="#F9ED32"/><stop offset=".53" stop-color="#FF4700"/><stop offset=".72" stop-color="#EE2A7B"/><stop offset="1" stop-color="#002AFF"/></radialGradient><path fill="url(#a)" d="M43.7 180h524.6c24.2 0 43.7 19.6 43.7 43.7v524.6c0 24.2-19.6 43.7-43.7 43.7h-524.6c-24.1 0-43.7-19.6-43.7-43.7v-524.6c0-24.1 19.6-43.7 43.7-43.7z"/><g fill="#fff" stroke="#fff" stroke-miterlimit="10"><path stroke-width="8" d="M413.9 721.5h-215.8c-70.3 0-127.6-57.2-127.6-127.6v-215.8c0-70.3 57.2-127.6 127.6-127.6h215.9c70.3 0 127.6 57.2 127.6 127.6v215.9c-.1 70.3-57.3 127.5-127.7 127.5zm-215.8-431.7c-48.7 0-88.3 39.6-88.3 88.3v215.9c0 48.7 39.6 88.3 88.3 88.3h215.9c48.7 0 88.3-39.6 88.3-88.3v-215.9c0-48.7-39.6-88.3-88.3-88.3h-215.9zm107.9 314c-64.9 0-117.8-52.8-117.8-117.8 0-64.9 52.8-117.8 117.8-117.8 64.9 0 117.8 52.8 117.8 117.8 0 64.9-52.9 117.8-117.8 117.8zm0-196.3c-43.3 0-78.5 35.2-78.5 78.5s35.2 78.5 78.5 78.5 78.5-35.2 78.5-78.5-35.2-78.5-78.5-78.5z"/><circle stroke-width="9" cx="427.7" cy="364.3" r="25"/></g></svg>
