<svg xmlns="http://www.w3.org/2000/svg" viewBox="-735 237 28 28"><path fill="#fff" d="M-733 237h24c1.105 0 2 .895 2 2v24c0 1.105-.895 2-2 2h-24c-1.105 0-2-.895-2-2v-24c0-1.105.895-2 2-2z"/><path fill="#BD081C" d="M-721.115 241.23c-5.459 0-9.885 4.425-9.885 9.885 0 4.188 2.605 7.765 6.282 9.205-.087-.782-.164-1.982.035-2.835.179-.772 1.159-4.914 1.159-4.914s-.296-.592-.296-1.467c0-1.375.797-2.401 1.789-2.401.843 0 1.25.633 1.25 1.392 0 .848-.54 2.116-.819 3.292-.233.984.494 1.786 1.464 1.786 1.757 0 3.107-1.853 3.107-4.527 0-2.367-1.701-4.021-4.129-4.021-2.813 0-4.464 2.109-4.464 4.29 0 .85.327 1.761.736 2.256.081.098.093.184.068.284l-.275 1.121c-.043.181-.143.219-.33.132-1.235-.575-2.007-2.379-2.007-3.829 0-3.118 2.265-5.982 6.531-5.982 3.429 0 6.094 2.444 6.094 5.709 0 3.407-2.148 6.148-5.13 6.148-1.001 0-1.943-.521-2.265-1.135l-.616 2.35c-.223.859-.825 1.935-1.228 2.591.925.286 1.908.441 2.927.441 5.459 0 9.885-4.425 9.885-9.885s-4.424-9.886-9.883-9.886"/></svg>
