<svg xmlns="http://www.w3.org/2000/svg" viewBox="-735 237 28 28"><path fill="#55ACEE" d="M-733 237h24c1.105 0 2 .895 2 2v24c0 1.105-.895 2-2 2h-24c-1.105 0-2-.895-2-2v-24c0-1.105.895-2 2-2z"/><path fill="#fff" d="M-711.351 245.296c-.712.302-1.476.505-2.279.597.819-.469 1.448-1.213 1.745-2.098-.767.435-1.616.75-2.52.92-.724-.737-1.755-1.198-2.896-1.198-2.192 0-3.968 1.698-3.968 3.792 0 .297.035.587.103.864-3.298-.158-6.222-1.668-8.179-3.962-.342.56-.537 1.211-.537 1.906 0 1.316.701 2.476 1.765 3.156-.651-.02-1.262-.19-1.797-.474v.048c0 1.837 1.368 3.37 3.183 3.718-.333.087-.684.133-1.045.133-.256 0-.504-.024-.747-.068.505 1.507 1.97 2.603 3.707 2.634-1.358 1.017-3.069 1.623-4.928 1.623-.32 0-.636-.018-.947-.053 1.756 1.076 3.842 1.704 6.083 1.704 7.299 0 11.29-5.778 11.29-10.79l-.011-.491c.774-.533 1.446-1.201 1.978-1.961"/></svg>
