<svg width="25" height="25" viewBox="0 0 25 25" xmlns="http://www.w3.org/2000/svg"><defs><linearGradient x1="55.855%" y1="15.097%" x2="47.418%" y2="92.173%" id="a"><stop stop-color="#F6AF41" offset="0%"/><stop stop-color="#E6803B" offset="100%"/></linearGradient><linearGradient x1="6.473%" y1="49.995%" x2="97.182%" y2="49.995%" id="b"><stop stop-color="#DAD7D3" offset="0%"/><stop stop-color="#495457" offset="25%"/><stop stop-color="#DEDEDD" offset="50%"/><stop stop-color="#8E949A" offset="75%"/><stop stop-color="#F1F0F1" offset="100%"/></linearGradient></defs><g fill="none" fill-rule="evenodd"><rect fill="#FFF" width="25" height="25" rx="4"/><g fill-rule="nonzero"><g fill="#F47524"><path d="M20.778 12.423L16.45 3.71s-.435-.62-1.125-.334c-.69.287-11.747 5.385-11.747 5.385s-.435.268-.206.872.71 1.79.71 1.79.3.783.55 1.006c0 0 3.825 2.1 7.993 2.033 0 0 3.367.199 7.741-1.206 0-.006.687-.28.412-.833z"/><path d="M13.068 14.666c-.255 0-.41-.007-.447-.01-4.173.06-8.052-2.037-8.09-2.058l-.038-.027c-.281-.249-.573-.995-.604-1.083 0-.008-.483-1.19-.71-1.791-.229-.602.089-.989.289-1.11l.022-.013c.45-.208 11.072-5.097 11.755-5.386.666-.282 1.194.142 1.375.407l.015.025 4.328 8.711c.097.179.112.39.04.58-.134.344-.516.504-.56.52h-.013c-3.436 1.115-6.289 1.235-7.362 1.235zm-.44-.411h.01c.035 0 3.379.18 7.657-1.194a.65.65 0 0 0 .326-.292.311.311 0 0 0-.027-.26l-4.321-8.696c-.061-.08-.378-.458-.863-.254-.665.281-11.262 5.158-11.728 5.373-.05.036-.27.224-.116.627.226.597.704 1.771.709 1.783.106.28.325.76.481.917.319.169 3.968 2.06 7.867 1.99l.006.006h-.001z"/></g><path d="M17.778 9.423L13.45.71s-.435-.62-1.125-.334C11.635.663.578 5.761.578 5.761s-.435.268-.206.872.71 1.79.71 1.79.3.783.55 1.006c0 0 3.825 2.1 7.993 2.033 0 0 3.367.199 7.741-1.206 0-.006.687-.28.412-.833z" fill="url(#a)" transform="translate(3 3)"/><path d="M17.39 14.54c-.1.01-9.886.961-15.432-4.254l-.491-.463 1.726 7.61c.042.247.174.47.371.624.239.164.534.223.818.165.22-.02.44-.05.658-.092.298-.058 3.556-.776 4.47-.977 0 .38-.122 1.26-1.095 2.347L8 19.963l.615-.135c.135-.03 3.277-.747 4.056-3.256l3.9-.584.031-.007c.038-.012.934-.298 1.014-1.225l.02-.243-.247.026.001.001z" fill="url(#b)" transform="translate(3 3)"/><path d="M4.815 13.43l1.58 6.966s.092.76.962.626a6.17 6.17 0 0 0 .641-.09c.343-.066 4.696-1.028 4.696-1.028s.274 1.162-1.123 2.726c0 0 3.253-.715 3.94-3.239l4.03-.603s.802-.246.87-1.05c0 .001-9.916 1.034-15.596-4.307v-.001z" fill="#0A0808"/></g></g></svg>