<svg width="24" height="24" viewBox="0 0 24 24" xmlns="http://www.w3.org/2000/svg"><title>Group</title><g fill="none" fill-rule="evenodd"><path d="M8.616 23.47c1.066.344 2.63-.857 3.81-.857C17.614 18.92 23 19.075 23 13c0-6.075-4.925-11-11-11S1 6.925 1 13c0 4.894 3.197 9.042 7.616 10.47z" fill="#FFF"/><path d="M0 12c0 5.084 3.163 9.426 7.627 11.174-.105-.95-.2-2.405.042-3.442.217-.936 1.406-5.965 1.406-5.965s-.36-.72-.36-1.78c0-1.67.968-2.915 2.172-2.915 1.024 0 1.518.768 1.518 1.69 0 1.03-.655 2.57-.993 3.995-.283 1.195.598 2.17 1.776 2.17 2.132 0 3.772-2.25 3.772-5.496 0-2.872-2.065-4.882-5.013-4.882-3.415 0-5.42 2.562-5.42 5.208 0 1.032.398 2.138.894 2.74.098.117.112.222.083.343-.09.378-.293 1.193-.333 1.36-.053.22-.174.266-.4.16-1.5-.697-2.437-2.89-2.437-4.65 0-3.784 2.75-7.26 7.93-7.26 4.16 0 7.396 2.966 7.396 6.93 0 4.136-2.607 7.464-6.227 7.464-1.215 0-2.36-.63-2.75-1.378 0 0-.602 2.292-.748 2.853-.27 1.04-1.002 2.348-1.49 3.145C9.57 23.812 10.762 24 12 24c6.627 0 12-5.372 12-12 0-6.627-5.373-12-12-12S0 5.373 0 12z" fill="#BD081C"/></g></svg>