<?xml version="1.0" encoding="utf-8"?>
<!-- Generator: Adobe Illustrator 16.0.3, SVG Export Plug-In . SVG Version: 6.00 Build 0)  -->
<!DOCTYPE svg PUBLIC "-//W3C//DTD SVG 1.1//EN" "http://www.w3.org/Graphics/SVG/1.1/DTD/svg11.dtd">
<svg version="1.1" id="Layer_1" xmlns="http://www.w3.org/2000/svg" xmlns:xlink="http://www.w3.org/1999/xlink" x="0px" y="0px"
	 width="82.874px" height="150.916px" viewBox="0 0 82.874 150.916" enable-background="new 0 0 82.874 150.916"
	 xml:space="preserve">
<g>
	<path fill="#FFFFFF" d="M-28.578,21.59c-0.398-0.136-0.806-0.215-1.221-0.215C-29.799,21.375-29.319,21.449-28.578,21.59z"/>
	<path fill="#FFFFFF" d="M82.371,43.688c0.804-1.206,0.402-1.81,0.402-1.81c-2.011,2.212-5.227,3.016-5.227,3.016
		c-6.835,1.206-7.237-5.628-7.237-5.628c-4.021-10.855,9.247-24.123,9.247-24.123c2.011-2.412,2.814-6.03,2.814-6.03
		C61.662,22.513,61.098,35.246,61.098,35.246c-0.494,3.354-2.447,2.813-2.447,2.813c-7.279-3.119-9.648-7.639-9.648-7.639
		c-2.412,5.227,4.02,17.69,4.02,17.69c3.217,9.247-1.607,8.442-1.607,8.442c-7.237,0-6.835-5.227-6.835-5.227
		c-1.608,5.629,2.412,13.268,2.412,13.268c2.412,6.433-2.01,10.453-2.01,10.453c-7.137,5.428-8.242-0.401-8.242-0.401
		c-2.412,5.427-6.03,8.644-6.03,8.644c-10.052,6.433-9.851-3.016-9.851-3.016c-3.016,0.804-6.231,12.263-6.231,12.263
		c-2.613,4.222-5.025-0.201-5.025-0.201c-2.212-6.232,2.211-8.644,2.211-8.644c-4.423-6.835,3.618-6.634,3.618-6.634
		c-3.216-6.031,8.443-4.825,8.443-4.825c-5.629-5.428,7.236-6.433,7.236-6.433c-6.231-3.016,4.222-8.241,4.222-8.241
		c-6.634-4.021,4.423-6.835,4.423-6.835c-1.006-1.608-5.025-0.604-5.025-0.604c-2.614-1.608,3.216-6.231,3.216-6.231
		c-2.613-1.407-5.227,0.804-5.227,0.804c-0.804,0.805-1.206,0.402-1.206,0.402c-2.211-4.021,1.005-8.041,1.005-8.041
		c-2.661,0.688-3.417,1.81-3.417,1.81c-0.604,0.804-1.407,0.201-1.407,0.201c-3.819-2.613-0.201-6.835-0.201-6.835
		c-5.428,1.608-4.422-2.211-4.422-2.211c1.205-7.036,8.442-8.846,8.442-8.846C26.89,20.37,19.25,25.999,19.25,25.999
		c-1.206,0.603-1.206-0.805-1.206-0.805c0-1.81-0.402-6.433-0.402-6.433c0,0.604-4.02,5.227-4.02,5.227
		c-0.402,0.604-1.81,0.201-1.81,0.201c0.402-1.608,0-6.433,0-6.433c0-2.211-0.804-1.608-0.804-1.608
		c-2.212,0.804-5.629,5.829-5.629,5.829c-1.005,1.81-2.011,0-2.011,0c-0.804-1.809-0.804-2.612-0.804-2.612
		c-1.005-1.608-0.603-3.016-0.603-3.016c0-1.608-0.805-1.206-0.805-1.206c-2.613,1.005-3.417,7.639-3.417,7.639
		c-1.005,2.814-2.011,0-2.011,0c-3.015-4.824-6.433-6.835-6.433-6.835c0,6.03,1.241,8.409,1.241,8.409
		c0.362,2.361-1.241,0.838-1.241,0.838c-3.015-4.423-6.433-5.829-6.433-5.829c-0.201,2.01,1.81,8.242,1.81,8.242
		c-0.266,2.174-1.407,1.005-1.407,1.005c-2.412-3.618-5.025-5.026-5.025-5.026c-1.967-0.982-5.104-1.67-6.82-1.996
		c4.232,1.445,7.423,9.836,7.423,9.836c0.402,3.619-5.201,0.183-5.201,0.183c4.021,9.247-4.85,5.446-4.85,5.446
		c1.206,1.407,1.407,5.629,1.407,5.629c1.206,3.217-1.206,2.412-1.206,2.412c0-0.603-6.03-1.608-6.03-1.608
		c1.607,1.407,6.244,6.726,3.216,6.434c-3.116-0.302-4.824,1.205-4.824,1.205c1.407-0.401,3.618,0.604,3.618,0.604
		c7.458,3.729-0.289,6.634-0.289,6.634s0.001,0.94,1.294,1.206c0,0,12.463,2.714,3.719,6.231c0,0,15.479,1.005,8.694,6.885
		c0,0,10.202-1.055,8.896,3.468l-0.761,1.841c8.294-0.193,3.374,6.301,3.374,6.301c6.146,2.815,2.01,9.649,2.01,9.649
		c-4.021,4.422-7.148-3.129-7.148-3.129c-1.206-7.639-4.912-10.541-4.912-10.541c-0.219,1.937-1.608,4.423-1.608,4.423
		c-6.451,7.804-13.425-9.982-13.425-9.982c-0.402,1.608-3.06,3.147-3.06,3.147c-9.246-0.402-6.433-14.474-6.433-14.474
		c1.608-3.618,0.805-11.659,0.805-11.659c0.401,1.608-6.433,5.629-6.433,5.629c-6.433,0-1.206-12.062-1.206-12.062
		c2.412-3.217,3.216-15.277,3.216-15.277c-0.402,2.412-5.227,6.834-5.227,6.834c-6.03,2.814-8.443-4.824-8.443-4.824
		c-8.876-16.703-15.365-19.597-15.365-19.597c-2.33-1.762-6.03-3.216-6.03-3.216c0.401,2.412,6.433,10.594,6.433,10.594l2.902,4.108
		c2.45,2.677,4.824,13.739,4.824,13.739c2.036,13.438-11.659,6.03-11.659,6.03c0.402,4.824,14.141,14.474,14.141,14.474
		c7.149,7.879,0.333,11.659,0.333,11.659c-8.374,3.569-9.021,6.433-9.021,6.433c11.258-1.206,15.856,3.217,15.856,3.217
		c11.659,8.845-4.423,14.875-4.423,14.875c8.845,0.805,12.325-2.079,12.325-2.079c3.594-1.971,6.973-1.137,6.973-1.137
		c9.247,3.618-6.03,12.865-6.03,12.865c4.021,1.608,10.855-2.011,10.855-2.011c5.628-5.628,9.246-4.021,9.246-4.021
		c10.454,2.814-1.607,12.866-1.607,12.866c3.618,0.402,9.648-2.814,9.648-2.814c15.077-4.021,10.052,3.217,10.052,3.217
		c11.257,2.612,0.401,10.051,0.401,10.051c10.052,6.03,0.402,12.463,0.402,12.463s4.062,3.612,1.837,7.092
		c-2.737,4.28-14.503,8.427-21.841,8.427v1.651h66.945v-1.651c-7.338,0-18.931-4.262-21.841-8.427
		c-2.489-3.563,0.229-7.694,0.229-7.694c-7.237-5.629,0-11.057,0-11.057c-7.64-8.442,1.206-10.453,1.206-10.453
		c-1.608-7.237,6.03-5.227,6.03-5.227c12.865,6.835,14.876,2.814,14.876,2.814c-7.237-0.402-8.443-5.629-8.443-5.629
		c-1.206-8.442,9.649-5.227,9.649-5.227c12.865,8.443,14.875,4.021,14.875,4.021c-9.648-2.814-8.442-7.639-8.442-7.639
		c-1.608-7.639,14.876-1.608,14.876-1.608c4.422,0.402,6.433-1.206,6.433-1.206c-4.423-0.401-6.835-4.02-6.835-4.02
		c-3.217-4.021,0.402-6.031,0.402-6.031c5.227-8.442,19.298-5.227,19.298-5.227c-1.876-5.104-10.052-7.57-10.052-7.57
		c-5.829-4.623-0.603-10.119-0.603-10.119C72.521,54.142,82.371,43.688,82.371,43.688z M33.783,45.404
		c0.973,0.057-0.917,2.684-0.917,2.684c-1.024,0.908-1.169-0.575-1.169-0.575C32.551,45.828,33.783,45.404,33.783,45.404z
		 M31.254,53.032c1.175-1.814,2.206-1.592,2.206-1.592c0.979,0.244-1.226,2.449-1.226,2.449
		C31.01,54.503,31.254,53.032,31.254,53.032z M-15.463,51.793c0,0,0.351-0.852,1.606-0.019c0,0,2.275,1.526,3.083,2.834
		c0,0,0.816,0.452-1.444,0.874c0,0-0.47,2.525-1.475,3.951c0,0-0.59,0.883-1.431-0.493C-15.123,58.94-16.926,54.547-15.463,51.793z
		 M-17.298,51.061c0,0-0.251,2.193-1.027,3.477c0,0-0.452,0.792-1.256-0.337c0,0-1.81-3.658-0.72-6.108c0,0,0.249-0.75,1.376-0.111
		c0,0,2.042,1.172,2.813,2.244C-16.111,50.225-15.385,50.563-17.298,51.061z M-10.79,45.365c0,0,0.21-0.819,1.46-0.223
		c0,0,2.265,1.099,3.167,2.185c0,0,0.8,0.308-1.202,0.98c0,0-0.104,2.357-0.837,3.783c0,0-0.424,0.879-1.364-0.266
		C-9.566,51.825-11.769,48.059-10.79,45.365z M4.45,47.688c0,0-0.164,2.663-1.021,4.261c0,0-0.496,0.984-1.537-0.327
		c0,0-2.416-4.303-1.256-7.328c0,0,0.254-0.922,1.655-0.223c0,0,2.539,1.286,3.537,2.532C5.829,46.604,6.729,46.967,4.45,47.688z
		 M6.342,48.135c0,0,0.591-0.802,1.692,0.402c0,0,1.989,2.199,2.495,3.782c0,0,0.739,0.689-1.745,0.541c0,0-1.154,2.528-2.584,3.763
		c0,0-0.851,0.773-1.373-0.892C4.827,55.731,4.084,50.646,6.342,48.135z M-0.974,43.787c0,0-0.117,2.646-0.939,4.247
		c0,0-0.476,0.986-1.532-0.298c0,0-2.472-4.229-1.373-7.252c0,0,0.235-0.919,1.639-0.249c0,0,2.543,1.232,3.555,2.451
		C0.375,42.687,1.274,43.032-0.974,43.787z M-6.213,39.842c0,0,0.058,2.28-0.553,3.704c0,0-0.349,0.876-1.333-0.163
		c0,0-2.378-3.484-1.615-6.146c0,0,0.147-0.805,1.393-0.313c0,0,2.258,0.905,3.201,1.892C-5.12,38.815-4.328,39.059-6.213,39.842z
		 M-6.326,49.079c0,0,0.355-1.013,1.869-0.119c0,0,2.743,1.639,3.763,3.11c0,0,0.978,0.478-1.628,1.107c0,0-0.393,2.968-1.477,4.689
		c0,0-0.633,1.064-1.696-0.486C-5.495,57.381-7.861,52.375-6.326,49.079z M-0.211,53.674c0,0,0.749-0.912,1.977,0.58
		c0,0,2.217,2.724,2.717,4.628c0,0,0.831,0.86-2.098,0.53c0,0-1.521,2.92-3.289,4.29c0,0-1.054,0.861-1.568-1.14
		C-2.473,62.563-3.036,56.501-0.211,53.674z M3.826,61.041c0,0,0.941-0.837,1.986,0.941c0,0,1.883,3.241,2.092,5.333
		c0,0,0.732,1.046-2.301,0.209c0,0-2.091,2.824-4.183,3.974c0,0-1.255,0.732-1.464-1.464C-0.043,70.034,0.375,63.551,3.826,61.041z
		 M7.927,61.529c0,0-0.029-5.397,2.686-7.677c0,0,0.731-0.748,1.7,0.665c0,0,1.748,2.577,2.043,4.298c0,0,0.667,0.824-1.895,0.307
		c0,0-1.569,2.461-3.236,3.535C9.225,62.657,8.227,63.337,7.927,61.529z M20.348,51.249c0,0,0.773,0.722-1.831,0.566
		c0,0-1.21,2.651-2.709,3.945c0,0-0.892,0.811-1.44-0.935c0,0-0.778-5.333,1.589-7.965c0,0,0.619-0.841,1.774,0.421
		C17.73,47.282,19.816,49.588,20.348,51.249z M19.453,39.979c0,0,0.684-0.779,1.683,0.466c0,0,2.212,2.479,2.59,3.516
		c0,0,1.354,1.501-1.317,0.849c0,0-0.73,1.325-1.045,3.542c0,0-0.813,0.791-1.385-0.832C19.979,47.519,18.34,42.152,19.453,39.979z
		 M13.655,60.6c0,0,0.829-0.736,1.75,0.829c0,0,1.659,2.856,1.843,4.699c0,0,0.646,0.921-2.026,0.185c0,0-1.843,2.487-3.686,3.5
		c0,0-1.105,0.646-1.29-1.289C10.246,68.523,10.614,62.811,13.655,60.6z M17.331,70.751c-0.18,0.635-1.469,1.263-1.469,1.263
		c-1.532,0.654-1.757-0.309-1.757-0.309c-0.494-1.179,2.296-1.596,2.296-1.596C17.97,69.65,17.331,70.751,17.331,70.751z
		 M18.415,62.494c0,0-1.083,0.632-1.264-1.264c0,0,0.361-5.596,3.34-7.762c0,0,0.813-0.722,1.715,0.813c0,0,1.622,2.78,1.805,4.603
		c0,0,0.632,0.902-1.985,0.181C22.025,59.064,20.221,61.501,18.415,62.494z M24.466,65.429c-0.245,0.612-1.592,1.103-1.592,1.103
		c-1.593,0.489-1.715-0.49-1.715-0.49c-0.123-1.103,2.449-1.348,2.449-1.348C25.217,64.401,24.466,65.429,24.466,65.429z
		 M28.255,60.607c-1.282,0.48-0.886-0.956-0.886-0.956c1.167-1.725,2.359-1.353,2.359-1.353
		C30.678,58.645,28.255,60.607,28.255,60.607z M29.611,39.336c0.367-1.47,0.49,1.715,0.49,1.715
		c-0.24,1.201-1.103,0.123-1.103,0.123C28.876,40.193,29.611,39.336,29.611,39.336z M26.477,41.83c0,0,0.433-0.53,1.12,0.268
		c0,0,1.463,1.342,1.788,2.258c0,0,0.288,0.677-0.358,0.59c0,0-0.451,0.891-0.607,2.359c0,0-0.518,0.54-0.933-0.517
		C27.486,46.788,25.792,43.288,26.477,41.83z M25.839,47.226c0,0,3.16,2.522,3.307,3.866c0,0,1.42,1.52-1.862,1.087
		c0,0-0.829,1.503-1.187,4.02c0,0-0.922,0.897-1.571-0.944c0,0-1.86-6.09-0.596-8.557C23.93,46.697,24.706,45.812,25.839,47.226z
		 M24.719,33.69c0.419-1.456,0.43,1.731,0.43,1.731c-0.282,1.192-1.106,0.084-1.106,0.084C23.954,34.522,24.719,33.69,24.719,33.69z
		 M22.376,36.999c0,0,0.191-1.032,0.967-0.136c0,0,1.186,0.999,1.422,1.581c0,0,0.498,1.197-0.243,0.51c0,0-0.39,0.769-0.525,2.037
		c0,0-0.446,0.466-0.804-0.446C23.192,40.545,21.955,38.539,22.376,36.999z M20.432,27.198c0.418-1.456,0.43,1.731,0.43,1.731
		c-0.282,1.192-1.106,0.084-1.106,0.084C19.667,28.029,20.432,27.198,20.432,27.198z M18.736,32.691c0,0,0.224-0.452,0.879,0.051
		c0,0,1.124,0.574,1.515,1.319c0,0,0.775,0.523-0.373,0.729c0,0-0.415,0.202-0.65,1.042c0,0-0.356,0.459-0.764-0.324
		C19.343,35.508,18.035,33.517,18.736,32.691z M18.729,38.022c0,0,0.943,0.334-1.357,1.112c0,0-0.237,1.834-0.76,3.147
		c0,0-0.651,0.682-1.175-0.651c0,0-1.679-3.863-0.335-6.224c0,0,0.438-0.69,1.408,0.231C16.51,35.639,18.225,36.754,18.729,38.022z
		 M14.881,29.029c0,0,1.491,0.695,1.96,1.187c0,0,0.272-0.002-0.666,0.389c0,0-0.216,0.032-0.52,0.741c0,0-0.174,0.436-0.664-0.082
		c0,0-1.243-1.054-1.171-2.324C13.82,28.939,14.261,28.785,14.881,29.029z M15.729,44.988c0,0,0.774,0.627-1.68,0.652
		c0,0-0.962,2.566-2.283,3.879c0,0-0.783,0.819-1.412-0.782c0,0-1.081-4.952,0.967-7.577c0,0,0.526-0.83,1.692,0.279
		C13.013,41.439,15.122,43.465,15.729,44.988z M13.297,32.884c0,0,0.679,0.207-0.936,0.879c0,0,0.05,1.951-0.473,3.171
		c0,0-0.299,0.75-1.142-0.141c0,0-2.036-2.982-1.383-5.262c0,0,0.126-0.688,1.192-0.268C10.557,31.264,12.49,32.039,13.297,32.884z
		 M9.995,26.43c0,0,1.435,0.494,1.912,0.898c0,0,0.249-0.027-0.573,0.421c0,0-0.195,0.051-0.406,0.729c0,0-0.117,0.417-0.616-0.011
		c0,0-1.242-0.847-1.298-2.019C9.014,26.449,9.402,26.265,9.995,26.43z M10.701,39.511c0,0,0.795,0.423-1.379,0.868
		c0,0-0.41,2.443-1.356,3.837c0,0-0.554,0.861-1.389-0.451c0,0-1.813-4.209-0.449-6.892c0,0,0.324-0.827,1.551-0.044
		C7.679,36.829,9.899,38.263,10.701,39.511z M4.052,28.454c0,0,0.114-0.622,1.076-0.242c0,0,1.745,0.7,2.474,1.463
		c0,0,0.612,0.187-0.845,0.793c0,0,0.045,1.762-0.426,2.862c0,0-0.27,0.677-1.031-0.127C5.3,33.203,3.464,30.511,4.052,28.454z
		 M-0.152,26.206c0,0,0.064-0.396,0.68-0.165c0,0,1.114,0.425,1.584,0.899c0,0,0.391,0.112-0.526,0.513c0,0,0.048,1.117-0.239,1.819
		c0,0-0.163,0.433-0.654-0.068C0.691,29.204-0.504,27.518-0.152,26.206z M0.044,33.176c0,0,0.238-0.811,1.465-0.171
		c0,0,2.225,1.175,3.087,2.291c0,0,0.788,0.335-1.234,0.937c0,0-0.187,2.351-0.968,3.749c0,0-0.453,0.862-1.353-0.313
		C1.041,39.669-1.027,35.831,0.044,33.176z M-6.415,30.176c0,0,0.048-0.81,1.334-0.477c0,0,2.335,0.619,3.383,1.477
		c0,0,0.811,0.143-0.952,1.144c0,0,0.334,2.239-0.096,3.717c0,0-0.237,0.905-1.334,0C-4.08,36.036-6.844,32.892-6.415,30.176z
		 M-11.887,27.996c0,0,0.238-0.484,1.214-0.303c0,0,2.141,0.34,2.967,0.925c0,0,0.813,0.061-0.65,0.534c0,0-0.002,1.529-0.244,2.652
		c0,0-0.131,0.688-0.995,0.07C-9.596,31.875-12.065,30.043-11.887,27.996z M-14.34,34.393c0,0,0.121-0.657,1.138-0.256
		c0,0,1.845,0.74,2.615,1.546c0,0,0.647,0.198-0.894,0.839c0,0,0.049,1.862-0.45,3.025c0,0-0.285,0.716-1.09-0.134
		C-13.021,39.413-14.962,36.568-14.34,34.393z M-14.061,42.07c0,0,2.097,0.885,2.962,1.822c0,0,0.737,0.239-1.038,0.941
		c0,0,0.018,2.133-0.576,3.455c0,0-0.341,0.813-1.245-0.176c0,0-2.165-3.295-1.409-5.772C-15.367,42.341-15.217,41.591-14.061,42.07
		z M-15.903,34.087c-0.754,0.753-1.182-0.511-1.182-0.511c-0.237-1.386-1.718-3.452-1.718-3.452
		C-16.571,30.884-15.903,34.087-15.903,34.087z M-19.52,39.644c0,0,0.123-0.679,1.175-0.265c0,0,1.905,0.766,2.701,1.598
		c0,0,0.669,0.204-0.923,0.866c0,0,0.05,1.924-0.465,3.126c0,0-0.295,0.739-1.126-0.139C-18.157,44.83-20.163,41.892-19.52,39.644z
		 M-20.048,38.713c-0.41,0.411-1.197-0.892-1.197-0.892c-0.083-0.836-1.142-2.368-1.142-2.368
		C-20.465,35.369-20.048,38.713-20.048,38.713z M-24.388,45.313c0,0,0.155-0.65,1.149-0.196c0,0,1.804,0.836,2.53,1.681
		c0,0,0.637,0.231-0.936,0.791c0,0-0.049,1.862-0.608,2.998c0,0-0.322,0.698-1.081-0.191
		C-23.333,50.395-25.123,47.451-24.388,45.313z M-24.6,43.212c-0.914,0.534-1.825-0.54-1.825-0.54
		c-0.095-0.945-0.824-3.149-0.824-3.149C-25.134,40.563-24.6,43.212-24.6,43.212z M-27.953,48.708
		c-0.745,0.673-1.735-0.431-1.735-0.431c-0.352-0.763-1.538-1.889-1.538-1.889C-28.943,45.828-27.953,48.708-27.953,48.708z
		 M-30.394,53.313c-0.478-0.69-2.026-1.566-2.026-1.566c2.006-1.632,3.626,1.716,3.626,1.716
		C-29.233,54.566-30.394,53.313-30.394,53.313z M-27.714,59.252c-0.685-0.485-2.32-0.757-2.32-0.757
		c1.197-1.505,3.994,0.373,3.994,0.373C-26.075,60.055-27.714,59.252-27.714,59.252z M-26.268,56.198c0,0-1.53-2.517-0.901-4.346
		c0,0,0.132-0.556,0.982-0.168c0,0,1.542,0.715,2.164,1.438c0,0,0.544,0.197-0.801,0.676c0,0-0.042,1.593-0.52,2.563
		C-25.343,56.361-25.618,56.96-26.268,56.198z M-22.875,65.438c-0.686-0.486-2.443-0.879-2.443-0.879
		c1.197-1.506,3.994,0.372,3.994,0.372C-21.839,66.163-22.875,65.438-22.875,65.438z M-21.106,57.252c0,0-0.047,1.765-0.577,2.84
		c0,0-0.305,0.663-1.023-0.181c0,0-1.696-2.788-0.999-4.815c0,0,0.146-0.615,1.088-0.186c0,0,1.709,0.792,2.397,1.593
		C-20.221,56.503-19.617,56.722-21.106,57.252z M-19.248,63.716c0,0-1.605-3.368-0.488-5.499c0,0,0.365-0.625,1.253,0.161
		c0,0,1.553,0.935,2.038,2.041c0,0,0.846,0.267-1.168,1.027c0,0-0.153,1.631-0.574,2.811C-18.188,64.257-18.743,64.88-19.248,63.716
		z M-15.647,71.686c-0.686-0.485-2.688-0.879-2.688-0.879c1.397-1.214,3.994,0.373,3.994,0.373
		C-14.121,72.043-15.647,71.686-15.647,71.686z M-13.675,66.098c0,0-0.531,1.2-0.636,3.141c0,0-0.643,0.746-1.261-0.614
		c0,0-1.823-4.517-1.024-6.48c0,0,0.532-0.726,1.49,0.275c0,0,2.1,1.977,2.506,2.844C-12.6,65.263-11.549,66.653-13.675,66.098z
		 M-10.803,64.499c0,0-0.886,0.75-1.355-0.949c0,0-0.57-5.16,1.798-7.614c0,0,0.624-0.789,1.693,0.465c0,0,1.932,2.29,2.387,3.907
		c0,0,0.721,0.721-1.782,0.483C-8.063,60.791-9.316,63.304-10.803,64.499z M-6.47,61.58c0,0,0.712-0.78,1.741,0.611
		c0,0,1.854,2.541,2.213,4.268c0,0,0.702,0.809-1.901,0.376c0,0-1.498,2.54-3.143,3.683c0,0-0.983,0.721-1.351-1.093
		C-8.91,69.425-9.129,63.978-6.47,61.58z M-8.402,104.396c-1.006-0.2-2.099-0.603-2.099-0.603c-3.742-2.229-8.713,0.716-8.713,0.716
		c-3.85,0.976-2.544-0.917-2.544-0.917c1.39-1.537,4.687-3.172,4.687-3.172c-5.026-5.025-14.336-5.472-14.336-5.472
		c-3.416,1.716-5.628,2.011-5.628,2.011c-2.198-0.05-0.604-1.207-0.604-1.207c1.608-0.804,3.216-3.216,3.216-3.216
		c-1.809-0.201-10.56-5.56-10.56-5.56c-7.113,3.809-8.424,2.273-8.424,2.273c-0.604-0.401,1.583-2.632,1.583-2.632
		c0.952-1.224,3.065-2.167,3.065-2.167c0.827-0.771-0.402-1.495-0.402-1.495c-2.446-1.358-5.443-5.663-5.443-5.663
		c-3.015-0.604-9.369-2.045-9.369-2.045c-0.804-0.603,0.804-1.206,0.804-1.206c0.402-0.603,6.669-0.568,6.669-0.568
		c-3.016-4.423-6.835-19.543-6.835-19.543c-3.461-1.243-7.806-6.109-7.806-6.109c0.058-1.627,2.211,0.078,2.211,0.078
		c2.256,1.113,4.957,1.398,4.957,1.398c-0.128-6.777-1.378-12.611-1.378-12.611c-1.078-4.457-1.99-6.177-1.99-6.177
		c1.647-0.975,4.152,7.097,4.152,7.097c7.295,30.883,12.954,36.881,12.954,36.881c6.031,10.253,19.499,14.675,19.499,14.675
		c17.69,5.228,23.651,12.821,23.651,12.821C-3.953,106.221-8.402,104.396-8.402,104.396z M-8.629,73.847
		c-0.837-2.294,1.617-1.971,1.617-1.971c2.634-0.366,8.963,2.874,8.963,2.874c4.263-2.584,9.145-3.072,9.145-3.072
		c2.468,0.292,0.642,2.1,0.642,2.1c-2.172,0.427-8.083,2.967-8.083,2.967C1.75,78.408,0,76.81,0,76.81
		C-3.709,74.42-8.629,73.847-8.629,73.847z M6.385,120.277c-8.845,6.434-0.603,14.071-0.603,14.071
		c-6.031,2.815-2.08,8.198-2.08,8.198c0.403,0.484,0.313,2.394,0.313,2.394s-1.6,2.93-3.862,0.49L0.31,79.507
		c2.475-2.687,3.927,0.24,3.927,0.24C1.191,90.786,5.625,93.41,5.625,93.41c-6.884,6.686,0.76,13.601,0.76,13.601
		C-3.264,114.247,6.385,120.277,6.385,120.277z M64.313,72.759c0,0,2.293,0.632,0.289,1.643c0,0-2.529,0.459-6.652,1.938
		l-3.43,3.185c0,0-5.23,4.526-6.437,4.929c0,0,5.659,1.434,6.346,3.059c0,0,1.406,1.407-0.402,1.407c0,0-9.448-2.814-11.258-1.809
		c0,0-6.421,3.432-6.433,4.021c0,0,1.481,3.331,4.537,5.096c0,0,0.742,1.787-1.416,1.442c0,0-6.662-2.595-7.873-3.567
		c0,0-11.53,3.898-10.525,5.306c0,0,3.251,3.138,3.653,4.344c0,0,1.713,1.98,0.116,2.02c0,0-6.339-2.745-7.947-3.951
		c0,0-4.265,2.78-4.868,2.78c0,0-2.639,0.27-3.04-1.339c0,0-1.182-2.079,6.056-6.501c0,0,27.941-13.959,30.354-15.769
		c0,0,12.648-7.354,13.758-23.362c0,0,4.011-18.146,5.741-21.176c0,0,1.969-6.549,2.569-5.98c0,0,0.06-0.23,0.271,1.25
		c0,0-3.933,13.494-2.972,17.508c0,0-0.104,2.233,1.006,1.73c0,0,5.113-2.28,6.319-2.884c0,0,2.255-1.172,2.456-0.568
		c0,0,0.037,1.261-2.211,2.613c0,0-6.854,5.246-8.061,5.446c0,0,0.019,0.673-0.461,2.481c0,0-2.95,12.279-4.894,15.023
		C58.905,73.072,61.706,72.288,64.313,72.759z"/>
	<path fill="#FFFFFF" d="M-21.758,20.571c0,0-4.021-8.845-13.066-9.247C-34.824,11.324-31.206,18.762-21.758,20.571z"/>
	<path fill="#FFFFFF" d="M-21.356,15.546l-3.417-9.649c-0.804-1.307-1.105,0.502-1.105,0.502c-0.804,0.503-1.508,0.303-1.508,0.303
		s-1.005-0.402-0.804,0.401C-28.19,7.103-27.387,10.922-21.356,15.546z"/>
	<path fill="#FFFFFF" d="M-14.119,16.752c0,0-1.608-9.851-7.237-12.263C-21.356,4.489-21.558,12.731-14.119,16.752z"/>
	<path fill="#FFFFFF" d="M-16.934,4.489c0,0,3.016-0.804,5.83,8.443c0,0,1.206-8.041-3.418-11.459c0,0-0.904-0.1-0.804,0.604
		c0,0-0.402,1.407-1.207,1.407C-16.532,3.484-17.938,3.886-16.934,4.489z"/>
	<path fill="#FFFFFF" d="M-8.691,0.066c0,0-0.604,9.248,5.629,17.288C-3.063,17.354-2.058,4.489-8.691,0.066z"/>
	<path fill="#FFFFFF" d="M2.163,0.167c0,0-0.603-0.302-0.703,0.302c0,0-1.005,0.503-1.307-0.201c0,0-0.604-0.603-0.805,0
		c0,0-0.903,7.338,0.805,12.665C0.153,12.933,2.867,2.981,2.163,0.167z"/>
	<path fill="#FFFFFF" d="M8.697,0.066c-7.74,7.739-3.82,16.686-3.82,16.686C8.496,12.631,8.697,0.066,8.697,0.066z"/>
	<path fill="#FFFFFF" d="M16.034,3.585c-1.508,0.101-1.105-1.407-1.105-1.407c0-0.604-0.604-0.704-0.604-0.704
		c-2.714,1.407-3.518,11.961-3.518,11.961c1.005-2.11,6.332-8.845,6.332-8.845C17.943,2.479,16.034,3.585,16.034,3.585z"/>
	<path fill="#FFFFFF" d="M15.23,17.958c7.035-4.222,8.04-14.675,8.04-14.675C14.526,8.61,15.23,17.958,15.23,17.958z"/>
	<path fill="#FFFFFF" d="M28.799,7.505c0,0-0.101-1.407-0.904-0.804c0,0-0.604,0.2-1.307-0.303c0,0-0.503-1.205-1.005-0.301
		c0,0-0.302,5.528-4.021,10.151C21.563,16.249,26.487,14.339,28.799,7.505z"/>
	<path fill="#FFFFFF" d="M36.438,9.816c0,0-4.021,0.302-13.568,9.649C22.869,19.466,33.824,18.46,36.438,9.816z"/>
</g>
</svg>
