<?xml version="1.0" encoding="UTF-8"?>
<svg viewBox="0 0 920 840" version="1.1" xmlns="http://www.w3.org/2000/svg" xmlns:xlink="http://www.w3.org/1999/xlink">
    <!-- Generator: Sketch 40.3 (33839) - http://www.bohemiancoding.com/sketch -->
    <title>icon_multiplesclerosis.net</title>
    <desc>Created with Sketch.</desc>
    <defs></defs>
    <g id="Page-1" stroke="none" stroke-width="1" fill="none" fill-rule="evenodd">
        <g id="icon_multiplesclerosis.net">
            <g id="avatar" transform="translate(30.000000, 4.000000)">
                <path d="M313.852849,838 L313.852849,641.051505 L134.781902,641.051505 C100.845642,641.051505 66.5985677,626.589071 40.8317215,601.382457 C14.8806894,575.991657 0,542.047722 0,508.245764 L0,126.278651 C0,92.1889023 14.6120849,60.1750829 41.1348609,36.1234683 C66.4489166,13.169295 100.580874,0 134.778065,0 L739.165055,0 C773.339222,0 804.401414,13.0503416 826.626518,36.7527703 C848.341273,59.9064784 860.301848,91.6977398 860.301848,126.278651 L860.301848,508.245764 C860.301848,543.110629 848.437204,575.953285 826.906634,600.733969 C804.301647,626.731047 773.143524,641.055342 739.165055,641.055342 L522.055873,641.055342 L313.852849,838 L313.852849,838 Z" id="Shape" fill="#FF574C"></path>
                <g id="MS" transform="translate(136.000000, 145.000000)" fill="#FFFFFF" opacity="0.8">
                    <polygon id="Shape" points="329.249273 332.328909 261.698 332.328909 261.698 195.076727 166.358 336.761818 162.803273 336.761818 67.9023636 195.076727 67.9023636 332.328909 0.351090909 332.328909 0.351090909 0.101272727 1.61490909 0.101272727 164.586364 230.123818 327.111091 0.101272727 329.256909 0.101272727 329.256909 332.328909"></polygon>
                    <path d="M607.751273,34.3274545 L572.669818,90.2790909 C552.685455,74.2923636 527.817636,61.8565455 493.182909,61.8565455 C464.317455,61.8565455 446.555273,73.3989091 446.555273,97.3847273 C446.555273,116.036545 458.991091,125.364364 507.833273,134.684545 C592.211273,152.450545 618.854545,183.091455 618.854545,233.27 C618.854545,295.880545 572.226909,338.067636 495.401273,338.067636 C445.665636,338.067636 401.260182,322.527636 368.843818,294.551818 L405.700727,238.153455 C427.460545,261.245818 464.317455,276.342909 497.619636,276.342909 C531.815273,276.342909 551.349091,263.464182 551.349091,239.486 C551.349091,220.391273 536.694909,209.734727 488.295636,200.406909 C403.921455,182.198 378.610727,148.456727 378.610727,100.496545 C378.610727,41.8798182 423.462909,0.143272727 493.625818,0.143272727 C540.253455,0.139454545 580.657455,13.4534545 607.751273,34.3274545 L607.751273,34.3274545 Z" id="Shape"></path>
                </g>
            </g>
        </g>
    </g>
</svg>