<?xml version="1.0" encoding="UTF-8"?>
<svg width="929px" height="838px" viewBox="0 0 929 838" version="1.1" xmlns="http://www.w3.org/2000/svg" xmlns:xlink="http://www.w3.org/1999/xlink">
    <!-- Generator: Sketch 42 (36781) - http://www.bohemiancoding.com/sketch -->
    <title>icon_plaquepsoriasis.com</title>
    <desc>Created with Sketch.</desc>
    <defs>
        <linearGradient x1="50%" y1="0%" x2="50%" y2="123.768185%" id="linearGradient-1">
            <stop stop-color="#80D2E6" offset="0%"></stop>
            <stop stop-color="#7DB7FF" offset="100%"></stop>
        </linearGradient>
    </defs>
    <g id="Page-1" stroke="none" stroke-width="1" fill="none" fill-rule="evenodd">
        <g id="instructions" transform="translate(-972.000000, -171.000000)"></g>
        <g id="icon_plaquepsoriasis.com">
            <g id="icon_lungcancer.net" transform="translate(73.000000, 0.000000)">
                <g id="Group-2">
                    <path d="M275.368144,641.132029 L134.726795,641.132029 C100.80441,641.132029 66.5713381,626.675509 40.815027,601.479201 C14.8746053,576.098782 0,542.168726 0,508.380588 L0,126.569646 C0,92.4938358 14.6061106,60.4931055 41.1180424,36.4513248 C66.4217482,13.5065365 100.539751,0.342625942 134.722959,0.342625942 L662.150073,0.342625942 C696.310268,0.342625942 727.359759,13.3876318 749.575776,37.0803694 C771.281654,60.2246109 783.237338,92.0028741 783.237338,126.569646 L783.237338,508.380588 C783.237338,543.231198 771.377544,576.060426 749.855778,600.830978 C727.260033,626.817427 696.11465,641.135865 662.150073,641.135865 L483.486042,641.135865 L275.368144,838 L275.368144,641.132029 Z" id="Shape" fill="url(#linearGradient-1)"></path>
                    <path d="M204.496122,152.311911 L134.320574,152.311911 L134.320574,489.429738 L348.057863,489.429738 L348.057863,427.968801 L204.496122,427.968801 L204.496122,152.311911 Z M532.899339,146.349282 C431.534659,146.349282 359.98312,221.111467 359.98312,320.641492 C359.98312,420.630181 431.534659,495.392366 532.899339,495.392366 C581.976356,495.392366 621.880099,480.715128 655.36255,444.022031 L611.789497,393.110359 C593.901613,414.667553 567.757781,431.638111 532.899339,431.638111 C470.979738,431.638111 430.617331,384.854412 430.617331,320.641492 C430.617331,256.428573 470.979738,210.103538 532.899339,210.103538 C567.299117,210.103538 592.984285,226.615432 610.87217,247.713962 L654.903886,196.802291 C622.338763,163.31984 586.104329,146.349282 532.899339,146.349282 L532.899339,146.349282 Z" id="LC" fill="#000000" opacity="0.4"></path>
                </g>
            </g>
            <g id="avatar">
                <path d="M348.344121,836.873037 L348.344121,640.283233 L135.053688,640.283233 C101.176423,640.283233 66.9949292,625.849678 41.2702355,600.679528 C15.3683957,575.336084 0.515080803,541.454968 0.515080803,507.72019 L0.515080803,126.428626 C0.515080803,92.4050225 15.0988256,60.4417055 41.5783157,36.4307077 C66.8447401,13.5210965 100.918406,0.37377545 135.053688,0.37377545 L807.444015,0.37377545 C841.560042,0.37377545 872.56446,13.4055664 894.750082,37.058421 C916.423522,60.1759863 928.361628,91.9082432 928.361628,126.428626 L928.361628,507.72019 C928.361628,542.513993 916.527499,575.297574 895.031206,600.024858 C872.468185,625.992165 841.363641,640.283233 807.444015,640.283233 L556.182702,640.283233 L348.344121,836.873037 Z" id="Fill-115" fill="#FF6E43"></path>
                <g id="Group-2" transform="translate(119.494188, 155.249001)" fill="#FFFFFF" opacity="0.8">
                    <path d="M131.000979,0.600728129 L0,0.600728129 L0,328.103175 L68.1739788,328.103175 L68.1739788,217.153367 L131.000979,217.153367 C193.827979,217.153367 245.961022,178.387771 245.961022,108.877047 C245.961022,39.3663239 193.382397,0.600728129 131.000979,0.600728129 L131.000979,0.600728129 Z M124.317255,59.4174942 C155.953546,59.4174942 177.341461,76.795175 177.341461,108.877047 C177.341461,141.850083 155.953546,158.336601 124.317255,158.336601 L68.1739788,158.336601 L68.1739788,59.4174942 L124.317255,59.4174942 Z" id="P"></path>
                    <path d="M341.030024,93.5611103 C288.941539,93.5611103 256.191295,125.375634 256.191295,167.171184 C256.191295,200.233336 273.034278,227.369253 334.791882,240.469351 C365.670684,246.083679 372.220733,251.698006 372.220733,259.807591 C372.220733,271.036246 363.175427,276.962481 342.901466,276.962481 C320.444156,276.962481 294.867774,266.35764 280.208141,250.138471 L248.393617,299.419791 C271.786649,320.005659 305.160708,330.922408 341.030024,330.922408 C397.797115,330.922408 431.483081,300.355513 431.483081,254.193263 C431.483081,219.259669 414.32819,195.55473 352.258679,182.766539 C321.379877,177.464118 315.765549,171.849791 315.765549,164.052113 C315.765549,153.135365 323.875134,147.521037 340.718117,147.521037 C365.04687,147.521037 381.577946,155.942529 394.678044,166.54737 L425.244939,117.577956 C405.906699,102.606416 375.027897,93.5611103 341.030024,93.5611103 L341.030024,93.5611103 Z" id="S"></path>
                    <path d="M568.501955,94.5970964 C636.492783,94.5970964 687.953731,144.810506 687.953731,213.736988 C687.953731,282.0397 636.492783,331.941226 568.501955,331.941226 C500.199242,331.941226 449.050179,282.0397 449.050179,213.736988 C449.050179,144.810506 500.199242,94.5970964 568.501955,94.5970964 Z M568.501955,148.553121 C533.570887,148.553121 509.243893,175.37519 509.243893,213.736988 C509.243893,251.475016 533.570887,277.985202 568.501955,277.985202 C603.433022,277.985202 627.760016,251.475016 627.760016,213.736988 C627.760016,175.37519 603.433022,148.553121 568.501955,148.553121 Z" id="O"></path>
                </g>
            </g>
        </g>
    </g>
</svg>