<?xml version="1.0" encoding="UTF-8"?>
<svg width="858px" height="836px" viewBox="0 0 858 836" version="1.1" xmlns="http://www.w3.org/2000/svg" xmlns:xlink="http://www.w3.org/1999/xlink">
    <!-- Generator: Sketch 43.2 (39069) - http://www.bohemiancoding.com/sketch -->
    <title>icon_parkinsonsdisease.net</title>
    <desc>Created with Sketch.</desc>
    <defs></defs>
    <g id="Page-1" stroke="none" stroke-width="1" fill="none" fill-rule="evenodd">
        <g id="icon_parkinsonsdisease.net">
            <g id="Fill-2-+-Fill-4-+-Shape">
                <path d="M312.886624,835.402965 L312.886624,639.048086 L134.378083,639.048086 C100.542016,639.048086 66.3921763,624.65094 40.7076676,599.515532 C14.8410183,574.196452 0,540.360384 0,506.654417 L0,125.860712 C0,91.8930137 14.5792868,59.9648311 41.0214393,36.0033881 C66.2613105,13.1133607 100.281049,0 134.378083,0 L736.899318,0 C770.943546,0 801.93424,13.0100457 824.089583,36.6309315 C845.724523,59.7008037 857.640195,91.3955708 857.640195,125.860712 L857.640195,506.654417 C857.640195,541.40578 845.827838,574.170432 824.35361,598.861968 C801.830925,624.781423 770.763701,639.048086 736.899318,639.048086 L520.450423,639.048086 L312.886624,835.402965 Z" id="Fill-2" fill="#5B7288"></path>
                <g id="Fill-4-+-Shape" transform="translate(137.753425, 156.885845)" fill="#FFFFFF" opacity="0.797724185">
                    <path d="M406.57158,327.508753 L302.292237,327.508753 L302.292237,0 L406.57158,0 C518.427361,0 585.708429,60.1513108 585.708429,163.52095 C585.708429,266.913549 519.315105,327.508753 406.57158,327.508753 L406.57158,327.508753 Z M370.487836,62.3707752 L370.487836,265.581871 L404.352219,265.581871 C478.321982,265.581871 516.625087,228.137976 516.625087,163.964843 C516.625087,99.3707768 477.874283,62.3707752 404.352219,62.3707752 L370.487836,62.3707752 Z" id="Fill-4"></path>
                    <path d="M68.3742146,327.508753 L0,327.508753 L0,0 L132.173211,0 C194.800809,0 247.618864,38.7636683 247.618864,108.143959 C247.618864,177.51597 195.276657,216.279639 132.173211,216.279639 L68.3742146,216.279639 L68.3742146,327.508753 L68.3742146,327.508753 Z M68.3742146,58.7038524 L68.3742146,157.577856 L125.474899,157.577856 C157.246324,157.577856 178.694874,141.049868 178.694874,108.142924 C178.694874,76.1156787 157.246324,58.7038524 125.474899,58.7038524 L68.3742146,58.7038524 L68.3742146,58.7038524 Z" id="Shape"></path>
                </g>
            </g>
        </g>
    </g>
</svg>