<?xml version="1.0" encoding="UTF-8"?>
<svg viewBox="0 0 708 840" version="1.1" xmlns="http://www.w3.org/2000/svg" xmlns:xlink="http://www.w3.org/1999/xlink">
    <!-- Generator: Sketch 40.3 (33839) - http://www.bohemiancoding.com/sketch -->
    <title>icon_asthma.net</title>
    <desc>Created with Sketch.</desc>
    <defs></defs>
    <g id="Page-1" stroke="none" stroke-width="1" fill="none" fill-rule="evenodd">
        <g id="icon_asthma.net">
            <g id="avatar" transform="translate(29.000000, 1.000000)">
                <path d="M208.753294,838 L208.753294,643.404556 L134.17326,643.404556 C100.398721,643.404556 66.249225,628.560973 40.4845866,602.676078 C14.7550793,576.827665 -5.68434189e-14,542.616014 -5.68434189e-14,508.815803 L-5.68434189e-14,124.416936 C-5.68434189e-14,90.4795785 14.5294293,58.8048011 40.9122407,35.2365346 C65.9810123,12.8431345 99.9737693,-2.27373675e-13 134.17326,-2.27373675e-13 L530.187697,-2.27373675e-13 C599.88045,-2.27373675e-13 650.464564,52.3237812 650.464564,124.416936 L650.464564,508.815803 C650.464564,543.756425 638.753733,576.872255 617.488583,602.066012 C594.983033,628.724468 563.981153,643.404556 530.187697,643.404556 L415.304812,643.404556 L208.753294,838 L208.753294,838 Z" id="Shape" fill="#6385A1"></path>
                <path d="M487.657103,488 L411.268886,488 L389.442997,435.928131 L261.216841,435.928131 L239.388901,488 L163,488 L324.420878,148 L326.238961,148 L487.657103,488 L487.657103,488 Z M325.329235,281.779586 L283.041362,381.816562 L367.617109,381.816562 L325.329235,281.779586 L325.329235,281.779586 Z" id="Shape" fill="#FFFFFF" opacity="0.8"></path>
            </g>
        </g>
    </g>
</svg>