<?xml version="1.0" encoding="UTF-8"?>
<svg width="855px" height="833px" viewBox="0 0 855 833" version="1.1" xmlns="http://www.w3.org/2000/svg" xmlns:xlink="http://www.w3.org/1999/xlink">
    <!-- Generator: Sketch 46.1 (44463) - http://www.bohemiancoding.com/sketch -->
    <title>avatar</title>
    <desc>Created with Sketch.</desc>
    <defs></defs>
    <g id="Page-1" stroke="none" stroke-width="1" fill="none" fill-rule="evenodd">
        <g id="avatar" transform="translate(-1.000000, -2.000000)">
            <g id="Fill-2-+-Fill-4-+-Shape" transform="translate(1.372645, 2.516517)">
                <path d="M311.776188,832.438117 L311.776188,636.780102 L133.901175,636.780102 C100.185192,636.780102 66.1565502,622.434051 40.5631959,597.387849 C14.7883474,572.158627 0,538.442644 0,504.856299 L0,125.414032 C0,91.5668851 14.5275448,59.7520157 40.875854,35.875612 C66.0261489,13.0668214 99.9251515,0 133.901175,0 L734.28406,0 C768.207465,0 799.088173,12.963873 821.164886,36.5009282 C842.723044,59.4889253 854.596426,91.0712076 854.596426,125.414032 L854.596426,504.856299 C854.596426,539.484329 842.825992,572.132699 821.427976,596.736605 C798.985224,622.564071 768.028258,636.780102 734.28406,636.780102 L518.603342,636.780102 L311.776188,832.438117 Z" id="Fill-2" fill="#ED3970"></path>
                <path d="M263.665439,148.703249 L261.87472,148.703249 L102.948403,483.567713 L178.158604,483.567713 L199.647232,432.53222 L325.892926,432.53222 L347.381555,483.567713 L422.591755,483.567713 L263.665439,148.703249 Z M262.770079,280.768779 L304.404297,379.258328 L221.135861,379.258328 L262.770079,280.768779 Z M562.267842,154.523086 L457.510777,154.523086 L457.510777,483.567713 L562.267842,483.567713 C675.530823,483.567713 742.235108,422.683265 742.235108,318.82156 C742.235108,214.959854 674.635463,154.523086 562.267842,154.523086 L562.267842,154.523086 Z M560.029443,217.198253 C633.896605,217.198253 672.844744,254.355673 672.844744,319.269239 C672.844744,383.735125 634.344284,421.340226 560.029443,421.340226 L526.005781,421.340226 L526.005781,217.198253 L560.029443,217.198253 Z" id="AD" fill="#FFFFFF" opacity="0.8"></path>
            </g>
        </g>
    </g>
</svg>