<?xml version="1.0" encoding="UTF-8" standalone="no"?><!DOCTYPE svg PUBLIC "-//W3C//DTD SVG 1.1//EN" "http://www.w3.org/Graphics/SVG/1.1/DTD/svg11.dtd"><svg width="100%" height="100%" viewBox="0 0 998 838" version="1.1" xmlns="http://www.w3.org/2000/svg" xmlns:xlink="http://www.w3.org/1999/xlink" xml:space="preserve" xmlns:serif="http://www.serif.com/" style="fill-rule:evenodd;clip-rule:evenodd;stroke-linejoin:round;stroke-miterlimit:1.41421;"><g id="icon_inflammatoryboweldisease.net"><path id="Fill-2" d="M359.016,837.764l0,-196.698l-194.173,0c-33.893,0 -68.096,-14.444 -93.83,-39.619c-25.918,-25.358 -40.78,-59.259 -40.78,-93.017l0,-381.482c0,-34.047 14.594,-66.018 41.082,-90.042c25.282,-22.924 59.371,-36.076 93.525,-36.076l681.622,0c34.131,0 65.153,13.032 87.352,36.705c21.684,23.124 33.633,54.875 33.633,89.413l0,381.482c0,34.819 -11.849,67.621 -33.354,92.369c-22.578,25.965 -53.696,40.271 -87.631,40.271l-279.508,0l-207.938,196.694Z" style="fill:#6059af;"/><g id="Group"><g opacity="0.8"><path id="Fill-3" d="M142.956,483.988l67.851,0l0,-325.95l-67.851,0l0,325.95Z" style="fill:#fff;"/><path id="Fill-4" d="M405.318,158.042l-125.943,0l0,325.946l147.676,0c60.311,0 108.207,-34.147 108.207,-94.901c0,-45.234 -24.837,-68.293 -58.095,-79.823c15.519,-10.203 31.485,-31.042 31.485,-62.973c0,-54.991 -38.583,-88.249 -103.33,-88.249Zm11.534,186.7c31.485,0 49.666,13.746 49.666,39.025c0,25.275 -18.623,38.579 -47.892,38.579l-71.845,0l0,-77.604l70.071,0Zm-20.401,-125.058c27.938,0 44.346,13.303 44.346,35.474c0,21.732 -16.851,35.924 -42.573,35.924l-51.443,0l0,-71.398l49.67,0Z" style="fill:#fff;"/><path id="Fill-41" serif:id="Fill-4" d="M685.493,484.01l-103.797,0l0,-325.981l103.797,0c111.34,0 178.306,59.869 178.306,162.757c0,102.912 -66.083,163.224 -178.306,163.224Zm-35.916,-263.901l0,202.262l33.705,0c73.628,0 111.755,-37.269 111.755,-101.144c0,-64.291 -38.569,-101.118 -111.755,-101.118l-33.705,0Z" style="fill:#fff;"/></g></g></g></svg>