<?xml version="1.0" encoding="UTF-8"?>
<svg width="784px" height="838px" viewBox="0 0 784 838" version="1.1" xmlns="http://www.w3.org/2000/svg" xmlns:xlink="http://www.w3.org/1999/xlink">
    <!-- Generator: Sketch 42 (36781) - http://www.bohemiancoding.com/sketch -->
    <title>icon_lungcancer.net</title>
    <desc>Created with Sketch.</desc>
    <defs>
        <linearGradient x1="50%" y1="0%" x2="50%" y2="123.768185%" id="linearGradient-1">
            <stop stop-color="#80D2E6" offset="0%"></stop>
            <stop stop-color="#7DB7FF" offset="100%"></stop>
        </linearGradient>
    </defs>
    <g id="Page-1" stroke="none" stroke-width="1" fill="none" fill-rule="evenodd">
        <g id="icon_lungcancer.net">
            <g id="Group-2">
                <path d="M275.368144,641.132029 L134.726795,641.132029 C100.80441,641.132029 66.5713381,626.675509 40.815027,601.479201 C14.8746053,576.098782 0,542.168726 0,508.380588 L0,126.569646 C0,92.4938358 14.6061106,60.4931055 41.1180424,36.4513248 C66.4217482,13.5065365 100.539751,0.342625942 134.722959,0.342625942 L662.150073,0.342625942 C696.310268,0.342625942 727.359759,13.3876318 749.575776,37.0803694 C771.281654,60.2246109 783.237338,92.0028741 783.237338,126.569646 L783.237338,508.380588 C783.237338,543.231198 771.377544,576.060426 749.855778,600.830978 C727.260033,626.817427 696.11465,641.135865 662.150073,641.135865 L483.486042,641.135865 L275.368144,838 L275.368144,641.132029 Z" id="Shape" fill="url(#linearGradient-1)"></path>
                <path d="M204.496122,152.311911 L134.320574,152.311911 L134.320574,489.429738 L348.057863,489.429738 L348.057863,427.968801 L204.496122,427.968801 L204.496122,152.311911 Z M532.899339,146.349282 C431.534659,146.349282 359.98312,221.111467 359.98312,320.641492 C359.98312,420.630181 431.534659,495.392366 532.899339,495.392366 C581.976356,495.392366 621.880099,480.715128 655.36255,444.022031 L611.789497,393.110359 C593.901613,414.667553 567.757781,431.638111 532.899339,431.638111 C470.979738,431.638111 430.617331,384.854412 430.617331,320.641492 C430.617331,256.428573 470.979738,210.103538 532.899339,210.103538 C567.299117,210.103538 592.984285,226.615432 610.87217,247.713962 L654.903886,196.802291 C622.338763,163.31984 586.104329,146.349282 532.899339,146.349282 L532.899339,146.349282 Z" id="LC" fill="#000000" opacity="0.4"></path>
            </g>
        </g>
    </g>
</svg>