<?xml version="1.0" encoding="UTF-8"?>
<svg viewBox="0 0 952 840" version="1.1" xmlns="http://www.w3.org/2000/svg" xmlns:xlink="http://www.w3.org/1999/xlink">
    <!-- Generator: Sketch 40.3 (33839) - http://www.bohemiancoding.com/sketch -->
    <title>icon_rheumatoidarthritis.net</title>
    <desc>Created with Sketch.</desc>
    <defs></defs>
    <g id="Page-1" stroke="none" stroke-width="1" fill="none" fill-rule="evenodd">
        <g id="icon_rheumatoidarthritis.net">
            <g id="avatar" transform="translate(29.000000, 1.000000)">
                <path d="M123.414876,0 C91.8957823,0 60.4359268,12.1311911 37.1086661,33.2835539 C13.1763268,54.9732942 0,83.6700985 0,114.084818 L0,533.031927 C0,563.565123 13.6502345,594.441057 37.4429403,617.721773 C61.1848703,640.951713 92.5177862,654.271905 123.414876,654.271905 L344.230481,654.271905 L344.230481,838 L538.460709,654.271905 L786.301747,654.271905 C816.390655,654.271905 844.029629,641.548329 864.1157,618.445329 C883.867496,595.706221 894.750448,565.376128 894.750448,533.031927 L894.750448,114.084818 C894.750448,47.9789242 849.136831,0 786.301747,0 L123.414876,0 Z" id="Fill-115" fill="#8D55A4"></path>
                <g id="RA" transform="translate(147.000000, 148.000000)" fill="#FFFFFF" opacity="0.8">
                    <path d="M69.7500167,66.1887297 L69.7500167,162.18013 L124.925498,162.18013 C157.532038,162.18013 179.271037,145.428613 179.271037,114.1766 C179.271037,83.394366 157.532038,66.1887297 124.925498,66.1887297 L69.7500167,66.1887297 Z M249.463769,114.243152 C249.463769,160.888239 224.103562,194.035025 188.329931,210.340252 L265.768997,339.490182 L185.155012,339.490182 L115.416399,222.041651 L69.7500167,222.041651 L69.7500167,339.490182 L0.85700456,339.490182 L0.85700456,6.33112332 L131.267507,6.33112332 C195.11823,6.33112332 249.463769,45.4127769 249.463769,114.243152 L249.463769,114.243152 Z" id="Fill-116"></path>
                    <path d="M390.301005,234.461028 L474.532284,234.461028 L432.416644,134.832759 L390.301005,234.461028 Z M594.083074,339.487834 L518.006366,339.487834 L496.271282,287.54208 L368.562006,287.54208 L346.823008,339.487834 L270.742385,339.487834 L431.508406,0.679688358 L433.320968,0.679688358 L594.083074,339.487834 Z" id="Fill-117"></path>
                </g>
            </g>
        </g>
    </g>
</svg>