<?xml version="1.0" encoding="UTF-8"?>
<svg viewBox="0 0 1550 840" version="1.1" xmlns="http://www.w3.org/2000/svg" xmlns:xlink="http://www.w3.org/1999/xlink">
    <!-- Generator: Sketch 40.3 (33839) - http://www.bohemiancoding.com/sketch -->
    <title>icon_hepatitisc.net</title>
    <desc>Created with Sketch.</desc>
    <defs>
        <path d="M665.193454,333.242645 L597.174461,333.242645 L597.174461,6.49120843 L727.871942,6.49120843 C790.113208,6.49120843 842.568533,45.1699083 842.568533,114.515004 C842.568533,183.859069 790.551462,222.537769 727.871942,222.537769 L665.193454,222.537769 L665.193454,333.242645 L665.193454,333.242645 Z M665.193454,65.1790126 L665.193454,163.886056 L721.206366,163.886056 C752.764737,163.886056 774.1051,147.428352 774.1051,114.515004 C774.1051,82.506006 752.764737,65.1790126 721.206366,65.1790126 L665.193454,65.1790126 L665.193454,65.1790126 Z" id="path-1"></path>
    </defs>
    <g id="Page-1" stroke="none" stroke-width="1" fill="none" fill-rule="evenodd">
        <g id="icon_hepatitisc.net">
            <g id="avatar" transform="translate(29.000000, 1.000000)">
                <path d="M628.520233,838 L628.520233,640.753503 L139.493701,640.753503 C66.488504,640.753503 0,575.064091 0,502.965555 L0,126.190878 C0,91.4027402 15.4286112,59.0620762 43.4408634,35.1128965 C69.5117332,12.7844382 104.52628,5.68434189e-14 139.493701,5.68434189e-14 L1371.07389,5.68434189e-14 C1405.99213,5.68434189e-14 1437.33496,12.8561516 1459.31817,36.2295756 C1480.74611,59.0262195 1492.54705,90.9704112 1492.54705,126.190878 L1492.54705,502.965555 C1492.54705,538.582494 1480.98686,572.291858 1460.00252,597.897616 C1437.36057,625.519543 1405.77597,640.753503 1371.07389,640.753503 L839.347186,640.753503 L628.520233,838 L628.520233,838 Z" id="Clip-81" fill="#379EC1"></path>
                <g id="HEP-C" transform="translate(123.000000, 148.000000)">
                    <polygon id="Clip-84" fill-opacity="0.8" fill="#FFFFFF" points="268.602984 333.242645 201.023276 333.242645 201.023276 196.764343 68.5552512 196.764343 68.5552512 333.242645 0.534196019 333.242645 0.534196019 6.49120843 68.5552512 6.49120843 68.5552512 134.99536 201.023276 134.99536 201.023276 6.49120843 268.602984 6.49120843"></polygon>
                    <polygon id="Clip-87" fill-opacity="0.8" fill="#FFFFFF" points="548.698477 333.242645 333.979051 333.242645 333.979051 6.49120843 545.138829 6.49120843 545.138829 68.2962834 401.993919 68.2962834 401.993919 138.982951 526.024792 138.982951 526.024792 196.329184 401.993919 196.329184 401.993919 271.43757 548.698477 271.43757"></polygon>
                    <path d="M1126.96407,339.043058 C1028.72002,339.043058 959.36771,266.544599 959.36771,169.649347 C959.36771,73.1902851 1028.72002,0.726887005 1126.96407,0.726887005 C1178.53567,0.726887005 1213.64647,17.1845918 1245.21618,49.627719 L1202.53958,98.9626796 C1185.19815,78.5184154 1160.29814,62.4969017 1126.96407,62.4969017 C1066.945,62.4969017 1027.83217,107.409112 1027.83217,169.649347 C1027.83217,231.889582 1066.945,277.237983 1126.96407,277.237983 C1160.74773,277.237983 1186.09322,260.781309 1203.43568,239.900854 L1245.65856,289.236846 C1213.20821,324.797244 1174.53776,339.043058 1126.96407,339.043058 L1126.96407,339.043058 Z" id="Clip-93" fill-opacity="0.8" fill="#FFFFFF"></path>
                    <mask id="mask-2" fill="white">
                        <use xlink:href="#path-1"></use>
                    </mask>
                    <use id="Clip-90" fill-opacity="0.8" fill="#FFFFFF" xlink:href="#path-1"></use>
                </g>
            </g>
        </g>
    </g>
</svg>