<?xml version="1.0" encoding="UTF-8"?>
<svg width="835px" height="838px" viewBox="0 0 835 838" version="1.1" xmlns="http://www.w3.org/2000/svg" xmlns:xlink="http://www.w3.org/1999/xlink">
    <!-- Generator: Sketch 46.2 (44496) - http://www.bohemiancoding.com/sketch -->
    <title>icon_bladdercancer.net</title>
    <desc>Created with Sketch.</desc>
    <defs>
        <linearGradient x1="50%" y1="0%" x2="50%" y2="100%" id="linearGradient-1">
            <stop stop-color="#FD7982" offset="0%"></stop>
            <stop stop-color="#F975AD" offset="100%"></stop>
        </linearGradient>
    </defs>
    <g id="Page-1" stroke="none" stroke-width="1" fill="none" fill-rule="evenodd">
        <g id="instructions" transform="translate(-934.000000, -156.000000)"></g>
        <g id="icon_bladdercancer.net">
            <g id="Group" transform="translate(91.779182, 0.000000)">
                <path d="M209.528642,837.68613 L209.528642,643.163571 L134.976541,643.163571 C101.214652,643.163571 67.0779466,628.325548 41.3229582,602.450348 C15.6030878,576.611616 0.853534996,542.412779 0.853534996,508.625228 L0.853534996,124.370337 C0.853534996,90.4456897 15.3775223,58.782776 41.7504521,35.2233369 C66.8098343,12.8383241 100.78986,0 134.976541,0 L530.842652,0 C600.509302,0 651.07447,52.3041835 651.07447,124.370337 L651.07447,508.625228 C651.07447,543.552763 639.368025,576.656189 618.11084,601.84051 C595.61372,628.488981 564.623451,643.163571 530.842652,643.163571 L416.002796,643.163571 L209.528642,837.68613 L209.528642,837.68613 Z" id="Shape" fill="url(#linearGradient-1)"></path>
                <path d="M190.541294,144.022187 L190.541294,500.705432 L352.140641,500.705432 C418.139173,500.705432 470.549773,463.338615 470.549773,396.8548 C470.549773,347.355901 441.645881,319.339727 411.028028,309.503801 C424.323059,302.299116 452.364469,294.383843 454.912865,240.593569 C459.160354,179.232819 399.213124,144.022187 328.361758,144.022187 L190.541294,144.022187 Z M340.979125,348.326467 C375.434241,348.326467 395.330857,363.37025 395.330857,391.0314 C395.330857,418.692549 374.948957,433.251049 342.920258,433.251049 L264.304359,433.251049 L264.304359,348.326467 L340.979125,348.326467 Z M318.656092,211.476569 C349.228941,211.476569 384.834289,217.502835 380.664517,250.299235 C380.664516,283.250686 348.743658,289.607185 320.597225,289.607185 L264.304359,289.607185 L264.304359,211.476569 L318.656092,211.476569 Z" id="BC" fill="#000000" opacity="0.4"></path>
            </g>
        </g>
    </g>
</svg>