<?xml version="1.0" encoding="UTF-8"?>
<svg viewBox="0 0 952 840" version="1.1" xmlns="http://www.w3.org/2000/svg" xmlns:xlink="http://www.w3.org/1999/xlink">
    <!-- Generator: Sketch 40.3 (33839) - http://www.bohemiancoding.com/sketch -->
    <title>icon_irritablebowelsyndrome.net</title>
    <desc>Created with Sketch.</desc>
    <defs></defs>
    <g id="Page-1" stroke="none" stroke-width="1" fill="none" fill-rule="evenodd">
        <g id="icon_irritablebowelsyndrome.net">
            <g id="avatar" transform="translate(32.000000, 1.000000)">
                <path d="M328.025399,838 L328.025399,641.051644 L134.300163,641.051644 C100.485157,641.051644 66.3604034,626.588961 40.6855242,601.38232 C14.8273411,575.991718 -2.27373675e-13,542.04753 -2.27373675e-13,508.247 L-2.27373675e-13,126.278619 C-2.27373675e-13,92.187981 14.5597412,60.176381 40.9877173,36.1217905 C66.211295,13.1685714 100.221534,0 134.296585,0 L767.111917,0 C801.164303,0 832.115235,13.0488571 854.262805,36.7522857 C875.897443,59.9050286 887.818164,91.6971524 887.818164,126.278619 L887.818164,508.247 C887.818164,543.110593 875.996848,575.95341 854.541141,600.733868 C832.015829,626.731022 800.969468,641.055235 767.111917,641.055235 L535.484912,641.055235 L328.025399,838 Z" id="Fill-2" fill="#5470C0"></path>
                <g id="IBS" transform="translate(111.000000, 148.000000)" fill="#FFFFFF" opacity="0.8">
                    <polygon id="Fill-3" points="0.0203822226 333.74074 67.9967677 333.74074 67.9967677 6.01668916 0.0203822226 6.01668916"></polygon>
                    <path d="M262.868688,6.02029555 L136.692254,6.02029555 L136.692254,333.74074 L284.641351,333.74074 C345.064184,333.74074 393.049488,299.407932 393.049488,238.323742 C393.049488,192.843188 368.166444,169.658124 334.846644,158.065592 C350.394553,147.807423 366.389655,126.854312 366.389655,94.7494489 C366.389655,39.4595217 327.735492,6.02029555 262.868688,6.02029555 L262.868688,6.02029555 Z M274.423811,193.736771 C305.966822,193.736771 324.181912,207.557249 324.181912,232.974267 C324.181912,258.387277 305.523623,271.762968 276.200601,271.762968 L204.222645,271.762968 L204.222645,193.736771 L274.423811,193.736771 Z M253.984739,67.998068 C281.97417,67.998068 298.41247,81.3737585 298.41247,103.66524 C298.41247,125.515941 281.530971,139.785214 255.761529,139.785214 L204.222645,139.785214 L204.222645,67.998068 L253.984739,67.998068 Z" id="Fill-4"></path>
                    <path d="M540.383296,0.222025896 C470.186123,0.222025896 425.3112,42.1362627 425.3112,100.992506 C425.3112,149.145793 450.637442,183.033815 535.048934,201.314192 C583.477437,210.678778 598.138948,221.381735 598.138948,240.551688 C598.138948,264.630335 578.590267,277.561238 544.380075,277.561238 C511.060275,277.561238 474.182902,262.402389 452.414232,239.213317 L415.536859,295.841615 C447.970261,323.931366 492.397992,339.53901 542.160086,339.53901 C619.021219,339.53901 665.672933,297.179985 665.672933,234.30863 C665.672933,183.927397 639.0131,153.160905 554.597615,135.325315 C505.725913,125.960729 493.288384,116.596143 493.288384,97.8709777 C493.288384,73.7923306 511.060275,62.1997984 539.936104,62.1997984 C574.593488,62.1997984 599.472538,74.6859132 619.464419,90.7343375 L654.565002,34.5548347 C627.461969,13.5977164 587.031017,0.222025896 540.383296,0.222025896 L540.383296,0.222025896 Z" id="Fill-5"></path>
                </g>
            </g>
        </g>
    </g>
</svg>