<?xml version="1.0" encoding="UTF-8" standalone="no"?>
<svg width="835px" height="838px" viewBox="0 0 835 838" version="1.1" xmlns="http://www.w3.org/2000/svg" xmlns:xlink="http://www.w3.org/1999/xlink">
    <!-- Generator: Sketch 42 (36781) - http://www.bohemiancoding.com/sketch -->
    <title>icon_skincancer.net</title>
    <desc>Created with Sketch.</desc>
    <defs>
        <linearGradient x1="50%" y1="0%" x2="50%" y2="100%" id="linearGradient-1">
            <stop stop-color="#62DECE" offset="0%"></stop>
            <stop stop-color="#69CDF6" offset="100%"></stop>
        </linearGradient>
    </defs>
    <g id="Page-1" stroke="none" stroke-width="1" fill="none" fill-rule="evenodd">
        <g id="icon_skincancer.net">
            <g transform="translate(26.000000, 0.000000)" id="Group-2">
                <g>
                    <path d="M275.368144,641.132029 L134.726795,641.132029 C100.80441,641.132029 66.5713381,626.675509 40.815027,601.479201 C14.8746053,576.098782 0,542.168726 0,508.380588 L0,126.569646 C0,92.4938358 14.6061106,60.4931055 41.1180424,36.4513248 C66.4217482,13.5065365 100.539751,0.342625942 134.722959,0.342625942 L662.150073,0.342625942 C696.310268,0.342625942 727.359759,13.3876318 749.575776,37.0803694 C771.281654,60.2246109 783.237338,92.0028741 783.237338,126.569646 L783.237338,508.380588 C783.237338,543.231198 771.377544,576.060426 749.855778,600.830978 C727.260033,626.817427 696.11465,641.135865 662.150073,641.135865 L483.486042,641.135865 L275.368144,838 L275.368144,641.132029 Z" id="Shape" fill="url(#linearGradient-1)"></path>
                    <path d="M225.442674,151 C154.346793,151 108.899426,193.297549 108.899426,252.694108 C108.899426,301.291292 134.54794,335.48931 220.042986,353.938241 C269.090145,363.387694 283.939284,374.187068 283.939284,393.535947 C283.939284,417.834539 264.140431,430.883783 229.492439,430.883783 C195.744394,430.883783 158.396558,415.584669 136.347836,392.186025 L99,449.332714 C131.848097,477.681071 176.845489,493.430159 227.242569,493.430159 C305.088059,493.430159 352.335321,450.682636 352.335321,387.236312 C352.335321,336.389258 325.336885,305.341057 239.841839,287.3421 C190.344707,277.892648 177.745437,268.443195 177.745437,249.54429 C177.745437,225.245698 195.744394,213.546376 224.9927,213.546376 C260.090666,213.546376 285.289206,226.145646 305.538033,242.344707 L341.085973,185.647992 C313.637563,164.499218 272.689936,151 225.442674,151 L225.442674,151 Z M545.82411,151 C446.379872,151 376.183939,224.34575 376.183939,321.990092 C376.183939,420.084409 446.379872,493.430159 545.82411,493.430159 C593.97132,493.430159 633.119052,479.030993 665.967148,443.033079 L623.219625,393.085973 C605.670642,414.234748 580.022128,430.883783 545.82411,430.883783 C485.07763,430.883783 445.479924,384.986442 445.479924,321.990092 C445.479924,258.993743 485.07763,213.546376 545.82411,213.546376 C579.572154,213.546376 604.770694,229.745437 622.319678,250.444238 L665.517175,200.497132 C633.569026,167.649035 598.021085,151 545.82411,151 L545.82411,151 Z" id="SC" fill="#000000" opacity="0.4"></path>
                </g>
            </g>
        </g>
        <g id="instructions" transform="translate(-945.000000, -182.000000)"></g>
    </g>
</svg>