<?xml version="1.0" encoding="UTF-8"?>
<svg viewBox="0 0 1550 840" version="1.1" xmlns="http://www.w3.org/2000/svg" xmlns:xlink="http://www.w3.org/1999/xlink">
    <!-- Generator: Sketch 40.3 (33839) - http://www.bohemiancoding.com/sketch -->
    <title>icon_copd.net</title>
    <desc>Created with Sketch.</desc>
    <defs></defs>
    <g id="Page-1" stroke="none" stroke-width="1" fill="none" fill-rule="evenodd">
        <g id="icon_copd.net">
            <g id="avatar" transform="translate(29.000000, 1.000000)">
                <path d="M628.524331,838 L628.524331,640.754468 L139.498141,640.754468 C66.4881788,640.754468 0,575.083817 0,502.977438 L0,126.188212 C0,91.427905 15.4285358,59.0802278 43.4426999,35.1137493 C69.5134422,12.7997428 104.528842,0 139.498141,0 L1371.08665,0 C1405.98321,0 1437.31563,12.8786271 1459.31923,36.2550102 C1480.74706,59.0474448 1492.56024,90.9812356 1492.56024,126.188212 L1492.56024,502.977438 C1492.56024,538.599325 1480.99908,572.321843 1460.00357,597.924402 C1437.35149,625.539022 1405.76807,640.754468 1371.08665,640.754468 L839.348204,640.754468 L628.52638,838 L628.524331,838 Z" id="Shape" fill="#1BABA4"></path>
                <g id="COPD" transform="translate(120.000000, 148.000000)" fill="#FFFFFF" opacity="0.8">
                    <path d="M168.283007,339.780782 C69.7545345,339.780782 0.215946729,267.12817 0.215946729,169.95547 C0.215946729,73.2257046 69.7545345,0.57620462 168.283007,0.57620462 C219.990124,0.57620462 255.179012,17.0622761 286.830651,49.6028954 L244.057942,99.0828936 C226.664218,78.5782579 201.720905,62.526822 168.283007,62.526822 C108.079231,62.526822 68.8800766,107.549471 68.8800766,169.95547 C68.8800766,232.358358 108.079231,277.822904 168.283007,277.822904 C202.122347,277.822904 227.538676,261.336832 244.9324,240.384076 L287.268399,289.859924 C254.741265,325.522867 215.978821,339.780782 168.283007,339.780782 L168.283007,339.780782 Z" id="Shape"></path>
                    <path d="M465.588296,339.780782 C368.846082,339.780782 297.521235,268.462159 297.521235,170.842376 C297.521235,72.335687 368.846082,0.57620462 465.588296,0.57620462 C561.855418,0.57620462 634.092066,72.335687 634.092066,170.842376 C634.092066,268.462159 561.855418,339.780782 465.588296,339.780782 L465.588296,339.780782 Z M465.588296,62.526822 C407.170778,62.526822 366.184328,107.549471 366.184328,170.842376 C366.184328,233.244226 407.170778,277.822904 465.588296,277.822904 C523.968469,277.822904 564.992263,233.244226 564.992263,170.842376 C564.992263,107.549471 523.968469,62.526822 465.588296,62.526822 L465.588296,62.526822 Z" id="Shape"></path>
                    <path d="M747.022641,334.117034 L678.906215,334.117034 L678.906215,5.85614572 L810.581099,5.85614572 C872.972576,5.85614572 925.591494,44.7088361 925.591494,114.248461 C925.591494,183.779788 873.44663,222.632478 810.581099,222.632478 L747.022641,222.632478 L747.022641,334.117034 L747.022641,334.117034 Z M747.022641,64.6948135 L747.022641,163.795885 L803.908042,163.795885 C835.559681,163.795885 856.927364,147.22994 856.927364,114.247424 C856.927364,82.1466267 835.559681,64.6948135 803.908042,64.6948135 L747.022641,64.6948135 L747.022641,64.6948135 Z" id="Shape"></path>
                    <path d="M1073.56988,334.117034 L970.009388,334.117034 L970.009388,5.85614572 L1073.56988,5.85614572 C1185.44551,5.85614572 1252.75905,66.351408 1252.75905,169.762529 C1252.75905,273.180912 1186.35731,334.117034 1073.56988,334.117034 L1073.56988,334.117034 Z M1038.1559,69.3316184 L1038.1559,272.178864 L1071.33861,272.178864 C1145.32625,272.178864 1183.65095,234.940239 1183.65095,170.755241 C1183.65095,106.121086 1144.88851,69.3316184 1071.33861,69.3316184 L1038.1559,69.3316184 L1038.1559,69.3316184 Z" id="Shape"></path>
                </g>
            </g>
        </g>
    </g>
</svg>