<?xml version="1.0" encoding="UTF-8"?>
<svg viewBox="0 0 708 840" version="1.1" xmlns="http://www.w3.org/2000/svg" xmlns:xlink="http://www.w3.org/1999/xlink">
    <!-- Generator: Sketch 40.3 (33839) - http://www.bohemiancoding.com/sketch -->
    <title>icon_migraine.com</title>
    <desc>Created with Sketch.</desc>
    <defs></defs>
    <g id="Page-1" stroke="none" stroke-width="1" fill="none" fill-rule="evenodd">
        <g id="icon_migraine.com">
            <g id="avatar" transform="translate(28.000000, 4.000000)">
                <path d="M205.765701,838 L205.765701,641.713471 L131.369194,641.713471 C97.5608428,641.713471 64.7848079,627.637702 39.018757,601.592647 C13.339895,575.631293 0,542.178673 0,508.300571 L0,123.288531 C0,89.2988268 13.1236667,58.1305544 39.4756267,34.6244387 C64.4988285,12.3040914 97.1074608,0 131.369194,0 L528.015715,0 C597.955128,0 652.172646,51.2740227 652.172646,123.288531 L652.172646,508.300571 C652.172646,543.298178 638.675811,575.662681 617.300591,600.999763 C594.683802,627.81208 561.862429,641.713471 528.015715,641.713471 L412.943862,641.713471 L205.765701,838 L205.765701,838 Z" id="Shape" fill="#1E7EBE"></path>
                <polygon id="Shape" fill-opacity="0.8" fill="#FFFFFF" points="494.494845 481.494845 424.391753 481.494845 424.391753 340.692784 327.505773 485 323.891959 485 228.103093 340.692784 228.103093 481.494845 158 481.494845 158 145 159.777113 145 325.697113 379.186392 491.168454 145 494.494845 145 494.494845 481.494845"></polygon>
            </g>
        </g>
    </g>
</svg>