<?xml version="1.0" encoding="UTF-8"?>
<svg viewBox="0 0 1100 840" version="1.1" xmlns="http://www.w3.org/2000/svg" xmlns:xlink="http://www.w3.org/1999/xlink">
    <!-- Generator: Sketch 40.3 (33839) - http://www.bohemiancoding.com/sketch -->
    <title>icon_psoriatic-arthritis.com</title>
    <desc>Created with Sketch.</desc>
    <defs></defs>
    <g id="Page-1" stroke="none" stroke-width="1" fill="none" fill-rule="evenodd">
        <g id="icon_psoriatic-arthritis.com">
            <g id="avatar" transform="translate(28.000000, 1.000000)">
                <path d="M123.414876,0 C91.8957823,0 60.4359268,12.1311911 37.1086661,33.2835539 C13.1763268,54.9732942 0,83.6700985 0,114.084818 L0,533.031927 C0,563.565123 13.6502345,594.441057 37.4429403,617.721773 C61.1848703,640.951713 92.5177862,654.271905 123.414876,654.271905 L419.01418,654.271905 L419.01418,838 L613.244408,654.271905 L935.869145,654.271905 C965.958053,654.271905 993.597027,641.548329 1013.6831,618.445329 C1033.43489,595.706221 1044.31785,565.376128 1044.31785,533.031927 L1044.31785,114.084818 C1044.31785,47.9789242 998.704229,0 935.869145,0 L123.414876,0 Z" id="Fill-115" fill="#B84E8B"></path>
                <path d="M278.515459,153.859527 L146,153.859527 L146,485.148175 L214.962127,485.148175 L214.962127,372.915694 L278.515459,372.915694 C342.068792,372.915694 394.804535,333.701936 394.804535,263.387611 C394.804535,193.073285 341.618059,153.859527 278.515459,153.859527 L278.515459,153.859527 Z M271.754466,213.356264 C303.756499,213.356264 325.391676,230.934845 325.391676,263.387611 C325.391676,296.741842 303.756499,313.418957 271.754466,313.418957 L214.962127,313.418957 L214.962127,213.356264 L271.754466,213.356264 Z M490.972614,247.894609 C438.281944,247.894609 405.153079,280.076934 405.153079,322.355676 C405.153079,355.800054 422.190781,383.249685 484.662354,396.501231 C515.898141,402.180465 522.523914,407.859699 522.523914,416.063036 C522.523914,427.421504 513.374037,433.416251 492.865692,433.416251 C470.148757,433.416251 444.276691,422.688809 429.44758,406.282134 L397.265254,456.133187 C420.928729,476.957045 454.68862,488 490.972614,488 C548.39598,488 582.471384,457.079726 582.471384,410.383803 C582.471384,375.046347 565.118169,351.067359 502.331082,338.131326 C471.095296,332.767605 465.416062,327.088371 465.416062,319.200546 C465.416062,308.157591 473.6194,302.478357 490.657101,302.478357 C515.267115,302.478357 531.989304,310.997208 545.24085,321.72465 L576.161124,272.189109 C556.599318,257.044486 525.363531,247.894609 490.972614,247.894609 L490.972614,247.894609 Z M737.003263,148 L735.200332,148 L575.190169,485.148175 L650.913288,485.148175 L672.548465,433.76463 L799.65513,433.76463 L821.290307,485.148175 L897.013427,485.148175 L737.003263,148 Z M736.101798,280.966192 L778.019953,380.12742 L694.183642,380.12742 L736.101798,280.966192 Z" id="PSA" fill="#FFFFFF" opacity="0.8"></path>
            </g>
        </g>
    </g>
</svg>