<?xml version="1.0" encoding="UTF-8"?>
<svg viewBox="0 0 1202 840" version="1.1" xmlns="http://www.w3.org/2000/svg" xmlns:xlink="http://www.w3.org/1999/xlink">
    <!-- Generator: Sketch 40.3 (33839) - http://www.bohemiancoding.com/sketch -->
    <title>icon_type2diabetes.com</title>
    <desc>Created with Sketch.</desc>
    <defs></defs>
    <g id="Page-1" stroke="none" stroke-width="1" fill="none" fill-rule="evenodd">
        <g id="icon_type2diabetes.com">
            <g id="avatar" transform="translate(30.000000, 1.000000)">
                <path d="M124.76639,0 C92.9129894,0 61.137314,11.7501419 37.5867378,32.2374514 C13.3503557,53.3236982 3.41060513e-13,81.4554581 3.41060513e-13,111.457182 L3.41060513e-13,533.090677 C3.41060513e-13,563.677622 13.9310048,595.03267 38.2176793,619.122747 C62.4906377,643.194535 94.0377111,656.992951 124.76639,656.992951 L468.903813,656.992951 L468.903813,838 L662.424534,656.992951 L1036.11105,656.992951 C1074.01783,656.992951 1098.40509,636.949129 1112.19893,620.128595 C1131.0083,597.204389 1141.79375,565.474434 1141.79375,533.090677 L1141.79375,111.457182 C1141.79375,79.7820916 1131.48837,51.3120008 1112.77044,31.2956113 C1093.63188,10.8220178 1067.12319,0 1036.11105,0 L124.76639,0 Z" id="Fill-13" fill="#EE394E"></path>
                <g id="T2D" transform="translate(142.000000, 148.000000)" fill="#FFFFFF" opacity="0.8">
                    <polygon id="Fill-15" points="284.907607 67.241837 177.327891 67.241837 177.327891 339.845192 107.647493 339.845192 107.647493 67.241837 0.0804358682 67.241837 0.0804358682 6.1269717 284.907607 6.1269717"></polygon>
                    <path d="M520.036123,105.53441 C520.036123,142.813465 505.943079,170.016416 483.216991,200.919845 L425.022002,279.950598 L523.280899,279.950598 L523.280899,339.846036 L308.129906,339.846036 L308.129906,337.381863 L427.03891,166.902444 C445.676328,140.083465 451.942248,126.450344 451.942248,103.715816 C451.942248,76.4369153 434.612867,60.0737941 409.612482,60.0737941 C383.253426,60.0737941 368.670923,76.4369153 363.219362,109.62308 L302.290154,95.5342559 C314.568824,31.4320028 351.379517,0.06443107 409.570287,0.06443107 C476.40254,0.06443107 520.036123,44.1621567 520.036123,105.53441" id="Fill-17"></path>
                    <path d="M638.1852,69.6853346 L638.1852,277.502881 L672.784889,277.502881 C748.245967,277.502881 787.347835,239.063471 787.347835,173.598327 C787.347835,107.677481 747.798703,69.6853346 672.784889,69.6853346 L638.1852,69.6853346 Z M857.808836,172.758652 C857.808836,278.228631 790.069396,339.845614 675.063405,339.845614 L568.509022,339.845614 L568.509022,6.12739365 L675.063405,6.12739365 C789.162209,6.12739365 857.808836,67.2886732 857.808836,172.758652 L857.808836,172.758652 Z" id="Fill-19"></path>
                </g>
            </g>
        </g>
    </g>
</svg>