<?xml version="1.0" encoding="UTF-8"?>
<svg width="833px" height="834px" viewBox="0 0 833 834" version="1.1" xmlns="http://www.w3.org/2000/svg" xmlns:xlink="http://www.w3.org/1999/xlink">
    <!-- Generator: Sketch 46.1 (44463) - http://www.bohemiancoding.com/sketch -->
    <title>avatar</title>
    <desc>Created with Sketch.</desc>
    <defs>
        <linearGradient x1="50%" y1="0%" x2="50%" y2="100%" id="linearGradient-1">
            <stop stop-color="#8EB2EE" offset="0%"></stop>
            <stop stop-color="#AFA0D9" offset="100%"></stop>
        </linearGradient>
    </defs>
    <g id="Page-1" stroke="none" stroke-width="1" fill="none" fill-rule="evenodd">
        <g id="avatar" transform="translate(-1.000000, -2.000000)">
            <g id="bug">
                <g id="Group">
                    <path d="M301.91335,639.507853 L135.415279,639.507853 C101.693958,639.507853 67.6637911,625.137019 42.060142,600.090054 C16.2734735,574.860069 1.48703249,541.131122 1.48703249,507.543252 L1.48703249,127.995368 C1.48703249,94.1215306 16.0065702,62.3104741 42.3613614,38.411193 C67.5150878,15.6024024 101.430867,2.51651652 135.411466,2.51651652 L713.093084,2.51651652 C747.050805,2.51651652 777.916262,15.4842024 800.000601,39.0365092 C821.577823,62.0435708 833.462644,93.6334789 833.462644,127.995368 L833.462644,507.543252 C833.462644,542.187296 821.673146,574.82194 800.278943,599.445673 C777.817126,625.278096 746.856347,639.511666 713.093084,639.511666 L508.797698,639.511666 L301.91335,835.208954 L301.91335,639.507853 Z" id="Shape" fill="url(#linearGradient-1)"></path>
                    <g id="Group-3" transform="translate(131.125762, 143.593958)" fill="#000000" opacity="0.4">
                        <path d="M453.77437,0 C352.814529,0 281.548759,74.4635929 281.548759,173.596106 C281.548759,273.185451 352.814529,347.649044 453.77437,347.649044 C502.655378,347.649044 542.39975,333.030425 575.748476,296.483876 L532.349449,245.77554 C514.533007,267.246637 488.493591,284.149416 453.77437,284.149416 C392.102069,284.149416 351.900865,237.552566 351.900865,173.596106 C351.900865,109.639646 392.102069,63.4996283 453.77437,63.4996283 C488.036759,63.4996283 513.619343,79.9455752 531.435785,100.959841 L575.291644,50.2515044 C542.856582,16.9027788 506.766865,0 453.77437,0 L453.77437,0 Z" id="BC"></path>
                        <path d="M70.0977306,343.390108 L0,343.390108 L0,7.62580763 L135.504915,7.62580763 C199.711174,7.62580763 253.860619,47.3665957 253.860619,118.495763 C253.860619,189.616442 200.199016,229.35723 135.504915,229.35723 L70.0977306,229.35723 L70.0977306,343.390108 L70.0977306,343.390108 Z M70.0977306,67.8094141 L70.0977306,169.175745 L128.637758,169.175745 C161.210049,169.175745 183.199254,152.231135 183.199254,118.494702 C183.199254,85.6601422 161.210049,67.8094141 128.637758,67.8094141 L70.0977306,67.8094141 L70.0977306,67.8094141 Z" id="Shape"></path>
                    </g>
                </g>
            </g>
        </g>
    </g>
</svg>