<?xml version="1.0" encoding="UTF-8" standalone="no"?>
<svg width="840px" height="100px" viewBox="0 0 840 100" version="1.1" xmlns="http://www.w3.org/2000/svg" xmlns:xlink="http://www.w3.org/1999/xlink">
    <!-- Generator: Sketch 42 (36781) - http://www.bohemiancoding.com/sketch -->
    <title>logo_masthead-1701</title>
    <desc>Created with Sketch.</desc>
    <defs>
        <linearGradient x1="49.9999223%" y1="-97.647234%" x2="49.9999223%" y2="83.9567021%" id="linearGradient-1">
            <stop stop-color="#98B9E3" offset="0%"></stop>
            <stop stop-color="#1E7EBE" offset="100%"></stop>
        </linearGradient>
    </defs>
    <g id="Page-1" stroke="none" stroke-width="1" fill="none" fill-rule="evenodd">
        <g id="logo_masthead-1701" fill="url(#linearGradient-1)">
            <g id="Migraine" transform="translate(155.000000, 19.700001)">
                <polygon id="Shape" points="39.5653104 39.682892 39.3155228 39.682892 27.4977006 6.04930694 0.267337131 6.04930694 0.267337131 13.5236319 7.74107715 13.5236319 7.74107715 53.5633634 0.267337131 53.5633634 0.267337131 60.5035991 21.6215486 60.5035991 21.6215486 53.5633634 14.6813129 53.5633634 14.6813129 15.1247298 16.4298264 15.1247298 33.157409 61.0376884 38.7328799 61.0376884 54.8778197 15.1247298 54.7210443 53.5633634 47.7808086 53.5633634 47.7808086 60.5035991 75.5423365 60.5035991 75.5423365 53.5633634 68.6021007 53.5633634 68.6021007 13.5236319 75.5423365 13.5236319 75.5423365 6.04930694 50.6337696 6.04930694"></polygon>
                <path d="M91.1449972,14.2589553 C95.5557674,14.2589553 98.6351167,11.179021 98.6351167,7.10169097 C98.6351167,3.10684355 95.6394199,0.111146728 91.1449972,0.111146728 C86.734227,0.111146728 83.7385302,3.27356365 83.7385302,7.35089363 C83.7385302,11.4282236 86.6511595,14.2589553 91.1449972,14.2589553 L91.1449972,14.2589553 Z" id="Shape"></path>
                <polygon id="Shape" points="96.8965479 21.5308763 78.7457022 21.5308763 78.7457022 28.471697 84.6177593 28.471697 84.6177593 54.0968677 78.7457022 54.0968677 78.7457022 60.5035991 103.303279 60.5035991 103.303279 54.0968677 96.8965479 54.0968677"></polygon>
                <path d="M142.932353,12.1530173 C137.689152,12.1530173 133.69489,15.5646369 131.780241,20.9745576 C129.700042,20.3919148 127.286988,20.1427121 124.707214,20.1427121 C113.888543,20.1427121 107.730429,25.4683954 107.730429,32.5425921 C107.730429,38.118063 111.142049,41.446615 116.718104,42.8611034 C110.892846,43.5268138 106.676875,47.1063235 106.676875,51.0169334 C106.676875,54.1781803 108.641832,57.1750471 113.446881,58.1736127 L113.446881,58.5901204 C107.574239,59.3388984 104.513609,62.0848076 104.513609,65.9965874 C104.513609,71.1561356 110.324828,74.4852726 122.97391,74.4852726 C139.868213,74.4852726 147.017873,69.1970282 147.017873,61.3752235 C147.017873,55.2165247 142.933523,51.4275913 132.696909,51.4275913 L121.96189,51.4275913 C117.55112,51.4275913 115.969912,49.9739091 115.969912,48.2259805 C115.969912,46.7284246 117.55112,45.252513 119.964174,45.252513 C121.462315,45.252513 123.626166,45.3051615 125.290442,45.3051615 C136.108529,45.3051615 142.099922,40.7539954 142.099922,32.681818 C142.099922,28.0212602 139.769936,24.4979089 135.608953,22.4177102 C136.774239,19.4214283 138.438515,17.9092479 140.103376,17.7419428 C140.103376,18.075383 140.019724,18.4842859 140.019724,18.8171411 C140.019724,21.3144326 141.85072,23.2244014 144.762764,23.2244014 C148.008833,23.2244014 150.005965,20.9763126 150.005965,18.0630983 C150.005965,15.0679865 147.842113,12.1530173 142.932353,12.1530173 L142.932353,12.1530173 Z M119.713801,61.0376884 L129.700042,61.0376884 C134.52732,61.0376884 136.274664,61.9771707 136.274664,64.0579545 C136.274664,67.1373039 132.778807,69.1051859 124.456842,69.1051859 C115.635886,69.1051859 112.973045,67.3174786 112.973045,64.821942 C112.97363,62.4907856 115.136896,61.0376884 119.713801,61.0376884 L119.713801,61.0376884 Z M125.122552,41.0306923 C121.295595,41.0306923 119.381531,38.4497483 119.381531,32.8748624 C119.381531,27.2999764 120.96274,24.6365498 124.707214,24.6365498 C128.534757,24.6365498 130.366338,27.6322467 130.366338,32.8748624 C130.366338,38.4503332 128.785129,41.0306923 125.122552,41.0306923 L125.122552,41.0306923 Z" id="Shape"></path>
                <path d="M179.39199,20.2246097 C174.066306,20.2246097 169.503441,23.8035344 166.833579,31.0438662 L166.833579,21.5308763 L149.749742,21.5308763 L149.749742,28.471112 L155.622384,28.471112 L155.622384,54.0968677 L149.749742,54.0968677 L149.749742,60.5030141 L174.841994,60.5030141 L174.841994,54.0968677 L167.368254,54.0968677 L167.368254,35.9536267 C168.969352,31.1269338 172.045191,28.6302273 174.29211,28.4635072 C174.29211,28.7132948 174.46702,28.9630825 174.46702,29.1292176 C174.46702,32.9573449 177.425863,35.0381287 181.08727,35.0381287 C184.66561,35.0381287 187.437843,32.0424319 187.437843,27.8820343 C187.437843,23.8035344 184.219268,20.2246097 179.39199,20.2246097 L179.39199,20.2246097 Z" id="Shape"></path>
                <path d="M226.290059,53.8470801 C224.958639,53.8470801 223.957733,53.4305723 223.957733,51.5165086 L223.957733,33.7909454 C223.957733,25.718183 220.048878,20.2251947 208.314708,20.2251947 C198.744975,20.2251947 189.967308,23.6379842 189.967308,30.7946636 C189.967308,33.8745979 192.110685,36.6205071 196.354735,36.6205071 C199.76694,36.6205071 202.294651,34.3735882 202.294651,31.460374 C202.294651,29.5463103 201.561667,28.1324069 200.313314,27.2169089 C201.894522,26.5511985 203.249927,26.2177583 204.913619,26.2177583 C209.740896,26.2177583 211.678359,28.0487544 211.678359,33.0421674 L211.678359,36.453787 C211.678359,37.4523526 211.66315,37.5354202 207.085075,38.2011306 C197.514756,39.4494838 193.719973,41.1137598 191.140199,43.6941189 C189.392855,45.4414625 188.493737,47.8551014 188.493737,50.4342905 C188.493737,56.7591243 193.537458,61.0101942 200.444935,61.0101942 C206.186541,61.0101942 210.896822,59.4360055 213.394699,53.0292741 L213.810037,53.0292741 C214.476332,58.9019163 218.220807,61.0101942 222.964432,61.0101942 C228.539903,61.0101942 231.619252,57.9700387 233.199876,51.5615523 L228.99619,50.1657834 C228.247412,52.9959301 227.205557,53.8470801 226.290059,53.8470801 L226.290059,53.8470801 Z M211.678359,45.1922598 C211.678359,50.1845029 209.498129,53.679775 205.753654,53.679775 C202.091662,53.679775 200.79417,51.3497886 200.79417,48.686362 C200.79417,44.9418872 202.324485,43.0278235 208.233981,42.0286729 C210.31418,41.6133351 211.144855,41.5290976 211.678359,41.3635475 L211.678359,45.1922598 L211.678359,45.1922598 Z" id="Shape"></path>
                <polyline id="Shape" points="252.251437 21.5299988 234.100006 21.5299988 234.100006 28.4708195 239.972648 28.4708195 239.972648 54.0959902 234.100006 54.0959902 234.100006 60.5027216 258.658168 60.5027216 258.658168 54.0959902 252.251437 54.0959902"></polyline>
                <path d="M246.517009,14.2589553 C250.928364,14.2589553 254.007713,11.179021 254.007713,7.10169097 C254.007713,3.10684355 251.012017,0.111146728 246.517009,0.111146728 C242.106824,0.111146728 239.110542,3.27356365 239.110542,7.35089363 C239.110542,11.4282236 242.023171,14.2589553 246.517009,14.2589553 L246.517009,14.2589553 Z" id="Shape"></path>
                <path d="M304.037781,33.9570805 C304.037781,25.8843181 300.48635,20.2246097 292.081318,20.2246097 C284.925223,20.2246097 281.081302,24.7196174 277.878521,31.2942389 L277.878521,21.5308763 L261.328773,21.5308763 L261.328773,28.471112 L267.201415,28.471112 L267.201415,54.0968677 L261.328773,54.0968677 L261.328773,60.5030141 L283.217074,60.5030141 L283.217074,54.0968677 L278.946114,54.0968677 L278.946114,37.8682754 C278.946114,32.2922195 282.918148,28.3804396 286.829342,28.3804396 C288.493618,28.3804396 289.685813,28.8800149 290.601311,29.7118605 C291.849665,30.9607987 292.293082,33.0409975 292.293082,35.6207715 L292.293082,54.0962827 L287.488618,54.0962827 L287.488618,60.5024292 L309.911008,60.5024292 L309.911008,54.0968677 L304.038366,54.0968677 L304.038366,33.9570805 L304.037781,33.9570805 Z" id="Shape"></path>
                <path d="M332.209382,20.5288007 C320.475797,20.5288007 311.737909,29.2403643 311.737909,41.0570165 C311.737909,53.0409738 319.643952,61.3676187 332.626474,61.3676187 C343.528214,61.3676187 349.021202,56.2326398 350.519343,48.2248105 L344.027204,48.2248105 C342.27986,53.0292741 339.367231,55.0006661 334.706673,55.0006661 C328.548559,55.0006661 324.886567,51.9622655 324.387577,42.8862577 L350.935265,42.8862577 C351.517323,30.0733798 345.35921,20.5288007 332.209382,20.5288007 L332.209382,20.5288007 Z M324.470644,37.5471198 C324.97022,29.5392905 327.633061,26.4786606 331.961934,26.4786606 C336.455187,26.4786606 338.618453,29.5387056 339.034376,37.5471198 L324.470644,37.5471198 L324.470644,37.5471198 Z" id="Shape"></path>
                <path d="M361.515849,46.6898157 C357.272384,46.6898157 354.027484,49.9353002 354.027484,54.0962827 C354.027484,58.1741977 357.272384,61.4196822 361.432197,61.4196822 C365.677417,61.4196822 368.922316,58.0917151 368.922316,54.0132152 C368.922316,49.9353002 365.677417,46.6898157 361.515849,46.6898157 L361.515849,46.6898157 Z" id="Shape"></path>
                <path d="M394.398901,54.0383694 C387.906762,54.0383694 384.577625,48.5740453 384.577625,40.4188003 C384.577625,31.4317098 388.656125,26.2031337 394.148529,26.2031337 C397.394598,26.2031337 399.391729,27.3333205 400.555845,28.8308764 C398.808501,29.4971718 397.060573,31.393686 397.060573,34.0576975 C397.060573,37.2206994 399.223839,39.9578339 403.302339,39.9578339 C407.630627,39.9578339 409.960028,36.9580422 409.960028,32.7964747 C409.960028,26.8875636 404.218422,20.1444671 392.983243,20.1444671 C380.33416,20.1444671 371.512035,28.6325672 371.512035,41.1997523 C371.512035,52.9333369 379.334425,61.1125662 392.56615,61.1125662 C402.386256,61.1125662 408.2121,55.6997205 410.043096,47.1578019 L403.550957,47.1578019 C401.970918,51.9616805 398.891569,54.0383694 394.398901,54.0383694 L394.398901,54.0383694 Z" id="Shape"></path>
                <path d="M434.634017,20.1421271 C422.567577,20.1421271 413.496249,28.7138798 413.496249,40.6978371 C413.496249,52.7642769 422.151654,60.8364543 434.550364,60.8364543 C446.533737,60.8364543 455.60565,52.3483542 455.60565,40.2819143 C455.60565,28.2985421 446.951414,20.1421271 434.634017,20.1421271 L434.634017,20.1421271 Z M434.800737,55.1785009 C429.475054,55.1785009 426.811627,51.0994159 426.811627,40.531117 C426.811627,30.0458856 429.058546,25.8006656 434.301747,25.8006656 C439.711082,25.8006656 442.290856,29.9622331 442.290856,40.4474645 C442.290856,50.9326958 440.12642,55.1785009 434.800737,55.1785009 L434.800737,55.1785009 Z" id="Shape"></path>
                <path d="M522.923128,54.0968677 L522.923128,33.9570805 C522.923128,25.8843181 520.016934,20.2246097 511.862274,20.2246097 C505.370135,20.2246097 501.420916,24.3036946 498.590184,30.5454609 C497.757754,24.1363896 493.964141,20.2246097 487.306451,20.2246097 C480.565695,20.2246097 475.942576,24.7196174 473.273885,31.2942389 L473.273885,21.5308763 L456.190047,21.5308763 L456.190047,28.471112 L462.06269,28.471112 L462.06269,54.0968677 L456.190047,54.0968677 L456.190047,60.5030141 L478.078933,60.5030141 L478.078933,54.0968677 L474.341478,54.0968677 L474.341478,37.8682754 C474.341478,32.2922195 478.167266,28.3804396 481.662538,28.3804396 C483.160094,28.3804396 484.183228,28.7963624 484.932006,29.6299629 C486.18153,30.8771462 486.620852,32.9579299 486.620852,35.6213565 L486.620852,54.0968677 L482.349892,54.0968677 L482.349892,60.5030141 L502.637095,60.5030141 L502.637095,54.0968677 L498.365551,54.0968677 L498.365551,37.8682754 C498.365551,32.2922195 502.411292,28.3804396 505.907734,28.3804396 C507.488357,28.3804396 508.317863,28.7963624 509.150294,29.6299629 C510.399817,30.8771462 510.644925,32.9579299 510.644925,35.6213565 L510.644925,54.0968677 L506.373965,54.0968677 L506.373965,60.5030141 L528.262851,60.5030141 L528.262851,54.0968677 L522.923128,54.0968677 L522.923128,54.0968677 Z" id="Shape"></path>
            </g>
        </g>
    </g>
</svg>