<?xml version="1.0" encoding="UTF-8"?>
<svg width="297px" height="297px" viewBox="0 0 297 297" version="1.1" xmlns="http://www.w3.org/2000/svg" xmlns:xlink="http://www.w3.org/1999/xlink">
    <!-- Generator: Sketch 40.3 (33839) - http://www.bohemiancoding.com/sketch -->
    <title>avatar</title>
    <desc>Created with Sketch.</desc>
    <defs></defs>
    <g id="Page-1" stroke="none" stroke-width="1" fill="none" fill-rule="evenodd">
        <g id="logo_migraine.com" transform="translate(-167.000000, -390.000000)">
            <g id="avatar" transform="translate(167.000000, 390.000000)">
                <rect id="Rectangle-path" fill="#1E7EBE" x="0" y="2.27373675e-13" width="297" height="297"></rect>
                <path d="M113.23,294.116 L113.23,237.834 L91.898,237.834 C82.204,237.834 72.806,233.798 65.418,226.33 C58.055,218.886 54.23,209.294 54.23,199.58 L54.23,89.184 C54.23,79.438 57.993,70.501 65.549,63.761 C72.724,57.361 82.074,53.833 91.898,53.833 L205.63,53.833 C225.684,53.833 241.23,68.535 241.23,89.184 L241.23,199.58 C241.23,209.615 237.36,218.895 231.231,226.16 C224.746,233.848 215.335,237.834 205.63,237.834 L172.635,237.834 L113.23,294.116 L113.23,294.116 Z M91.898,59.833 C83.477,59.833 75.636,62.722 69.509,68.187 C63.2,73.814 60.23,81.112 60.23,89.184 L60.23,199.58 C60.23,216.829 74.798,232.834 91.898,232.834 L119.23,232.834 L119.23,280.706 L170.339,232.834 L205.631,232.834 C213.599,232.834 221.335,229.183 226.7,222.821 C231.872,216.69 235.23,208.124 235.23,199.58 L235.23,89.184 C235.23,80.79 231.992,73.435 226.821,68.027 C221.542,62.506 213.957,59.834 205.631,59.834 L91.898,59.834 L91.898,59.833 Z" id="Shape" fill="#FFFFFF" opacity="0.4"></path>
                <g id="Group" opacity="0.85" transform="translate(100.000000, 95.000000)" fill-opacity="0.8" fill="#FFFFFF">
                    <polygon id="Shape" points="96.23 96.833 76.23 96.833 76.23 56.663 48.589 97.833 47.558 97.833 20.23 56.663 20.23 96.833 0.23 96.833 0.23 0.833 0.737 0.833 48.073 67.645 95.281 0.833 96.23 0.833 96.23 96.833"></polygon>
                </g>
            </g>
        </g>
    </g>
</svg>