<?xml version="1.0" encoding="UTF-8" standalone="no"?>
<svg width="481px" height="283px" viewBox="0 0 481 283" version="1.1" xmlns="http://www.w3.org/2000/svg" xmlns:xlink="http://www.w3.org/1999/xlink">
    <g id="Page-1" stroke="none" stroke-width="1" fill="none" fill-rule="evenodd">
        <path d="M181,175.736665 L139,175.736665 L139,218.695786 L181,218.695786 L181,175.736665 L181,175.736665 Z M107,218.695786 L107,175.736665 L64,175.736665 L64,218.695786 L107,218.695786 C107,218.695786 107,240.175346 107,218.695786 L107,218.695786 Z M384,154.756629 L384,239.675822 C384,262.653956 364,282.634943 341,282.634943 L43,282.634943 C20,282.634943 0,262.653956 0,239.675822 L0,154.756629 C0,131.778494 20,111.797507 43,111.797507 L341,111.797507 C364,111.797507 384,131.778494 384,154.756629 L384,154.756629 Z M436.759203,152.600136 L412.729001,152.588709 C412.718917,131.385588 402.815389,113.004845 389.38036,99.5698166 C375.945331,86.1347878 358.271695,76.9383663 337.068575,76.9282829 L337.057147,52.8980802 C363.914433,52.9108525 389.362882,62.8177419 407.747659,81.2025182 C426.132435,99.5872945 436.746431,125.742851 436.759203,152.600136 L436.759203,152.600136 L436.759203,152.600136 Z M456.886586,150.849942 C454.749804,116.217171 441.306036,84.4061045 418.678619,61.7786875 C396.051202,39.1512705 364.947243,26.4146095 330.314472,24.277828 L330.303044,0.247625259 C372.709284,0.267792004 410.17586,16.5413313 437.045918,43.411389 C463.915976,70.2814467 480.896622,108.45513 480.916788,150.86137 L456.886586,150.849942 L456.886586,150.849942 Z" fill="#ffffff"></path>
    </g>
</svg>