<svg xmlns="http://www.w3.org/2000/svg" width="37.84" height="25.625" viewBox="0 0 37.84 25.625">
  <defs>
    <style>
      .cls-1 {
        fill: #4d4d4d;
        fill-rule: evenodd;
      }
    </style>
  </defs>
  <path id="binoculars_icon" data-name="binoculars icon" class="cls-1" d="M1358.17,357.336l-9.1-11.348a3.64,3.64,0,0,0-.47-0.562,4.45,4.45,0,0,0-3.19-1.3,4.349,4.349,0,0,0-3.16,1.3,4.256,4.256,0,0,0-1.27,2.324h-1.16a4.387,4.387,0,0,0-1.27-2.324,4.339,4.339,0,0,0-3.17-1.3,4.48,4.48,0,0,0-3.21,1.3,3.64,3.64,0,0,0-.47.562l-9.09,11.348a7.772,7.772,0,0,0-1.13,4.136,7.994,7.994,0,0,0,2.48,5.882,8.122,8.122,0,0,0,5.9,2.383,8.3,8.3,0,0,0,5.95-2.383,8.171,8.171,0,0,0,2.39-4.923h4.4a8.049,8.049,0,0,0,2.38,4.923,8.253,8.253,0,0,0,5.95,2.383,8.1,8.1,0,0,0,5.89-2.383,7.994,7.994,0,0,0,2.48-5.882A7.772,7.772,0,0,0,1358.17,357.336Zm-24.49,7.91a5.294,5.294,0,0,1-3.82,1.52,5.225,5.225,0,0,1-3.79-1.52,5.118,5.118,0,0,1-1.57-3.774,5.007,5.007,0,0,1,1.57-3.756,5.165,5.165,0,0,1,3.79-1.555,5.233,5.233,0,0,1,3.82,1.555,5.084,5.084,0,0,1,1.53,3.756A5.2,5.2,0,0,1,1333.68,365.246Zm8.49-5.579a2.808,2.808,0,0,1-4.02,0,2.6,2.6,0,0,1-.84-1.951,2.724,2.724,0,0,1,.84-2.013,2.917,2.917,0,0,1,4.02,0,2.724,2.724,0,0,1,.84,2.013A2.6,2.6,0,0,1,1342.17,359.667Zm12.53,5.579a5.163,5.163,0,0,1-3.77,1.52,5.391,5.391,0,0,1-3.84-1.52,5.168,5.168,0,0,1-1.54-3.774,5.055,5.055,0,0,1,1.54-3.756,5.327,5.327,0,0,1,3.84-1.555,5.1,5.1,0,0,1,3.77,1.555,4.988,4.988,0,0,1,1.59,3.756A5.1,5.1,0,0,1,1354.7,365.246Zm-23.61-1.3a0.508,0.508,0,0,1,.16.389,0.658,0.658,0,0,1-.11.4,0.571,0.571,0,0,1-.42.208q-3.96.06-4.57-3.817a0.548,0.548,0,0,1,.15-0.441,0.387,0.387,0,0,1,.36-0.224,0.886,0.886,0,0,1,.46.077,0.661,0.661,0,0,1,.21.381,2.975,2.975,0,0,0,3.35,2.832A0.589,0.589,0,0,1,1331.09,363.942Zm20.99,0a0.508,0.508,0,0,1,.16.389,0.575,0.575,0,0,1-.54.613,4.073,4.073,0,0,1-4.56-3.817,0.472,0.472,0,0,1,.16-0.441,0.363,0.363,0,0,1,.35-0.224,0.855,0.855,0,0,1,.46.077,0.7,0.7,0,0,1,.19.381,2.98,2.98,0,0,0,3.35,2.832A0.6,0.6,0,0,1,1352.08,363.942Z" transform="translate(-1321.47 -344.125)"/>
</svg>
