<svg xmlns="http://www.w3.org/2000/svg" width="34.96" height="23.781" viewBox="0 0 34.96 23.781">
  <defs>
    <style>
      .cls-1 {
        fill: #fff;
        fill-rule: evenodd;
      }
    </style>
  </defs>
  <path id="binoculars_icon_copy" data-name="binoculars icon copy" class="cls-1" d="M1236.07,256.513l-8.42-10.529a3.169,3.169,0,0,0-.43-0.521,4.1,4.1,0,0,0-2.95-1.2,4.215,4.215,0,0,0-4.1,3.357h-1.07a4.19,4.19,0,0,0-4.1-3.357,4.128,4.128,0,0,0-2.97,1.2,3.169,3.169,0,0,0-.43.521l-8.41,10.529a7.256,7.256,0,0,0-1.04,3.837,7.407,7.407,0,0,0,2.29,5.457,7.5,7.5,0,0,0,5.46,2.211,7.65,7.65,0,0,0,7.71-6.778h4.07a7.422,7.422,0,0,0,2.2,4.567,7.593,7.593,0,0,0,5.5,2.211,7.683,7.683,0,0,0,7.73-7.668A7.166,7.166,0,0,0,1236.07,256.513Zm-22.65,7.339a5.086,5.086,0,0,1-7.03,0,4.761,4.761,0,0,1-1.45-3.5,4.656,4.656,0,0,1,1.45-3.485,5.005,5.005,0,0,1,7.03,0,4.7,4.7,0,0,1,1.42,3.485A4.812,4.812,0,0,1,1213.42,263.852Zm7.86-5.176a2.6,2.6,0,0,1-3.72,0,2.439,2.439,0,0,1-.77-1.811,2.554,2.554,0,0,1,.77-1.867,2.694,2.694,0,0,1,3.72,0,2.515,2.515,0,0,1,.77,1.867A2.4,2.4,0,0,1,1221.28,258.676Zm11.58,5.176a4.76,4.76,0,0,1-3.48,1.41,4.97,4.97,0,0,1-3.55-1.41,4.821,4.821,0,0,1-1.43-3.5,4.713,4.713,0,0,1,1.43-3.485,4.913,4.913,0,0,1,3.55-1.442,4.707,4.707,0,0,1,3.48,1.442,4.637,4.637,0,0,1,1.47,3.485A4.741,4.741,0,0,1,1232.86,263.852Zm-21.83-1.21a0.478,0.478,0,0,1,.15.36,0.585,0.585,0,0,1-.1.377,0.53,0.53,0,0,1-.39.192,3.783,3.783,0,0,1-4.23-3.541,0.555,0.555,0,0,1,.15-0.409,0.347,0.347,0,0,1,.33-0.208,0.814,0.814,0,0,1,.42.072,0.576,0.576,0,0,1,.19.353,2.765,2.765,0,0,0,3.1,2.627A0.545,0.545,0,0,1,1211.03,262.642Zm19.4,0a0.454,0.454,0,0,1,.16.36,0.533,0.533,0,0,1-.12.377,0.528,0.528,0,0,1-.38.192,3.774,3.774,0,0,1-4.22-3.541,0.433,0.433,0,0,1,.15-0.409,0.337,0.337,0,0,1,.33-0.208,0.732,0.732,0,0,1,.41.072,0.618,0.618,0,0,1,.18.353,2.765,2.765,0,0,0,3.1,2.627A0.532,0.532,0,0,1,1230.43,262.642Z" transform="translate(-1202.16 -244.25)"/>
</svg>
