<?xml version="1.0" encoding="utf-8"?>
<!-- Generator: Adobe Illustrator 15.0.0, SVG Export Plug-In . SVG Version: 6.00 Build 0)  -->
<!DOCTYPE svg PUBLIC "-//W3C//DTD SVG 1.1//EN" "http://www.w3.org/Graphics/SVG/1.1/DTD/svg11.dtd">
<svg version="1.1" id="Layer_1" xmlns="http://www.w3.org/2000/svg" xmlns:xlink="http://www.w3.org/1999/xlink" x="0px" y="0px"
	 width="100px" height="19px" viewBox="0 0 100 19" enable-background="new 0 0 100 19" xml:space="preserve">
<g>
	<path fill="#FFFFFF" d="M18.714,4.864l-0.082,2.603l-6.791,7.383c2.837,0,4.637-0.029,5.672-0.087
		c-0.299,1.402-0.544,2.548-0.79,4.263c-1.364-0.113-3.492-0.142-5.619-0.142c-2.373,0-4.445,0.028-6.109,0.142l0.054-2.632
		l6.791-7.353c-2.973,0-4.064,0.027-5.291,0.057c0.272-1.316,0.464-2.775,0.654-4.234c2.155,0.085,3,0.115,5.809,0.115
		C15.604,4.979,17.078,4.95,18.714,4.864z"/>
	<path fill="#FFFFFF" d="M26.433,4.091c-4.418,0-7.801,3.949-7.801,8.671c0,3.546,2.046,6.265,6.028,6.265
		c4.446,0,7.8-3.947,7.8-8.697C32.46,6.809,30.469,4.091,26.433,4.091z M25.095,15.23c-0.981,0-1.553-0.885-1.553-2.631
		c0-2.604,1.063-4.692,2.372-4.692c0.955,0,1.527,0.858,1.527,2.632C27.441,13.113,26.404,15.23,25.095,15.23z"/>
	<path fill="#FFFFFF" d="M88.897,3.895c-4.477,0-7.902,4.001-7.902,8.784c0,3.594,2.072,6.348,6.107,6.348
		c4.503,0,7.901-3.999,7.901-8.813C95.004,6.649,92.987,3.895,88.897,3.895z M87.459,15.216c-0.982,0-1.555-0.885-1.555-2.632
		c0-2.604,1.063-4.692,2.372-4.692c0.956,0,1.529,0.859,1.529,2.633C89.806,13.099,88.768,15.216,87.459,15.216z"/>
	<path fill="#FFFFFF" d="M55.396,9.241c0.354-2.431,0.163-4.635-2.536-4.635c-1.964,0-4.091,1.66-5.591,4.436
		c0.327-2.29,0.136-4.436-2.536-4.436c-2.019,0-4.2,1.745-5.701,4.635c0.382-1.888,0.3-4.033,0.191-4.492
		c-1.555,0.258-2.918,0.402-4.827,0.459c0.054,1.315-0.027,3.032-0.272,4.663l-0.628,4.292c-0.245,1.688-0.518,3.635-0.79,4.863
		h5.072c0.027-0.743,0.219-1.917,0.355-2.947l0.436-2.945c0.356-1.918,1.882-4.178,3.055-4.178c0.683,0,0.655,0.658,0.464,1.888
		l-0.491,3.319c-0.246,1.688-0.518,3.635-0.791,4.863h5.127c0.027-0.743,0.191-1.917,0.328-2.947l0.436-2.945
		c0.354-1.918,1.882-4.178,3.055-4.178c0.681,0,0.654,0.629,0.545,1.488l-1.224,8.583h4.678L55.396,9.241z"/>
	<path fill="#FFFFFF" d="M79.895,14.536L79.35,17.91c-0.846,0.46-2.427,1.116-4.254,1.116c-3.109,0-3.737-1.659-3.245-5.179
		l0.788-5.665h-1.527l0.433-3.667l1.67-0.08l0.627-2.661L78.559,0l-0.601,4.435h3.245c-0.108,0.458-0.49,2.975-0.6,3.748H77.44
		l-0.709,5.236c-0.19,1.345-0.083,1.831,0.846,1.831C78.259,15.25,79.268,14.851,79.895,14.536z"/>
	<path id="a-copy-7_3_" fill="#FFFFFF" d="M62.003,16.357c1.715-0.211,2.897-1.866,3.181-3.518l0.048-0.442
		c-0.737-0.165-1.804-0.292-2.838-0.165c-0.984,0.121-1.805,0.53-2.244,1.122c-0.333,0.427-0.5,0.935-0.426,1.541
		C59.835,15.806,60.84,16.501,62.003,16.357z M60.539,18.974c-2.423,0.299-4.02-0.662-4.498-2.853
		c-0.303-1.376,0.116-2.943,0.846-3.879c0.978-1.224,2.571-2.01,4.515-2.248c1.564-0.192,2.882-0.098,4.115,0.137l0.051-0.212
		c0.035-0.338,0.071-0.676,0.021-1.081c-0.126-1.037-0.944-1.654-2.966-1.406c-1.361,0.167-2.659,0.659-3.666,1.22l-0.977-2.959
		c1.363-0.783,3.083-1.379,5.051-1.621c3.762-0.462,6.401,0.739,6.74,3.494c0.09,0.733,0.102,1.51,0.007,2.215
		c-0.483,3.409-0.792,5.972-0.927,7.691c-0.021,0.266-0.02,0.724,0.006,1.372l-4.667-0.005c0.1-0.269,0.188-0.632,0.268-1.09
		c0.052-0.299,0.089-0.681,0.113-1.139C63.584,17.963,62.229,18.766,60.539,18.974z"/>
</g>
</svg>
