<svg id="Layer_1" xmlns="http://www.w3.org/2000/svg" width="156.1" height="60" viewBox="0 0 156.1 60"><style>.st0{fill:#fff}.st1{fill:#360c3a}</style><path class="st0" d="M127.4 60s13.2-17 17.9-27.6l-4.1-1S152.4 13.8 156.1 0H0v60h127.4z"/><path class="st1" d="M13.9 11.6c2 .9 3.2 2 3.3 2.3-.1-.5-.4-2.9-.7-4.4 1.1.8 3.7 2.6 4.7 3.2.4-1.1 1.6-4.7 1.6-4.7s2.3 3.6 2.6 4.1c.4-.4 3.1-3.3 3.7-4.1.1 1.7.3 4.1.4 4.5.1-.3 1.1-1.7 2.8-2.8-.8 1.5-1.1 3.3-1.2 5.1-1.7-.4-3.3-.8-5.3-.8-3.5 0-6.8.9-9.6 2.6-.5-1.8-1.3-3.7-2.3-5zm26.7 30.7L39 40.5c-.4 4.7-2.6 8.5-6.9 11.3l-.7-2.6c-3.5 2.6-9.6 4.1-14.7 1.2.7-3.3 1.2-6.7 0-10.7-2.8 4.5-5.5 6.3-5.5 6.3-1.9-3.3-1.8-9.8-1.1-11.7L7 35.5c0-2.3 1.6-6.9 3.9-9.5l-2-.4c1.3-2.7 3.3-5.2 6-7.1-.8 1.2-.8 4.1 1.5 5.2-.9-1.7-1.1-3.6-.1-4.8 1.1-1.1 2.6-.7 3.6.1-.4-.9-1.2-2.1-2.6-2.1 2.6-1.3 5.5-2.1 8.5-2.1.5 0 1.1 0 1.8.1.9.4 2.3 1.7 2.8 2.5 0 0 0-.9-.4-2.1 3.3.8 4.9 2.3 5.6 2.8.1 1.5.5 2.4 1.1 3.7-1.1-1.2-3.9-3.2-5.2-3.6 0 0-.1 1.2-.5 1.9-2.6-1.9-3.9-2.4-3.9-2.4-2.8.4-4.8 1.6-5.7 2.5l.9.8c-1.8.5-2.8 2-2.8 2l1.6.3s-.1 1.8 2.1 2.8c1.9 1.1 4.8-.3 7.3.8-1.8-2-2.8-2.8-2.8-2.8s-.7-.1-1.2-.1-1.5.1-2.5-.3c-.4-.3-1.1-.5-1.5-.8 0 0 1.2-1.2 2.9-1.6 0 0 1.6.4 2.8 1.3.9-.8 1.7-.8 1.7-.8s-.9.8-.5 1.8c1.2 1.1 2.6 2.7 2.6 2.7 1.5-.8 4.4-.5 4.9.1-.8-1.1-1.9-1.9-2.7-2.6-.1-.4-1.1-1.7-1.2-1.9 0 0 .9.4 1.8 1.1.3-.4.7-.7 1.2-.8.7.5.8 1.3.7 1.5-.4.4-.5.4-.5.4l1.5 1.6.1-1.1c3.3 5 5.2 10.6 2.8 17.7zm-6.4-10.5v-2.6s-1.1-.4-2.4-1.3c-2.5.4-5.3 2.7-5.3 2.7s1.1 1.9 2.1 3.9c2 .3 4.7-1.9 5.6-2.7zm2.4 4.5s-.3-1.1-1.1-2h-1.9s-2.6 2.3-4.1 2.3c0 0 .9 1.6 1.3 2.5.9-.3 2.4-.9 2.9-1.6 0 0 .4 1.3.4 2.7 1-.5 2.1-1.7 2.5-3.9zm.8-8.2c-1.1.8-1.8 1.2-1.8 1.2v2.6c.7.8 1.3 1.3 1.9 2.6 1-1.8.8-4.2-.1-6.4zm10.1 2.2V15.5h4.8c3.1 0 5.3 1.8 5.3 4.9s-2.3 4.9-5.3 4.9h-1.8v4.8c.1.2-3 .2-3 .2zm3-7.6h1.7c1.5 0 2.6-.8 2.6-2.3s-1.1-2.3-2.6-2.3h-1.7v4.6zm45.7 23.8c-2.1 0-4.8-1.2-4.8-4.8v-5.2H94v4.9c0 1.7.8 2.5 2.1 2.5 1.2 0 2.1-.9 2.1-2.5v-4.9h2.6v5.2c.1 3.5-2.5 4.8-4.6 4.8m-23.3 0c-2.6 0-4.8-2.4-4.8-5.1 0-2.7 2.3-4.9 4.8-4.9 1.5 0 2.5.5 2.9 1.5l.4-1.3h2.4v9.7h-2.4l-.3-1.4c-.5.8-1.6 1.5-3 1.5m.6-7.7c-1.5 0-2.6 1.1-2.6 2.6S72 44 73.5 44s2.6-1.1 2.6-2.6-1.1-2.6-2.6-2.6m17.7-18.4h2.6v9.7h-2.6v-9.7zm1.5-1.3c-1.1 0-1.7-.8-1.7-1.7 0-1.1.8-1.7 1.7-1.7 1.1 0 1.7.8 1.7 1.7-.1 1-.8 1.7-1.7 1.7m-5.6 5.4c0-1.1-.5-1.7-1.6-1.7s-1.6.7-1.6 1.8v5.7h-2.6v-5.9c0-1.1-.5-1.7-1.6-1.7s-1.6.7-1.6 1.8v5.7h-2.6v-9.7h2.4l.4 1.3s.5-1.6 2.5-1.6c1.1 0 2.1.4 2.7 1.5l.1.1.1-.1c1.1-1.3 2.1-1.5 2.8-1.5 2.1 0 3.5 1.6 3.5 3.7v6.3h-2.6v-5.9c.1.2-.3.2-.3.2zm18.9 5.8v-9.7h2.4l.4 1.5c.4-.9 1.3-1.6 2.5-1.6.3 0 .5 0 .8.1v2.6c-.4-.1-.7-.1-1.1-.1-1.3 0-2.3.8-2.3 2.4v4.8H106zm-47.5 0v-9.7h2.4l.4 1.5c.4-.9 1.3-1.6 2.5-1.6.3 0 .5 0 .8.1v2.6c-.5-.2-.8-.2-1.2-.2-1.3 0-2.3.8-2.3 2.4v4.8l-2.6.1zm-11 16V31.8h2.8v11.7h6.3v2.7l-9.1.1zm14.9.2c-2.9 0-5.2-2.1-5.2-5.1 0-2.7 2-5.2 5.2-5.2 2.4 0 4.8 1.8 4.8 5.1 0 .3 0 .5-.1 1.1H60c.3 1.1 1.2 1.8 2.5 1.8 1.1 0 1.9-.4 2.6-1.1l1.7 1.7c-1.1 1-2.7 1.7-4.4 1.7m-.1-8c-1.1 0-2.1.7-2.4 1.7h4.5c-.1-.9-1-1.7-2.1-1.7m44.8 8c-2.9 0-5.2-2.1-5.2-5.1 0-2.7 2-5.2 5.2-5.2 2.4 0 4.8 1.8 4.8 5.1 0 .3 0 .5-.1 1.1h-7.2c.3 1.1 1.2 1.8 2.5 1.8 1.1 0 1.9-.4 2.6-1.1l1.7 1.7c-1.1 1-2.6 1.7-4.3 1.7m-.1-8c-1.1 0-2.1.7-2.4 1.7h4.5c-.1-.9-.9-1.7-2.1-1.7m-6.8-8.1c-2.9 0-5.2-2.1-5.2-5.1 0-2.7 2-5.2 5.2-5.2 2.4 0 4.8 1.8 4.8 5.1 0 .3 0 .5-.1 1.1h-7.2c.3 1.1 1.2 1.8 2.5 1.8 1.1 0 1.9-.4 2.6-1.1l1.7 1.7c-1.1 1-2.7 1.7-4.3 1.7m-.2-7.9c-1.1 0-2.1.7-2.4 1.7h4.5c-.1-.9-1-1.7-2.1-1.7m-30.2 7.9c-2.9 0-5.2-2.1-5.2-5.1 0-2.7 2-5.2 5.2-5.2 2.4 0 4.8 1.8 4.8 5.1 0 .3 0 .5-.1 1.1h-7.2c.3 1.1 1.2 1.8 2.5 1.8 1.1 0 1.9-.4 2.6-1.1l1.7 1.7c-1.2 1-2.6 1.7-4.3 1.7m-.1-7.9c-1.1 0-2.1.7-2.4 1.7h4.5c-.1-.9-1.1-1.7-2.1-1.7M85 38.8c-1.5 0-2.6 1.1-2.6 2.6S83.5 44 85 44s2.6-1.1 2.6-2.6-1.1-2.6-2.6-2.6m2.5-1.1l.4-1.2h2.4v9.2c0 1.8-.5 3.1-1.7 4.1-.9.7-2.1 1.2-3.6 1.2-2 0-3.5-.7-4.7-1.8l1.6-2.1c.8.7 1.7 1.3 2.9 1.3 2 0 2.8-1.1 2.8-2.5v-.7c-.8.9-1.8 1.2-2.7 1.2-2.7 0-4.9-2.3-4.9-5.1s2.3-4.9 4.9-4.9c1-.1 2 .5 2.6 1.3"/></svg>