<?xml version="1.0" encoding="utf-8"?>
<!-- Generator: Adobe Illustrator 15.1.0, SVG Export Plug-In  -->
<!DOCTYPE svg PUBLIC "-//W3C//DTD SVG 1.1//EN" "http://www.w3.org/Graphics/SVG/1.1/DTD/svg11.dtd" [
	<!ENTITY ns_flows "http://ns.adobe.com/Flows/1.0/">
]>
<svg version="1.1"
	 xmlns="http://www.w3.org/2000/svg" xmlns:xlink="http://www.w3.org/1999/xlink" xmlns:a="http://ns.adobe.com/AdobeSVGViewerExtensions/3.0/"
	 x="0px" y="0px" width="160px" height="90px" viewBox="0 0 160 90" overflow="visible" enable-background="new 0 0 160 90"
	 xml:space="preserve">
<defs>
</defs>
<rect fill="#EDEDED" width="160" height="90"/>
<path fill="#FFFFFF" d="M44.1938477,44.9716797h-0.5585938v2.8271484h0.5585938
	c0.2719727,0,0.3994141-0.1269531,0.3994141-0.3974609h0.0009766v-2.0302734
	C44.5942383,45.1210938,44.4658203,44.9716797,44.1938477,44.9716797z"/>
<path fill="#FFFFFF" d="M50.1445312,51.8193359V37.1132812c0,0.0048828,0.0078125-2.3447266-2.3427734-2.3447266h-0.0029297
	H33.7963867c0,0-2.3447266,0-2.3447266,2.3447266v14.0761719c0,0,0,2.3496094,2.3505859,2.3447266h14.6323242l1.2285156,1.234375
	l1.7148438-1.7148438L50.1445312,51.8193359z M38.6040039,49.7421875h-1.3500977
	c-1.3500977,0.0087891-2.050293-0.6914062-2.050293-2.0410156v-7.0986328c0-1.3662109,0.675293-2.0419922,2.0419922-2.0419922
	h1.3188477c1.3666992,0,2.0419922,0.6757812,2.0419922,2.0419922v2.5751953h-2.1674805v-2.3388672
	c0-0.2431641-0.1337891-0.3935547-0.4003906-0.3935547h-0.2519531c-0.2661133,0-0.3925781,0.1259766-0.3925781,0.3935547v6.6259766
	c0,0.2685547,0.1264648,0.3935547,0.3925781,0.3935547h0.2827148c0.2675781,0,0.3925781-0.125,0.3925781-0.3935547v-2.6699219
	h2.1679688v2.90625l0.0219727,0.0175781C40.6518555,49.0683594,39.9541016,49.71875,38.6040039,49.7421875z M46.8139648,47.640625
	l-0.012207-0.0224609c0,1.3994141-0.6748047,2.1005859-2.0644531,2.0986328h-3.3222656V38.5351562h3.2905273
	c1.3891602,0,2.0761719,0.6865234,2.0761719,2.0761719v1.6621094c0,0.9570312-0.3349609,1.4365234-0.9257812,1.6601562
	c0.6704102,0.1923828,0.9580078,0.6230469,0.9580078,1.4375V47.640625z"/>
<path fill="#FFFFFF" d="M44.5625,42.71875v-0.0146484v-1.8388672c0-0.2490234-0.1279297-0.3984375-0.3999023-0.3984375h-0.5273438
	v2.6513672h0.5273438C44.4345703,43.1181641,44.5625,42.9902344,44.5625,42.71875z"/>
<path fill="#FFFFFF" d="M74.4370117,38.0498047l-1.5068359,11.4638672h2.3286133l0.159668-1.6269531h1.1376953l0.1757812,1.6269531
	h2.5170898l-1.5068359-11.4638672H74.4370117z M76.3310547,45.6220703h-0.6757812l0.3330078-3.2949219L76.3310547,45.6220703z"/>
<path fill="#FFFFFF" d="M65.6259766,44.0683594c0.4975586-0.3066406,0.7319336-0.8378906,0.7319336-1.6425781v-2.1533203
	c0-1.4746094-0.7475586-2.2226562-2.222168-2.2226562h-3.4819336v11.4638672h2.5283203v-4.2285156H63.59375
	c0.1796875,0,0.2529297,0.0732422,0.2529297,0.2519531v3.9765625h2.5268555v-3.9931641
	C66.3735352,44.7832031,66.1401367,44.3212891,65.6259766,44.0683594z M63.1821289,40.2910156h0.3955078
	c0.1796875,0,0.2529297,0.0732422,0.2529297,0.2519531l-0.0009766,2.2978516c0,0.1904297-0.0610352,0.2519531-0.2519531,0.2519531
	h-0.3955078V40.2910156z"/>
<path fill="#FFFFFF" d="M59.4267578,44.2890625h-2.4951172v2.859375c0,0.1914062-0.0615234,0.2529297-0.2524414,0.2529297
	h-0.2871094c-0.1904297,0-0.2514648-0.0615234-0.2514648-0.2529297v-6.7324219c0-0.1914062,0.0610352-0.2519531,0.2514648-0.2519531
	h0.2548828c0.1801758,0,0.2529297,0.0722656,0.2529297,0.2519531v2.5244141h2.4970703v-2.7646484
	c0-1.4736328-0.7475586-2.2207031-2.222168-2.2207031h-1.340332c-1.4741211,0-2.2216797,0.7470703-2.2216797,2.2207031v7.2128906
	c0,1.4482422,0.7382812,2.1953125,2.1972656,2.2197266h1.3930664c1.4692383,0,2.2456055-0.7744141,2.2456055-2.2402344
	l-0.0219727-0.3164062V44.2890625z"/>
<polygon fill="#FFFFFF" points="70.1289062,44.8378906 71.9628906,44.8378906 71.9628906,42.5498047 70.1289062,42.5498047 
	70.1289062,40.3388672 72.0429688,40.3388672 72.0429688,38.0498047 67.6000977,38.0498047 67.6000977,49.5136719 
	72.074707,49.5136719 72.074707,47.2255859 70.1289062,47.2255859 "/>
<polygon fill="#FFFFFF" points="79.3061523,40.3388672 80.6630859,40.3388672 80.6630859,49.5136719 83.1914062,49.5136719 
	83.1914062,40.3388672 84.5478516,40.3388672 84.5478516,38.0498047 79.3061523,38.0498047 "/>
<rect x="85.5986328" y="38.0498047" fill="#FFFFFF" width="2.5292969" height="11.4638672"/>
<path fill="#FFFFFF" d="M119.6914062,37.9550781h-2.0361328c-0.0185547,0-1.9208984,0.0214844-1.9208984,1.9208984v7.8027344
	c0,0.0195312,0.0214844,1.8964844,1.8964844,1.9228516h2.0224609c0.0166016,0.0009766,0.0332031,0.0019531,0.0527344,0.0019531
	c0.6113281,0,1.7333984-0.3535156,1.8779297-1.6494141l0.0292969,0.0224609v-8.1005859
	C121.6132812,39.8564453,121.5917969,37.9550781,119.6914062,37.9550781z M119.171875,40.3447266l-0.0068359,6.8681641
	c0,0.2705078-0.2285156,0.2958984-0.2978516,0.296875h-0.3896484c-0.2695312,0-0.2939453-0.2285156-0.2949219-0.296875v-6.8681641
	c0-0.2714844,0.2255859-0.2958984,0.2958984-0.296875h0.3886719
	C119.1396484,40.0478516,119.1689453,40.2783203,119.171875,40.3447266z"/>
<path fill="#FFFFFF" d="M128.2929688,48.3564453v-8.4804688c0-0.0195312-0.0224609-1.9208984-1.921875-1.9208984h-2.0351562
	c-0.0195312,0-1.921875,0.0214844-1.921875,1.9208984v7.8027344c0,0.0195312,0.0214844,1.8964844,1.8974609,1.9228516h2.7119141
	l0.8066406,0.8066406l1.2705078-1.2441406L128.2929688,48.3564453z M125.8515625,40.3447266l-0.0058594,6.8681641
	c0,0.2705078-0.2294922,0.2958984-0.2978516,0.296875h-0.390625c-0.2705078,0-0.2949219-0.2285156-0.2949219-0.296875v-6.8681641
	c0-0.2714844,0.2246094-0.2958984,0.2958984-0.296875h0.3896484
	C125.8271484,40.0478516,125.8496094,40.2988281,125.8515625,40.3447266z"/>
<polygon fill="#FFFFFF" points="113.4873047,38.0498047 110.9589844,38.0498047 110.9589844,49.5136719 115.0986328,49.5136719 
	115.0986328,47.2255859 113.4873047,47.2255859 "/>
<polygon fill="#FFFFFF" points="92.3085938,44.6064453 91.6445312,38.0498047 89.078125,38.0498047 90.6005859,49.3857422 
	90.6171875,49.5136719 93.8105469,49.5136719 95.3271484,38.2158203 95.3496094,38.0498047 92.9746094,38.0498047 "/>
<polygon fill="#FFFFFF" points="98.8125,44.8378906 100.6474609,44.8378906 100.6474609,42.5498047 98.8125,42.5498047 
	98.8125,40.3388672 100.7275391,40.3388672 100.7275391,38.0498047 96.2851562,38.0498047 96.2851562,49.5136719 
	100.7597656,49.5136719 100.7597656,47.2255859 98.8125,47.2255859 "/>
<path fill="#FFFFFF" d="M109.0253906,43.5732422c0.4814453-0.3066406,0.7070312-0.8369141,0.7070312-1.6416016v-1.6591797
	c0-1.4746094-0.7470703-2.2226562-2.2216797-2.2226562h-3.4335938v11.4638672h3.4707031
	c1.2910156,0,2.0195312-0.5898438,2.171875-1.7548828l0.0449219,0.0761719v-2.8085938
	C109.7646484,44.2880859,109.5341797,43.8271484,109.0253906,43.5732422z M106.5878906,42.6201172v-2.3535156h0.3808594
	c0.1796875,0,0.2519531,0.0722656,0.2519531,0.2509766v1.8505859c0,0.1904297-0.0605469,0.2519531-0.2519531,0.2519531H106.5878906z
	 M106.5878906,44.7900391H107c0.1787109,0,0.2519531,0.0722656,0.2519531,0.2519531v2.0273438
	c0,0.1894531-0.0615234,0.25-0.2519531,0.25h-0.4121094V44.7900391z"/>
</svg>
